<mxfile modified="2020-04-30T10:54:29.594Z" host="app.diagrams.net" agent="5.0 (Windows NT 10.0; Win64; x64) AppleWebKit/537.36 (KHTML, like Gecko) Chrome/81.0.4044.129 Safari/537.36" etag="94TAkEDuqEGRdVox6Y15" version="13.0.2" type="github">
  <diagram name="Lead to Quote Others- Reuse" id="2gQMBwwnbZYFb2pfp6Fh">
    <mxGraphModel dx="1752" dy="1706" grid="1" gridSize="10" guides="1" tooltips="1" connect="1" arrows="1" fold="1" page="1" pageScale="1" pageWidth="827" pageHeight="1169" math="0" shadow="0">
      <root>
        <mxCell id="RU4EYPsR_D7hi8bJ4MLe-0" />
        <mxCell id="RU4EYPsR_D7hi8bJ4MLe-1" parent="RU4EYPsR_D7hi8bJ4MLe-0" />
        <mxCell id="RU4EYPsR_D7hi8bJ4MLe-14" value="&lt;b style=&quot;font-size: 20px;&quot;&gt;Other CRM&lt;/b&gt;" style="rounded=1;whiteSpace=wrap;html=1;verticalAlign=top;strokeWidth=3;strokeColor=#020912;fontSize=20;" parent="RU4EYPsR_D7hi8bJ4MLe-1" vertex="1">
          <mxGeometry x="-445" y="-10" width="310" height="310" as="geometry" />
        </mxCell>
        <mxCell id="RU4EYPsR_D7hi8bJ4MLe-2" value="&lt;b style=&quot;font-size: 32px;&quot;&gt;Invoicing&lt;/b&gt;" style="rounded=1;whiteSpace=wrap;html=1;verticalAlign=top;strokeWidth=1;strokeColor=#020912;dashed=1;fontSize=32;" parent="RU4EYPsR_D7hi8bJ4MLe-1" vertex="1">
          <mxGeometry x="900" y="-120" width="280" height="520" as="geometry" />
        </mxCell>
        <mxCell id="RU4EYPsR_D7hi8bJ4MLe-3" value="&lt;b style=&quot;font-size: 32px;&quot;&gt;Order Management&lt;/b&gt;" style="rounded=1;whiteSpace=wrap;html=1;verticalAlign=top;strokeWidth=1;strokeColor=#020912;dashed=1;fontSize=32;" parent="RU4EYPsR_D7hi8bJ4MLe-1" vertex="1">
          <mxGeometry x="600" y="-120" width="280" height="520" as="geometry" />
        </mxCell>
        <mxCell id="RU4EYPsR_D7hi8bJ4MLe-4" value="&lt;b style=&quot;font-size: 32px;&quot;&gt;Quoting&lt;/b&gt;" style="rounded=1;whiteSpace=wrap;html=1;verticalAlign=top;strokeWidth=1;strokeColor=#020912;dashed=1;fontSize=32;" parent="RU4EYPsR_D7hi8bJ4MLe-1" vertex="1">
          <mxGeometry x="300" y="-120" width="280" height="520" as="geometry" />
        </mxCell>
        <mxCell id="RU4EYPsR_D7hi8bJ4MLe-5" value="&lt;b style=&quot;font-size: 32px;&quot;&gt;Design&lt;/b&gt;" style="rounded=1;whiteSpace=wrap;html=1;verticalAlign=top;strokeWidth=1;strokeColor=#020912;dashed=1;fontSize=32;" parent="RU4EYPsR_D7hi8bJ4MLe-1" vertex="1">
          <mxGeometry x="-90" y="-120" width="360" height="520" as="geometry" />
        </mxCell>
        <mxCell id="RU4EYPsR_D7hi8bJ4MLe-6" value="&lt;b style=&quot;font-size: 32px;&quot;&gt;Lead Management&lt;/b&gt;" style="rounded=1;whiteSpace=wrap;html=1;verticalAlign=top;strokeWidth=1;strokeColor=#020912;dashed=1;fontSize=32;" parent="RU4EYPsR_D7hi8bJ4MLe-1" vertex="1">
          <mxGeometry x="-480" y="-120" width="380" height="520" as="geometry" />
        </mxCell>
        <mxCell id="RU4EYPsR_D7hi8bJ4MLe-7" value="&lt;b style=&quot;font-size: 20px;&quot;&gt;2020 Fusion&lt;/b&gt;" style="rounded=1;whiteSpace=wrap;html=1;verticalAlign=top;strokeWidth=3;strokeColor=#020912;fontSize=20;" parent="RU4EYPsR_D7hi8bJ4MLe-1" vertex="1">
          <mxGeometry x="-60" y="25" width="310" height="315" as="geometry" />
        </mxCell>
        <mxCell id="RU4EYPsR_D7hi8bJ4MLe-8" value="&lt;b style=&quot;font-size: 20px;&quot;&gt;C2O&lt;/b&gt;" style="rounded=1;whiteSpace=wrap;html=1;verticalAlign=top;strokeWidth=3;strokeColor=#020912;fontSize=20;" parent="RU4EYPsR_D7hi8bJ4MLe-1" vertex="1">
          <mxGeometry x="320" y="20" width="240" height="120" as="geometry" />
        </mxCell>
        <mxCell id="RU4EYPsR_D7hi8bJ4MLe-9" value="&lt;b style=&quot;font-size: 20px;&quot;&gt;SAP&lt;/b&gt;" style="rounded=1;whiteSpace=wrap;html=1;verticalAlign=top;strokeWidth=3;strokeColor=#020912;fontSize=20;" parent="RU4EYPsR_D7hi8bJ4MLe-1" vertex="1">
          <mxGeometry x="320" y="219" width="680" height="120" as="geometry" />
        </mxCell>
        <mxCell id="RU4EYPsR_D7hi8bJ4MLe-10" value="&lt;b style=&quot;font-size: 20px;&quot;&gt;SAGE&lt;/b&gt;" style="rounded=1;whiteSpace=wrap;html=1;verticalAlign=top;strokeWidth=3;strokeColor=#020912;fontSize=20;" parent="RU4EYPsR_D7hi8bJ4MLe-1" vertex="1">
          <mxGeometry x="620" y="20" width="500" height="120" as="geometry" />
        </mxCell>
        <mxCell id="RU4EYPsR_D7hi8bJ4MLe-11" value="" style="shape=image;verticalLabelPosition=bottom;labelBackgroundColor=#ffffff;verticalAlign=top;aspect=fixed;imageAspect=0;image=data:image/png,iVBORw0KGgoAAAANSUhEUgAAAlgAAACSCAYAAACZirQnAAAgAElEQVR4Ae2d29NfVXnHnem/0Hsv2s70Ak8g1NZDioIgKHiKBLxxaobq2IrYGZ2CXpQ2Q8WRUUcdkLHC0EEFPEQxWgZJO3WIXEgd0zFvhAAmmBAScz5AEtidb+hK1rveZx33Ou3f/q6Z3+z924e11/rudfjsZz177VcMDFYFTu7ZPJzYtWk4vnTP6d+Rn98wqN+B9VcMvt/hjdedOf745jtOx4H4EC8DFaACVIAKUAEqsLgKvGJxsxaXM0APQOroo+uGQw+u9cKTD65C9uM6uB6ui+u/dOJIXKJ5NBWgAlSAClABKtClArMFLAVUsEiFwFCtY2D1grWLVq4u6wsTRQWoABWgAlQgSIFZARaG54499sXh4IY1XUGVDd6QTli4Xtj+EK1bQcWZB1EBKkAFqAAV6EOBhQcsWIKmBFUu2EI+AIkMVIAKUAEqQAWoQN8KLCRgwZfp+W3rq/lS2aCo1Hb4bsFviz5bfVcupo4KUAEqQAXmq8BCAdaLR3ef9l+ayhBgDgCDVQv5ZqACVIAKUAEqQAX6UWAhAAuAAdDIASxTjYOg1U+lYkqoABWgAlSACkwasDBENnewMoGQoMVKTQWoABWgAlSgvQKTBCyAFXyQ5jQUaIKU7z99tNpXLqaAClABKkAF5qvA5AALb9HVmgjUBzG97weAYooHBipABagAFaACVKCuApMBLFitMCdU71DTY/owmSod4etWLF6NClABKkAF5q3AJAALVisOB/q/feiCO+iHqSsYqAAVoAJUgApQgfIKdA1YtFqNgyoJuGDNgq4MVIAKUAEqQAWoQDkFugWsUweepK/V+vyABeiCNYvfOixXqRgzFaACVIAKUIEuAQuO2ZL1hdvyAhfeNGSgAlSAClABKkAF8ivQHWBxXqu8EOWDUrw4wCHD/BWLMVIBKkAFqMC8FegGsNDJwz/IBwTcnx/ADm+8jpA173aAuacCVIAKUIHMCnQBWIArdPKEp/zwFKop/LLg98ZABagAFaACVIAKjFegOWChU+cUDO3ASgcwQtb4CsUYqAAVoAJUgApAgaaARbjqA6wIWWwMqAAVoAJUgArkVaAZYM0Zrp677R3Dnvvf0e2QKC1ZeSsZY6MCVIAKUIH5KdAEsOYMV7AW/f4zFw9LN72ekDW/+sYcUwEqQAWowEwUqA5YcGifu8/VzusvHbZcf+6wdPtfELJmUtGYTSpABagAFZiXAlUBq8XbggfXXz4c/sHFAb+LhsPff6v3d+C7fz1qaG/f99817Pzby4elD712+M1tF0wCsnDfGKgAFaACVIAKUIFwBaoCVot5rgBXpzau9v5ObnjLcOK+Vwb9nr5r1SjI2nnNFcPSla8+DVhTgCzOkxVeoXgkFaACVIAKUAEoUA2wWs3QXgKwAEWpkLX/W1cOAKytq845A1hTgCzM+M5ABagAFaACVIAKhClQBbBafluwFGClQta+299zBrC23Pz6SUEWv10YVql4FBWgAlSAClCB4oCFNwb1eZZqr5cErBTI+sMt7z8LWJ86dxlgTcGSdWLXJtYaKkAFqAAVoAJUwKNAUcCCc/ShB9cuNGDFQtbeGz9wBrCWPva6FYDVO2ThDdAXj+72FCvupgJUgApQASowbwWKAhb8dmpbrMzrlbZgAYhiIGvP3605C1irzzq6q3jUsucpHPCyAgMVoAJUgApQASpgV6AYYGEoyYSdFv9rAVYoZD334avPANbWy14lWrCmAFn0x7JXKu6hAlSAClABKlAEsHqaTLQmYPkga9833jMsAyy8Sfjl8ycLWfCvY6ACVIAKUAEqQAVWKlAEsHoYGlTWstqA5YKsfV957wrA2nLTeU7AQny9DhdyqHBlheIWKkAFqAAVoAJQIDtg9TI0OBaw7vzsm4ZL3n21+FNDeK6lNE/WH9a9fyVgXb/yTUIp3l4h6/lt61mTqAAVoAJUgApQAUOBrIDVw1uDCqzUMtWC9cuvvHoAZEk/CYCkbSZk7fnUB1YA1tK1L38yRzrf3NYjZOGtQn5Kx6hV/EsFqAAVoAKzVyArYMHxWYFNL8tUwHJ9NscEH9d/HbKe+8ialYDleJNQirdHyMIs/QxUgApQASpABajAWQWyAVZPju063LUGLEDSaci6/8rTcGU6uW+9yP0m4VQgi3Njna1UXKMCVIAKUAEqkA2wWn1rUIcpab0HwAIk7fjS22XACniTcAqQRYd3NiZUgApQASpABc4qkAWwYL2Q4KaHbTkAy3R4l4DHt+3Jf3mbFbBC3iSU4u9tuPDkns1nSxbXqAAVoAJUgArMWIEsgNWr9QqAlwOwTId3CXZ8257+7KV2wAp8k1C6Rk+QRSvWjFsSZp0KUAEqQAWWKTAasHq2XuUCLNPhXQId37bff+LdVsCyfZPQF6fa3xNk0Yq1rH7xDxWgAlSACsxUgdGAdXzzHd0OD/YEWM9+dLUdsCLfJFRgpS97gSy+UTjTloTZpgJUgApQgWUKjAKsXt8c1H2/cgwR5rBg4e1B9dt5zRXD1lXnnP15vkmog5RrvRfI4huFy+oY/1ABKkAFqMAMFRgFWJjFW4eZHtdTAct0bNdndXdBjrTvt7e++QxcrZim4f9BSzovZVsPkAWrJgMVoAJUgApQgTkrMAqwDj24dmEBy3Rs12d0jwWfJ26+0AtYW25+vfebhKHXbQ1ZmN2dgQpQASpABajAnBVIBiw4M/dosTLTlGrBMocF9f+hoKOO098gtFmwtnzG/9FnFV/IsjVkvbD9oTnXK+adClABKkAFZq5AMmD1PDWDDlk9ANaOT7/Ta8Ea+yahBF0tIevoo+tmXrWYfSpABagAFZizAsmAhWEgHWR6Xe8BsPQpGmwWrKUPhX/0WYIp27aWkMWPQM+5aWHeqQAVoALzViAJsE7s2jQJuAL05QAs0+HdBjO27buvvcpvwcowVYPt+q0gCy9BMFABKkAFqAAVmKMCSYA1leHBXIBlOrzbQMa2XU3PoJYrpmnAm4QJH322XU/a3gKyOLP7HJsU5pkKUAEqQAWgQBJgTWV4MBdg6Q7uWJcAxrbt8c+vWma9sg0RYl4sWxy5treALA4TsqGhAlSAClCBOSoQDVhTeXtQ+YTlGCKsBVg5p2qwQVltyOLbhHNsVphnKkAFqAAViAas40v3TMb/qgcLljlFg8uCteWmvFM19ABZU/l0ziObNg0P/exnwz+vWzd84pOfXPa74cYbT+/D/t7C87/43IDfkR9cNez/3B9Zf+q4E0v3dZWFqeqOsoDfnXfdtaysmGVHHfc/v/pVV7qHJuaFX33dWqZc5S1m3+Fvvz00ObM+7uhPP7LiXsxakAlkPhqw4FejrENTWKZasEzH9tSZ3GMAq8RUDa0hC5PR9hqOHjs2/OiBB5wdpNlh4v937r132L5jR5NsvXR832mgOnTX+Ssa25hODUAG6GoRpqg70gxY+sKtt0aXF70MAcgQz1QCAaufO0XA6udehKYkGrCmAFV6GlMBy3RsT53J3ZyiwWXBqglYAK9aw4U9fpsQnZze8aWsA7RqhVO7fum1UsUAln7ssf/8xwHgViNMTXeAtM9KlVJ2cA7gHuDWcyBg9XN3CFj93IvQlEQB1tT8rwBaqYBl+l3p/21WIWl7FGAVnKpBSlstyOrJDwsd2tduu200XKlOFRaNvXv3hta36ONe3L+tGFjpkIV1gFapMDXdcU9LgZUqO2oJ0Oo1ELD6uTMErH7uRWhKogBrav5XPQCWmppBX4rTNKw6Z1hqAFg1IKuXjz+jkx87xKM6RX0JH60SQ4Y1OjcTsg7e/mfDyafzfuZoarrDL0y/vzXW4fu3devW0Ha72nFSGURHz1BfAQJWfc3HXjEKsPD5E334bQrrrS1YOlipdRtg1ZiqoYUlq5f5sErAlep80UHmsmRhuM7ntG6CUe7/Of2zpqI7QLCW1UqVG3PZm38WAWtsF5vvfAJWPi1rxRQFWHBYngJU6WnMAVimw7sNUszt0hxYgKweAau0JatWgbZdJ8SZHSCADg4drR7wBhj8rczO0PyP88cGDAnGOrCrNwRtflR4cxDHxEIbjh8bpqI74DgWBFFWpPKiNEO5wf5YaMPxvQQCVi93YhgIWP3ci9CURAGWDi5TWc8BWKbDuwlStv8pgFVjLixbektC1qkDT4aWyezHYejFhCHzP4aFfAHDgNI0Dnpc6FBTA+AKQ3Qh1ijAT+pQHmDrwJf+OOg6Y16hn4rugCvffVX3GPCTOpSHsoHhZBWXawk/wR4CAauHu/ByGghY/dyL0JQEA9YUHdwBgTkAS3dwx7oLUPR9T/3TxStmcfdZsGrNhaWn01wv8XYhyk+r4HNqj+kwYd1ydcboQE0LWEi+Q+EK1i28UZgjALRCYC4VsqageyhcwbqVy88OoOWCK7WvB8giYOWoaYxjrgoEA9aUPvCsW9daApY0B5YXsD51bjDAmWCU839uyMILEi0COlDVYUnLFItTiThDhgUBRLkDwA4A5QOt2DcMS2hUIs6QYcGUMuK7T8iLD0BRXlu/YUjA8t1J7qcCdgWCAWuKbxC2tmD97obLoi1YtefCckFZTshqBVguawEsUanBFW+sL5Zk+jeBp/QM7LnT4NKnF91D/OpKz8DeQxpcdYCA5VKH+6iAWwEC1sbVw6mNq4eTG94y6EOBpmN7ykzu0hxYPgtWT4AF+MoFWa3eJHRZKEL8rmzVB8OAkkVMbYOFIiQAnEyYMv+n+lqFXF8/xgdZ8NuCxSsk9K47wEndK9syZug4RBPbMT7IwrBzaHmyXSN1OwErVTmeRwWGIRiwpvaJHDVMmDpEaDq2p8zkngRYH3xNF0OEumUrB2S1ACwfBKX4SumNhuvtsBB4w1t/Pqf2EsOCeh7Mdd+bhoAwX+hdd6TP5UcH4CoxLOjSzVWWkB5AWItAwGqhOq+5KAoQsCwWLN2aZa7r8OFa333tVfFDhI0mG3XlA/vGQtbBDWuq1xk4JdusE7HDeFLiXcNgIb4zPifzHNMkSOl2bQuBPp9FrXfdXfcN5aXFNAkh0FfLoqaXj9aAZT6A4H+pINVHX1mX0oI6hLikhxVsS31okizM0vXHbsNLNEijdD1lXcd+/EIt2jFpkq5rO1+lVdIaaUV5UWm1xVFyOwGrIGBhOFD6uebBajWbuw+wckBWyYIsxe2akTsEgKQ49W2u+H0WBzTCrqkSsA/HtAjoVFRDKi19bxW6dGmtO0DGNVVC6lugOe4TAMr2QIDtLd4qJGDFfdUAL4NIdUbaho4/JsSAR0y8OFZBoatNkvKAbXhBJzYvrvSF5BPl0oRvW/r07QCxXG9hu/Kg9gUDlhpym9oydYjQtFrp/0NgBMdIcOXzwWo5m3tIvsZYslShq7V0WSpyDAG5OkRfZ4gGSa/45joakJZBauT0NLqeXHvW3ZU2QEzI0G7J++Lzx6rti0XACgMs1IeUDh9wEvogJdXJHGXR1xbp9d61DjjL0W658gk4Cnnj2pVO7MM1QnUfozEBK8CCZTq8h4DIb29980ICFvKeClljCmrKua7ONAdguSw1vmEmV2OMfa0DOgxXI+WatqFn3V2+V2Pebsx1vwBQLitWDgtgTFoJWH7ASoUrVb9CIcsFHjH3VB0LWHG1Qyp9sUvkx/UApq5vW9ry6bOsx6YTeS9tzSJgBQCW6fAeAli2WdynbsFSeU+BLFuFKrUdFiZ09tIvhz+LCyRcQ4So1K7GIKe5fYy2Nr8GpB1Pq7bQq+4u3zBADe5nD8Hl8I4hzJqBgOUHLNs8cqjHupUE9V6CB9QnbPcF6VzfObb90n3V2yTlKyaBEvKBvNnyreJJ8V9DeqV84pq24UscL7WZatjT144h7lKBgBUAWPrwINYVZLiWYwCr9edyXPnS98VCVqlC3CpeV0fo6qx9fhp6o9wqb7iubwqJkg2TK9+pusP647IOwT+rh+CbQiLXjPIheZU64hAYCIk75BjTwlLSuotOWsGBWvogQbKqAARcdUPSFNeTYEbXSAIPfX/oupRPlV+0TTHtD9IspUvFh7zGBik+sxwgfhwXmlak0wZaiDs0nti8ELB6BKybzguCOB12Wq3HQNZLJ47Els9uj/cN5bgmqHT5EPgcyGsKgkbH9tSIBk56aiydvjG6u+bm8vnMlc6XHr/PEd8F73o8OdYlGEDHViuYHWtvgCVZcXxQBu2khyzXsDvOkcAj9j5I9xN1GW2SCwp918G5tnYtdpJkKZ8K2LBEmxSisZRm20Mj4KtEIGAVAizbZ3JChgh7+B5hDLCFQlaJAtwqTp8zsssaojcW5noLaHFpaHvqQ7pLNUqu9IzR3WW9qgktrvypfS4rHfbVClKHTMB6WX08gJj1N7ROSOf64FECj5hyAAgy05u7HkvAiWvEwJuUT5VuwJXP0ufTRLI6Iv5YEPRdB/sJWBbAMh3bY2dynxNgAcZCICukQE7hGJ8vj8saYmvkVAMS0xDV0Mo1nIAn1pphjO6+c2sOu4VoBuCzAWGOOdxC0oBjCFh2HyypLsc8IEkWH9dQlQQeofcR8ZrWQLQ5oUAYeh0cJz2U+eBRj1/Kp2ofc0GQ1K6VaM8IWBbAMh3bY2dynxtghUCWXommug7LlOtNNHSKLgd6m4laNSC96dJLesfq7vNr6k33XtJLwLIDllQ3oFdokEDCZZ2Rjg+9ljQkWQIoVHokeAyFTymfaB+xPWeQrG2pQ4+2dBGwLIBlOrbr/0OGz8YAVm/fIwzJrzrGZcmyFcIpbYd1ymZZwHaX9Qr5lDosBVcxT3m1NLOZ01WaXU/cOdM4VnfXlBo9TM9gagVId5Uz1xC0GdeY/67yqsrA2KUrfabVpWQdkawarg5X0iYUIlx5tu2TwMN2rL4d0CbdIxfM6eenrEvXxPBeSHsh5RPpz23dlwDZ5wcXq0UwYB3eeN0wtUlGkd5WE43OFbBclqzYwtnb8T7/H3SIvokgpUZcNX4lnyhTtZQaSpVeLEs20irNOXTvZchN5cm39Dnz+8qZL/7Q/RJE6Pc/x7orLT0DlvTwUWLITekjgYfa51pK55UEQZUWqa0Lua6U3lJto/kSD/7nDMGANbePPesWK3NdWWtcyzkDlgRZLb5FmLOihHTyIY7SUqOjOqme3iBU2rUGrFy6uwDLZ3VUWtRcErBeVrtnwII1RtVdfZnb0qLKnQQeap9tiTRKEBFiSbLFGbrddm3f+VI+c1uWVBokf7GcD40ErIAhQtPh3QVWat/cAcuELAD6VENIJx/6ZpcLsEo9pY3RvSVg5dTdBVg1ncZD7wUB62WlegYspFDyNQJshVhqQsuCOk4CD7XPtqwxDGa7NrZLvl9IkytI+fSd44rPtU9qj3NeKxiwjm++Y7ZDhKbDu4Io15KAdcHpubyUT9ZUASukk4/poF1DLiX9S1yNjGuf9KaU/rRe6kk4t+5T88HyvfXY0gcLHWCt0DtgueozLEc5QUsCD999kACnlIVNSovUfvisUVI+S6VZAtCc9ywcsJbumS1gcYjwZVhyAaVrHyDrwC/+Vap/XW/zzfwNnys4SMf4w0gVWgeW3gRpkd4SuvfyVl7o/e0lvRJAELCW30VpmEmv01gHVIyFBAk8lqdk5T/Twpbbx2jlFVduMYcofZZ6KZ+lHuQkAGwCWCd2bSJg3ffKAbDlggm1jxas5VC26ycfX1nzOt7iGlJSb3fFwhWyK1VovTEe2wjnllR6Albp9TWUKWkppbvPItTbPFguyIyxmKbcA/0cApZ9mgZdpxDIQr1BnUntwCXw0NMgrau6qpYlnfCl62ObOR2CD/JS8mm7tm+75ALhs7D54tT3B1uwTu7ZTMAiYAXBpYJMfXlw8916uet6PaSTx0d3YyxXeobNJzrV+GGZ2vjq8edcN5+A9bTmbqxL6457puDYXOLaPQVAlJlG9T/U3y9HfghYYYAFrSWt9Pqir6MNiK3rseBRGh5Cy5eUbpdFSjo+9Fqxx0ka4fq5QjBg4YJzmqbBdGyvOpP79ecmg4wONT2tH3364Vxltmg8oZ38GItHTWgZIxYaQb1TMNdjOwhXWmro3gu0uHTAPvhXKZiSljVhUIKGnB2QT4vefbDM9KPOuKy+Zh1C/lxzbenxx4KHZC3PWWf1tLnWpXQDbGxBOt527NjtXQHWoQfXTg6yUufBMh3bOZP78iG/WHgbWxFqnF+jk0c+0MiZDa3+3/V0V0MHdQ2pc9XTmWs4s5buvuvUchxX+tqWLod8ANcYuLdd07ZdKgMELJtay7ejnpuAqNcffT0EfGLBQ5qnK+Q6y3Mx/p+UbgKWoOvRR9fNBrBMx3b9fwhcjPHBmtrHnn16PP7NC4XS1NcmX+eLjg1DTDk6N+nJMraxraGey9KGjiNHqKk77p1kEVLbkJYegsvSVnvWeQJW+BChreygvkuQodd5rPvgR4rDdk1sl6wzvmu44kvdJ6Xb9RApHZ96bd95kka4fq4QNUR4fIJvEqZasHSgMtd9QIH9T9x84fDch68WfzuvuWLYuuoc62/RAGv7/Wtyldci8YR08rktBzXgZYxY0tOv3iHkaKhb6N4TvEj3x/eJnNoQSMAaD1jqPocMH+a07OB6ep3Fem6/SZU319Js63p3cm8GWFN0dG8FWI9/fpUIV4AuH2D95svnL5QP1t5HbnHVv6b7fMMxyrrh+oBzSgakjktvDLG/ZTDf/NHThnVXRxCS7la6+66L/S2D75uLqS9WpOZJKqc5OyBfusxymMtyKl1X8p0K9Y+S4rNtQ92xvXXo0hb7zHpou4babr5QA9ipHWLTkJLP1Dx1ZcF66cSRWQ4Rmg7vIRasrV/6q3TAum2cv1NI+moe06uDu6+zLQVXqjFw+WegUXKZ0VUcJZa+ua9cnUBIelrrjmE2dW/NJYaBW/li+ea+wuSrtUNvgAXAKBUk6CkBWCr9EtC5rDsp4CHlqWa7IrlD+KZBSMmn0jR22RVgIfFT++hzDguW6fAeCidJQ4SXvWqhrFdbbn9DbJmvcnzrTh6ZlDov/Qm1hTkfja/5xKmnCetjrFc96O5LQ81pEFRhB9S5ppEACNa2XtnK6FjAVnkOWUqd7Zjy57qmOZSFsl4SsJAW6SHL9vKIpIUrP9iHoXyz/uYY3vddV+2XIBIPcK6Qkk9XfK593QHW1D6ZkwOwUnywAGE7//59ohXLNUS4tPrVCwVYPfpf+TpYZdWARaF0kBpYvUGs2Rgir+aQjJ4WrPuePl169aS7y4qF+1/b18k3NIiJR1sE6SGgJmBJgODroFN0kvyVUN5LA1YMgKSAh5SvksOsuvbSw5rLQqfOTcmnOjd22R1gTc0PqyVgPfMPV8QD1sdet1CA1Zv/VWgnj+NqBMmEbkJN6UZe5VNq2PS0oGFGo5kSetPd90YhICu3351NN993FwGDrYYtWwOWNFw9BvJt90DKpwuwUG8Bf/rPZnmyXRPbpetimxSk+ikdZ26TzrNdwzx3zH8JjkPunZTeMelwndsdYCGxBzesmYwvVkvAsk3V4LJgbfnMeQsFWCf3P+kq31X39dbJq8xLT7E62GC9xFO7uj6WUqNmpiGlA0Hcveru+hxNLSumD66QjhxTg+j3OmZdAgCUlVqhlgXGZrm1PdxIuqRAS0w8Uh0NuQ8SRJT28cQ1JVcDbPeF1Hz64pX2S9rkLN9R0zSoBE5pPqxUwDId22NncscQoe1NQhdgLdIbhD3Nf+VzIFYdai3LlapLamlr4HXIwRNh7oAGpuS1e9fdNzSHclFiuBD+VK2uHVOGJADI2QGFpEVy1LaBT0h85jGSlUzVO9t1pHNCrDPmtSV9bQ9TY8BDOrekj6fkzxbafklpNXXL9b9LwHph+0MLb8EyHdtjZ3JXjvC7r71qxTChDbCWrlws/6vdD9+Yqx6Misc3t5CCqxIdaWjC8aQuNUqqoVdLwFCqJclMCxp36SlTXUstUzoOXGsKumPozTU3liobgKFcliRAvM+hHddt5XellxMJAGoDlpSGXNMNoN65/CBtgIU6qOqHWqakSbJe2+r3GPCw5bPEvZTSGeP3JZ2vl8mc610CFqZrmMowYaoFy3Rs1/8reApZ7vj0O4MBa8uCfYPw+ed+nbMuJMU1hU5eZSwUstCg4+nT1vir+GxLPEm6OhXVYWCZ2gBPSfdQyAL04A1D5C0lAOB9zvUK6FpMySDlSYKb1DIhxR+6TSqvqeCvX9P3UOOqY1Ka0GHHBDMOlxP4WPCQoFC1JTFpdh0rWRtxDRs0SnGNzacUp21bl4CFxB577IuTsGK1BixpmNBmwfrNFxZngtFtd19iK9PVtmMYRnVYtZeweKSEGMhSIARgws/WuKOTwH5b46fiMZc4JyVMUfcYyFJlCcCEn236BIAY9gPK1DkhS5zTS+gFsKQhOZTX1DIq1TMTdhC/C7BwbbPOxAy7See74DUHeEj3E3kAaMZAkFk+0fbYYNU25GnGof7nyKeKy7fsFrBO7NpEwAqcEPTZj65eZsWSAGvpQ69dKOf2Ht4eDLWihHR6scekApZqEGJhyGzox/6PbRRVurGcsu6xMBRbLnzH15gaRL9XvnWpQ3ZBgC++Mful4TSUc9QV28OFdD2UbWloXII4F2AB0qR4Qixrkq7IiysfucBDAjvVXiDtyFdowLG2+4I4kc/YkCufIdftFrCQ+EMPru0esnJYsEyH95ChQf0Y04olAdYiWa8wueipI8+GlO+ix0y5o4cwto5ANYYllvDxcjXyITds6roDckJ8pHywFLMfQG6zhIVoXuoYCQRaARby6HohA6AFeJAAAdYZ7LNZWbBP6mxdgIX0SPqgXuI6iNMM2GbLgw/McoKHBJN6e6K0lNoCbEM+fA+BuEZKyJlP3/Wle56zfCe9RagSPYWPP+cALNPhXYen0PX1V5+dE8sErK++bbGmZuhlctGpd/SoZ+gspAZHbwxzrONJPOVpU2xIO/UAAAjWSURBVLUF+nIRdMeQYcgUCjEQJR0LkGv15qp+z2zrEkDk7IBs13Vtz10fVH6kztYHWEgnYGNsHQR0+YKUb985rv2AThtwjskP4pTAzJUWfV/ufOpxm+vSPVflwTw25f8owJrCtwlzAJbu4I71UKjSj7vmHW8e/mP1e08PFeqA9bU3nDu8+5I3JsWpx9/Teg/O7agMi9DRq0qNxlBqeMY0hDgXYCU9aavrpiwXSXe8OVgCtABWPfla2e5zj4CFtOay7uoPFVJnGwJYSM8YyAqBK1xDqv+2+xazfUza9fYn10NaqXxKmkj3vBvAQoJ7d3bvBbAAUX96zpuGmy+9fPjf1ZcPP33ja4aPnHfB6W2LBFg9OLerirRIHb3KEyxaaBAlh1y9sfOtw7yvdy4q/hzLRdQdFi0AUehbgJK1Ctvg49Wzxcq8/70Clkpnal3AcJxpZZE621DAQnpwbIxFKBZISoMHtESafG2HuR9tEc7NFUrnU0+ndM+7AqwXj+7u2g+rF8C6/oN/edpSdecdXx30H+AK+3qyQI1Jy6EtaePueqHnergCaNjw8/lDqONS/SLCUzSPIwFb+Pmc4tVxvTmvL9pdUj5WNodrZanNCQI2DQFauI70EKRgpOd66NMSgAWdkUcTUm2azHX7qCFCJVrPVqxUwDId21NmcjdBZevd7xr279u37GceM+X/PVmvVNnkkgpQASpABahACwWyAFbPVqxUwDId21NncteB6amf3rgMrgBbT/7oE7RetSj5vCYVoAJUgApQgYIKZAEspK9XK1YqYJmO7fp/HZpi1vc+s7QCsHZv/a+FACxarwrWUkZNBagAFaACk1MgG2D1asXqBbCeefTfVsCVGi7c8d9fnjxk0fdqcnWfCaYCVIAKUIGCCmQDLKSxx3mxegAsaWhQwZVa4pgYa1hPx26/930FiyijpgJUgApQASowPQWyAlaPH4FuCVhL33jrsPOx71gtVwqu1BJWrp7AKSQtmLW9l3mvplf9mGIqQAWoABVYVAWyAhZEemH7Q11N2xACWLvvfetpsFm6/fzh8Lf+ZND9raT1EPDAG4OSzxVgCttd+3BuyDV6OGbXTz6+qHWD+aICVIAKUAEqkKxAdsBCSo78/IZuIMsHWIceuGwZzDz+9fOyABasV/t27xCtV/C5wk9ZrvQlwKsHcApJw+PfvDC54PFEKkAFqAAVoAKLrEARwILD+8ENa7qALB9gHfjhpcuABlYsyWqlbwuBDxxjgygXYP3u4ZuXpSf0Wi2OO/LEjxe5bjBvVIAKUAEqQAWSFSgCWEjN89vWTwKwTvzsvcNTd579FuAf/v3PswGWNLEorFU2wILFC5avFrAUe00ODSbXOZ5IBagAFaACM1CgGGBBux6GCn0WrFMbVw/4Hf7+G4P8r2DJioERycndBlhTcXLn0OAMWgZmkQpQASpABUYpUBSwenirMBSwTm54i9dypYYJYwDr8W9fvcLXygZYU3Bux1uDR59+eFSh48lUgApQASpABRZdgaKABfFO7tncdKiwNWABxjBbu+7ILgEWLF0x4Nbq2L2P3LLodYL5owJUgApQASowWoHigIUUtpyAtAfAeuJ7a72ABUtXK2gKve72+9eMLnCMgApQASpABajAHBSoAlgQ8uij65pYsnoALACMPu+VacGawvcI6Xc1h+aAeaQCVIAKUIFcClQDLPhjHd54XXXI2v+9i4djP75oOPLARcPhH77N+jv03fOHg/f8WdAv1OKjH6d/LscELFi49GN7W//tN940nDrybK4yx3ioABWgAlSACiy8AtUAC0q2cnp/+q5VXQCMsmLpgNX7xKJ0al/4NoAZpAJUgApQgQIKVAUspP/UgSebTELaA2QBrMx5sHr+yDPhqkCNY5RUgApQASowCwWqAxZUnStkqc/nKAsWJhbtbThQTw/fGJxFG8BMUgEqQAWoQAEFmgAW8jFXyMJ0DAqwsNSBpqd1wlWB2sYoqQAVoAJUYDYKNAMsKDxHyMJkogArfHOw18/iEK5mU/+ZUSpABagAFSikQFPAQp7mCFk9War0tMDninBVqKYxWipABagAFZiVAs0BC2oTsi5oPlRIh/ZZ1XtmlgpQASpABQor0AVgIY+t5snq4e1C3YrUYh3zXPH7goVrGqOnAlSAClCBWSnQDWBBdUBWixnf5wxZmKGdk4jOqs4zs1SAClABKlBBga4AS+W3xbcL5whZ/LagKnFcUgEqQAWoABXIq0CXgIUsnti1qfqEpHOBLDqz561EjI0KUAEqQAWogKlAt4CFhL54dPdw5Oc3VP1+4aJDFoYE6W9lVgP+pwJUgApQASqQV4GuAUtltfaQ4aJC1q6ffFxJyiUVoAJUgApQASpQUIFJABbyj6kcalqzFgmyYLU6tOW+gsWIUVMBKkAFqAAVoAK6ApMBLJXo57etr+abNXXIgq8VrVaq5HBJBagAFaACVKCeApMDLEiD6RyOPfbFKr5ZU4Wsp751xfD8c7+uV5J4JSpABagAFaACVOCMApMELJX6Wk7wU4KsbXdfwuFAVUC4pAJUgApQASrQSIFJA5bS7OSezcX9s3qHLIKVKg1cUgEqQAWoABVor8BCAJaSEaBVcuiwR8giWKm7zyUVoAJUgApQgX4UWCjAUrJi6PD45juKOMP3AFlwXscs7PSxUnecSypABagAFaACfSmwkIClS/zC9oeyf9+wFWTBWrX3kVv47UD9BnOdClABKkAFqECHCiw8YCnN8eYhpnjINZdWLcjCHFa7H76R1ip1I7mkAlSAClABKjABBWYDWPq9AGzBsgV/rUMPrk2e7qEEZKnhP1iqOASo3zWuUwEqQAWoABWYjgKzBCzz9sBnC8AFv61YC9dYyIKFCv5UACp+I9C8M/xPBagAFaACVGCaChCwLPcNn+bBW4n4DiJ+AC/8Dm5Ys8Li5YIsWKTgO4XfMz/8m9Mzq+9/7OuEKYvu3EwFqAAVoAJUYBEUIGAtwl1kHqgAFaACVIAKUIGuFPg/fHgJay9orOYAAAAASUVORK5CYII=;" parent="RU4EYPsR_D7hi8bJ4MLe-1" vertex="1">
          <mxGeometry x="-43.57" y="125" width="267.14" height="65" as="geometry" />
        </mxCell>
        <mxCell id="RU4EYPsR_D7hi8bJ4MLe-12" value="" style="shape=image;verticalLabelPosition=bottom;labelBackgroundColor=#ffffff;verticalAlign=top;aspect=fixed;imageAspect=0;image=data:image/png,iVBORw0KGgoAAAANSUhEUgAAAucAAAFwCAYAAAAbjNWuAAAgAElEQVR4Ae2dB7xUxdn/848lvRfT86a/6eU1edPzimJDURQ1wa4JELGLQY1EotLrpUpHmvSqgHSp0nvvvbcLFy5c4Pl/njULe+89u3t299SZ7/l8YPfunjLzm9888z2zc2be9/+uaiz8QwM8gAfwAB7AA3gAD+ABPBCuB66s01PeRyGEWwjoj/54AA/gATyAB/AAHsADv6jdQw4eOwmcUxmoDHgAD+ABPIAH8AAewANheiAJ5iICnIdZEFybQIAH8AAewAN4AA/gAbs9kArmwDnj7XneAA/gATyAB/AAHsADeCAkD1QEc+A8pILgDtnuO2TKn/LHA3gAD+ABPIAHFMwPFZ9UHi+38UAogM7dMh7AA3gAD+ABPIAH8ECAHkgH5krpwHmABcFdMnfJeAAP4AE8gAfwAB6w2wOZwBw4B8y5S8YDeAAP4AE8gAfwAB4IyAPZwBw4D6gguEO2+w6Z8qf88QAewAN4AA/gATdgDpwD59wp4wE8gAfwAB7AA3gAD/jsAbdgDpz7XBDcJXOXjAfwAB7AA3gAD+ABuz2QC5gD58A5d8p4AA/gATyAB/AAHsADPnkgVzAHzn0qCO6Q7b5DpvwpfzyAB/AAHsADeCAfMAfOgXPulPEAHsADeAAP4AE8gAc89kC+YA6ce1wQ3CVzl4wH8AAewAN4AA/gAbs9UAiYA+fAOXfKeAAP4AE8gAfwAB7AAx55oFAwB849KgjukO2+Q6b8KX88gAfwAB7AA3jACzAHzoFz7pTxAB7AA3gAD+ABPIAHCvSAV2AOnBdYENwlc5eMB/AAHsADeAAP4AG7PeAlmAPnwDl3yngAD+ABPIAH8AAewAN5esBrMAfO8ywI7pDtvkOm/Cl/PIAH8AAewAN4wA8wB86Bc+6U8QAewAN4AA/gATyAB3L0wP/U7imHik8qS3u+vY87P+788AAewAN4AA/gATyAB/CAOw/4CeZK+sB5jndKGNedcdEJnfAAHsADeAAP4AHTPOA3mAPngDk/Y+EBPIAH8AAewAN4AA+48EAQYA6cuygI0+74yA+9GHgAD+ABPIAH8AAeyM0DQYE5cA6cc6eMB/AAHsADeAAP4AE8kMEDQYI5cJ6hILijzO2OEr3QCw/gATyAB/AAHjDNA0GDOXAOnHOnjAfwAB7AA3gAD+ABPODggTDAHDh3KAjT7vjID70YeAAP4AE8gAfwAB7IzQNhgTlwDpxzp4wH8AAewAN4AA/gATyQ4oEwwRw4TykI7ihzu6NEL/TCA3gAD+ABPIAHTPNA2GAOnAPn3CnjATyAB/AAHsADeAAPXNVYogDmwDmVkcqIB/AAHsADeAAP4AHrPRAVMAfOqYzWV0bTfo4jP/zEjAfwAB7AA3ggNw9ECcyBc+AcOMcDeAAP4AE8gAfwgLUeiBqYA+dURmsrI70KufUqoBd64QE8gAfwgGkeiCKYA+fAOXCOB/AAHsADeAAP4AHrPBBVMAfOqYzWVUbT7vrJDz1ZeAAP4AE8gAdy80CUwRw4B86BczyAB/AAHsADeAAPWOOBqIM5cE5ltKYy0quQW68CeqEXHsADeAAPmOaBOIA5cA6cA+d4AA/gATyAB/AAHjDeA3EBc+Ccymh8ZTTtrp/80JOFB/AAHsADeCA3D8QJzIFz4Bw4xwN4AA/gATyAB/CAsR6IG5gD51RGYysjvQq59SqgF3rhATyAB/CAaR6II5gD58A5cI4H8AAewAN4AA/gAeM8EFcwB86pjMZVRtPu+skPPVl4AA/gATyAB3LzQJzBHDgHzoFzPIAH8AAewAN4AA8Y44G4gzlwTmU0pjLSq5BbrwJ6oRcewAN4AA+Y5oEr6/SUQ8UnlW9jvb3PtIIhPwQbPIAH8AAewAN4AA/Y5QEF88PFp2IN5cnEA+f0ntN7jgfwAB7AA3gAD+CB2HrAJDBXQAfOqYyxrYz0itjVK0J5U954AA/gATxQ0QOmgTlwDpgD5ngAD+ABPIAH8AAeiKUHTARz4JzKGMvKWPGumb/pScEDeAAP4AE8YJcHTAVz4Bw4B87xAB7AA3gAD+ABPBArD5gM5sA5lTFWlZFeEbt6RShvyhsP4AE8gAcqesB0MAfOgXPgHA/gATyAB/AAHsADsfCADWAOnFMZY1EZK9418zc9KXgAD+ABPIAH7PKALWAOnAPnwDkewAN4AA/gATyAByLtAZvAHDinMka6MtIrYlevCOVNeeMBPIAH8EBFD9gG5sA5cA6c4wE8gAfwAB7AA3ggkh6wEcyBcypjJCtjxbtm/qYnBQ/gATyAB/CAXR6wFcyBc+AcOMcDeAAP4AE8gAfwQKQ8YDOYA+dUxkhVRnpF7OoVobwpbzyAB/AAHqjoAdvBHDj3Gc4/dF1z+WatTvL7x16X2xoOkwebj5UnO06Ul/rMkDZD50nPcUtlyPTVF/5NWrhZKv6buHDzhe9ff3u5dBq1UJoNnCPPdZsqjxZNkLtfHSVV6w+Unz7cXb5cs0gur9oU4Pa5XCsGEv6mccEDeAAP4AE8ULgHAHNFc5H3Yab8zXTZNU3lO/d0lhsbDJInOkyUjiMXyrh5G2XF5v1y8NjJ9xQO4f/9R0pk8fq9MmbOeukwckEC5P/yykj5Re0e8tEbWgDvwDsewAN4AA/gATwQKQ8A5heBETh3WTk/U72NXPPMAKnfZbL0m7hCVm7ZL2fKzl1UMibvzp8X2br3qGiPfPsRC6ReuwmJfH3ljvaRqqTcNOZ/04h2aIcH8AAewANx8gBgXh4igXMHOH9/lcbywwe6Sp3W4xIgvmXP0fKqGfpXcclpWbB2d2K4zd/bjJf/qd2TYTIO/ohTwCOtNNB4AA/gATwQZQ8A5pWhEjj/D3x9/a4OUrfNOBkxc60cOFpSWSlLPzlZWiZzVu2UdsPmyz2NR8t37+0ievMS5YpuW9q6jFkkm3YfsfLfjx/qZrUXdQidrWWfS77X7zgkC9ftKfdv/trdiWd8JszflHiuZ+CUldJ17OLE8MRX+82Sf7w2JdFBc2ejEXLdswPl14/0lm/f3ZmhgXRYWB1zvG5fAXNnuLQWzi+9uolUeaq/tBw8NzFExVkePnVS4HDxKXl7wWZ5pd8subb+QPnw9c0JViE1WJ+u3lpOnS5zKiYrPtP663VjEafzHT952opyjlomS0rPiP6iOnfVzsSzPfq8kT6krw/o6wQAX72zvWgbEycvkVY6nYL2AGCePrJZBeeXVGkif3y8b+Ihyb2HT6RXhW9yUkDhcOqSrfJiz+nym3p9aJQCBHV9ZsDmbdfB41b7DTiPrvtPl52VNdsOyqhZ66TFoLnyt1ZvyZ+e6Cd6Qx00BHE9wDtqHgDMM8cuK+D8v+97LREcd+wvzqwG33qiwNETpTJ69vrEDDY6dj9qQcGk9OgzArZv1//jDWs9BpzH0/36UL7GyJf7zpTb/zVMvnZXB2s9bFI8Ji/uboIA8+xxy1g416EW9zUZLe8s2yY6QwlbeArsPnhc+k5cITVfGi4fuZ6pHL0K4D95uHt4hRqhKw+YvNJasAHOI2TEApOy80CxDJ2+Rp7uNCnxCyRrVrgDPa/iKecJRu/f1usjx0pKC6wt5h9uHJzrQjzN35grOi6aLXoK6AOmI2euk/ubjuHn3QKHv+hCVmwiOv73E9VaWQnowLm5NUDL9q13NyZgXW/EeRA/GHgE0v3TGTB3H6+MgXOdtaH3+GWi4/zY4qGAzhOv863rtI1fqllkJVzl2xBor9q+Izw3kXT6wy3etNI/wHnSAea/7jl0Qrq/uURuen6w6OrT+cYOjvMPPtE2vbaAeW4xKvZwrsvW69g9hq7kVvBR2/vc+fMye+UOebbLZNFpLQly6YOcalOj4dCoFWGo6Zm2ZKuVngHOQ7VdaBfXctchMLryM7NlZY6VtCXh6wOY5x4qYgvn3/hLx8SctGfPMaA892KP/hE6J/GTHSfK525tayV0ZWtQxsxZH/1CDDCFenP+zVqdrPMKcB6gySJ6KR0qOGT6aqn+whC57Jqm1tWBbLGS78OFc8A8v8AROzi/oka7xE97ZWfP5ZdjjoqVAjpNozY8+lMu8wa/F2S/eHs7wf+Vbdyw53TrwAQ4r+wDmz/Zvu9YYkrbL9zWzrq6AISHC+FO+gPm+Uej2MC59gg83v5tOXKcBz3zL+54H6kNT6M+M6yfdkyH/rBVVmDdjkPWAQlwXtkHfCJSeuas9J+0IjHrixM08Vn0QNa0MgHMC4tEsYDzPzzeV5Zt2ldYTjnaGAV0KJPOYqA/4+rCUqYFtWz5WbX1gDFl6XVGtEHIpp9J3wPnXjvIvPPpdMLXPTvQqnphUh2PY14A88LjSKThXOfELho+X/RhQTYUcFJg467D8kznyfKpm+1Yde/Xj/R2koHP/qNA59GLrIIQ4Bzru1Vg3ppdiQ6NOMIeaY5PTz9g7rZGZt4vsnD++8del/U7DmVOPd+iwH8UUEhRMPvevV2MhrPXxiymzDMocKj4pHzw2mZGeyAVVIDzDGbgK0cFZi7fLnqTn+oj3scHfqNcVoC5Y5XL68PIwbmOLW86cA695XkVJwfpryzD3lkjv6rby7jGR6dM45mL7B7XlWij3IB5mTbgPLsf2KOyAvpj9KCpq0RnPfPSj5zLXsgHzCvXs0I+iRSc6+qeOj6ODQW8UGDK4i3ypyf6GdP43P3qKC9kMf4cuu6BLZAAnBtvZ18zqKvrNug6hSkYC1yt2ZZ4ky6fgLn31TQycP5/T/aT3QePe59Dzmi1Avc0Hm0MqE1etMXqsnSbeV159vM17JgfHzh36wr2y6SATrjAUBd7e73TQbebzwHzTDUr/+8iAec6RSKLCeVfiBzprICOrXx/FTMC7n/9uSNDvZyL2fFTjSluGpa47wOcOxY/H+ahgLbB/359Jr3o9KK7jp2AeR4VzeUhocK5LirTbOAcl0llNxRwr4COPf+lQePOX+r9jvvMs6fMX7vbdQMTZ0AHzjG71wrorC7fvruzFfUnznU/7LQD5l7XvPLnCw3OP3pDCxk1a1351PAXCnikgElT6mnv/+bdRzxSxp7T/PCBrsYDBnBuj5+DzOnRE6Vy64tDja8/YQNuXK8PmPtfG0OBcwXzqUu2+p87rmClAjqd3uduNWfMcZWn+ltZjoVmWmd9imvj5zbdwHmhLuH4dArojC76y7YpQwPd1in2yzwUFDBPV2O8/TxwOP/kTa1kzqqd3uaCs6FAigJ/bzPeKCjrO3FFSu5461aBHfuLjV9BFjh36wb2y1cBnXJRFwQEWjNDqw36AOb51qLcjwsUznUVx3dX78o9lRyBAi4VWLx+r+izDKYEyk9UayU63RlbfgpUrW/2suXAeX6+4KjcFNBx6J+p3saYuGpK+xBkPgDz3OpMoXsHBueXV23KUJZCS4vjMyqgP8OaNK+5Bt7ard7KmGe+zKzA628vNxoogPPM5c+33imgHR9X1GhndH0KEnbjdC3A3Lt65PZMgcG5PqDHhgJ+KqDDP+IU8NykdfbKHX5KZvy5T5w6Ix+7saVxvkh6Bzg33sKRyuCabQdFFwtM+o9X84e6AObhVMFA4Lxeuwnh5I6rWqNAcclp4xqN793bRfTXALbCFLi/6RhjYQI4L8wbHJ27Aut2HKIH3ZK50H/36OtyrKQ0d5NwRMEK+A7nf3i8r5wuO1twQjkBCmRSoH6XycYBGGsAZCpx99/pyqqm9vAB5+59wJ7eKaDrCHy8mrm/SJkaL3LJF2DuXX3J50y+wvnX7uogB46W5JMujkEB1wqs3npA9JmGXAJP1PfVh1p3HTzuWgN2TK+ALkilsSjqZZ5P+oDz9OXON/4qoDe9psXdfOqgiccA5v7WHTdn9w3OL6nSRKYs3uImDeyDAgUpcEODN4wDr5ueH1yQJhxcXoEXuk8zziMKBcB5+XLmr2AV6DhyoZH1ykTgdpsnwDzYOpTuar7B+bNdJqe7Jp+jgGcKDJ+x1sjGYdg7azzTiBOJ6DhZt41TnPYDznF32ArUaT3OyLoVpzjgVVoB87Br08Xr+wLnP324u5SeYZz5RZl554cCJ0vL5Bt/6Whcw6Crm/KchveO+d+/9zbOK8C59z7hjLkpoLHq14+YV7e8At64nAcwz833fu/tOZx/8NpmsmzTPr/TzflRQF7qM8M42NJA/mTHiZSuDwp0GLnAOL8A5z4YhVPmrMCm3UdEF0yLC4iSzvJTQALmOVve9wM8h/MmA2b7nmgugAJb9hyVD1/f3MjGYMmGvRSwDwrow+kfqNrMKM8A5z4YhVPmpUCv8cuMqlu2ADxgnpfdfT/IUzj/7r1dGM7ie5FxAVXgtobDjGwIflG7BwXsowI1Gg41yjfAuY9m4dQ5K3D7v8yMy6aCOmCes8UDO8BTOH/r3Y2BJZwL2avApIWbjQKs1MDffsQCews2gJyb9gAxcB6AabiEawX2HDohn7yJ4S2pMT2q7wFz17YOZUfP4PyWfw4JJQNc1C4FzpSdk+/f/5qRcK5DLlgXwF8/68Nr+sBtVBvMXNMFnPvrF86euwLths03pn7lWh/jsr+Cua6qzRZdBTyB8w9d11z0gRA2FPBbgZaD5xob+O9oNNxv+Ti/iNRrN8EYDwHnWDpqCpw9d150eF5cQNW2dALmUasxzunxBM7/8doU57PzKQp4qMDug8eNnhGAYWEemiXDqd5dvcsYcADOMxQ0X4WmwNQlW42pYybBO2AeWpXI+cIFw7n2mis0saGA3wrc22S0sQH/yzWLRHuc2IJRwJShUcB5MH7hKrkrcG39gcbG6zgCO2Ceu4fDPKJgOGdO5jCLz55rz165Q95fpfzcrHEMkOnS/Hy3qfYUZgRy+mq/WUaAA3AeATORBEcFFq7bY3TMThfLo/g5YO5o0Uh/WBCc6wNsO/YXRzqDJC7+CtgwhnHt9oPxL6gY5WDbvmNySZUmsQd04DxGprMwqaZOeRtFAE+XJsA8nhWvIDiv03pcPHNNqmOlQOfRi2IPUekCp37++8dej1V5mJLYKk/1j72vgHNT3GhmPvQXz0yxj+/8/TUYMI9vvcobzrXXaeOuw/HNOSmPhQIHj52Uz97SxugA3/3NJbEoC9MS2duAFQ2Bc9NcaV5+fluvj9HxO6o3GIB5vOtS3nBetf7AeOec1MdCgb+3GW90YP/oDS3kWElpLMrCtEQq2H7sxpax9hdwbporzcvP0OlrYl3HogrfmdIFmMe/HuUN5/0nrYh/7slBpBVYvH6vXHp1/McFZwqi9zcdE+kyMD1xcZ8BCDg33aHxz58+M/SVO9oD6Ff5O4Ql2c4A5vGvM5qDvOBcl+ctKT1jhgIh5EJXKdTpJ5dv2ic6H6z2LAyZvloGTV0lXcculn4TVyT+Hj17vehS9XNX7ZTVWw/IzgPFYktjfP68JMZiJwOOqa/TlmwNwYFcMqnAxIWbYw0NtsSDZHnxGk8FdDYqU2N4lPIFmMezfjilOi8450FQJykrf6Y9Biu37Bcd2/pY0dty3bMD5Vu1OhXcG6zj/a+o0U5+/FA3ueaZAXJP49HyVMdJ0mLQ3ATUa49z3IdK6A1KlIKeH2lRL+hNCFt4CsS9Vw84D887XNm9Amu2HTQ+nvvRRuRyTsDcvR/jsGdecD5n1c445C2UNB4qPpmA8bv+PUI+dXPrUAPS52u0FX0Y56HmY6XjyIWJHviTpWWh6JLLRYtLTsuXahaFql0uQTHffV/uOzMXWdjXJwUadJ0SW68B5z6ZgtN6rgAPhvo3rAUw99yuoZ8wZzjXsWNslRXQ4Sd3NhohH7y2WaQb+suuaSo/+2t3ebjFm9LtzSWyafeRypkJ+ZNnu0yOtIb5wnjqcfrrx9a9R0NWmsurAvrrVmrZxOm9jXD+3Xu7FFxeGqc/Xb114p+2aT95uLv86Yl+cuuLQ0V/GdZFqvpOXCEzlm+X/UdKqCgeKNB22LyCyy1OdTOotALmHpgzgqfIGc4fbD42gtkIL0nj522S//1771gHnW/f3VnqthmXGPuuPf9hbvrzpy5uFVRgC+s6zHYUpssqX/vKOj1j6Tng3L/eyNTYoL/kXf+PN+SF7tNEY76NuleuNbl9smXP0VjWsVQfRO09YJ6bB+O0d85wPmDyyjjlz7e0bt93LNHLErXKWmh6tEf3l3V7ySv9Zsm6HYd80y/diXVcfqF5iMPx1KN0Dgjn86Lh82PpOxsh0Yue80JjhP4CqcM0mgyYzXofOVTZn/+tRyzrWaF+8eN4wDwH48Vw15zg/P1VGsvewydimE1vk6w9J6YvjJMMJjoERn/iXR8AqI+cuc6KwK3PIsRh7L+3tSbaZ9t35IRcXrVp7PwHnAfTc56Mh+le9ZeXDiMX0KOepZo36jMjdnUsXZmH+TlgnsVoBnydE5zrXa/tW89xS0V7l8OsmGFdW8u/cf/Zoj9Per0prH6zVicrdNWFldiip0D1F4bEzn/AeTTgPBmTdZphfWZGp71lq6zA3FU7Y1fHkmUbldffP/a66KQJbGYrkBOca9CxedOhCLaCeWpgUg10/OWwd9bImbJznljCph6VeWt2eaIZJ/FWgTiuZAicRwvOk3FSV/7VmMZ6IOXraNnZc/LxavFelTdZxmG8Aubl/WTyXznBuTZetm66YNBHrm/BXX+FVc6+cFs7ea7bVNmw83De1tCe+A9f39wKbX/0YLe8deJAfxUoPXM2MXtHGI1uvtcEzqMJ58ny/Oqd7WXcvI3+GjdmZ7+xwSArYn3SA169AuYxM3qByc0JzqM47V6B+Xd1uC4U88fH+xJQKoB5xaCj4y51hdNcx1Pf1nCYNdq2GvyuK8+xUzgK6KxFFX0d5b+B82jDuXpHn9V6suNE0Zs/NpFmA+fEqo5Fof4D5vbVHNdw/olqraxdzXDMnPUEkyxgnhrAtDddZ3s5eCz7tIxxXz49Nd/Z3usDhzxQHe0gO3vljljVdeA8+nCejAu/qddHwp6qNgq1b9aKeNWxZPmF9QqYR8G1wafBNZxrr6it2y3/jN+DYmEFktTr6jCgR4smpJ1qTMer/+CBrrGCodT85fpefcQWbQX0V7IoTNXn1lvAeXzgXMv0xw91k90Hj0e7EvicuhOnzsilV9s5qYLbep3cDzD32YwRPr1rONfl6G3c9AGWj93IAyzJYJHPqz5AWvOl4TJn1c5yFtIhHvmcL67H6FSRbNFX4OW+M2PjS+A8XnCusUtv/tz8qhj9mpJ/CvXZm7jG8aDSDZjn7y8TjnQN5/rQn42brlgZVGW04To6P+uImWsTU43pUCkb8qx5vKJGO89mtrGxHgaZZ31AWccJx8GbwHk8yqmil65+eoBox4+t231NRseiflUst6D+BsxtrRkX8+0aztsOm3fxKIvezVy+nSCSw3hzt8HLltlZkno809nuaUjjFjL+78l+saj3wHk84Vzjgj4kauvWZui8WNSvZPwO8hUwt7VWlM+3azi3dbnxSQs3E0R8gPMgg10UrrVs077yNY+/Iq1Aj7eWxqLeA+fxhXP9dUYfQLZxe3PuhljUr6DbDsDcxtrgnGfXcD5h/ibnMxj+6eRFWwgiwHlBHvhV3V6G1xLzsnespDQWc+8D5/GFcwW/nzzc3crhLet3HCoopgYNzUFcDzA3rx0pJEeu4fydZdsKuU5sj9135ERsxp8GEUC4Ru4w0GnUwtj63+aE13plVOQBAjjPvT5GLYZ1Hr3Iumqm4+11atmolUVY6QHMrasCWTPsGs7fXW3vkuM6jWRYlZbrxrvx/dB1zeVw8amsFZEdoqfA+HmbIl/vgfN4xweN7zp7yzmdw9Oy7Xv3dol8/Qqi/QXMLTO+y+y6hvPF6/e6PKV5uw2ZvpogwtCWvDzwl1dGmlchLMnR2XPn5Us1i/Iq9yAadb0GcB5/ONdy1IXubNuurT8w0nUriDoMmNvmevf5dQ3nC9budn9Ww/bUTo3f1utjfSAJIliZdo23F2w2rDbYlZ36XSZHut4D52bA+U3PD7arYonIA83GRLpu+d0WAebWWT6nDLuG84oLyOR0FQN23r7vmHzu1rZWBxO/g5Vp5//qne1Fe1/Z4qvAis37I13ngXMz4FyHv5WUnolvRckj5S90nxbpuuVnewSY52EYyw5xDefTlmy1TJrK2dVpFTWI+llpObcZja2WY8Oe0yubiE9ip8DP/9YjsnUeODcnXtg2tKXDyAWRrVd+tsOAeeyagFAS7BrO+Xn+vfLRh8QAdHMaRL+CsM5hvGHn4VAqNRf1VoEoL5gCnJsTi+q1m+CtcSN+tmHvrLEOzgHziJsyQslzDef6UCTbewrorwifvaWNdYHFL5A18bx/eqIf1cUQBfYcOiGXXRPNad+Ac3Pg/HePvm5IjXGXjSmL7VpDBDB35wv2ek8B13Bu41ysmUyyafeRxAISJoIleSq8we89flkm+xjxnT4orfMV27BVe25QJG/GgfPC62pU4t2nbm5tQ1W6kEedZCIq2vudDsD8QrHzxqUCruH8lX6zXJ7Snt1OnS6T57pNlUuqNLEmyPgdxEw4/8dubGnFFHfauE5caMdsNG9MWRXJOg6cmwPnGvt2HzxuTQNqyyqhgLk1lvY0o67h/MmOEz29sEkn03HoX7urQyQbbxNgN255eLjFmybZO21eXuw5XR5pOz7t9yZ9oTfin7ypVeTqOHBuFpzPWrHDpGqTMS+6+nbcYnuu6QXMM1qALzMo4BrOa740PMNp+EobSZ0TOapjU3MNKuyff6M/c/l2KyrEDx/oKl+uWWTN6oa1W70VOZgAzvOvp1GMcePmbbQidmgmT5aWRa4+eekJwNwaK/uSUddw/ovaPXxJgGknXb5pn+iCEl5Wcs4VnwZYl+K2YSXutdsPXvD43FU7TavGjvnRm66o1UXgPD6xwY13Bk+zZ+KFc+fPR64+uSkjN/sA5o4hlA9zUMA1nOtPumzuFVBgufrpAcYGH1pLuGUAACAASURBVDcBysZ9mgyY7d4kMd6zcf/ZF7zdoOuUGOfEfdL1puvbd3e+kO8o+Bs4NwvOe7y11L0hDdjTxOe1AHMDjBmBLLiGc22IDhWfjECS45UEfWDuV3V7RapBjwJUmJiGS69uIjv2F8fLoHmmNtXT+muBLdtLfWZEqi4D52bBeZcxi2ypSol8mrZmCGBulX19zWxOcD596TZfE2PqybXHbcTMtUD6VWY1pBVvMG5o8IapFi6Xr+37jokuspSaf13m3oZt467DlfKeqkPQ74Hz8j4MWn+vr9dv4gobqtGFPH68WstyccRrPYM8H2B+oVh544ECOcF522HzPLik3afQcav6cK32sgYZOLiW/424LeNF24+ovOz2y31nWlOx//B438jUXeDc/3odZOwcOXOdNfVIM/rp6q0jU5cKKWeNCcUlp60qOzLrrwI5wfkDzcb4mxqLzr5595HEHOmmBKdCApsJx36mehspPXPWCgdf9VT/Sg2qTQ+Mdx27uFL+w/IwcG4WnOuqmTZtH72hRWTqUr51GDC3ybHB5TUnOP/Rg92CS5klVzpWUipths6T79//WuyDVL7BzYTjHit62wrHHjhakna60C17jlqhwZHjpyQqY2WBc7PgfOnGfVbUoWQmP1C1WazbPcA8WZK8eq1ATnCu40x14QA2fxRYuG6P1Gk9TnSFSROA1aY8LFq/xx9TROysPcctTetNm4a93fXvEWl1CNL3wLk5cK4zl5SUnolYjfcvOfosVsVnV4KsO4VeCzD3zxucWSQnOFczD5luzzysYRnk6IlS0af2f8ksL5EAoGxB/Gd/7R6WVQK/bvUXhqQtkz890S/w9IR1wTfnbkirQza/ePk9cG4OnH+zVqew7BzKdc+UnYtEHcqnPgLmoVjGqovmDOf12k2wSqCwM6s/cz7TebJ85Y72sQ1k+QS/OB1jS4+xgmCm4Rz6kLMtv6yVnT0nX7itXeh1Ejg3B86rPTco7OYm0OsfLj4Vev3Jp50BzAO1ibUXyxnOv/GXjlasgBg1R+hqarNW7JAnO06Uz9doG8uglk8gjPoxOmZy/5GSqNnFl/TobDTZysOmRVSe6jgpqx7Z9Cr0e+DcHDh/pd8sX+ptVE+q05IW6v+gjwfMo+om89KVM5xrZViyYa95SsQoRzoryKhZ60THvX7k+vg/7R50gPXyerf/a1iMnFNYUmu9MiprY3rT84MLu0iMjl68fm9WPbz0mtO5gHNz4FyfObJp0/w6eTqqnwHmNrkz/LzmBecv9X4n/JSTgoQCp06Xydg5GxIPkl5RI/yf2aMaWP1Kl449tmHTG8JPVGuVtTH94LXNRGcgsmX76cPds2ril/f0vMC5GXD+xdvbWfeLtK6e7Wfd8PLcgLktET06+cwLzn/4QNfo5ICUXFBAH7B5e8FmqdtmnGiw9zI4ca7KEPClmkWiY49t2N56d6NrPw2ausoGSRJ5bDl4rmtd/KhDwHnleumHzn6fU2fpsm17Y8qqUOuO2zIFzG1zZjTymxecq6nfXb0rGjkgFY4K6Bh1/dmwUZ8Z8r17u8QiCLoNllHZr0HXKY7am/jhX1u+6dpDf355pIkSOOZp18Hjoa72C5ybAefLNtk1v7lWphaDwr2xddOOKJjbWMccgx0fBqpA3nBeu9VbgSaUixWmgI6PbdhzOqB+lXeN+eqtBworlJgcffbcecllyNTHq7W0ZrVULcLr//GG6xsXN0CQyz42gsN3Dets+L8n7ZmCNDXkPdFhYmj1xk0dA8xTS4v3QSuQN5zr+FMbG4agC8iP6+mCOc92mSxfv6tDpIOjmwAa1j6/rdfHj6KJ5DnfWbYtZ5/oMBhbtgGTV+asj1e+tTEGmwbn+syQjdttDYeFVm+y1T/A3EZHRivPecO5mrvdsPnRyg2pyUkBXaFt5vLt8mjRBPnsLW0iGyizBdIwvu86dnFOWsd553ymDPybRb+s6aqObh6W9cOnwLl3v4T5UT7ZznljA7vmNk+Ng1fW6RnJNgcwTy0l3oelQEFw/tU724s+hMgWfwVOl51NzPpyZ6MRcnnVppEMmtkauqC+//D1zeXI8VPxL3SXOdCVC3PV9nO3trXmYVmV8eEW7sfk56plpv2B8/jCuc5stG7HIZe10KzdtGMorBvaTPUJMDfLZ3HOTUFwribvP2lFnPNP2h0U0FUeddVLXZY+UyCz9bt7m4x2UM3Mj3QIVL7lrMNhbNmmL8196E++uqYeB5zHF85tWVnYKQbs2F+cd1xJ9b+X7wFzp5Lis7AUKBjOdSYQes/DKj7/r6szvug0Xyx2dBECpize4r/wEbnCiz2n592I6nAYWzbtCcznF4ZC4QI4v1gvC9UyyOPvaWzPDb5TDNApf4PUO9u1AHOnUuKzMBUoGM7V9DaNvw2zsMK89qHik9J6yLvWz/byjb90FJ2m0pbtRw92y7sRVa1s2nQ2pGwQ4PX3wHn84PzXj/SWk6VlNlWNSnktGj4/8LqSru4B5pWKhw8ioIAncP7lmkWiD0Wxma+AcumkhZvlhgZvyPurxK9hTBeg3X6u88bbsul4WLe6pNtPp/C0ZVO9gq4TwHm8YtCfnuhn1Qq66er+/U3HFBxb0sWcXD4HzNOVEJ+HrYAncK6VQXuN2OxSQBfOuK/JaGseIL2kShPZsueoNYXcbOCcghvQf/V6xxq9NKM6xWYucFDovsB5fOC82nOD6MT6TzT4/v2vBVpPnOoZYG5VaI5dZj2D8w9UbSa2LMoSu1L2OcHb9x2T+l0miy4+4xQETfns6qcH+KxktE6vP78XWnY/fqhbtDLlc2q6jFlUsGa5aA6cRx/OL726ibzcd6ZVw+EyVbPDxacC/4WpYp0CzDOVEN9FQQHP4FzNryudWTQcNwrlF6k0HDx2Up7rNlU+ekOLQAGlYuD16+9+E+2ZmUhnU/BqiMZ6i6aL02czdIo8vzxY8bzAebTh/Nt3dxabZi1y0yBNmL8psPpRsb7o34C5m1Jin7AV8BTO1fgdRi4IO09cP2QFDhwtSUD6h65rHmoQdgrM+X6mc/La9FxF+xELPCu75m/MDdmRwV6+5kvDPdMum1+B82jCuXZQ6PMpp07b/eCnU817ofu0wOpHxfoDmDuVCJ9FUQHP4VwXaFm19UAU80qaAlZg275joitFXnZN/Bc10ukkbdp0CE/Fhi3fv3Uctk3b6NnrPdMum+bAebTg/DPV28g/e0wTXSuCzVmBX9XtFVj9SK0/gLlzefBpNBXwHM61Mvz8bz2k9MzZaOaYVAWuwPJN+xJDnlIDZdzez121M3DdwrqgDk/y8oZKH6TddfB4WNkJ/Lq67sPna7QNBECA82jAuQJnp1EL5cQpZi3LVOF02JfGg6DjP2CeqVT4LooK+ALnWvG0x5QNBZIK6LMIA6eslK/c0T7wwFxoQ/CDB7oms2HFa+/xyzwvo86jF1mhXTKTT3SY6LmGTj4GzsOBc715/U29PtJkwGzZtPtIsth5zaLAkOmrA6kXqXUFMM9SKHwdSQV8g3OtHDpzARsKpCqgMNGg6xTR2X1SA2iU39s2ZvqWfw7xvGyurT8w1QbGv1+wdrfnGjrVEeA8GDjXX0Kq1h8o/3htirw5d4MUl5w23sN+ZFBXRnXysV+f/fHxvmJjHfGj7DhnsAr4CucKYDOXbw82R1wtFgqs2LxfflG7R6CBOp8GQHvIdls0JEMbMn1uJB+tMh1zedWmolOo2bT98IGunutYUWMbweO793bxRFf15Kert5YrarST/77vtcQc9ToX+YPNxyYe5tRfkKYu2Sp7DjF+3It6q0NdP3lTK0/KrmI9cPobMPei1DhHWAr4CudaYbQy6phjNhSoqEDZ2XOJRlDnAXYKrlH4rPoLQyom2+i//fzZ2aapKNUkTT1YxClbHbARzo2ugAZnbuycDYHFecDcYCNZkjXf4Vwbl//6c0erHgizxDueZXPOqp3ynXs6Bxa4swFP6vfDZ6z1LJ9xONHdr47yrRxu/9ewOEjgWRp1rni/H34Dzj0rLk7kswL6i0RqbPXrPWDuc0Fy+kAUCATOtRL+5OHuovNfs6GAkwI6y4E+ROxXwM7nvDrO9HSZPbMOaV79/NlZ5362aa549bmOtc/He26PAc6dogmfRU0B9enHbvR/BWnAPGolT3ryVSAwONfG5md/BdDzLShbjus6dnFkHhZ9quMkW2RP5HPcvI2+gqTGgJEz11mlad+JK3zVFDi3yk6xzWyPt5b6Wg80tgDmsbUHCXdQIFA41wqkc6DrPMpsKJBOAV3uOqh5otWT6f4t3WjXsxK1A/jl4v6mY9IVu5Gf6y9CfvYYAudG2sa4TP3u0dfTxtl08TeXzwFz4yxjfYYCh3OtcD96sJvoeEw2FEinwNa9R0OdzeXKOj3TJc3Iz8+eOy9fuK2drw2o1n1dQVEfBLZpe6DZGN90Bc5tclI887ps0z7f/K8xBTCPpy9IdWYFQoFzrVBfv6uDrNl2MHPq+NZqBXR8sh9zbqv/sv3rMHKBVdrPWL49qybZNHP7/eRFW6zSdsriLb5pC5xbZaVYZva+Jv7NbQ6Yx9ISJNqFAqHBuTbkn7u1rcxascNFMtnFVgV0KfQ7Gg33DW6cgPKD1zYTXWbapu3pTpMC0/jRogk2SSvnzp9PdEY4ea3Qz4Bzq6wUu8zqL+Q6n3yhPnc6HjCPnR1IcA4KhArnWuEUhHSxBzYUSKeADoOo9Yp/U/xVDPx3/XtEuqQY+/k3a3XypQGtqK3+/ZU72sv588ZK6ZixF7pP80Vf4NxRbj6MiALPdpnsi+8B84gUMMnwTYHQ4TzZeNfvMtm6sai+laqBJ9Yx0fowYdIvfr6On7fJQAXTZ2nx+r2B6JpaZu+u3pU+QQZ+o0P4UvPv1Xvg3ECzGJIlXVlVp0/1yuvJ8wDmhhiEbGRUIDJwrhVPp1qcv3Z3xgTzpb0K6PCAh1u86XmwTwZ9ff3qne1FbwRs2v7V6x1fNU3VN/n+uW5TbZI4kdf//Xtvz3UGzq2zUWwy/Hj7tz33O2Aem+InoQUqECk414ZbV9Sr03qcFJecLjBrHG6iAgrOtzUc5nnQT0LjP3tMM1G2jHnS2ZOS+Q/q9bv3dsmYJhO/1IeMvdYXODfRKfHPk862pUNWvfQ7YB5/X5AD9wpEDs6Tlflrd3WQMXPWu88Je1qjgM7i4kcv5PurNJb1Ow5Zo6NmVPObrHNBv67aesAqrXV9hw9U9RZYgHOrLBSbzN79qrfPCAHmsSl6EuqRApGF8yQo3NloBHOie1TYJp1m98Hj8uWaRZ6C5R8e72uSRK7y0vyNuZ5qmKy3bl5f7TfLVRpN2qlGw6Ge6g2cm+QOM/Iyfek20Y4ONzHAzT6AuRm+IBe5KRB5ONfK+5HrW4iOUWWoS26Fa/rec1ft9LQnspeFswb9+hHvx0G7aXB1H9sWetL6OHzGWs+gRTUEzk2PcvHKn86s9dOHu3vmccA8XuVPar1TIBZwnmzsdQq2vhNXWDcNm3fFbd6Z2g6b50lDoLMK2Hbzt/NAsac9XMl66vZVe9e27Ttmnikz5Oh02Vn57C1tPPEscJ5BaL4KRYGWg737JQ4wD6UIuWhEFIgVnCcbfe1x0xUN2VBA58uu9tyggmHnweZjrRPTjwcUk3XU7WvR8PnW6a6LMLnVJ9t+9JxbZ5/IZlinC/3w9c098TZgHtliJmEBKRBLONcGS3vddNaOZZv2BSQVl4mqArsOHi+4N/KdZduimj3f0nXNMwM8aUizAWSm7696qr9v+YvqiXWO90ya5PIdcB7VUrYrXTqc5Vd1e3nia8DcLu+QW2cFYgvnyQZMp17UFR1tm/nBuTjt/VTHiyc9kevrd+7pbN1QqUPFJ+Wya/xZVjsX/S+9uokcOFpinXG/f/9refs1VV/g3DrrRDLD/359pid+BswjWbwkKgQFYg/nyYZKIV1ndlm7/WAIMnLJsBXQ4S1VnuqfVwNh46whvQu4mUnWOa9ee45bGrZ9Ar++es4L/YDzwIuOC1ZQYOqSraI32YX6GTCvICx/Wq2AMXCeDAzaG6jLvK/YvN/qgrUx8yu37M+5kdCbuu2WPZSo3rj1RW+n9EvWv3xeb35hsHV21Qdh1Xv56JV6DHBunXUilWF9qPyKGu0K9jFgHqliJTERUMA4OE82XDomXR8UnLZkawRkJglBKfDXlm/m1FBc9+zAoJIWmeucOHXGswe3kvWtkNcPXdfcyikBr3668DH/wHlkqpV1CSk9c1Z+9+jrOcVbpzgBmFtnHTLsQgFj4Tw1CPyido/EFIz60Aqb2Qrow6E6L35q+Wd6P2jqKrMFccjd0OlrXOuTSTsvvxsyfbVDSs3+yIuhRcC52R6Jau50GOF9TUYXHEcA86iWMOkKWwEr4DwJEd++u7O0HvKu6MNwbOYq8FTHSa4ajU9Xby2nTpeZK0SanN3TuPBGNVmnvHqt9cqoNKk192OdV1/n1y9EQ+DcXH9EOWcv9pxekG/V84B5lEuYtIWtgFVwnmwEdS7Wh5qPlflrd4etP9f3QQEdz3t51ewzkdRrN8GHq0f7lLoIzqdubl1ww5qsS169fvKmVqI/k9u23Vtg7yNwbptjws/va2MWFxw/APPwy5EURFsBK+E8FSh+WbeX6GwRJaVnol1SpC4nBfSh4NRydnpv483ZhPmbsuripFUQn42btzGnMjZh54kLNxdUHsC5CS6ITx76TFhe8IPMf3qin5XPmMSnlElpFBSwHs6T0PGJaq0Ss7xMWrjZujmvo2BEr9Og4J0sW6fXHz/UzetLxuJ8dVqPy6iLk1ZBfVa71Vux0NDLRJ47f16+emf7vMsEOPeyNDhXJgX0WZVC10YAzDMpzHcocFEB4PyqxpUaxu/e20Ve6TdLdHgEW3wV+OnD3SuVbRI09dkD2zYFwS/eXvi0Z0kNvX79wm3tRNNo29ag65S0Ps2mMXBum1vCya/2mAPm4WjPVe1UADh3gPNkg6jzEOt0Z93fXCIHj/EQadyqSNHw+Y7Qo+PR9x05EbfsFJzemcu3O+qR9HsUXjWNtm06P3++2gPntrkl+Py2GTpPdGrifD2qx9FjHny5ccV4KwCcZ4Dz1GCkQHdDgzdEl4k/XHwq3qVuSer3Hj7huChRjYZDLVGgfDaf6Ty5oAY2tT749V7TaON2ZZ2eeZUNcG6jW4LJs/6I9UL3aXn5MjU+AObBlBdXMUsB4NwlnKcGmw9UbSY3PT84AeoHjpaY5QjDcqMNQ2rZ6fvRs9cblkt32flmrU6VtKioTdh/f6tWJ3eZMWyvdL/yZCsP4NwwI0QkO+qr2/81rOB4AZhHpEBJRuwUAM7zgPPUBlOHvmivV6M+M2TV1gOxM4DpCW43rPzQFh3XfKbMvsWoFq/fW3BDm+p7P98v3bjPdFtWyt/+IyWupv+sqDtwXklKPihQge37jiXatIpey/VvwLzAguBwqxUAzguE84oB6/v3vybPdZsqc1fttPLhtqjVpvU7DpWD0me72Dls4qXe75TToaJvo/T3S31mRM1GgaSn+gtDci4j4DyQorHmIqNmrZPP3tImZx9WjB+AuTWWIaM+KQCcewznqUHqc7e2TUzPOHbOBtHFX9jCUSB1qrrlm+zrlVXVderIVG9G+f1PHu4ejlFCvuqQ6atzLiPgPORCM+TyugDYkx0nFvzgp8YVwNwQU5CNUBUAzn2E81QA0lUZ7351lGgDTIMarOfv+88qjP/7997BXjgiV9uw83DO0Jfq3TDeb9x1OCLqBZcMBaRPV89t9VZiSXDlY+qVdBjZz/6aftrZXOo/YG6qS8hX0AoA5wHBeWqA+/D1zeWORsNl2Dtr5GRpWdBlbt31uo59b7npLmMWWZd3zXCLQXNjB+ctB8+1sqz+3mZ8TmUFnFtpE08yrTeDL/acntezDqntWfK9gvmJU6y07UnhcBLrFQDOQ4DzZDDT14/d2DLRo64ziGiwZPNegQVrd4veEB05bucUmL+t1ycn4Ev1Z1jvf/fo694bIQZnnLNqZ05lBZzHoFAjmMTpS7fJDx7ompPXMsUCwDyChUySYq0AcB4ynKcGPB36okuYz1uzK9amilriT50uS4z9j1q6gkjProPHRWcUSvVZHN5rmvccsm+hKJ1bWlcodltGwHkQtcica2zde1TubDTCtb/c+BAwN8cf5CQ6CgDnEYLz1ECoS8+3H7GABY88qitb9hz16EzxO83CdXvknz2mic4klOqxKL7XJcJ1VV5dldDWxb5e7jvTdTkB5/Grj2Gk+OiJUmnYc3riF0Qv6z1gHkZpck0bFADOIwrnyQD6oeuayz2NR8usFTts8CN59FkBnYv/lX6z5Df1+ng21jTp1Xxfdeq2v7wyUgZOWWktkKcWu95Iul0uHThPVY73FRUoLjmdqO+5Pmjspi4D5hXV5m8U8E4B4DzicJ4aJH/9SG8ZOn0N86d753+rz1RSekamLdmaaLxvbDBIPnlTK9c9tqm+zOW99oz//G895JG246XPhOWydvtB0aEcbOUV+L8nK69s66QzcF5eN/56T4GDx07Kq/1meTJnuZPvAHOchgL+KgCcxwjOk0Hyhw90TUA6UONv5bDt7OfOnxcdkzpl8Rbp9uaSxGJaOqvQL2r3kG/V6iSfqd5GPnJ9i7QAf3nVpompAL92Vwf50YPd5OYXBsvj7d9ODFEZOXOd6JRtzObgzlU9xy1Nq3MyDugrcO5OT1v20mlT67WbIB+9IX09TfVPPu8Bc1vcRD7DVAA4jyGcJwPqlXV6MtwlzNpj8bV15ht9YFMfONWx4Qr2bN4pcKyk1NX4YODcO83jeqYzZedkxMy1Uu25Qb4//A2Yx9UlpDtuCgDnMYZzhXQdm6qL7Bw4WhI375FeFECBDArUemVU1t5z4DyDgIZ/tXLL/sSvW1+8vV1WnyQ7dAp5BcwNNxTZi5QCwHnM4TwZbK+o0U7GztkQKXORGBRAgfwVGDdvY1boAs7z1zeOR+rDwkXD58sfHu+b1RvJtsGLV8A8jm4hzXFWADg3BM41AGsv+ku93+EBuzjXSNKOAv9R4Oy58/KlmkUZIQw4N9suZWfPJR7abtB1ivz4oW4ZveAFhDudAzA322PkLpoKAOcGwXkysOrUixrU2VAABeKtwLNdJmcEMuA83uVbMfX67MaSDXul3bD5clvDYYHMoJRsN5xeAfOKJcTfKBCMAsC5gXCuQfb+pmPoQQ+mDnEVFPBNgWWb9gHnvqkb/on3HTkhOnxJF57S2Y10lWgnSA7jM8A8fH+QAnsVAM4NhXMN5i/1mWGvs8k5ChiigM4Lnw7O6DmPRyHr7Dvz1+5OzO3/XLepcss/h4hOOZquXMP+HDCPh69IpbkKAOcGw7ku+DJ31U5z3UvOUMACBdoMnZcW4oDzcA2gM4hq77euvDt96TYZPG114oHNZzpPFl0j4Fd1e8kXbgtmNhWvgB4wD9dTXB0FVAHg3GA412D9y7q9cDoKoECMFdh7+ITojbYTfNkI5w17Tpc6rcf5+u/PL4+UOxuNuPCvav2Bov80nv7gga7y9bs6JBbcuqRKE8dycSqrOHwGmMc4UJB0oxQAzg2Hc20QJi7cbJRpyQwK2KbATc8PdoRAG+H8u/d2cdQiDvAb5TReW3+gnCwts61qkV8UiKQCwLkFcP5g87GRNB+JQgEUcKfAoKmrHIEUOG/sqEuUITiKaQPM3dVD9kKBoBQAzi2A8y/XLArKT1wHBVDABwVOnS5znMkDOAfOC4V9wNyHCsspUaBABYBzC+Bcg/eR46cKtAqHowAKhKlA7VZvVeolBs6B80LgHDAPs0ZzbRRIrwBwbgmcr91+ML0L+AYFUCDyCsxYvh04FxHGnHtzQwKYR77Kk0CLFQDOgXOL7U/WUSA+Cui0fd++u3M5QKfn3BtQLaT3OY7HAubxqfek1E4FIgHnOhdsuqnC4hj4opjmQ8Un7XQ4uUYBgxTQhcVS4wtwDpyn+sHNe8DcoIBAVoxVIHQ4/9ytbaW45LSs23EoMaesm+DCPrk1SB+o2ky0140NBVAg3gps3n1E3l/lYv0Hzi9qQbuQXQvAPN71n9Tbo0DocN5q8Lvl1J62ZKtcWadnud4hgm72oJtJox8/1K2cxvyBAigQXwX+8HjfC/EROC8sNmaKm6Z9B5jHt86TcvsUCBXOv1SzSEpKz1RSXXt5h0xfLd+s1elCI2RaoAwyP7qUNBsKoIAZCnQdu/hCXATOgXM3bQlgbkbdJxf2KBAqnHcevSij0qfLzkrR8PnyyZtaXWiM3AQi9infYE2YvymjznyJAigQHwWOniiVD1/fPBETgfPysY7YX1kPwDw+dZuUokBSgdDgXHvFFb7dbPuPlMiTHSdeaJAIwJUDcDpNdAGi0jPudHZTFuyDAigQvgJ3/XsEcG7JTFvpYrubzwHz8OsqKUCBfBQIDc77TFiec3oV0hv1mSGfqEZPupvArPvoLw9sKIACZikwds4G4Bw4z/iLMmBuVp0nN3YpEAqcf//+1+TsufynD1FIf6H7NCA9S+OkY/pPlpbZ5WhyiwIWKFB29px84bZ2wrAW978iuu3QMGE/wNyCIEAWjVYgFDgfPG21J6IeKymVZgPnyKert87Yg2BCsM0nD/pQLRsKoICZCjzdaRJwnqWDIp+4GfdjAHMz6zu5skuBwOH8Z3/tLuc8nnQ7CenM7nKxF6lum3F2OZncooBlCixevxc4B87LdUwB5pYFAbJrrAKBw/mYOet9E1Oh/613N8rNLwyWS6o0KRe04t4bkkv6b//XMDlTds43nTkxCqBANBTwuJ8jGpnKkorv3tvF2tieqR0AzLMYh69RIEYKBArnv6rbK7CVKncdPJ4Y8vLVO9tbE8h15cDnuk31/JeJGPmZpKIAChiuAHB+8RfSJKwD5oabnuxZp0CgcD55KcVP3wAAHkVJREFU0ZbABdbpGgdNXSXVnhskl1dtaiyof/vuzhKGvoEXKBdEARSwWgHgvDycA+ZWVwcyb6gCgcF5laf6hy7hwWMnRVfXu+aZAcaAui5GojPXMCtL6PYiASiAAgEoAJxfhPPrnh1I7A/Ac1wCBYJWIDA4n71yR9B5y3i9I8dPJXrU7351lFxRo13setR1rncdwrL38ImM+eRLFEABFDBJAeD8PTgHzE1yNXlBgfIKBALnOqQkyps+VLVi835pP2KB3NFouHz9rg6RhHUdlnPT84Ol/6QVVs7SEGUPkTYUQIFgFADOGwtgHozXuAoKhKWA73CuDynqlF9x2/YcOiE6s0zzN+bK31q9JVc91V++ckewD5fq/O1/fLxvYtjKuHkbpbjkdNxkJL0ogAIo4KkCtsM5YO6pnTgZCkRSAd/hXHuiTdpOnDojSzfuk+Ez1kqXMYukyYDZ8o/XpiQAvuZLw+XqpwfIlXV6Jv7pnO7fqtWp0r/v3NM58b2Cd9X6A+Uvr4yUJzpMlMb9Z0vv8ctkyuItojcHbCiAAiiAAuUVsBnOAfPyXuAvFDBVAV/h/NKrm8iqrQdM1Y58oQAKoAAKBKyArXAOmAdsNC6HAiEq4Cuc3990TIhZ49IogAIogAKmKWAjnAPmprmY/KBAZgV8g3N9eHHjrsOZr863KIACKIACKJCDArbBOWCegznYFQUMUcA3OK/bZpwhEpENFEABFECBqChgE5wD5lFxHelAgWAV8AXOP3Rdc9m+71iwOeFqKIACKIACxitgC5wD5sZbmQyiQFoFfIHzpztNSntBvkABFEABFECBfBWwAc4B83zdwXEoYIYCnsP5R29owaqVZniDXKAACqBA5BQwHc4B88hZjgShQOAKeA7nL/acHngmuCAKoAAKoIAdCpgM54C5HR4mlyiQTQFP4fyTN7WSQ8Uns12T71EABVAABVAgLwVMhXPAPC87cBAKGKmAp3D+ar9ZRopEplAABVAABaKhgIlwDphHw1ukAgWiooBncP65W9tKccnpqOSLdKAACqAAChiogGlwDpgbaFKyhAIFKuAZnLce8m6BSeFwFECBigocPVEqx09y01tRF/62VwGT4Bwwt9fH5BwFMingCZx/qWaRlJSeyXQdvkMBFMhDgaYD54iuG1C1/kApGj5fdh08nsdZzD/k7LnzMmvFDnmu21T5Re0eojc1bGYqYAqcA+Zm+pNcoYAXCngC551HL/IiLZwDBVCgggK/f+x1+X9XNb7w75IqTeTXj/SWhj2ny/Sl2+R02dkKR9jz56bdR6Tr2MVyZ6MRog+jp+r0+tvL7RHCspyaAOeAuWWmJbsokKMCBcP5N2t1shoQctSb3VHAtQIHjpbIpVc3KQedqQCq73VdgWrPDZImA2YnYP3EKXN/wdq467D0m7hCard6S75Vq1NGXW5sMMi1zuwYLwXiDucK5qdOl8VLdFKLAigQqAIFw3mfCfRQBVpiXMwaBbT3tyKMZ/v7smuaypV1ekq9dhOk25tLZN6aXbEccrbn0AmZMH+TNBs4R2o0HCpfuK1dTlpcXrWp6M0Nm3kKxBnOAXPz/EiOUMAPBQqC8+/f/5roWE82FEAB7xW4o9HwnIA0HbjrUJjv3dtFar40XBp0nZKA9qlLtsq2fcfk3Pnw6u+ZsnOyYedhGT9vk3QYuUCe7DhRrq0/UK6okRuIp8t3lzEMt/PeleGfMa5wDpiH7x1SgAJxUaAgOB88bXVc8kk6USBWCuhY8k9UKz+OOh2EFvK59jB/9c728pt6feTWF4fKo0UT5OW+MxMPn+qvYiNnrpMpi7fIwnV7ZPmmfaLjvPXf5t1H5HDxqcS/LXuOXvh81dYDiX0V/kfNWifa+99+xAL59+sz5ZG24+WWfw6RX9XtJV+5o71oL38hac927P892S9WZU5i3SkQRzgHzN2VLXuhAAq8p0DecP6Th7uH2utGAaKAyQq8vWCzr+CaDWxN+F5/Mdixv9hkm1iZt7jBOWBupU3JNAoUpEDecP7m3A0FXZiDUQAF0ivwWNHbwHnKLDX53iyw/kJ6j8X1mzjBOWAeV5eRbhQIV4G84Fx/lg5xqGq4inF1FAhAAZ0FKV8g5biLU09qrGIzS4G4wDlgbpbvyA0KBKlAXnCuY1DZUAAF/FFAx3YD2BcBu1At1u845E9BcdZQFIgDnAPmoViDi6KAMQrkDOd/eoKHrIwpfTISSQUa958NnHswpCUJ9a/0mxXJciZR+SkQdTi//h9vMI95fkXLUSiAAv9RIGc4n7NqJ+KhAAr4qIDOnJIES14L70HXKV/ZzFEgynAOmJvjM3KCAmEqkBOc3/zC4DDTyrVRwHgF9h05ITrLCFBeOJSnaqhDhdjMUCCqcA6Ym+EvcoECUVDANZy/v0pjWbx+bxTSTBpQwFgFeo1fBph7OKQlCegvdJ9mrGdsy1gU4Rwwt82F5BcF/FXANZzf2WiEvynh7NYqcKykNLFQjbUCpGRcV/FMAiWv3vWe6+w3zDCVYrQYv40anAPmMTYTSUeBiCrgGs4b9pwuZWfPRTQbJCuuCuw9fCKxYmTXsYvjmgXP0l165qx8vFpL4NyHnnO90ZnL8zKeeTXME0UJzgHzMJ3AtVHAXAVcw7k2bj94oGtiOW9z5SBnQSqgq2B+vkZb+dB1zeXI8VNBXjqS15owfxNg7hOYa/x6suPESJY7icpNgajAOWCeW7mxNwqggHsFcoLz5M/sv36kt0xfus39VdgTBVIU0OEFzQbOkUuvfu/Bx7+8MjLlW3vf1ms3ATj3Ec6/eHs7OXvuvL0GMyTnUYBzwNwQM5ENFIioAnnBeRLSb2wwSOat2RXRrJGsKCpw9ESp3NZwWDkIHTdvYxSTGnia/uvPHcvpkqxnvHo39pwF1AK3tecXDBvOAXPPi5QTogAKVFCgIDhPQkPV+gOB9ArC8mdlBfRG7jv3dC4HoF+uWURvpogs3ciqoMl44udr7VZvVTYmn8RKgTDhHDCPlVVILArEVgFP4DzZmN70/GCZuXx7bMUg4f4ooEMJGvWZIZdd07QcmKtv/vHaFH8uGrOzvtpvViVtkvWKV+96zj9TvY2cLjsbM3eQ3FQFwoJzwDy1FHiPAijgpwKewnkSIn7/2OsyevZ6OcfcZX6WXSzOrYu//O/fe6cFz5Vb9sciH34nklVBvQPwZBxK9zp2zga/i5Pz+6hAGHAOmPtYoJwaBVCgkgK+wHmyUfzhA12l57ilcup0WaUL84HZCui0gP/q9Y5cXrVyb3nSH7+s28tsEVzmTqeTZFXQ4OD8nsajXZYMu0VRgaDhHDCPogtIEwqYrYCvcJ6EsM/d2lZ0hb7t+46ZrSa5SyigUwL+932vpe0tT/qiw8gFKCaSuIFNasKr/5D+sRtbSknpGbwXUwWChHPAPKYmIdkoEHMFAoHzJHDomOM7Gg1PTMPIiJeYO8ch+Rt2HpbqLwzJCuXqhw9UbSYHj510OIt9H1WcvSZZX3j1D9QHT1ttn9EMyXFQcA6YG2IYsoECMVQgUDhPhY3v3dtFmr8xV/YcOhFD2UhyqgL7jpxILPDywWubuQJz9cHt/xqWegpr3+uQL+3JTa0bvPcPypPa6g0RWzwVCALOAfN4eoNUo4ApCoQG58lGUsck12g4VPQhrTNl50zR1Yp8HC4+lRiu9NEbWuQMl/rAMJuIzvGerAu8+g/lSY11VVqdc58tfgr4DeeAefw8QYpRwDQFQofzZGOprzo2/dGiCTJ75Q5h2Et0rbb74HFp0HWKfKJaq7zA8ooa7bgR+0/xsipocECeGmv0fe/xy6JbyUhZWgX8hHPAPK3sfIECKBCgApGC89TG81u1OknDntNlyYa9AcrBpTIpsHrrAflbq7ckl+ErqWWafP9Ux0mZLmPNd3oD+vW7OuR1g5PUktf84V5BjC1+CvgF5zc0eIOZxeJnB1KMAkYqEFk4T4UOXdb8yY4TZdaKHcydHrANdQEhHXKkq8C+v0r+IJRantxwvVeIqkOqLrz3xl9uddQH1HUaS7Z4KeAHnAPm8fIAqUUB0xWIBZynNra63LsuwT1i5lopLjltevmElr9VWw/I892mypdqFnkKkD99uHtoeYrahV9hVVBPvZUaJ9y+7zRqYdRsQXqyKOA1nAPmWQTnaxRAgcAViB2cpza6+jBplaf6S4tBcxPDX1iRtDD/7NhfLG2HzZP/qd3TN2hqPeTdwhJp0NGZVk5N9Tnv/etR/+PjfQ1ylB1Z8RLOAXM7PEMuUSBuCsQazitCy8ertUwMv2g2cI4sXLeHITAu3Lhp9xEpGj5f/vB4X8+GrVQsl+TfOoyAqTPfKxR9qNarYUJJfXnNHeK1DLbuPeqiprBLVBTwCs4B86iUKOlAARSoqIBRcF4RTj5TvY1Ue26QvNx3pkxcuFmOlTB12qHikzJ0+hqp03qcfLNWJ996yCuWhf6tD/l2HbuYf2MXS9024wLV3qk8+Ow9mL+/6Rg8GaN6qbM9FepdwLwiCvA3CqBAlBQwGs4rBvBLqjSRHz3YTe5tMlpaDp4rkxZulv1HSqJUHp6nZcueozJg8kp5rOht+UXtHnLp1U0Kbtgq6srfuffYohma4YFwPACYe97McEIUQAGPFbAKztM1hvqQ6bX1ByYAVh8QU2jfvu+Yx1L7ezpdwGnNtoMyaOoqea7bVNFp4r5wW+E9TOk04/NwwALd0R0P5O8BwNzfdoizowAKeKMAcH5V+kD/4eubyw8e6JoAXZ0hRmfX6DtxRWKIzLJN+0THDZedDWZVU73OzgPFMmfVzsSwFH1wU6eXvLHBIPnOPZ1Fx3PTaKcvS7RBGzxgtwcAc2+ggbOgAAr4rwBwngHO3Tbmn6/RVr53bxe5sk5PueaZAXLri0PlnsajE+O6FaC1Jzv5r+nAOaIPrOq/xv1nX/hcV9zUceAPNR8rdzYakYDuXz/SOwHen67eGvD2oJzclif72Q1xlL955Q+Y+w8TXAEFUMA7BYBzoA/wxwN4AA8Y6wHA3Dtg4EwogALBKACc0ygb2yjTA2peDyhlSpnm4gHAPBiQ4CoogALeKgCcA+fAOR7AA3jAOA8A5t7CAmdDARQITgHgnEbZuEY5l5419qUnFg+Y5wHAPDiI4EoogALeKwCcA+fAOR7AA3jAGA8A5t6DAmdEARQIVgHgnEbZmEaZHlDzekApU8o0Fw8A5sECBFdDARTwRwHgHDgHzvEAHsADsfcAYO4PJHBWFECB4BUAzmmUY98o59Kzxr70xOIB8zwAmAcPD1wRBVDAPwWAc+AcOMcDeAAPxNYDgLl/gMCZUQAFwlEAOKdRjm2jTA+oeT2glCllmosHAPNwwIGrogAK+KsAcA6cA+d4AA/ggdh5ADD3Fw44OwqgQHgKAOc0yrFrlHPpWWNfemLxgHkeAMzDgwaujAIo4L8CwDlwDpzjATyAB2LjAcDcfzDgCiiAAuEqAJzTKMemUaYH1LweUMqUMs3FA4B5uMDA1VEABYJRADgHzoFzPIAH8EDkPQCYBwMFXAUFUCB8BYBzGuXIN8q59KyxLz2xeMA8DwDm4cMCKUABFAhOAeAcOAfO8QAewAOR9QBgHhwQcCUUQIFoKACc0yhHtlGmB9S8HlDKlDLNxQM3Nhgkp06XRaO1JBUogAIoEJACwDlwDpzjATyAByLnAcA8IArgMiiAApFTADinUY5co5xLzxr70hOLB8zzgG1gfvDYSVmyYa9MWrhZxsxZL+PmbZRpS7bKis37paT0TOTAgQShAAr4qwBwDpwD53gAD+CByHjAdDA/f15k1ood0qjPDLnmmQHymeptsmr/tbs6SM2Xhku7YfNl3Y5D/lIBZ0cBFAhdAeCcRjlrw0DPpHk9k5QpZRpFD5gM5tv2HZPnuk0VBe1Ctf+f2j2laPh8KS45HTpEkAAUQAHvFQDOgfOCG4pCGxqOBxTxAB4wFcw37josd786Si67pqnnsfZTN7eWF3tOl2Mlpd7TAWdEARQITQHgHDj3vMEAtAAtPIAHcvGAiWB+srRMGnSdIh+8tlnWGPvlmkWJIS73NRktdVqPS/yr9coo+U29PqIAnk3LL9zWTnqNXxYaSHBhFEABbxUAzoHzrIE/W8PA94AYHsAD+XrARDBfsHa3fP/+19LG1vdXaSxXPdVfur+5RLbuPZqxVdcx6vqwaJMBs+UHD3RNe07V/+YXBsvewycyno8vUQAFoq8AcA6cZwz2+Ta4HAes4QE8kM0DJoJ5v4kr0vaWX3p1E7m/6RhZu/1g3nSgM7r88fG+aeP2V+9sL4vX7837/ByIAigQvgLAOXCeNshna1j5HvjCA3ggXw+YCOav9psl2ivupIk+xLlw3R7PWv2BU1aKDmdxutZHb2ghby/Y7Nm1OBEKoECwCgDnwLljcHcK+Hzm3OiiC7rggdw8oGBeeuZssK2dz1drOXhu2liq48hPl3mf3/1HSqRq/YGO1/3w9c1l8qItPuea06MACvihAHAOnDsGdmAjN9hAL/TCA+48YCKY68OYTuV/SZUm0nn0Ij/a7gvnLDt7Tu5tMtrx+h+7saUs37Tvwr68QQEUiIcCwDlw7hjUnRoaPnMHH+iETnjA2QMmgvm7q3c5jjHX4S36wGfFbfbKHYmVQHXseLZ/em4dn3723PmKpyn397nz5xNj2Z189+27O8vh4lPl9ucPFECBaCsAnAPnwDkewAN4wHcPmAjmJaVn5Dv3dHbU7qU+Mxxb//++L/0sLk5wrZ996Lrm8vvHXpe2w+bJgaMljuc9U3YuMR2j0zm0Z50NBVAgPgoA5zTKjg2LU4DnM+feQHRBFzyQ2QMmgrk28892mewYP695ZoBob7bTlg+cp/pL5z3vMHKB06kT0yh+8Xbnh0TfnLvB8Rg+RAEUiJ4CwDlw7ti4pDYGvM8MHuiDPnggvQdMBfPNu4/IB6pWXmBIx3nv2F+ctrUvFM6TXnus6G3Ha4ycuc4xpuu869mGxziekA9RAAUCVwA4B84dA3myAeA1PXSgDdrggcweMBXMtaV+sPlYx9ipiwVl2irC+V9bvpmYYlGnWUz9N3P5dnljyiqp126C6AqiTl7TOdWdtuuedZ7Bpc+E5U678xkKoEDEFADOgXPHoO/UEPBZZhBBH/TBAxc9YDKY7ztywrHX/LO3tJETp85kbOYrwnnDntMz7q9fao930fD5ctk1TcvF66/d1cFx+MzcVTvL7Zf05c/+2j3rtdgBBVAgfAWAc+DcMYgngzmvF2EDLdACD7jzgMlgrs12ujnNX3QB2vnAeRIV2g2bXyleaw+70/aHNKuILli722l3PkMBFIiQAsA5cF4p2AMg7gAEndAJD1T2gOlgru33lXV6OsbN9TsOZW3eC4FzXcio4jj3rmMXO15Tp3F08mf9LpMd9+dDFECB6CgAnAPnjgHcKajzWWUQQRM0wQMXPWADmOuqnLq4UMVy//nferhq2QuBc72ADmVJvfbLfWc6XvdQ8Um59OrK6fzJwwxtcRSMD1EgQgoA58B5uUCfGvR5fxE60AIt8EBmD9gA5tp2D52+xjFmPt1pkqumvRA4P3W6rNK4844jF6a97v/UrtzDr4sj6Q0GGwqgQHQVAM6Bc8eGBhDJDCLogz544KIHbAFzbcp1cSGnsh8yfbWrlr4QONf5zSte+51l29Je99GiCZX21+OnLdma9hi+QAEUCF8B4Bw4dwzeFRsA/r4IImiBFnjgogdsAnNtsu/69wjHmLl04z5XLXo+cK7rGfWduEI+eG35edX/688dHWdrSSak/YjKMK/e7TQqfW978lheUQAFwlMAOAfOHRsa4OMifKAFWuABZw/YBubaVP/piX6OMfPI8VOuWvKKcJ5unvNJCzfL4Gmr5Z89pomOE3fyoC44lGkbPXu943Ev9X4n02F8hwIoELICwDlw7hi8nRoCPnMGFHRBFxs9YCOYa3v9i9o9KsVMHcftdvXNinCer3fSPQiayhQ6fMXp/G7Hx6eei/cogALBKQCcA+eOwdspoPMZEIoH8IB6wFYw16b5Bw90rRQzL6/a1HWrXSic60JHA6esdHW9uWkWI6rbZpyr49kJBVAgHAWAc+C8UkMDgAFgeAAPpPNAtecGSemZs+G0WBG46i/r9nKMmWfKzrlKXT5wrj3zurpn8zfmyrGSUlfX0Z0mL9rimFbmOnctITuiQCgKAOfAuWPwTtcw8znQhgfs9YDtYK6tdJWn+jvGzIPHTrpqxCvCuWqqCwkl/3UZs0g+Ua1VuWvkO0Z8+Iy15c6TrLv/ft15bnRXGWAnFEAB3xUAzoFzx+CdDOK82gtilD1ln+oBwPy99vi+JqMdY+aCtbtdNdgV4bxhz+mVjisaPr/cNT5yfQvZuvdopf2yfdBy8Nxy50mWZ6/xy7IdyvcogAIhKgCcA+eOwTsZxHkF0PAAHgDML7bSTQfOcYyZ/SetuLhThndu4FwfLq24gJBO4ZjrVqf1OMe0zl21M9dTsT8KoECACgDnwLlj8AbIADI8gAfUA4B5+Rb5rXc3OsZMXfDHzeYGzvU889bskkuqNCl3LZ1eMZftxw91K3e8ludl1zTNadx6LtdjXxRAAW8UAM6B80rBGygDyvAAHgDMnRvZ4pLTorOzVKwjP3ygq/MBFT51C+d62N/bjC93ne/f/5qcLnP3MO6+IydEHyStmM7f1utTIUX8iQIoEDUFgHPgvFLwrhjM+btyA4cmaGK6B+gxT99cp1uIaNXWA+kP+s83ucD54eJTckWNduVidLOBc7JeQ3foPHpRueOSfn2pzwxXx7MTCqBAeAoA58C5YwBPBnJegVA8YJ8HAPPMjfJrYxY7xs3nu03NfKCI5ALnerK+E1eUu9ZHb2gh2/cdy3od7SGvWHe1J33t9oNZj2UHFECBcBUAzoHzSgG8YkDnb/vgjDK3t8wB8+yN8tETpaIzqFSsJ5+u3lqOnzyd8QS5wvn58yJXPz2g3LXubJT54dB3V+8qt38ynX94vG/GtPElCqBANBQAzoFzxyCeDOa82gtplL19ZQ+Yu2+Yn+gw0TF2NhkwO+NJcoVzPZkOl/lA1Wblrjcxw8Oh19YfWG7fZF0eMXNtxrTxJQqgQDQUAM6Bc8cgngzmvNoHaJS5nWUOmOfWKO8+eFw+fH3zSvHzYze2lJ0HitOeLB8415PpkJnUuqnncXo4dNSsdeX2Sx6jUzNqLzwbCqBA9BUAzoFzx0CeDOi82glqlLtd5Q6Y59dYN+ozwzF+Xv+PN9KCcL5wXlJ6Rr7xl47lrqdzrqduB46WyJdrFpXbR+uyjjWftmRr6q68RwEUiLACwDlwXimQA2Z2gRnlbXd5A+b5t9Dac/2jByvPJa51qnF/5+Et+cK5pnLMnPXl4rU+HLrtPw+Hlp09Jzc0eKPc98m6rYsRsaEACsRHAeAcOHcM5smgzqvd4Eb5m13+gHnhjfWSDXsdHw7V3mqnVUNnr9whuphQ8t/GXYdzSsQ7y7ZdOFbPsXXv0UQvfd02zquB6tzox0pKc7oGO6MACoSrAHAOnAPneAAPWOgBwNy7xrdfhekOkze1l17dRPpMWO7dhRzOdPbceand6i3HOvyJaq1kzTamTnSQjY9QINIKAOcWNsrJhoNXs3tFKV/KN50HAHPv22VdHMhJb+1Bf6H7NFGI9no7eOxk2qEs+rAq48y9VpzzoUAwCgDnwLljg+LUyPAZsIcH4u8BwNy/xvWVfrPSxtPfPfq6rNi837OLj5y5Tr56Z3vH6+lY9AnzN3l2LU6EAigQrALAOXDuGNyBsPhDGGVIGVb0AGDufwPbe/yySnOSJ8vh8qpNRR/O3Lz7SN4JmbVih6Sbx1yv86WaRbJw3Z68z8+BKIAC4SsAnAPnwDkewAMWeOCm5wdL6Zmz4bc6FqRgzqqd8q1andLWKx2LrtMt6nj0XQePZ1Vk5Zb90mrwu/Kzv3ZPe04Fc4V2N+fLekF2QAEUCFUB4NyCRjnZa8MrPal4wE4PAObBt7PFJaflkbbjRUE8W737rz93lOueHSgPNR8ruvJovXYT5L4mo+WPj/eVz97SJuvxn7q5tbQfsSDt3OrB554rogAKFKIAcA6cZw382RoWvrcT+Cj3eJQ7YF5IE1n4scs37ZMbGwxKLATkdZ350HXN5dGiCbL/SEnhCeUMKIACkVEAOAfOgXM8gAcM9QBgHpm2VhTSH27xpuj0hoVC+tfv6iANe06XvYdPRCeDpAQFUMAzBd6n4+L4hwZ4AA/gAbM8UOuVUXKm7JxnjQUn8kaBU6fLZMTMtYkhLz98oKsrUNcHSXW2F52SUR8IPe/9rIzeZI6zoAAKeKLA/wcRaUlxsUAo1AAAAABJRU5ErkJggg==;" parent="RU4EYPsR_D7hi8bJ4MLe-1" vertex="1">
          <mxGeometry x="940" y="190" width="110.95" height="54.95" as="geometry" />
        </mxCell>
        <mxCell id="RU4EYPsR_D7hi8bJ4MLe-13" value="" style="shape=image;verticalLabelPosition=bottom;labelBackgroundColor=#ffffff;verticalAlign=top;aspect=fixed;imageAspect=0;image=data:image/png,iVBORw0KGgoAAAANSUhEUgAAAyAAAAJYCAYAAACadoJwAAAgAElEQVR4AeydBZQdx7V2//AL28kLMzvkML/khfnFScwks2XZlmUWy2KLLbbYYouZyWKLmVka0WjEjD7/+sq59mg0cKFv4+61Zs3Mha7uXaer6qs659T/Mw4IQAACEIAABCAAAQhAAAI+Efh/PpVDMRCAAAQgAAEIQAACEIAABAwBghFAAAIQgAAEIAABCEAAAr4RQID4hpqCIAABCEAAAhCAAAQgAAEECDYAAQhAAAIQgAAEIAABCPhGAAHiG2oKggAEIAABCEAAAhCAAAQQINgABCAAAQhAAAIQgAAEIOAbAQSIb6gpCAIQgAAEIAABCEAAAhBAgGADEIAABCAAAQhAAAIQgIBvBBAgvqGmIAhAAAIQgAAEIAABCEAAAYINQAACEIAABCAAAQhAAAK+EUCA+IaagiAAAQhAAAIQgAAEIAABBAg2AAEIQAACEIAABCAAAQj4RgAB4htqCoIABCAAAQhAAAIQgAAEECDYAAQgAAEIQAACEIAABCDgGwEEiG+oKQgCEIAABCAAAQhAAAIQQIBgAxCAAAQgAAEIQAACEICAbwQQIL6hpiAIQAACEIAABCAAAQhAAAGCDUAAAhCAAAQgAAEIQAACvhFAgPiGmoIgAAEIQAACEIAABCAAAQQINgABCEAAAhCAAAQgAAEI+EYAAeIbagqCAAQgAAEIQAACEIAABBAg2AAEIAABCEAAAhCAAAQg4BsBBIhvqCkIAhCAAAQgAAEIQAACEECAYAMQgAAEIAABCEAAAhCAgG8EECC+oaYgCEAAAhCAAAQgAAEIQAABgg1AAAIQgAAEIAABCEAAAr4RQID4hpqCIAABCEAAAhCAAAQgAAEECDYAAQhAAAIQgAAEIAABCPhGAAHiG2oKggAEIAABCEAAAhCAAAQQINgABCAAAQhAAAIQgAAEIOAbAQSIb6gpCAIQgAAEIAABCEAAAhBAgGADEIAABCAAAQhAAAIQgIBvBBAgvqGmIAhAAAIQgAAEIAABCEAAAYINQAACEIAABCAAAQhAAAK+EUCA+IaagiAAAQhAAAIQgAAEIAABBAg2AAEIQAACEIAABCAAAQj4RgAB4htqCoIABCAAAQhAAAIQgAAEECDYAAQgAAEIQAACEIAABCDgGwEEiG+oKQgCEIAABCAAAQhAAAIQQIBgAxCAAAQgAAEIQAACEICAbwQQIL6hpiAIQAACEIAABCAAAQhAAAGCDUAAAhCAAAQgAAEIQAACvhFAgPiGmoIgAAEIQAACEIAABCAAAQQINgABCEAAAhCAAAQgAAEI+EYAAeIbagqCAAQgAAEIQAACEIAABBAg2AAEIAABCEAAAhCAAAQg4BsBBIhvqCkIAhCAAAQgAAEIQAACEECAYAMQgAAEIAABCEAAAhCAgG8EECC+oaYgCEAAAhCAAAQgAAEIQAABgg1AAAIQgAAEIAABCEAAAr4RQID4hpqCIAABCEAAAhCAAAQgAAEECDYAAQhAAAIQgAAEIAABCPhGAAHiG2oKggAEIAABCEAAAhCAAAQQINgABCAAAQhAAAIQgAAEIOAbAQSIb6gpCAIQgAAEIAABCEAAAhBAgGADEIAABCAAAQhAAAIQgIBvBBAgvqGmIAhAAAIQgAAEIAABCEAAAYINQAACEIAABCAAAQhAAAK+EUCA+IaagiAAAQhAAAIQgAAEIAABBAg2AAEIQAACEIAABCAAAQj4RgAB4htqCoIABCAAAQhAAAIQgAAEECDYAAQgAAEIQAACEIAABCDgGwEEiG+oKQgCEIAABCAAAQhAAAIQQIBgAxCAAAQgAAEIQAACEICAbwQQIL6hpiAIQAACEIAABCAAAQhAAAGCDUAAAhCAAAQgAAEIQAACvhFAgPiGmoIgAAEIQAACEIAABCAAAQQINgABCEAAAhCAAAQgAAEI+EYAAeIbagqCAAQgAAEIQAACEIAABBAg2AAEIAABCEAAAhCAAAQg4BsBBIhvqCkIAhCAAAQgAAEIQAACEECAYAMQgAAEIAABCEAAAhCAgG8EECC+oaYgCEAAAhCAAAQgAAEIQAABgg1AAAIQgAAEIAABCEAAAr4RQID4hpqCIAABCEAAAhCAAAQgAAEECDYAAQhAAAIQgAAEIAABCPhGAAHiG2oKggAEIAABCEAAAhCAAAQQINgABCAAAQhAAAIQgAAEIOAbAQSIb6gpCAIQgAAEIAABCEAAAhBAgGADEIAABCAAAQhAAAIQgIBvBBAgvqGmIAhAAAIQgAAEIAABCEAAAYINQAACEIAABCAAAQhAAAK+EUCA+IaagiAAAQhAAAIQgAAEIAABBAg2AAEIQAACEIAABCAAAQj4RgAB4htqCoIABCAAAQhAAAIQgAAEECDYAAQgAAEIQAACEIAABCDgGwEEiG+oKQgCEIAABCAAAQhAAAIQQIBgAxCAAAQgAAEIQAACEICAbwQQIL6hpiAIQAACEIAABCAAAQhAAAGCDUAAAhCAAAQgAAEIQAACvhFAgPiGmoIgAAEIQAACEIAABCAAAQQINgABCEAAAhCAAAQgAAEI+EYAAeIbagqCAAQgAAEIQAACEIAABBAg2AAEIAABCEAAAhCAAAQg4BsBBIhvqCkIAhCAAAQgAAEIQAACEECAYAMQgAAEIAABCEAAAhCAgG8EECC+oaYgCEAAAhCAAAQgAAEIQAABgg1AAAIQgAAEIAABCEAAAr4RQID4hpqCIAABCEAAAhCAAAQgAAEECDYAAQhAAAIQgAAEIAABCPhGAAHiG2oKggAEIAABCEAAAhCAAAQQINgABCAAAQhAAAIQgAAEIOAbAQSIb6gpCAIQgAAEIAABCEAAAhBAgGADEIAABCAAAQhAAAIQgIBvBBAgvqGmIAhAAAIQgAAEIAABCEAAAYINQAACEIAABCAAAQhAAAK+EUCA+IaagiAAAQhAAAIQgAAEIAABBAg2AAEIQAACEIAABCAAAQj4RgAB4htqCoIABCAAAQhAAAIQgAAEECDYAAQgAAEIQAACEIAABCDgGwEEiG+oKQgCEIAABCAAAQhAAAIQQIBgAxCAAAQgAAEIQAACEICAbwQQIL6hpiAIQAACEIAABCAAAQhAAAGCDUAAAhCAAAQgAAEIQAACvhFAgPiGmoIgAAEIQAACEIAABCAAAQQINgABCEAAAhCAAAQgAAEI+EYAAeIbagqCAAQgAAEIQAACEIAABBAg2AAEIAABCEAAAhCAAAQg4BsBBIhvqCkIAhCAAAQgAAEIQAACEECAYAMQgAAEIAABCEAAAhCAgG8EECC+oaYgCEAAAhCAAAQgAAEIQAABgg1AAAIQgAAEIAABCEAAAr4RQID4hpqCIAABCEAAAhCAAAQgAAEECDYAAQhAAAIQgAAEIAABCPhGAAHiG2oKggAEIAABCEAAAhCAAAQQINgABCAAAQhAAAIQgAAEIOAbAQSIb6gpCAIQgAAEIAABCEAAAhBAgGADEIAABCAAAQhAAAIQgIBvBBAgvqGmIAhAAAIQgAAEIAABCEAAAYINQAACEIAABCAAAQhAAAK+EUCA+IaagiAAAQhAAAIQgAAEIAABBAg2AAEIQAACEIAABCAAAQj4RgAB4htqCoIABCAAAQhAAAIQgAAEECDYAAQgAAEIQAACEIAABCDgGwEEiG+oKQgCEIAABCAAAQhAAAIQQIBgAxCAAAQgAAEIQAACEICAbwQQIL6hpiAIQAACEIAABCAAAQhAAAGCDUAAAhCAAAQgAAEIQAACvhFAgPiGmoIgAAEIQAACEIAABCAAAQQINgABCEAAAhCAAAQgAAEI+EYAAeIbagqCAAQgAAEIQAACEIAABBAg2AAEIAABCEAAAhCAAAQg4BsBBIhvqCkIAhCAAAQgAAEIQAACEECAYAMQgAAEIAABCEAAAhCAgG8EECC+oaYgCEAAAhCAAAQgAAEIQAABgg1AAAIQgAAEIAABCEAAAr4RQID4hpqCIAABCEAAAhCAAAQgAAEECDYAAQhAAAIQgAAEIAABCPhGAAHiG2oKggAEIAABCEAAAhCAAAQQINgABCAAAQhAAAIQgAAEIOAbAQSIb6gpCAIQgAAEIAABCEAAAhBAgGADEIAABCAAAQhAAAIQgIBvBBAgvqGmIAhAAAIQgAAEIAABCEAAAYINQAACEIAABCAAAQhAAAK+EUCA+IaagiAAAQhAAAIQgAAEIAABBAg2AAEIQAACEIAABCAAAQj4RgAB4htqCoIABCAAAQhAAAIQgAAEECDYAAQgAAEIQAACEIAABCDgGwEEiG+oKQgCEIAABCAAAQhAAAIQQIBgAxCAAAQgAAEIQAACEICAbwQQIL6hpiAIQAACEIAABCAAAQhAAAGCDUAAAhCAAAQgAAEIQAACvhFAgPiGmoIgAAEIQAACEIAABCAAAQQINgABCEAAAhCAAAQgAAEI+EYAAeIbagqCAAQgAAEIQAACEIAABBAg2AAEIAABCEAAAhCAAAQg4BsBBIhvqCkIAhCAAAQgAAEIQAACEECAYAMQgAAEIAABCEAAAhCAgG8EECC+oaYgCEAAAhCAAAQgAAEIQAABgg1AAAIQgAAEIAABCEAAAr4RQID4hpqCIAABCEAAAhCAAAQgAAEECDYAAQhAAAIQgAAEIAABCPhGAAHiG2oKggAEIAABCEAAAhCAAAQQINgABCAAAQhAAAIQgAAEIOAbAQSIb6gpCAIQgAAEIAABCEAAAhBAgGADEIAABCAAAQhAAAIQgIBvBBAgvqGmIAhAAAIQgAAEIAABCEAAAYINQAACEIAABCAAAQhAAAK+EUCA+IaagrwgcO7iBTt8+qTtOlpkawsLbO6O9TZm3WLrveQVazt3nNWaNMBuH9TWftmljn29dTX7XLOH7OON77Or61ey99W93d5d51Z7Z62b7W01b7T/V/169/OWGje4//X6e+rcZh987k77SMN77NNNH7Svtapq//NibbtlYBt7dkI/azNnrCtLZc7Zvt5W79/prkXXpGvjCJbAxUuX7PT5c3bo1Anbc+yQbTtU6Oro1Z0bbcaW1TZhwzIbvnqB9V8227ovmmad5k+ydnPHW+vZY6z5zJHWaPpQazBtiPvdbOZI049eV723nzfeXlww2XosmmZ9l860oavm29h1S2zq5pU2e9s6W1ywxdmkytx97JAdPHXcTp47a+cvXrTXXnstWDCUXiEB1ZFsp+jkcdt+uNBW7t3h2hfZzOCV86zX4hnWcf5EZyvPvzLCGk573Vb0W//LhvS+PqfP63tqI1bs3e7Od+DkMTt1/qxdwhYqrIu4fUC2dfbCeTty+qQVHD1o6w/stoW7Ntu0zats1NpFb7RHHeZNcHbUctZo1/ao/dHfan/0XreFU63Pf9qeiRuX2axta23J7q22sWiPO6/6oTMXztPexM2AYno/CJCYVmzUb0uDeXXYGw7scYM7dehNZwy3mwe0sZ92qmnXtHrMCYQPNbjLiYZ31LrJ3lrjhjdERUpceP1bZaSEikTNp5o84K5F16Rr0zW+vGKuzdy61tYVFtj+E0fcoIYBqHcWKduQwNAgcdmebU4AiLkGgFVGdrM/9WxkP+5Y3b7V5gn7YvOH7ZNNHrD/bni3faDeHfbeurfZf9W+xdXh22ve5ISn6lQiVD9l2UtKpOo7sjXZgM4jwfr+enc4gfvRRvc6m1SZ32hdzX7Y4Vn7bbf6dufg9lZn8svWZcEUJ35e2brGlu/Z7sQRg1Lv7CLdM+lZlBDYe/ywrdq306ZsWuEmFWpM7G9/7dXEftD+Gftyi0fsE43vN7UvKZtRvWvioiw7SdmIPveu2re476mN0Hm+1OIR+377Z5xtPjmutxO/kzYud+WrjWDyIt3aC//nUn2XRIb6AbVNjacPsxv7t3J9lybGPtO0spvkUtuRmhRLtUeyo+I2pr/VRsn29JlU2yO7vKp+JftYo/vss89XdhNuP+lYw67r08yqT+hnPRdPt/EbljqBsuPwASd+Lly6GH6AXGFiCCBAElPV4b1RNYoaUGpFQ7M6L8wZa9f3a2nffuEJ13mroS2+YlHWIDEsr+taNTBVxyCh9MceDa3ulJfdjPmCXZvciolmxhEl5dukZoqPnz1tO48UudlCrVxopvnf/VrY99o97TpdDRAlBPwQn17YlwYQGnDoujUIkUj6Xff69vjYl9zKigalmjHX6o1shNny8m0knXe1AlV44qjjqtlmrVj8oUdD+2rLqk6Yyn6KD/i8qOeKzqHyJFIkjCVWb3u5rVs50Wy2Vs78rvejZ065mXhN9AxZNT+tn2GrXzW/f7TqqFUlv/mUZWe6jmNnT9umor1uIkSrpBIaeq618q5+IKi2STYmsSKRIk+AH3WobvcP6+zaGU2CbDm4z117WFiWxZjX40sAARLfug3tnclNRoJDs8BaVlaDrQGlBuzqlP0eDFQ0WPDqfQ0+5d6lGfL/7VrXdQb9ls1yLkLiIS5JPjRQ1IqA7KLrwilu5eDnnWvZF5pXcdzEz6u6CON5ig9Kv9LyUftVl7pWaXB75/Yl9y7N2Mu9gqN8AprQkOBYVLDZCdZ/9GnmBoQfbnC3W70KY93rmjRQlTBVW/jwqG7OvUYuNX5MVGglSO1vaqZdkygV/eh59PtHnP7Sq3Ggz4FWz7Ye2u9E2r1DO7lVDa2Ea2IhCn2XrlHCSC7GWrm/e0hHG7hijnPjOnHujC/2Vv4TzLtJIYAASUpNB3yf8n/VTLZmzO4a0sF1spr9i9LKRj4GLnLXkOuOBh2KM9HAW77nGnjEfWZK9yefaN2vZg61sqFVLw0U4y42MrElPSNy5VE8ktzLak4aYJrBVJyJnisOc6tF8oNX/EVqBlrMgpp9zqR+y/qsJivkSij3Hd2bBHq+Dj2Dao/LupYwva4VZT+FuASgVoiW7t7qVs/kVimXJ02WhYlLLteilRK5qire8alxfZzbs2Kh4t4H5et54rzpEUCApMeJT2VBQL6wmilS0O7/9X7ezWTL3SGXhjLu39XAWwHw8kO/Z2hHFzOgWAcFx8bh0CqPfN4VfKlZXrkF6H6TLkQzsWvNYCqhglZJFLOgIFW5bckVxI/Z8jDYoe5T96sYICUN0IqiZqEl6DNhGYXP6tmQu55iieR+lI+2AAFypVVrNUCio/bkgW6lQAItyoI2XVtX+yLx+522T9kDw190bbVW6JPStlxpCbySLwIIkHyRTeh5NWOy7/gRG7Ryrv2rbwvnexrHQUG6jXmun5Ngk//u77s3sBazRrmgVcVFRKkzkE3ItUrxPRJV8nnXADpXNnz/9SxuGqBKxMmd4unxfUwZvzRjGyUbSbe51My3Ms8pjuMXnWu7WfskDApTti4XLbmUKfOal0IEAfK6BWqVSbERyjolUZsU0ZGyr9J+K1BeCRSUBVLusV7aXbrPPZ+LJwEESDzr1fe70sBAs0XVxvRyA0xWOl4fHJbWoGf7mgaactfSwEtuOPJxD/Ost4KodY2yiWvbPumyAmV773wvPXvS7KUGqcqGo8QHGlhGfcAgIaWYjgHLZ7sVHwX3Jkl0lGb7CiyWEFGWJS8yaCVdgKgdnb5lld0xqJ19vlkVXED/k6K+uO2pbVGckFZdlaxAyRLiOMnh++ApwQUiQBJc+V7cumZaR69d5FysNDhWI1W80eLv9AaOmXISZ8VKKEj7uamD3cyUBvxBH+qQ5GL10pIZbtVGM4jYRH5soCKb0SBdAwYF7SrIVPUSpQGD3PU2H9znhJQELJMaV9qR2gC5ZklA5OKvn0QBkmqrtB+QEj7I7aiiZ4r3X7dBBdxrVUTun9qTKxfbC7rPovzgCCBAgmMf6ZLlE6pBpoLWlCaXhvnKwYFfTDTQlAvOb7o957KKKe4mnwGrpRmuBotyXdCsuwLJ4xSg6Vc95rMcDd5VL/WmDHIBzWHeD0C2pJTcVUf3dLPRxAeV37ZI4CtGRHUr99dsjiQJEAkPDZq1Z5OELW1V+fZVXrukmEUlx1C7rw1YESLZPH3J/Q4CJLl1n9WdK2uRMs3I35wZyewb7vIa9VzeU4egmJGbBrS2ceuXuHTH+Zz11mBRGy4+NqanSzLAYDF8NlHcniRWlcFHGzZq0BkmISI71YqH9kTRgJqVs8xsSc+ekjqMXLMw4+xoSRAgKeFRf+pgtz8TmfYys6/i7UjJv2V7SoqhhBDKzpfPPiergQtfCiUBBEgoqyV8FyU/cnVsWqpGeHjXcJdsyL38XytT2o270fShbkd5L1dFNNOlzbckPDSgTbpPvpf15se5NLhX2s0Hh3dxiQ0kJIM8lKRAM9LaMRxbyq19+UC9O1yyB61IpnvEXYAohqjV7NEuPhHhkZt9ldc+SYhoE8YXF0x2KdbTtT8+l0wCCJBk1nvad62BpjZB087kyoZRXuPDe/lr2HNhq05BM8rabXnGltWm9JK5HNoQT+4e2lCRwWI46zxde5EQ0YZkyp6ldM9+z1wqgFordT/rVDOWKXTTrQevP6d6/Wabx102wnT2iomrAFHGwN5LXnFpzcnG6F9bJbe2X3etZ5M3rfDdHTiXvo3v+ksAAeIv70iVpqDVWpMGuJlSrztIzudfZ1CctbLnKFak79KZLjVuJgNOBbmrM/9uu6fIElNKlpjinKP2t4TkNa0es86vTnIpfP1oqOSHL1cw2WTUeEXlejVpVHlEFys4erDcKo2bAJFr4ext61zGJu36HZX6itt1KiOf7E/xIRwQKEkAAVKSCP+b3DE0c6FZSZargxEK+e6I5Ean3dflllBRFhOtgi3ZvdX+2be50ZnH0x5S9ia7+EOPhm7Du3y5Zem8EzYsc7PSrKDl357EWDuqa/WzrCDhOAkQtWdyDVVijpRd8zv/dlYWY9mfEmAodW86q3EMwZJDAAGSnLpO606LTh63GhP7uxSvZTUovB5cY+41ewlMZTHRSpcCgEsOOg+fPul88+Wm43XZnC+8dqS9NuRmp1z/Xh7ab0FBwErPTP37W/+q09azx1hp6brjIEA0uNUGuFqhldsp9uWvfVXEW6txijmTQOSAgAggQLCDNwgs27PNzX6y6hGuhruiht2L9zVLpZgOxQIouFwuDLKHP/dsbO+sdTOdecxcrtKxGbUDv+te3xbu2uxJbIhiTG4e0AZ7CtCWtMKlfUN2Hrl8EBh1AbLj8AG7f1hn4hQDtK102pR0VuPeGJDwR+wJIEBiX8UV36AGm9qoTBlo0mlE+Ex8BUpKiCiN7xeaV8EeQt6h+/EsKstZz8XTc3KfUCILuXSSWjf4tkPPuDYwXbBr0xudQ1QFiFZslcRA7qS6Lz+eB8rI3YY/0fh+6zh/oim7JkdyCSBAklv37s6VEUmuFuwCm3ujSscEw7jagFI6Pzq6h0tckEmTqSQHivf4asuqDA5DJma14jl01Xy3uhU1ASJ3q6NnTrm+S7vBx/W5i/N9aTf1h0Z0zbhNyaT94bPhJoAACXf95PXqlBv9nqEd2Qk2ZAODOHc63Ft0RZr86v/eu6lz0UunYVLAs1ZWtd8I9R7OeleWojZzxrrVkKgEbf+pZyNbW1jgUsPjHhpOu0r3eVeb8tdeTdJuU9Jpd/hMdAggQKJTV55eqXxmr+vTjGA9xAeDQ2wgbRuQC5UyKsmlqrxDrjHdFk4l2DwCtqXVLWU+i8o+T1q5+U7bp3Dni4BtpStE1KYsKthcXpPCezEkgACJYaVWdEsbi/bYb7vVpwGPUQOebkPP56I9YxiW+vt662r2ytY1pTY1Eh/aCflq9vdIW9iFpV65DtqHoGxA+xApVTRHcgggQJJT1+5OlWr1V13q0jEiPrABbCAnG9BM9JRNKy5rQeV2pZUPxAcD2aAGspQbXdtT4hPFjHEkgwACJBn17O5S+bd/371BToMOGvfoNu7UHXXntQ18vlmVN0SIAs77Lp3JHkIIW/oYbCBrG1DWPWU244g/AQRI/OvY3eGR0ydNqVVJg8kg1OtBKOdLtk19ucUjNnvbOhu7bokpvSb2kGx7oP6p/1xtQCJk4kZWQuI+PEWAxL2Gzez8xYv27IR+xgaDdAy5dgx8HxsqzQa0EoL4wDZKsw1ewy6ysQG5eM7cujYBI7Tk3iICJAF1r1zvVxEQyswsbgHYADaADWAD2EBEbOCbbR63pbu3JmCUlsxbRIDEvN63HSq0a9s+SYMbkQY3m5kivsMMIzaADWAD2EAcbeBnnWraloP7Yj5SS+btIUBiXO9yvaoyshviA/GBDWAD2AA2gA1gA5G0gX/2bW5FJ4/HeLSWzFtDgMS43hUYGpXdbeM4c8M9MSOJDWAD2AA2kK0NKGmMdgt/R62bTLu+60d/60evJyWpjO71yXG97cyF8zEesSXv1hAgMa3zU+fPup3Os234+B6dJjaADWAD2AA2kD8bkIB4V+1bXOrqL7V4xH7Uobr9o08ze3p8H2s3d7z1XvKKDVk130atXeSyzI3fsNT9HrlmoQ1eOc96LZ5hbeaMtcfHvmR/7dXEftD+GVPw9ocb3O3OGyeB8p46t7n7jemQLZG3hQCJabVP37KKzcD+s9yemkVSFrCSM0l6LUkzSQwm8jeYgC1ssQFsoDwbeGuNG1xCmK+3rmb/6tvC2s8bb5M3rbDle7ZbwdGDdvTMKTt74bxpT51MDm0Aqu8p3b72+9L5lMa27dxxJvelr7Wqah987k5T+eVdX9jf+0zTyjZ/58ZM0PDZEBNAgIS4crK9NC1T/rtfi0g3NJk0hBIRalw/3fRB+1abJ9xO73cMame1Jw+0jvMnulmkQSvn2og1C2zMusWmWST96O/UTJI2UOu+aJq1mj3anhnf1+4c3N5+172+fb/9M/aVlo+6FKMfqHeHWwKP06xSaZw1I/f33k3tY43uS4wNlcaB1xhMYgPYQK42oEkv9U3X9WlmPRZNs0UFm23f8SNOMGTbx2fyPQmTvccP26s7N1rXha6kJMsAACAASURBVFNc2/7JJg+4ybhc7y2I7/+qS13bc+xQJgj4bEgJIEBCWjG5XNbCXZtjG/uhwf/76t5uX2hexf7Qo6E1nj7MCQvdszJlHDh5zE6eO2sXLl3MGqFmn/T90+fP2eHTJ11jt7Fojy3Ytcnt0Npt4VR7eFQ3+58Xa5s2Ybu6fqXINuYlO5B317nVnps62M3EDV+9wHWcJT8Thf9lJ/KXfn+9O5yQ0sZW17R6zL7X7mn7Scca9ssudZz9yN3hxv6t7PZBbU2iNfVz95COdu/QTu5Hf+v1mwe0ccJe35E4/UXn2vbjjtXdOb/RupqzSXXs/93wbmejKj/qM45RqOswXaNWU1Xv/1X7FtOzpN8S9HqNldbkiBm1P4q/1OqDJr82Fe11/UnWnZKHX5R7tvozXZeu76ON7o1UO6U2VS5q5y5e8JAKpwqCAAIkCOp5LPPipUv20IiusZq5VoOjQZ0GjS1njbZZ29baziNFpoY006Vqr9CL8/Gzp233sUMuT7l8dBtNH+oGptqUTSIpaislGqxrBUjCS4fYTtm0wr7asmqo7SklSsX9551rOXGomcZx65e4Wb+1hQW24/ABN+t46NQJO3b2tLMdrRRqdlDZ4iQ4S/6ojvWTel2fU6en7+i7ErpymdA595844lwfNNBYsXe7zduxwa2y9Vs2y1rMGuVW1H7aqaYTrHH0zw6TCMj3tUhIaDVUolY+91ptrjdlkFtBlb++VlenbV5lr2xdYzO2rLapm1e61/TeS0tm2POvjDCJWs3kShRrpVFiJWrtRb45R/H8Wu1QnTadMdxW7t3h2hmv+px8nEd96Kp9O6317DH2nbZPOaEcBe7yeFD7zhFtAgiQaNffFVevgZZm5aPQiFR0je+te5ubrZafrHxaNXAMSnBcAbqUF3RtGpSqDuZsX2+dX51k/9f7edPAWAF0Fd1vkO9rFUfL86XNKmnpXisHQV5fybLV0Wu14c89Gzs3O/HefrjQiUKJhrAdEjGyXwlWCZQJG5Y5Mf2XXo3dyonsgwFoOGfIJTgkGvUMPDKquw1cMccJW9mbVkj1zGTaLske1FbIFUcCWYJF7cUtA9u4AWwc/PVLPrNx/l/tkdx1NfGhWA7FZETpkP3KFrUqImGslbuw19cPOzzrJn2ixJlrvZwAAuRyHpH/r8O8CaaYiLA3HuVdn1Y7Kg1u7zrlg6eOZ9y5h6kStZogQaIBhmZJleXkQw3uCtWSt2ZgByyf7Wb6y2K3ev9O1zGVV2/5fk8rYXIXUPDmyyvmOjcCzeBF+ZB9aDVPs+UNpg1xM+paico3S85fvthJ+e1f36+l9Vk6002AqC3Kt7iVmJG/vtw9X1ww2f7Yo6F9vPF9zn2LOiu/zoLgozZJKx6avNEAPlMhGsa2Syu6Wq3TBoBhHktowqbGxP7l9lth5Ms1vUkAAfImi8j/pRm133R7LrKDF83CPzi8iy0u2BLLfN+aFVPjvmT3Vpf9RDNNmllVJxZE56ky5UYyeu2itGbsth0qdAGMfl+v/OeVXECuTHIXSLmIRf6BLXEDGrxosy25GD46uoeLv/GbdVB2GIZyNaCR376ChSVwNx/cF3g7pDZ9XWGBSz/6++4NXLwZK2XhECJqu2tOGmBqF+MgPEo0R1Z44qh1mj/JlB44rDanyUqtfnNEkwACJJr1VupVa5Zas2Vh6MwzuQbNNv7tpaamjRPlX5+EQx2W4geW7dnm4i60MqK4kUy45fpZxXZoZSaTzlOzswrIlltKruVX9H25ASjQX6szKjdqbg252LHiTdYf2O0SAnyqyQN5Z11RXcT5fQlcJRFQbEaY/fYVc6ZkG9Un9HNue348g3Gu92zvTZMCikfUqqWe0zgfanMlgO8a0sHFKWXLLJ/f09hB6Yc5okcAARK9OivzihWgHdaZirIaIK16KPA5yQ1IauZ75ta1LoBaqxL5Hlwo4DDbfOrye39sTE+X3aeses3ldQ0I1cEPW/2qWzEq0+AT8IZcfjQoVmyAsinlwpXvXj5zLoGrTGb9l812sTlREbiyCWX8e2HOWNN+EvluK7CbN+1Gk0Ry+5G7VZIOuboqoYZWQ8JmD3qOtWLJET0CCJDo1VmpV6yVAwW0hq1xKO96tIStzl8BmRyvE9CMmlw/tCeJsiYpO055DLN5T769CoTO5ZBrSMNpQ02JArK5htK+o4GUhJF87uVvz/EmAc1+KyZAMTClseO1NweJFbGQwNXK2tBV8yNtZ5q4UHyZJp6U6CJqk08V1VPY3tcmeOqvkrJK/2br8/pfsjclg1H6+7C5hiognb1BStZY+P9HgIS/jtK6QmXX0YZ5YWu0y7oeDay7LJiS96DOtOCF8EOpVZGx65a4TFpK+1kWy0xelx+5csB7cShgVoNiCclMrqG0z2rVR6kgZce6d44rCWjmW6knNdgsjSGvlS9CNGj69gtPxE7gptxkKo/o4va9wQ7Kt4Ns+Fzb9kkXmxWVVbIrWw/vXtHqzwPDXwxVyl4FyyuLHEe0CCBAolVfZV7t3B3rXW76bBrXIL6jjfziGkxcZiVl+caJc2dc5yc3nKvqV8pq8KnZUW06pRlTLw8NipUxRTv9ZmNHyvh037DOpvglnYujfAISZ5M2Ls+adzZ1FIfvaOVIWcZ2HS2KrcDV3jRj1i126YJZDfFOhGjFWG6QHG8SUJ+kDWvDlF7+m20edxkF37xK/go7AQRI2GsozetrNnNkVgPAIAYX2qfEq1n4NPHE4mPyw9UGd7cOfCEjsSnXJqU1zpffsgbF2mxN6SjTtSfNRmtHcs3oI0QzM0/xlj+29opIl3dSPyfbl8uInpukuHoqK5Oed7maJbXevbpvxQgpGQTHlQTkiqb4Tb+Tp5RVt3rWtQ0BR3QIIECiU1dlXqlmjm8e0CYSnY0Gnm3mjC3zXnijYgISItO3rHIpcSuKEVGGsaqje/oSzK30wopbKauDSL2uVKf1pw52ma0qvls+URoBub+pXpnpLnumW/vtNJkxPNJxHqXVfTqvaYZasSHZrpimntUk/9Yu92v270oHd2I/o3ZIIsTLWMBcbE4ultoIkiMaBBAg0aincq9SnY2CKnN5cP36rnz9Wf0otzrTflM7ayuQVgF4mv0pWYfKDlJ78kC3O3jaJ83xgwqgV1rE0oIUdY2/617fpVuOe/rKHDGm9XU9R59r9tAV9V7SDpL4v9Lqjt+wNPZpUsszFK34aNf2KKZmD9pmtUqvzSA5KiaglZA6k18OxYqbJtyUxIQjGgQQINGop3KvUq41SscYdKOdTvn3DO2Y6EFBuRWZ5ZvK/tF85kgrvl+EZqT0WhA7hcse7x/W+bIOSase2mdBG+1xeENArmsSdOk8d0n5jFaEftutvtuw0hvK0T6LgqZHrllon2QvmbSfE62cjVq7KNoV7/PVK0vf3UM6hmJFVpOx2vCXI/wEECDhr6MKr3BT0d5IdDCandDeDhzeE5AbnlygtIuzAm61g22Q6SK1KifBoQxZ6hC0x0lSfPC9r93Sz6hYEG0QlhRxUdF9atXtxv6tXKB56cSS+arsZPDKeaZdoytimPT3lU1JEze0VZk/K5oI+9+udQO3MU2+Tdm0IvMb4Bu+E0CA+I7c+wKX7t5q2tAv7J2HOkCyiXhf/8XPqE0Clas9SPGRuh75B2vnZu1izpEfAspEE/bn3o/r08qHkjPsP5GsDeLStSpNULSbOz4v+wr5Ub9+lfF/vZ9n9jxdoyrlc3Jbk5u1X/VVVjm3D2obij6wFES8VIwAAqQYjKj+OWvb2lClwyurUfhqy6psFhRVI+O6Q0mgx6Jppcb/lPUMxvX1v/duitCtwELlsqeU13G1gVzvSy6siwu2VECRt8sjoNW2jvMnmuIPc62PXL4vl8O1hQXlXSrvhYAAAiQElZDrJchfNQopF3/csbodPXMq19vl+xCAwH8IjF67yN4VcGefy0DBi+9+p+1TtuGAN5trxt2wth8utO+2eyrQwaEXde71OZQgQ1nDNIDmyI2A4kE0IeB1HWVyPrljapNcjnATQICEu37Surq+S2eafFczeUCD+Kz8Q9nzIa0q5UMQSIuA0jEHPdsYRFuSKlNpZidsWJYWKz70OgHFg4Rl74ZUPQb9+/vtn7Hdxw5hIh4RmL9zY+DZ1xR7eOT0SY/uiNPkgwACJB9UfT5nVNwwft21HgLEZ9uguHgTmL1tXSTcL/M1wHxyXG9TrBFH+gSUIOLPPRuHfsIqXzZT8rzyHtDGnhzeEVAQ/yOjugdqY4qLXVSw2bub4kyeE0CAeI7U/xNGRYBokzrtXcEBAQh4QyDJAkR+3qv37/QGZMLOItc9VkFe38RSrsGFJ44mzALyf7vrCgvs882qBCpCWs8ek/8bpYSsCSBAskYXni/2XzbblOK25MxO2P6/ptVjpj0iOCAAAW8IRCUBRT7aokqD27P6kaUZaZ+EH3WoHvo+Ix92U/yccl3uuXh6lhT5WnkEtAdN1dE9A7WxX3TGDau8Ogr6PQRI0DXgQfnj1i+JRCAqaXg9qGxOAYFiBGZsWZ3I1KoKGn55xdxiJPgzUwLPTugX6OCwuBAI6m/teK7AfI78EFixd7t9ovH9gdmZNsDVNXCEkwACJJz1ktFVzd2xPhLL6Ro0aLWGAwIQ8IbA+A1LIzH54PUAU5uNyf2MI3sCWj37QL07Ahscem0T2Zyv+oR+ppl6jvwQ0H5U/+rbIjAb05iD+J781K0XZ0WAeEEx4HNI4WvH6WwaYL+/89deTUxBkBwQgEDuBIasmh8J90uv2xmtpjKzmZv97DpaZF9q8Ugk+g2v7Ufne3+9OxCxuZlQWt8esWZBoKu0twxsg6tmWjXl/4cQIP4z97xELSGHYffRdDoJzbhN3rTCcwacEAJJJBCVBBTptA2ZfObTTR+0rYf2J7HKPbtn7dfws041EytAtB/KgZPHPOPJiUonsPf4YftG62qB2dnXWlVlk9LSqybwVxEggVdB7hdQdPK4Xdv2ycAe8EwGDvqs8nMXHD2Y+41zBggknECr2aPtLTVuiMyzn2lbUdbnSWiRu+ErffHfXgp2w7iy6teP12tNGpA7RM5QIYGLly7ZHYPaBdZGffC5O23hLtLxVlhRAXwAARIAdK+L1OZ+v+/eILAHPNPOQgOmmwe0YVbCa0PgfIkjUGNi/8g895m2E+V9Xhmc2GQsN3NX7MPtg9om0n60eeekjctzA8i30yYwdNX8wGLVtCs6sadpV5WvH0SA+Io7P4W99tprdv+wzpHqSNQo/Kbbc26jIIIA82MXnDX+BB4c3iVSz315oiKT9/7Us5GduXA+/hWc5zt8bEywaVIzqXMvPysXvs0H9+WZLqdPEdhycJ99pmnlwNoqpQNmnJGqjfD8RoCEpy5yuhL5giunuZeNtB/nUuxKy1mj7eCp4zndP1+GQNIIJHkG+6ERXU2uHRy5EUiqC9/PO9diU9zcTCejbyveSHty+DGmKK0MxTodPn0yo2vmw/kngADJP2NfSli+Z7spM0xpD1/YX3tnrZtNHYIy+hw9c8oXXhQCgagTuHDpYqApLoNsV1rMGhX16gvF9Q9fvcDU/gZZl0GU/eS43ibPAQ5/CIj1XUM6BGZn2pF9U9Fef26WUtImgABJG1W4P6hAdGX1CKIx96pM5fZXgLpWc/YcO8QMZ7hNjqsLmIBy7P+hR8NIP/PZtB2KIXtpyYyA6cej+KjsIZWNnZT1Hbn/sjeE//bbaf4kE/uy6iWfr3+owV0mW+cIFwEESLjqI+urkTvCnYPbB/Jwe91waEZOWW7uG9bZpm1eZYUnjppmezkgAIE3CSQ1japcTbW3AEfuBFbu3RHZlfNs+51317nVZmxZnTs8zpARgXk7NgS28aWSDgxeOS+j6+XD+SeAAMk/Y99KGLlmYaAb/mTbIZT3PW0W9a02T9itA19wKyOr9+90vpwIEt/MioJCSkBxU99pG+1Vz/Ke/bLe02BCExMcuRPQXioKyC6LdRxfl6uyhBeHvwQ2Fu2xTzZ5IBBb08pLmzlj/b1hSquQAAKkQkTR+cDuY4fcykEcOw3d0ztq3WQfbXSvfb/9M/bvfi2s4bShbiCy/sBu23/iiJ06fxa3reiYK1eaIwG5KX45gTtZazPTBbs25UiPr4uANonTRm1x7TNKu6/PNXvIdhw+gAH4TGDf8SOBjk8eHtXN5zumuIoIIEAqIhSh95UVJ0lpOeUL/p46t9nHG99nX29dzX7dtZ7dNKC1KcCw5+Lp9srWNabgfM3yqfFTFgyJlPMXL5KSL0J2zaWWTkBpRIOaUSxtYOfXa5qEWLN/V+lQeDUjAmoTf9D+mUQJEO3KLbdeDn8JKMGM9u/xq50oWc6vutT194YprUICCJAKEUXrA/N3bkycT2/Jhkb/y09c4kTBZ3IxUEyJOtr/7VrX/t67qXPpemD4i1Zz0gB7Yc5YF5Q4ceMyF6i2ZPdWk6uXBng7jxS5gPgDJ485AXPi3Bm3/4B2EZYbGLnFo/V8xOlql+3Z5uy7NPuP82tK3b39cGGcqjKwe9Emtpq4ibO9lLw3DYLJtui/ycnWtPdXyfrw6/8vtXjE/5umxHIJIEDKxRO9N/WQ/1/v5wN7yP1qTLwsRyspEizyLX9f3dvt6vqVnKvXp5o8YFqu/0rLR10cigSM0gX/tlt9+9tLTe36fi3ttpfb2j1DO1qVkd3smfF9rfH0YU7QdF04xe2+qmDZyZtW2Oxt6+zVnRtN4mbVvp0mt7FthwpNbnMSN8fOnnbChr0Nyn/mlM5Rwk+b0ImZZjJ3HS0ybXS1rrDArXgt3LXZsVbWE3GfuXWt+z1n+3onMFUPiwo2u89KaKoutEqm88glJSU2FeStFTOVJcGplTPVj0Snnyk8VZbKVNm699QK3tTNK53I9vJZiMK5NJmgFU2O3AnIlq7r0yxR/cUvu9Sxk+fO5g6PM2REQG2o+s2g2hh5SnCEiwACJFz14cnVTNm0wg2ig3rQk16uBM3bat7oRI0yeknYaDVGvusSNwqCVGOonWHlw//tF56wn3aq6VKqyoVMu7Z2WTDFDZoVuKcUy2q8k3JosC0hrfuWsFhcsMVGr11kzWeONK1aKf7nd93r20861rBvtnncvtC8ikksfqzRffbhBnfbB5+705S8QGJS3JX1Rr+V5lmv6b2r6ldyn/1Iw3tcXWiVTLniv9qyqhObijNSnWjZ/vfdG7iO8599m9uN/Vs50VlpcHsnPO8f1tkqj+hij47uYU+N6+NW1GpNGmC1Jw+056YOtvr/+ZEwbTpjuItbSr2m9/U5ff7ZCf3sibEvubqXmJUrpc4tcauybh/U1m4Z2MaJXg0YtYonQRxUWssgn3HdN5uKedMaBL0/QxB29KeejdykgjcEOUu6BDR5orY7iDpXmeoXOMJFAAESrvrw5Go0Y3vzgDaBPehBNTBxKlcCRoNl+fhf2/ZJ+2uvJm6gquw/cgtTHUf90OBHQkOz2VqJGLtuiRuwa1VJq0y6bwkDiYV31b7FJOziVMfcy/VZ1Scz2N4++U+P75NVPUTVfiXetbqpSR3tpcNP/hmItVaTb+jfKjBb0wQUR7gIIEDCVR+eXc2KvdvdjG5UOwmu+8rBmQbgakS/2Pxh+3PPxvb8KyNcOknFpfjpEpStkWpl48jpk87lSTnZNdOvlQy51GglQitFiIwr651n4XImWolK0opgts9but9rN3d8olbStFL6xx4NXRuq1RB+8s9A/ZU4f6Lx/YEJEPUvHOEigAAJV314djUakHacP9EN6hjAXD6AiQsPud8oI5BmhJvMGO4G9prNC9OhgaJWbEatXeQ2lvxxx+rO5UkrGnGpB+7D3+dLwlVilsMbAto/Sq6i2LG/dgxvf3mrz+EIFwEESLjqw9OrUaCd/Mdp6Pxt6ILgLZctxUH8q28L58qklYagDvn6KqD7pSUzXICrVmwUhxEEF8qMn+1r/x8O7wgoWYPcPXlW4vesUKdv1ikCxLs2w6szIUC8IhnS82j2WZmbaIjebIjizkKDCQVQd5o/ycVX+OWeJVcwZZy6a0gHF1zPrGpybM7PZ+rFBZND2tpG87LkrqvkDX7WIWXRNvhtA+qPOMJFAAESrvrIy9Vo12DNQvv9wFNesJ2MGlwFcit7lNL95kuIHDp1wqUcVuC4Asap92DrPc785XbYf9nsvLSTST1pUje0jPNzwr1d2QYjQMLXwiFAwlcnebmi4asXsEFh9SsbpSQ01NrjROlq284d5+kOwHLz6rV4hlttwcUqmbbl9/Pzjlo3mWIWOLwjoMkJbdLmd11SHm2GnzaAAPGuzfDqTAgQr0iG/DzaxExB6fj6JrfRVwOsPRR6L3nFbeKXrckq0H3c+iVuV3llFvGzE6Gs5Nqv6l5+3NrYk8M7AtpvR3sR8Wwl+9mKe/0jQLxrM7w6EwLEK5IROI8yEmnzMzIQJbuj0WqFNtfTTtqZpDOVC5d2DVdiA23qFPcOi/sL33OiDSVnbVsbgdY2Opd47Oxpt6kn9h4+e6dOvKsTBEj42iQESPjqJK9XpM2AnhzX2+TKQOPmXeMWRZbalf3eoZ2cqKgoPkR2o+Bf7dzOXh3JtpsgbV3Cd+GuzXltI5N2cm0G+ptuz9EfJNRFN8jn2c+yESDha9kQIOGrk7xfkXaBrTamF7nf6XCcmJD/t+JDykrdu+XgPtPu5MR5IDz8HDCUVpayNS3fsz3vbWSSCtAq6N9eaooAoT+ItQ0gQMLXqiFAwlcnvlyRRMgz4/vijkWn4zodueXJLWvO9vWmeCEd2uxt0sbl9t12T7HqgZ2EYnCiXazXFhb40kYmpRA97zf2bxWK+i1NdPIaEx9e2AACJHwtGgIkfHXi2xXJrabx9GEEpjO4fGPw8fHG91ndKS+7tL2tZ49xO6170fhzDgYRXtjAJ5s8YEoby+EdAblfau8eL+qHc/Cch9UGECDetRlenQkB4hXJiJ5Hy+89Fk0zzSyGteHguvzt1BQf9PXW1ey9dW/DJhCnobKBzz5f2XYcPhDR1ja8l/3QiK6hqmfafH/b/CTwRoCEr/1BgISvTny/Ii3By9VGe0UkoSHiHuncsIFo2sAXmlexgqMHfW8j416g3HF5JqL5TFBv6dUbAiR8rRgCJHx1EtgVybf6uj7NTBvX0ail16jBCU7YgH828JWWj9qeY4cCayPjWnCj6UNp81ntjLUNIEDC13ohQMJXJ4Fe0eHTJ635zJH4/tMZxbozQjT4Jxq8ZH1Nq8ds3/EjgbaRcSy8/bzx9tYaN/DM0+7H1gYQIOFruRAg4auTwK9ILllzd6y3P/RoyH4hdEix7ZC8HBhzLn8EjdxEC08cDbyNjNsFKA7wbTVv5FmnvY+tDSBAwtdqIUDCVyehuaKDp46z+RwdUmw7JESDP6LBS87Xtn3Sik4eD00bGZcL6bdsFq63tPWxbusRIOFrrRAg4auTUF2R9oLYVLTXqk/oZ0qByS7Y0Ru0eTkA5FzUf5A2oD1pDp06Eao2Mg4XM2TVfFa7ESAIkDg8zBG6BwRIhCoryEu9cOmirdq3054c19s+1eQB/IXprGLdWQU5yKbsskXe99o9jQDJQ0cwau0i0wwxtle27cEm2mxYAclDw5HjKREgOQJM2tfPX7xo6woLXKC6/LHptKLdKNOpUn9RsoHvt38GAZKHTgcBQjsQpXYgm2tFgOSh4cjxlAiQHAEm9etyzVI6zBFrFti/+7VwGxkSxEgnlk3HwHewm3RtgBWQ/PQ4w1cvYDKJVe1Yr4AhQPLTduRyVgRILvT4riNw+vw5W7N/l/VcPN3+1LORfaLx/fgT05nFujNLd8DM57wVV4oBUXIMDm8JEAPirZ3y3IePJwLE2zbDi7MhQLygyDneIHDy3FnnojV01Xy7b1hnt7v6VfUrkeIRQYIgwQZytgGyYL3R1Hr6x4Dls5k04vnM+fkMs/BCgHjaZHhyMgSIJxg5SWkEFC+y/8QRW1Sw2dTBPTi8i8mHW9m03lv3NgLZ6fBi3eGFuTOO6rWxD0hpLW3ur3VdOIVJItrjWLfHCJDc2wmvz4AA8Zoo5yuTgDJpKYXmxqI9NmvbWuuzdKY9OrqH/bJLHftaq6pu9/X31LmNjpCOMNYdYVQH/2G4brUTe48fLrON4Y3sCLSaPZoU67S7sW53ESDZtQ35/BYCJJ90OXeFBLTr+olzZ9ygQnEkr2xdY4NXzrN2c8db5RFd7Ndd69m3X3jCPt+sihMo7693h72r9i2IFDrLWHeWYRjsh/Eavtj8YSs4erDCdoUPZEag3pRBPE+0qbG2gXfUuimzh4JP550AAiTviCkgWwISJ6fOn3U7H+88UuQC3V/dudEmb1phg1bOtfbzxtvjY1+y6/o0s593rmXfafuUfanFI87F68MN7nZuXpr1IDtX+AICwzi45ZrCbyefaVrZth8uzLZJ4XtlEKg6umesB5882+F/tvNdRwiQMh7+AF9GgAQIn6JzJ6B0wOcuXnCrKMqOs/vYIbdz+/I9223O9vU2fsNSe3nFXOu2cKo1nj7MHhrR1f7Rp5n9onNtU0pPuXRoUPPRRvfaB5+7095d51YXjPnWGjfQIcdkRvAtNW6wt9e8yaUZ/a/at7g6lqtf1H+0EpjvTjts51eGvQ0H9uTecHCGNwi89tprVmlw+8TZUthsm+vJr0hCgLzxyIfmDwRIaKqCC/GDgFZVzl447wSL4lHkT77tUKFbXVm4a7NzARuzbrH1XzbbOsybYNUn9LPbXm7rXMEUQP+Vlo+6FZar61d6Q6xogEvnkd/Oozy+EosSEx9rdJ8TlD/pWMOu79fSnhnf19Vh36UzbdjqV50Ynbp5pavj2dvWWZR/5u3YYPLb1wpfeWzi9t5/N7zbVuzd7kdTkZgyFJv3r74tEmVHcXsuuJ+K+x8ESPiaNARI+OqEKwoRSYJ2PAAAIABJREFUAc0OKpuXXMEOnz7pNl/cVLTXlu7e6gayI9cstB6LplntyQPdhow/7ljdvtziEbeiokxfuH9V3DFk2nlq0K2Z8B91qG5yHZHAmLl1ra0tLHCC8tjZ025VTHUX50PZ5bRqlym/KH/+A/XuMLlhcnhH4MyF8/b77g0SYUdqj9Nd+dRqeLY/WmnN5Uerm37/qF3N5UcD/CB+tLqdzo/qkiNcBBAg4aoPriaiBDTYlSvY0TOnnBuYBsPK9KWA+qYzhrsZRsWoKAWxOkBWTTITJhJz32hdzcX8aIVq/YHdduT0SdOKVlIPZZOTEIuyoMj02jWom7Z5VVKrPC/3LcGuiZNM6yKKn/9pp5o2fcuqtFY/NamR7c+MLatdOSor0x+t0k7ZtCKrH8VHTty4zCZtXJ7xj74nl+VsfsatX2Jql7P9GbV2kWkyL5uf4asXuBVurXKX9zNizYK8PD+cNHsCCJDs2fFNCKRNQG5filHRoFGZvpTl63fd65tcShAjpYsRzVZ+rtlDbpVDHfq+40cSLThKGtueY4ecS2AUB4LZXrNmOhlIlLSE3P7Xc3VNq8cSIUD+3LOxc8HNjRjfhgAEvCCAAPGCIueAQBYEjp89bcv2bLPnpg42pRcl8P11ISLh8a02T1jH+RNty8F9Jh91jisJaAXohx2eTcTAsbhg6bl4+pUweCVrAnIp/VSTBxJhR3/o0dDkcsYBAQgETwABEnwdcAUJJ6BMXpsP7rOakwaY0gcXH2wl7e/PPl/ZWs8e4/Z6iHsMR65mr4GUVtGSZiPas4LDOwJKvpGUWCLtK3X6/Dnv4HEmCEAgawIIkKzR8UUIeEtAwe5yNZI/dtLcsuRac0P/VrZy7w6TIOOomIDiX27s3ypxAkT3rHgrDm8IDFg+2wUPJ0HIKv36yXNnvQHHWSAAgZwIIEBywseXIeA9ga2H9rvNFZPikqXd7ZvMGO6Cyr2nGe8zVhnZLXECRAJdyR44vCHw5LjeibEhpehW0D0HBCAQPAEESPB1wBVA4AoC2p8kCbn55frRdeEUZrSvsID0XlCGtSTMXBe/xy+1eMS56KVHiE+VR0Crrtf1aZYYG9Lms9r/iQMCEAieAAIk+DrgCiBQKoEdhw/YzzvXiu3gQHnZtdkjQealVn9aLybJfSYlQhQntXwPmxGmZSAVfEh7G/2g/TOxbWNSNpP6/fXW1Wz/iSMVUOFtCEDADwIIED8oUwYEsiSgvUQ+3vi+2A0QFONSbUwvAkKztIvU1xQzpH1lUgOsJPzWZmnaq4AjdwJJyoClZ+PzzarYziNFuYPjDBCAQM4EECA5I+QEEMgfAQUaa6Aet4Gl0sfuOspAIFfLUQYj7Q4eN/uo6H6UKY0jdwISclqJrIh3XN7XZM66woLcwXEGCEAgZwIIkJwRcgII5JeAdv1Wetq4DAK0q7l2vOXInYBckZKYuvnvvZuyn0Pu5mNJCkBX+ymxvmDXJg/IcQoIQCBXAgiQXAnyfQjkmYACReOUbvUvvRqTicYjm9Fs7scaxc9FryKx/WUC0XO2IKWj/U2352IzsVGRzeh9ue+NXbckZ3acAAIQyJ0AAiR3hpwBAnkn0G/ZrFjk6n9X7VtsxJoFeeeVlAI2Fu2xTzS+P1GDSA0k31f3dpu9bV1Sqjkv9ynb+XTTBxNnOx3nT8wLT04KAQhkRgABkhkvPg2BQAisjclMt2auCQL1zoSSKkAkQlrOGu0dyASeqf288fa2mjcmToDcMrANab8TaO/ccvgIIEDCVydcEQSuIKB9Qb7asmrkBwt0/ldUbU4vKD4ojlnS0nGn0a7WR06fzIlfUr984tyZxLlfpWzqmlaPmdpTDghAIFgCCJBg+VM6BNIicPDUcftuu6ciL0A6zZ+U1v3yofQIrNq30z7S8J7I20VqcJjJ76vrVzJlAePInMDMrWtN/DLhHZfPvr/eHbjvZW4yfAMCnhNAgHiONDonfO2119gELiLVJQHynbbRFiBvr3kT8R8e29uigs2m3eTjMjjM9D6emzrY1I5xpE/gzIXzsUpqkanN6PPVJ/SzS9hN+kbDJyGQBwIIkDxAjcIp1fgqG8j9wzrbsj3baIxDXmkFRw/al1o8EumBpgLQJ29aEXLS0bo88UzSPg4lB5tyS9xx+EC0Ki3gq526eaV9qMFdkW5LStpBpv9/sfnDtuXgvoBrguIhkGwCCJAE1v/p8+dMG3mlXDc+1+wh9z/+1OE1hqW7t0Z+0CABMnHjsvBCjuCVdZg3wd5a44bEDiYVRI1bX/qGe+jUCfttt/qJtZeUUNEz02TGcCbe0jcdPgkBzwkgQDxHGu4THjh5zKqM7HbFrKnyo/+hR0Obu2O9afdtjnARkGCM+kBTg8Uhq+aHC2zEr+bB4V0SP5j8Wquqtqlob8RrMv+Xr1XvRtOHxiKdd0pI5PL7k00eMLkwckAAAsEQQIAEwz2QUrVpmTaBKy/1ojLq1Jw0gCwhgdRQ6YVqw7Dfd28Qi4Fmq9mkTi29ljN/Vb78f+zRMBZ2kctAUt+VK+mp82czh5igb0zZtCKRm1aWZ1t6fgpPHE2QFQR3qxLAx8+eJmYruCoIXckIkNBVifcXpAdffr/ffuGJtAYrEig/7PCsCxg+e+G89xfEGTMiMH/nRvvvhnenVXfldbZheO8ffZqZBs4cuRPYc+yQafY/DPUa9DUoDqbrwim41JRhVmv277Jr2z6JrVS//jIG6uuqjellckvmyB+B8xcvWs/F013q51FrF5n+54AAAiTmNiABIR/pbPYK+EC9O+zOwe1Nm+BJxHD4T0D1d9vLbS/rNIMe7OVSvoI/CRr2xo6USlXPaC71EafvfrTRvTZ67SJv4MboLHreftPtOeykhPhI2f5/1b7F2swZS0bIPNm8Mjg+Na6PKf2xmCv98zPj+5rcwTmSTQABEuP6V8Dh42NfsvfWvS3rzuctNW6wLzSvYi1mjbKik8djTCuct6YsR3HKWKPOftz6JeGEHaGrUurZx8b0zPq5Tg2+4vb7s89XtvEbluLm8R9b3nmkyLndqh2PW117eT9X1a9kvZe8wkSbh22g2ihl2PxTz0amFOzF60srT7/uWs9e3bkR5h4yj9qpECBRq7E0r1dBmXJ3KfngF28EMvn7HbVusp93ruVS9+KWlWYl5Pgx7dar3Z4zqacofPaOQe0MG8rNOOS3HvV9YfJlq59u+qANWjk38ck0NhbtcbFjiI/L3a7KsjutoI1YsyC3B5NvOwKKx+qyYIqbvCyLt17Xs6pMfopz5EgeAQRIzOpcsw5yzfh++2csHx2PNj27ZWAbU1pYsmXlz3gUJ/HIqO6Rz3xVWufzsUb32fI92/MHLwFn7rt0pmk1qTS+vHa9WzVsNnOknTh3JgHWcOUtLti1yX7UoTr2UYbbVVnPiAbEEzaQKvxKi0rvFY0/lOxGY4R09ydSO3bzgDYmwcyRLAIIkBjVtwK7eiya5mYVympgvXhdwkYpDOXXuf1wIe4OHtuQhJ3S7r6nTvauc17Ucz7PIfchAhGzM5zDp0/a/7wYv5Uxr+1N+87cNKC1bTiQnIGNnqkBy2dXOPPsNes4nU9ufGPWLaZfy7B5Uoarzq9Osq+0fDTjyU+NKb7Z5nEbvnoB/UKG3KP8cQRIlGuv2LVrE8FnJ/R7I9DLjw5B+1Jc0+oxFx+y7/gRGuxi9ZHtnwr2f2nJjFjFfZRmix9ucLfN2rY2W0yJ/p5cFjS4Lo0rr13ubqOBjdooPVNxXw3Zf+KIPTH2JRITZLjqUdoz84nG97uYECZJKm5qL1y6aMrU+NdeTXJelVUsjuJWNZ7giD8BBEgM6njboUK7oX+rwDaYUnzId9s9ZS8umEygeg72pJWP7oumxSblbmkde/HXtCMzHU1mBrNi73b7UotHEB8ZDjK1mvj33k1t9rZ1du7ihcygh/zTGgBO27zKrYqVt8dT8WePvy8XqqXxkLtx3Skvmyb3OK4kIHerLQf3OVdhxc+UxjCb12TDv+xSx+ZsX0+A+pXYY/UKAiTC1akGQDMPP+lYI+Mlz2wahoq+o1lZ7R8iIaIgWV0fR3oEFLTXZMZwU6dXEee4vK8VNLlisYFcejaiGW5llIlL/QdxH9pPR6nFtQN21IWI2teth/bbo6N7mFYUg+AZ9zI1uaZkLqv376Q/+08zJbvTHkSNpg+1L7d4JG9xinLzliuyXLs44kkAARLRetWsV/9ls+1zzR4KXcfzzlo3uxUR5VYvOHqQWYwKbGzX0SK7e0jHnJevozgYUACiOjI2JyzfSBT3oYGzRFsU6zlM1yy3LCVCUODr9C2rIjfA0QBQYlSp0bURJTZR8WpGLvYne9FAWxtdJnkwLLvTirX6dW1q7FWGzfLqRpOa1/dr6QLby28heTeKBBAgEaw1NYJaGg77bLlmj9RBPj2+j63at5PUqyVsTf7FEzcuc9lqkjyIULaUmpMG2DFmukpYyOv/qtNX6mI/OvzyBgNxfE8+57/qUtelAtVqQphXRRQfpplnDQDl8qr2NY51EtZ7Ujv1556NXZbJMNtJqY1IDi/K7rSfjLLKSXj4bXepOK7BK+eF+vnMAXFiv4oAiVjVa7ZcO2NrlSGsDXXJ61IDoqC+f/Zt7vKsyz0ryTurayZp88F99tCIrrEPNi9pC2X9r05NcUzKWCQ+HOY4KF3x77s3MHz78zvLLXGn1eR/92vhVpYVVxeWVbnT58/Zyr073O7RX29dzfcBYFnPbFJfl7ubJgQW7oq+G1957azsXzFnSmygzFZBT4B8oN4dLt5EIpwjHgQQIBGqx8UFW1ygYZRnyxUMqlkU7XGhgFDt1p4UMaKBtVzS8u07G9WBgYSqVsy0gZVcjpJ8KPC1/bzxpFPNMNjcC9vX5I7EiGa7FZelPTXk8uTnrLdEhyYp5Paj6/h44/twtQrAFsqyJ7VVCrxWmucouvGV1baqL5atD1v9qot9CZvdaSLmZ51q2itb1yRm3FBWXcXhdQRIBGpR2ZGGrpofq+w3asDlQqYNE6uM7GZTNq1w7gV+dvJ+Vb1crbQzfZ3JL5tmMIOeSSqrUw3L64oLUSej1KnqDJMiUGWPckPTbsy/7lqPVLshGHBqskduWt9oXc2lGVWq8/EbljqfdNmmEijkuiGr7Fs7QWtyYu6O9fbc1MFu1eszTSuz2hECG6ioXZR9KGuTJgyUFershfN+dS2elCP7O3jquEuL/vCobm4/jnQ3EayITb7elzCSSxhuu56YQGAnQYAEhj69gtUxNZ4+LPauOu+te5t9tWVVlypTDYtmHfceP+zcIKLokqNG/cDJYy7GQy5z2twKN5rM3GgUgPitNk9Y1dE9XedYdPJ4zoO99J46fz8l0S2Xn47zJ7oVzvfVvT0y7pX5GmCE9byaONHgTEHsmkyQUFQwu/Yu0Mqd0uEqw9aa/btcncpldvexQ25yRQJD9by2sMB9ZvTaRdZ0xnDnzqM4FKVXlpuJygjr/XNdZbdhKTc+Zc3ShsCadFL/Hcb+SyJJ9qgYRLkCK6ZIE4JRsj2tVJKhzN++yuvSECBeE/XwfPJ1TGJ2pNSso9xx/tCjoVsh6bt0pi3dvdU1mpr1COMGUfKZVaOuGdIHhr9o17Z90hhMlt1hpzuYSa2WiectA9u4vVIUG6HgbLmqhLGDL68Z0Iy5XKw0ENWg9bo+zezzzaow2x2B2e7ybFYTDBInGsjJPefTTR909aoMSvr5QvMqplUNiRfNmktgR2nAV969897l7Zxi2lT/EpaKoZi0cblLmay+K9cVs/LaltLeU3nahFNiWG7PWmH7S6/GziblEh31ulN8ijKCRm3lqbS6StprCJCQ1rhm0H7T7Tn8fv8zKFGD/qEGd7lG86edarpBm+JI5CM9Y8tqF6S54/ABtxGiGlvNKuerodeAV2JDM/Ibi/a4WaTqE/o5saRZzDg06mHulDTTqEBQzUBrM0OJdOWLn7p5pcvXLxGoGBLVUb5sIN1mQ+myZY+6piW7tzrBoQDWH3es7vz6cce7fOAWZrvj2qirbG1AfYLEp/bsurF/K6s/dbCbqFKQtzJMyQVK7nyaWMvE5VR9kdo49XdqZ9Qn6XzKOqnVjedfGeGS1vyic237YvOH7f0xXWHTRN+Dw7u4djbdtpnPBU8AARJ8HVx2BWp8Jm9a4VxPsm3skvQ9zTqqcdcGYwocVYD7zzvXcoGbmi1XfImCvnsunm4TNixzGzeq0V9/YLdzh9DAUK5emk2XT7d+63+5TWw/XOiyMmm2XbuyDlo5180eVRrc3v7Yo6Fb4dBmSZr1ZCYz2MGJVs1kBx9peI/raH/Q/hnnRy8b0AykhKqCRVWX8tNWHUukyEVCM2cSCul2/KlOX4MFiRylxVbHrxlGrWpoc9B+y2a5rEXK7KXOXzPgV9evRPxPxFc5ktS2cq/5a9PUXyjWTRMpWv38TtunXBzJ33s3tVsHvuBW0J8a18cJFYmIVrNHW7u5491Ei1yya08eaNXG9LJ7hnZ0gfB/7dXEuW+q/9P51B8mrV9SH6CJHU1EBT3xdNmgjn/KJIAAKRNNMG8okE0BVjT+3jb+EipyedAMkBp9MdaMlGaFFHtyTavH3Iy6fut/rWTofaUP1ucVo6JVGISGt/Xil52nhKpW0eQaIfc+JUBQ8Kh2F/9X3xZuplAdeuURXdwO7RoAKOhYP0+O6+1iUTTLdteQDs4VTP7HSpGrgHl1/HKxkXuNbIyVjWjaiV/2SDnYRyY2oH5HA2z6n4rtRu6PDacNJUA9mCFsRqUiQDLClf8PD1g+2w2KM2mc+GzFjRKMYIQNYAPYADaADcTfBjSRqD2lOMJNAAESsvqRe4d8xZVdhdmO+DeUdIbUMTaADWAD2AA24I0NyHtB2eg0luIINwEESEjrRxmwlElJfqI0TN40THCEIzaADWAD2AA2EE8bkGvtzK1rQzqq47JKEkCAlCQSov8VINtt4VT7VJMHECEEr2ID2AA2gA1gA9gANlCKDSiQ/9WdG0M0guNSKiKAAKmIUMDvKzOPsur8b9e6pOQtpdFhJiueM1nUK/WKDWAD2AA2kI4NKPOlsltyRIsAAiQi9aX0sEq9pyw+6TyQfIaGGxvABrABbAAbwAbiagPKDPZ/vZ93qdUjMpTjMosRQIAUgxH2P7XvgPYy0O6qSisa10aF+6LDxAawAWwAG8AGsIGybOCdtW62h0Z0dft3hX3sxvWVTgABUjqXUL9aeOKoNZs50rQJXlkPJ6/TcGMD2AA2gA1gA9hA3Gzgg8/d6cZA2v2dI7oEECARrTvt9Ll091a3C6p2PI1bA8P90GliA9gANoANYAPYQHEb0E7vg1fOM3mEcESbAAIk2vVnmgEYsWaB/bhjddyyCFJHiGID2AA2gA1gA7GzAe2L9ssudWzhrs3s8RHxcWvq8hEgKRIR/733+GF7Yc5Yt4s6GxgyY1R8xoi/sQdsABuIiw28q/YtbNKbMIH1njq32WNjepr2R+OIDwEESHzq0pSyd2PRHnt2Qj8XH4IQYdCR7qBD2USuql+JVbSEdezp2gefi3dbog1vo5LY5Mlxve2G/q3sHbVuit0sP8/Zlc/ZF5pXsT5LZ9rp8+diNFrjVkQAARJDO5Bv5Jr9u+yJsS/Zxxrdx2wRg8pyO+oP1LvDHhnV3e03c9+wzkZM0ZWdYFgHBppk0Oxg2CcbNLjVIDesHJN8Xd9q84R1mDchEhveys41GJXrcft540nEEuO+TVmu/t2vha3cu8NNrsZwqJb4W0KAxNgEJESW7dlmVUZ2s480vCf0g5QkDwKCuPe317zJtIHT+A1L7cyF8+5JOHX+rOvgv9j8YQaLEejcVU9Pj+8T+sG92p+Ws0bbN1pXw65CYldyZbp14Au2qWiv7Th8wD77fOXQ142E7Msr5rq2SolYFuzaZH/s0dDUlgXRhlJmfiZrPtfsIeuyYIodPXMqxiM0bg0BkgAbOHfxgsuYpVnujzdmRSTpnYZmEbWsrRlEpXQuebz22mtuV9l/9GmGm0NIBoul2ewnGt/vxOOYdYtNg8nSPhOW17QSu66wwK3M/rln48i4+4SFn9fXoee/5+Lpdvzsaff47zxSFAkBIqGhpCvFj6KTx6317DGRWMHxuh7jdj6t5t4+qK2t2reTVY/iRh7TvxEgMa3Y0m5LQkQPdq1JA0wzDPL7j1sDxv2UPyP10Ub3uhnzDQf2VNjAHz590trMGetEK1zL5+o3Hw3oh66a7x7zKAkQXbBEr1Zt3lv3NtofnwWuBnh3DGpnq/dfPsCTAFGf4LcdZ1qe3HK0Ylvy0GrI4oItpkkTfSbT8/L5YNs3jUW+1+5p16adPHe2ZPXyf0wJIEBiWrHl3ZYaay27t507zq5t+yQNts+DgCA6u6vrV7K7h3R0nXQm+dNlK3N3rLffdqvPrHVI7EQbkA5b/aqpbnRETYDomuXyN3DFHJe1L4jnIWllynXp++2fcXZT2gAvKgJEcURTN68ss3s7cvqk9V7yin29dTVcjkPSXpX3rGk1/jNNK7tNBXcfO0R63TItO55vIEDiWa9p3ZVcbZS+VzOpf+rZyLS7aHmNBe8FO0uUDX8JDy1pz9ux4Y04j7SMo8SHDpw8Zk1nDDetoGRzHXzHG9tRzIdmgJXxLnVEUYDo2tX+LN+z3f7aqwk+/HkaLGqAp5UNxd8ohamYl3ZERYBoBWf2tnWl3cIbr+ketx7a71bZPtzgbtqrPNlWrm264sKqjellawsL3phMeaMS+SMRBBAgiajmim/y2NnTbpCqBkH+wQT1eTNgzLWRzub7GnSocX9g+Iv26s6NnqUvvHDporORv/RqTGxIAJ36D9o/4zKVlRxERlWApFqlg6eOW+Ppw+y/GzJYzOZ5L+s7ctN7alwfF3uTWi1LMS/5e9fRItMO02WdKyyvK2Of2rR0Drkca+LlX31b4O4XQHtVls1IFKpvksuc6ogjuQQQIMmt+1LvXIPMbYcKrd+yWfaHHg3tQw3uYik7RI13WY26XpebhcSjYnw0s3z2P5mtSq3oHF5UbEjXhVPsKy0fxTZ8sA1NBlzfr6Vzmyyt2qIuQHRPande2brG7XQsOy7Pznmv7MkRTT5olfLhUd1cG5Cuu2VUBIj6I2V2zORQoL1WDX/XvX7os8XF1bZTdvnQiK5uJ/N89U2Z2AWfDZ4AAiT4OgjtFajhXrJ7qzWZMdwFiL2v7u0MDHwYcGbaCSmY96edarq0hXI9qGi20wuDkwvQ5oP7nJsDM9dlDwgzrcuSn9dsoVzfJPrKOqIiQORqUdGx/8QRe/6VEezvkGE7owHep5o8YNqkTwP0TGeWoyJAtKqTjh2VZmd6hpRB6zfdnmOvowztq2S7lO7/mjyR22jtyQNdZsVM7bK0euS1+BBAgMSnLvN2J3L5UAzArG1r3S7r32zzOEvaPjXgZTX0atgVvHf/sM4uKFNuLCVdc/JmEMVOrBlW5eLXfgJyjyjrenk9M5GiVYCfdarp6raiWew4CRCZlgT00t1bXezS+7Gpcp8p7QaugOtmM0c6V6uKbKXYo3vZnxIgWj0N+3P66aYPuviOyy4+w38kRMatX2J/792UNitP/ZgmK9V+dVs41XlU+DEplqEZ8PEQEECAhKASonQJakj2HT/i3CXk6vPddk+54HXNwIW984r69SlVoWI7tPGWMr1oBSIsM0rawHDm1rV2Y/9WJDPIsVPXTLZWAfScpXPETYCk7lk2NW3zKjdQJGXvmwJWbe1V9Su5dkCZxAqOHrwsKUGKXya/dY4oCJAvtXjElC3Ji0O7qSvDn9yCJGxw/XvTxrLpK5X+WDak/cbkTnno1IlAJsW8sA3O4Q8BBIg/nGNZitxwtDKioMAX5ox1qVq1OZpm5bJpwPjOlR2AOkWJDrkNdJo/yS1jq+MM66EUnwr8vG9YZza9zFCIyJWtyshutnLvjozc6OIqQFI2LlfQKZtW2L/7tTBldUvqZMe769xqWn2uM/ll50ef2kQwxSmX31ERIN9+4QnX5+RyryW/q1Uj7Yuknbd/0bm2WxVJqo1l2gerr5d4u2lAa5dNc/vhQhfPVZIx/0OgNAIIkNKo8FrGBOT+ow5x/YHdzs/20dE93B4jChpkZulKYVFeQ69drT/7fGX7Z9/m9tKSGW5AKrZBuFhlbAj/+YKCDLXZmWbyNWhQ/v7y7jmp72lVS6Jds4aLCjZnlTgg7gIkZYNaERGjJ8a+5GZakzDRIdGhZA8SppM2Lndp0/PhziIBIl/9sD+HP+lYw5SxMR+H2le5Z2kCRav732rzBK7GJSZRJMyUCvnLLR6xu4Z0cPvKaCVe+/pwQCBTAgiQTInx+bQIqJPU6oh8ueUm8ODwLk6QaDafnWovFyTiocw1P+5Y3QXrTdy4zPk5nz5/Li3WYf6QVsm014yy0FQa3N7tSUD9X2/ykVZa3dazxzjf/Vxc6ZIiQFJ2nsrUp3ZFKaH17MRlkkOCVO5V32n7lEuhO3nTCudipXvO5xEVAfLnno19Geyq3ZIL5Iwtq50YSbkaq37CLtK8vj5NHskt9Fdd6roJJTFRzFAubVY+bZlzR4cAAiQ6dRXpK1UHWnTyuK3at9NGr11kz00d7Fy2NOumDRCTsu9IagZJy9YK0qsxsb/jsWb/Ljf7po4vroc6LGXpUiaae4Z2dLNo8u1PgruDBshaDdRu1HWnvOwSOuh58GJVK2kCpPjzIXdErbT1WjzDbWio50oriF4PwvJ1Pg1oJUbVDmrFU25AC3dtdpM3+VjpKM6u+N9RESBaCfK7jVR5mkxTvby4YLKzMyUA0epU3Nou2aMSP2hPmN92q+8Eh9wftcoRtVX44vbN3+EkgAAJZ73E/qo08FK8gGZS5FYxfPUCazR9qJvR/Ebrai5+QIPTKM9sSlQpM5Q6qx92eNZlrOqxaJoL0NtycJ/qnaFCAAAgAElEQVRzJfC7Mw2LYUmMaNCjwPVWs0e7gFrt2KzBWNRnGXX9clOQa5VmTpWpTPvqaDVQ2cq8rvMkC5Di9iwXLQ2UtNomYS+B/8kmD4RmoKjBqmaTlUpWbol3DGpn3RdNsznb17t2MEg3FgV2K8A7X0LLq/NqR/egD9mZJlKUIEErmH/q2cgJSE2kRam/0rVKbKT6J3kp9Fk607mg7Th8wPXPXkyQBF1flB9eAgiQ8NZN4q5MjZ064cITR10syext62zwynnWfOZIu+3ltm6vi6+1quoGdmrs1ZkH2eBroCl3IjXiH298n/PVlo/ynYPbu45JokoB+uqs5FucbzeKqBpMSowqgFGDMWX4UkyEBpCaGdZeGKrroIWJBpCyN9W5xLFWNDTA/WrLqvajDtXtuj7N3OpG/2WznchUYKsER77rPQoCRG5S2e7fkI1dS+QdPXPKNhbtcamMtbIgn3VNBGh2V3WXj/ZDNqLYFAlpCQ3Fb/zPi7VdpiVt3jl180rHQTPq2abMzYZHRd+JggARWwn5sB0SJJpI0wrJkFXznfjV6sE1rR5zNqDJiKD6qVQfpf5Sq4PXtn3S/vZSU9dODVo514kN+qewWVRyrgcBkpy6jvSdqrNW8KHiCTSoUGOvpWEJlM6vTnKxE4ox0G63EgFqaDUw1Ky6/Fc1GFCWIQ085GOtBrn4j15Thh0NdjVY0uy1ZoY0K6jMM/LX/2WXOnZD/1YuCFZZvwYsn20TNixzIkPB93uOHXLXmO8BZ6QrMs2Ll/uJ6lsdu3Z1V12Lt8SoVhR+372BG0xqtUypH4vXseqxZB3rf9W9YpAkFvV52YaCKXUO+dxrcPrzzrVcxjGJibuHdLRqY3pZg2lDrOP8iU4YaYChOpdQ0oZvm4r2OpvUYFeB90HMGGp/Hgkg3YNWXML2o+vSgEwDnSAPPZeaCNDsrupONvXyirnWdu44V896tuXnLjtQ+6H9NSQg1AakfvS/XtcKhj4ncaH9JJTKVXtxKGmEXEwVyLyusMC1CXJd8dOdKhvGEiB6FrxaqcjHeeRap/i4sB8SvxIliiGR6FZKWrUbsrPKI7q49kWumOqfJArUJql90qSGRLEmOCRitYKuH4kX/dZr+tH7+pxErto6fV/n0fm+1+5pZ8OaBNMGpn2XznTtlfpLPX9y+9QkXxDtVNjrjevznwACxH/mlJgnAhpgKHBbA1c1tBIrO48UmdydNBhQ/IkGs4sLtjgBo0Y59aPX5CKj9xWPIZGz7VChyzmvFRkNXOQyJtchGu88VWCap9VgTvV85PRJt1omV65UHSuFreqxeB3LxU//a9CpeAGJRX1etiHRqN23tVKh8ymmQOdWPcueolDXulbl3Nc9hPVHz0+YB+EaNIqjBo6yA7UfsgvZhwbnqZ+UvWgFQ59TmyDhGeZ7S+exioIA0SBdz3GUD9mJbEzPg/oniQL1S7ov7Ukity65EErEKlZu6Kr5TrwMW/2qjVyz0LTaqQkQBYJL5C7ZvdW1aTqPzqd2QDbJJFiUrSQ5144ASU5dc6cQgAAEIACBKwhIWIV9BUSrlpo44IAABOJBAAESj3rkLiAAAQhAAAJZEZAAkXtZPlynvDqn9uXQyhMHBCAQDwIIkHjUI3cBAQhAAAIQyIpAFFZA/tqriS97gGQFkC9BAAIZE0CAZIyML0AAAhCAAATiQ0CB+UrK4NVqRT7OU2/KoPgA504gAAFDgGAEEIAABCAAgQQTUHIGZVPKh3Dw4pzKBKWMZRwQgEB8CCBA4lOX3AkEIAABCEAgYwKTNi53GzZ6IRbycQ7ttaQsURwQgEB8CCBA4lOX3AkEIAABCEAgYwJ1p7wc2tUPCZrPPl/ZpUXP+Mb4AgQgEFoCCJDQVg0XBgEIQAACEMgvAe1j8pdejUMtQH7aqabb2T6/JDg7BCDgJwEEiJ+0KQsCEIAABCAQIgIKQP9i84dDLUAeG9PTtFkkBwQgEB8CCJD41CV3AgEIQAACEMiIwEtLZtg7a90cWgFCAHpG1cmHIRAZAgiQyFQVFwoBCEAAAhDwjsDJc2ftjz0ahlZ8KP7j6vqVbHHBFu9umjNBAAKhIIAACUU1cBEQgAAEIAABfwnM3LrWPtTgrlALkGtaPWZ7jx/2FwylQQACeSeAAMk7YgqAAAQgAAEIhIvA6fPn7N/9WoRafGgF5KYBrU2B8hwQgEC8CCBA4lWf3A0EIAABCECgQgKj1i6yD9S7I9QC5C01brAei6ZVeC98AAIQiB4BBEj06owrhgAEIAABCGRNYM+xQ/bjjtVDLT60+nFV/Uq2YNemrO+TL0IAAuElgAAJb91wZRCAAAQgAAFPCZy7eMGU1vatNW4IvQD5Rutqtu/4EU/vn5NBAALhIIAACUc9cBUQgAAEIACBvBPoveSV0LteafVDPw+N6GoXLl3MOxMKgAAE/CeAAPGfOSVCAAIQgAAEfCegrFefaVo59CsfEh/am0RxKhwQgEA8CSBA4lmv3BUEIACB2BBQxqbCE0fZDTuHGl26e6t9q80TkRAfEiCfbvqgbSram8Md81UIQCDMBBAgYa4drg0CEIBAwglsObjP7hrSwa5t+6T1WTrTzpCSNWOLWLF3u/2g/TORER8SIP/o08wkPDkgAIF4EkCAxLNeuSsIQAACkSagvR8GrZzrZu1TAdPvrXub3Tm4vW0+uC/S9+bnxS/ctdm+1+7pSImPt9e8yfotm+UnJsqCAAR8JoAA8Rk4xUEAAhCAQPkEth7ab/cM7WjvL2WfCu0N8c02j1v/ZbPt1Pmz5Z8owe9eeu01G79hqX21ZdVIiQ+tfnyqyQO24cCeBNcetw6B+BNAgMS/jrlDCEAAApEgoFWPl1dcvuqhAWlpP1oN0S7Zq/bttNdeey0S9+fXRcp1qd3c8faxRveVyq40nmF67cb+rXC188tYKAcCARFAgAQEnmIhAAEIQOBNAtsOFdq9QzuVuupR1uBYqyGfb1bFWs4abQdPHX/zZAn+a+eRIrtvWGd7T53bIik+3lX7FhuxZkGCa5Bbh0AyCCBAklHP3CUEIACBUBLIZNWjLCGilK3/82JtG7d+SWJnzs9fvGgTNixzweapmJmyeIX59a+3rmYFRw+G0la5KAhAwDsCCBDvWHImCEAAAhDIgIBWPTRbX1qsRzaD5A8+d6fJfWdRweZEbWC34/ABe2RUd/tQg7siuepRvK4bTBuSgQXxUQhAIKoEECBRrTmuGwIQgEBECaQyXH37hScsH7P1H298n9tFe83+XXbx0qWIUqr4so+eOWXdFk69LFNY8cF81P5WzIpSBnNAAALxJ4AAiX8dc4cQgAAEQkPA61WPsgbZig/57POV7bExPW1tYUGsVkSU/UsZrn7brb79V+1bIr/qkapDxQBJnHJAAALxJ4AAiX8dc4cQgAAEAieggeWQVfMtX6seqUFsyd8SIp9pWtkeHN7FluzeGukB7slzZ23yphX2t5ea2gdKSVFc8t6j9P9V9SvZnO3rA7dTLgACEPCHAALEH86UAgEIQCCxBLYfLrQHhr8Y6KBZQkQuPv/q28KtHhw5fTIS6XuVYvjQqRNOvP2+ewNTnEuUhEW613rrwBfY1yWxLQQ3nkQCCJAk1jr3DAEIQMAHAqlVj2vbPpmXWI90B7clP6eg9x93rG5NZwy39Qd2hzJz1rmLF9yO701mDHeZraKaVrck+9L+V/A8qx8+PJAUAYEQEUCAhKgyuBQIQAACcSEQhlWP0ga7xV97W80b3a7bf+3VxAVzbzm4z7SJX1CHUunuOXbIhq9eYDf0b+ViWHSNxa85jn9XHtEl0q5xQdkL5UIgygQQIFGuPa4dAhCAQMgIaNVj6Kr5FrZVj4oG7u+odZOLFflDj4bWePowW7Brk+0/ccS0EpGv49Jrr9mxs6dtY9Ee673kFbez+1dbVrV317k19qIjVR+Kz9Fu9hwQgECyCCBAklXf3C0EIACBvBHQfhRBx3qkBra5/FZq4KvrV7Jvtnnc/t67qdWePNAmblxm6woLbN/xI3bi3BnTaoXiM9I5JDQkzJQ2d9fRIhcM32PRNLtnaEf7WaeabhVGmynmcs1R/K5Wd1rNHp02x3RY8xkIQCAaBBAg0agnrhICEIBAaAlolWDY6lftO22fClWsh1eDcgWwa1VCQezaqVu7rl/Xp5ndPaSjPT2+j7WcNdq6L5pm/ZbNskEr57rfLy6Y7GJMqo7uabcPamt/7tnYftShun2heRUnbt5e86bECY6S9fGrLnXdKlNoDZsLgwAE8kYAAZI3tJwYAhCAQPwJaNVDKW7jlha25GC5vP8lUDSbL1EhVy791v96vbzvJfm9jzS8x17Zuib+Dwh3CAEIlEoAAVIqFl6EAAQgAIHyCGjVY8SaBfbddvFc9UiyOMj3vUugNZs5Mta71Jf37PAeBCBghgDBCiAAAQhAICMCO48UWZWR3WK7J0W+B+BJP/+/+7Vwe5tkZHR8GAIQiBUBBEisqpObgQAEIJA/Alr1GLlmoX2v3dOxjPVIujDw4/4VJ6S9VzggAIFkE0CAJLv+uXsIQAACaRE4c+G8C7hOcqyHHwP0OJfxqSYP2PQtq9KyNz4EAQjEmwACJN71y91BAAIQ8ISAUsn2XDzdZXCK8yCZe7s+L4HzV9WvZANXzCHlridPIyeBQPQJIECiX4fcAQQgAAFfCFy8dMn6Lp1pH210b14GqQz+8zP4D5rr++rebp3mT7ILly76YqcUAgEIhJ8AAiT8dcQVQgACEAgNAa2EDF+9wD7d9EFESPV4CgYvBct7695mrWePyeuO8qF5OLgQCEAgbQIIkLRR8UEIQAACEBAB7QA+ZdMK+1qrqogQREiZNqCVjzZzxrpd4HlyIAABCBQngAApToO/IQABCEAgbQKLCjbbTzrWKHMA6uVMOueK1mrL1fUrmXaDV+Y0DghAAAIlCSBAShLhfwhAAAIQSJvA5oP77J99m7udvxEJ0RIJ+aovuecNWjmXmI+0nyI+CIHkEUCAJK/OuWMIQAACnhI4eOq4S9Erf/98DWo5bzTEjfb5mLFltSlWiAMCEIBAWQQQIGWR4XUIQAACEEibgPYJUYaszz5fGRGSwLiQt9W80a7r04xNBtN+YvggBJJNAAGS7Prn7iEAAQh4RkCz3gt3bbbfda+PS1aCRIj2+Gg4bagdOnXCM1viRBCAQLwJIEDiXb/cHQQgAAHfCRSeOGp1p7xsH2pwF6shMRYib6lxg8nlatz6JXb+Int8+P6gUSAEIkwAARLhyuPSIQABCISVgAakUzevtJ93rsVqSAxFyPvr3WGPju5h2w4VhtUEuS4IQCDEBBAgIa4cLg0CEIBA1AnsO37EGk0fah9vfB+rITEQIm+tcYP9sMOzNmbdYlPcDwcEIACBbAggQLKhxncgAAEIQCBtAhcvXbLFBVvs/7d3/6F213Ucx//opwXRDwwq6q+KwOiP/qo/kqL+KSgISleEpSkLslhCf8xN3dKbMu0S0camZfZrEXObNYJ0TF0L8trKlVeTdK2c0zWdbDa3u7uxT3zOv++Bu7jXPefcPe5f8vbufc59nDO4z53vj8/94pb2uuWulDWuV/R62w2Xt4l7N7anDh8849feNxIgQOB0AgLkdCpmBAgQIHDWBf53/FjbPD3VPrx6aXvV1Rf5RGRMPhF5w7Vfapdu+GF7aN8e9/Y4638rLCRwbgoIkHPzdfdTEyBAYGgC/ST1dVP3tAsmlzg/ZIQj5LzlX2ifvP2Gwbk8R2ePD+394oEJEFh4AgJk4b2mfiICBAiMvMCpU6fak4eebd/7w2/be26+UoiMUIi8dtmiduHaa9qm6QfaoWMvjvx7yRMkQGD8BATI+L1mnjEBAgQWjEC/d0i/ktKq7Xe19978DSEyxBDpn3h8dN21bePDD7inx4L5G+YHITCaAgJkNF8Xz4oAAQLnlEAPkX8/f6Ct+dPv2we+f5VzROYxRPo5Hp++48bB/TyeP3rknHrf+WEJEBiOgAAZjrtHJUCAAIHTCPRDs/YdPtju2Hlf+9Dqpa3/q/y4XjVqlJ93v5zu2yeuaF/btK7t2POP1i8Q4IsAAQLzJSBA5kva4xAgQIDAGQv0EHn2yAvtd4/9pX32Z6vam1Zc0vqdt0f5l/pxeG79Msgf/MG32+SOLe3R/+5tx0+eOOPXxDcSIEDgbAkIkLMlaQ8BAgQIRASOHJ9pD+59vC27e3173y3fbK+++mIhModDtPolj9/53cXtsg2r293/3NX6Vch64PkiQIDAsAQEyLDkPS4BAgQIzEmg39Cw3wSvnyTdb2rYDyF6xdLPi5HTxMgrl140uPv8Z356U1u/a0d74rlnfNoxp3ebbyZAICkgQJK6dhMgQIBARODYidn22IF9g3NFPnX7ROt36e6/dI/DYVCp5/iaZYsGn3T0Q9Z+/tftg0OsXpydifhbSoAAgZcjIEBejp4/S4AAAQJDF+i/ZPcY+dWuP7ZF6yfbu1d9vb3+mi8u+HNG+qc//dyYftWwJVt+0rY8unPwSYebBg79LekJECDwEgIC5CWA/G8CBAgQGB+BmROzbe+h59p9u6fbTfdvbh+/bUV7142LWz/5etxPYu/ncrxl5Vfa+ye/NTifo3/KsfOp3e3AkcOtH57miwABAuMiIEDG5ZXyPAkQIEBgTgL9ROt+Avvug/vbtif+PrjHyMW/nGwXTC5pb73+stbv+D2qUdJPtH/zyi8PPs352K3Xteu2/rrd9ciDbdfTewYnkc+ePDknC99MgACBURIQIKP0anguBAgQIBAV6Jed7VeBmt7/ZNv6+N/aj/+8rV35mx8N7gDew+QdE1e0N664ZHD/kX5OSSJQ+s6+u9/jpD9Wf8x+da+PrF3eFm9aOwilfvnhh/btGZx03yPKVauibwvLCRCYZwEBMs/gHo4AAQIERkugH770wszRwQ0QH97/n7b9X4+0zdNTbd3UPe36bRva5XeuaZ+4beUgEvrlbM//zqWt3z28B0T/pKKfi9Gjot/cr/93P1SqH/LV46J/b/8z/bCpvuOrd65pE/dubLdObR1czas/Vo+hftjY4ZmjDqUarbeGZ0OAQEhAgIRgrSVAgAABAgQIECBAoAoIkGpiQoAAAQIECBAgQIBASECAhGCtJUCAAAECBAgQIECgCgiQamJCgAABAgQIECBAgEBIQICEYK0lQIAAAQIECBAgQKAKCJBqYkKAAAECBAgQIECAQEhAgIRgrSVAgAABAgQIECBAoAoIkGpiQoAAAQIECBAgQIBASECAhGCtJUCAAAECBAgQIECgCgiQamJCgAABAgQIECBAgEBIQICEYK0lQIAAAQIECBAgQKAKCJBqYkKAAAECBAgQIECAQEhAgIRgrSVAgAABAgQIECBAoAoIkGpiQoAAAQIECBAgQIBASECAhGCtJUCAAAECBAgQIECgCgiQamJCgAABAgQIECBAgEBIQICEYK0lQIAAAQIECBAgQKAKCJBqYkKAAAECBAgQIECAQEhAgIRgrSVAgAABAgQIECBAoAoIkGpiQoAAAQIECBAgQIBASECAhGCtJUCAAAECBAgQIECgCgiQamJCgAABAgQIECBAgEBIQICEYK0lQIAAAQIECBAgQKAKCJBqYkKAAAECBAgQIECAQEhAgIRgrSVAgAABAgQIECBAoAoIkGpiQoAAAQIECBAgQIBASECAhGCtJUCAAAECBAgQIECgCgiQamJCgAABAgQIECBAgEBIQICEYK0lQIAAAQIECBAgQKAKCJBqYkKAAAECBAgQIECAQEhAgIRgrSVAgAABAgQIECBAoAoIkGpiQoAAAQIECBAgQIBASECAhGCtJUCAAAECBAgQIECgCgiQamJCgAABAgQIECBAgEBIQICEYK0lQIAAAQIECBAgQKAKCJBqYkKAAAECBAgQIECAQEhAgIRgrSVAgAABAgQIECBAoAoIkGpiQoAAAQIECBAgQIBASECAhGCtJUCAAAECBAgQIECgCgiQamJCgAABAgQIECBAgEBIQICEYK0lQIAAAQIECBAgQKAKCJBqYkKAAAECBAgQIECAQEhAgIRgrSVAgAABAgQIECBAoAoIkGpiQoAAAQIECBAgQIBASECAhGCtJUCAAAECBAgQIECgCgiQamJCgAABAgQIECBAgEBIQICEYK0lQIAAAQIECBAgQKAKCJBqYkKAAAECBAgQIECAQEhAgIRgrSVAgAABAgQIECBAoAoIkGpiQoAAAQIECBAgQIBASECAhGCtJUCAAAECBAgQIECgCgiQamJCgAABAgQIECBAgEBIQICEYK0lQIAAAQIECBAgQKAKCJBqYkKAAAECBAgQIECAQEhAgIRgrSVAgAABAgQIECBAoAoIkGpiQoAAAQIECBAgQIBASECAhGCtJUCAAAECBAgQIECgCgiQamJCgAABAgQIECBAgEBIQICEYK0lQIAAAQIECBAgQKAKCJBqYkKAAAECBAgQIECAQEhAgIRgrSVAgAABAgQIECBAoAoIkGpiQoAAAQIECBAgQIBASECAhGCtJUCAAAECBAgQIECgCgiQamJCgAABAgQIECBAgEBIQICEYK0lQIAAAQIECBAgQKAKCJBqYkKAAAECBAgQIECAQEhAgIRgrSVAgAABAgQIECBAoAoIkGpiQoAAAQIECBAgQIBASECAhGCtJUCAAAECBAgQIECgCgiQamJCgAABAgQIECBAgEBIQICEYK0lQIAAAQIECBAgQKAKCJBqYkKAAAECBAgQIECAQEhAgIRgrSVAgAABAgQIECBAoAoIkGpiQoAAAQIECBAgQIBASECAhGCtJUCAAAECBAgQIECgCgiQamJCgAABAgQIECBAgEBIQICEYK0lQIAAAQIECBAgQKAKCJBqYkKAAAECBAgQIECAQEhAgIRgrSVAgAABAgQIECBAoAoIkGpiQoAAAQIECBAgQIBASECAhGCtJUCAAAECBAgQIECgCgiQamJCgAABAgQIECBAgEBIQICEYK0lQIAAAQIECBAgQKAKCJBqYkKAAAECBAgQIECAQEhAgIRgrSVAgAABAgQIECBAoAoIkGpiQoAAAQIECBAgQIBASECAhGCtJUCAAAECBAgQIECgCgiQamJCgAABAgQIECBAgEBIQICEYK0lQIAAAQIECBAgQKAKCJBqYkKAAAECBAgQIECAQEhAgIRgrSVAgAABAgQIECBAoAoIkGpiQoAAAQIECBAgQIBASECAhGCtJUCAAAECBAgQIECgCgiQamJCgAABAgQIECBAgEBIQICEYK0lQIAAAQIECBAgQKAKCJBqYkKAAAECBAgQIECAQEhAgIRgrSVAgAABAgQIECBAoAoIkGpiQoAAAQIECBAgQIBASECAhGCtJUCAAAECBAgQIECgCgiQamJCgAABAgQIECBAgEBIQICEYK0lQIAAAQIECBAgQKAKCJBqYkKAAAECBAgQIECAQEhAgIRgrSVAgAABAgQIECBAoAoIkGpiQoAAAQIECBAgQIBASECAhGCtJUCAAAECBAgQIECgCgiQamJCgAABAgQIECBAgEBIQICEYK0lQIAAAQIECBAgQKAKCJBqYkKAAAECBAgQIECAQEhAgIRgrSVAgAABAgQIECBAoAoIkGpiQoAAAQIECBAgQIBASECAhGCtJUCAAAECBAgQIECgCgiQamJCgAABAgQIECBAgEBIQICEYK0lQIAAAQIECBAgQKAKCJBqYkKAAAECBAgQIECAQEhAgIRgrSVAgAABAgQIECBAoAoIkGpiQoAAAQIECBAgQIBASECAhGCtJUCAAAECBAgQIECgCgiQamJCgAABAgQIECBAgEBIQICEYK0lQIAAAQIECBAgQKAKCJBqYkKAAAECBAgQIECAQEhAgIRgrSVAgAABAgQIECBAoAoIkGpiQoAAAQIECBAgQIBASECAhGCtJUCAAAECBAgQIECgCgiQamJCgAABAgQIECBAgEBIQICEYK0lQIAAAQIECBAgQKAKCJBqYkKAAAECBAgQIECAQEhAgIRgrSVAgAABAgQIECBAoAoIkGpiQoAAAQIECBAgQIBASECAhGCtJUCAAAECBAgQIECgCgiQamJCgAABAgQIECBAgEBIQICEYK0lQIAAAQIECBAgQKAKCJBqYkKAAAECBAgQIECAQEhAgIRgrSVAgAABAgQIECBAoAoIkGpiQoAAAQIECBAgQIBASECAhGCtJUCAAAECBAgQIECgCgiQamJCgAABAgQIECBAgEBIQICEYK0lQIAAAQIECBAgQKAKCJBqYkKAAAECBAgQIECAQEhAgIRgrSVAgAABAgQIECBAoAoIkGpiQoAAAQIECBAgQIBASECAhGCtJUCAAAECBAgQIECgCgiQamJCgAABAgQIECBAgEBIQICEYK0lQIAAAQIECBAgQKAKCJBqYkKAAAECBAgQIECAQEhAgIRgrSVAgAABAgQIECBAoAoIkGpiQoAAAQIECBAgQIBASECAhGCtJUCAAAECBAgQIECgCgiQamJCgAABAgQIECBAgEBIQICEYK0lQIAAAQIECBAgQKAKCJBqYkKAAAECBAgQIECAQEhAgIRgrSVAgAABAgQIECBAoAoIkGpiQoAAAQIECBAgQIBASECAhGCtJUCAAAECBAgQIECgCgiQamJCgAABAgQIECBAgEBIQICEYK0lQIAAAQIECBAgQKAKCJBqYkKAAAECBAgQIECAQEhAgIRgrSVAgAABAgQIECBAoAoIkGpiQoAAAQIECBAgQIBASECAhGCtJUCAAAECBAgQIECgCgiQamJCgAABAgQIECBAgEBIQICEYK0lQIAAAQIECBAgQKAKCJBqYkKAAAECBAgQIECAQEhAgIRgrSVAgAABAgQIECBAoAoIkGpiQoAAAQIECBAgQIBASECAhGCtJUCAAJzBL4cAAADySURBVAECBAgQIECgCgiQamJCgAABAgQIECBAgEBIQICEYK0lQIAAAQIECBAgQKAKCJBqYkKAAAECBAgQIECAQEhAgIRgrSVAgAABAgQIECBAoAoIkGpiQoAAAQIECBAgQIBASECAhGCtJUCAAAECBAgQIECgCgiQamJCgAABAgQIECBAgEBIQICEYK0lQIAAAQIECBAgQKAKCJBqYkKAAAECBAgQIECAQEhAgIRgrSVAgAABAgQIECBAoAoIkGpiQoAAAQIECBAgQIBASECAhGCtJUCAAAECBAgQIECgCgiQamJCgAABAgQIECBAgEBI4P84GOqEoyhY3gAAAABJRU5ErkJggg==;" parent="RU4EYPsR_D7hi8bJ4MLe-1" vertex="1">
          <mxGeometry x="1020" width="106.67" height="80" as="geometry" />
        </mxCell>
        <mxCell id="RU4EYPsR_D7hi8bJ4MLe-19" value="" style="shape=image;html=1;verticalAlign=top;verticalLabelPosition=bottom;labelBackgroundColor=#ffffff;imageAspect=0;aspect=fixed;image=https://cdn3.iconfinder.com/data/icons/document-icons-2/30/647702-excel-128.png" parent="RU4EYPsR_D7hi8bJ4MLe-1" vertex="1">
          <mxGeometry x="1080" y="200.25" width="67.5" height="67.5" as="geometry" />
        </mxCell>
        <mxCell id="fuH1si9u7OqA3oqqeqV9-7" value="" style="group" vertex="1" connectable="0" parent="RU4EYPsR_D7hi8bJ4MLe-1">
          <mxGeometry x="-260" y="-30" width="110" height="118.75999999999999" as="geometry" />
        </mxCell>
        <mxCell id="fuH1si9u7OqA3oqqeqV9-6" value="Enterprise IT Solutions" style="rounded=1;whiteSpace=wrap;html=1;verticalAlign=top;strokeWidth=1;strokeColor=#020912;dashed=1;fontSize=18;" vertex="1" parent="fuH1si9u7OqA3oqqeqV9-7">
          <mxGeometry x="-160" y="-30" width="270" height="148.76" as="geometry" />
        </mxCell>
        <mxCell id="RU4EYPsR_D7hi8bJ4MLe-16" value="" style="shape=image;verticalLabelPosition=bottom;labelBackgroundColor=#ffffff;verticalAlign=top;aspect=fixed;imageAspect=0;image=data:image/png,iVBORw0KGgoAAAANSUhEUgAAAggAAADFCAYAAAAxFQogAAAgAElEQVR4Xu1dA3RcWxfeTa20TZUytW3bSm3bbWrbtm1br7Zt27bxr2+nd/7JdCb3zmSUzN5rvbXee7k63z1zz3c2vh3sz58/f0hMEBAEBAFBQBAQBAQBPQSCCUGQ+SAICAKCgCAgCAgChggIQZA5IQgIAoKAICAICAL/ICAEQSaFICAICAKCgCAgCAhBkDkgCAgCgoAgIAgIAuoIiAdBHSM5QhAQBAQBQUAQcDkEhCC43CuXAQsCgoAgIAgIAuoICEFQx0iOEAQEAUFAEBAEXA4BIQgu98plwIKAICAICAKCgDoCQhDUMZIjBAFBQBAQBAQBl0NACILLvXIZsCAgCAgCgoAgoI6AEAR1jOQIQUAQEAQEAUHA5RAQguByr1wGLAgIAoKAICAIqCMgBEEdIzlCEBAEBAFBQBBwOQSEILjcK5cBCwKCgCAgCAgC6ggIQVDHSI4QBAQBQUAQEARcDgEhCC73ymXAgoAgIAgIAoKAOgJCENQxkiMEAUFAEBAEBAGXQ0AIgsu9chmwICAICAKCgCCgjoAQBHWM5AhBQBAQBAQBQcDlEBCC4HKvXAYsCAgCgoAgIAioIyAEQR0jOUIQEAQEAUFAEHA5BIQguNwrlwELAoKAICAICALqCAhBUMdIjhAEBAFBQBAQBFwOASEILvfKZcCCgCAgCAgCgoA6AkIQ1DGSIwQBQUAQEAQEAZdDQAiCy71yGbAgIAgIAoKAIKCOgBAEdYzkCEFAEBAEBAFBwOUQEILgcq9cBiwICAKCgCAgCKgjIARBHSM5QhAQBAQBQUAQcDkEhCCYeOU/fv6iR09fU4K40V1uUsiABQFBQBAQBAQBIQgm5sCdhy+odOORtHaKD7lHCEuxYkSW2SIICAKCgCAgCLgMAkIQTLzqW/efU5IiHShM6JBUMl96GtapGsWMFokiRQznMpNDBioICAKCgCDguggIQVAhCMqfPSKFp65Ny1L5IpnJK050Ch0qhOvOGhm5ICAICAKCQJBHQAiCRoKgHBY7RmSaPqAhJUsUm5J6xaRgwYIF+UkiAxQEBAFBQBBwPQSEIJhJEJTDE8aNTisntKWIEcJSsgSerjdzZMSCgCAgCAgCQRoBIQgWEgScBudBkvietGpSWwofNgwljh8jSE8WGZwgIAgIAoKA6yAgBCEABEE5NURwN8qYKgHNHNyYkKsQL1ZU15lBMlJBQBAQBASBIImAEAQrEATlEmHDhKIS+dJT/zYVCbkKUaNEDJKTRgYlCAgCgoAgEPQREIJgRYKgXApehFa1i1LVktkpUbwYFC5s6KA/k2SEgoAgIAgIAkEKASEINiAIyiXhRRjaqRplTp2QUiaOTW5ubkFq8shgBAFBQBAQBIIuAkIQbEgQcGnfRMaYNGtIE4rmEZFSJY4TdGeTjEwQEAQEAUEgyCAgBMHGBEG5vJtbMEqTNC7NGtyE3COGpeQJYwWZSSQDEQQEAcsQuPf4Jb14/YF+/frt5wKJ4kWnqJEjEr4bYoKAoxAQgmAngqDcJmSI4JQtXWIa06MWRYsSkXMUxFwPATQD+/37N4UKGULEtlzv9dOHT1/p7qMXNGTqBtq45zR9+vzNDwqoiKpVNhch8VlMEHAUAkIQ7EwQlNuFCxOKiuZJQ71alKf4saNSjKiRHDUHgsx9377/TNiRwbDvimKnktNXbz/Sw6evdThGjRyB4np6mMT1yYu3dPrSXfr67TvFjx2N339Mef9BZh6qDeTHj5+0dudJGjBpLV268cjo4dMHNqTa5fJQuLBCENTwlL/bDgEhCA4iCMptsZg0qVqQKpfMRskTxKII4cPY7m0H8Stv3nuW2g9eyKOEa9a7cGYa0aWGTUf9+cs3WrjuII2as0V3n5plc1H/tpWM3vf9xy80du5W6jdxDf89dswo1LVJGWpbt7hNn1Mu7jwIHD59nToMXUzHzt3ih0qeKBaHE/SDCZ0bl6biedNxszgxQcBRCAhBcDBBUG4fJ6YH9WtTkTKnSUhpksUlhCLEzENg2eajVMNnku6kUvkz0LQBDWwqXHXo9HXqPW4V7Tl6WXffFjUK05T+DYw+/LGzN5kcbDtwXvf3dvWK07iedcwbrBwdKBH49v0HVfeZTOt2nOTnT5EoNk3pV58KZE/pJ9SE8BP6vEivl0D5moPMQwtBcBKCgMfADiJx/Jg0tmdtih8rKqVLET/ITDR7DMSQIERxD0/NaxamIR2q2uT233/8pCmLd5LPkEV+ru8fQbj76CWNnLWJpi/bzYlpsaJHpi5NylD7+iVs8oxyUedC4OSF29Ru8EI6fPoG558sH9+ayhfJovkhf//+Q7cePKMfP36RV+xoFD6caKxoBk8ONBsBIQhORBCURwnu5kZpk8ejCb3rchwd1Q9i6ggYEgScUa5wJpoxsBHFjGb9HI+L1x/SwCnraMWWo5oJAg7csvcsTVq0gz5//UZlC2ailrWLUNjQEmtWf8OB/4juo5bTjOW76fW7T5Q2WTz2HuTJklzTwO48fEH3Hr2gsfO20Z8/f2hg+yqUXjYRmrCTgyxDQAiCExIE5ZEQZsiaLhEN71ydPKNFpiReMS17yy5yljGCAE9Mh4alCG58axp2cvjQt+w7l4KHCE5uwYIRPAow/zwI1nwGuVbgQ6BK2wm0attxfvAODUtShwYlCeFFLdZj9Aqec0iKLZwzNY3uXksIghbg5BiLERCC4MQEQXk0uBFL5E1HPg1KEtpMx44RxeIXHpRPNEYQMN6KxbLSnKFNKFLEcFYb/r1HL2nErE0cYkgQJzpFihiWzl29LwTBaggHzQvpE4RJfepR/Yr5NIcJhCAEzTnhzKMSghAICILyiFGjRKC65fNQlRLZKWXiOBTZ3XoLnjNPUq3Ppk8QIoQLwyViz1+9p9RJ4lKf1hWoaqnsWi+letzc1fuoRZ+59O3HTypdIAPnjkxY8J8QBFXkXPsAfYIwtV8DqlsBpYza8giEILj23HHE6IUgBCKCoDwqauw7NixFOTMmpQwp41PoUFIKBWz0CUIuxsaLpizZybBVK52D5g1rZpWyMSjfjZu3lYZM20DQs0CeQzQPd5q0cLsQBEd8xQLRPYUgBKKXJY9KQhACIUFQHhk5CQPbV6akXp6UKXUCly+J0icI0CIoXyQz1e0yjb5++0HZ0yemIR2rUaEcqQL8s0cMue3ABQTBI1y3WqkcdOLCbVq66YgQhACjG7QvIAQhaL/foDY6IQiBmCDg0VHxgEzmIR2rkmf0yC6dtGRIEJCY2G3UctYoQBJhLe/c7EUIiL79m/efaOKC7dR3wmrWqmhRszDVKZ+XtQ027zmjiSCAWCAjHRbDw50SxIlGIczUvcBz3Lr3jLPh/5iYwxHChqZE8WNwKaWhoR7/wZPX9Pz1e/5TPE8PnV4ECNWt+8/o0bM3fq6d1CumqjQ41CxRhvfqzUeTzxU2dEgmtZivaGZmiT198ZZuPXhOHw0kipVrhQzuRgniRmdFS5QTajUkn955+JzuP3lF33/8Mnoa2iMgDwj5QGrhget3ntDLtx911+k1ZiXtOearmdG5UWkqkT/9P14tvC9cH8+B96vY9KW7aP2uU/TuwxfKkiYhtalbjJJ4ef7zjGgIJ+FHrW9cjvMPASEIgZwgKI+Pj2CODEk41o6s6BSJXK8ZlCFBWDiyBS3ZeJjqd51Ov37/5sxvCBJBiMpS++/Aeeo8fClduP6ARW56tCjH+SDmEIQFaw9Q/0lr+REqF89K3Zt7a/6gv3zzgW7ee0aHTl2nRRsO0bmr9+iPCYYQL1ZUgielUeX8lDSB34Xk0bPXNGHBdl1Gfdu6xahdvRL04MkrOnzmBs1bvZ+2H7pAWDAVQ1ldr5beRqFTngvnLt14mM5cvseYGzOUnNarkJeK5EpNKRLHYXKi1UCMbtx9Rmt3nGCPDZJFjVmEcKGpcols1KlRaUqtoUwYZYOXbz7i/gjLNx+ljXvOEMiOMQsR3I2K5ErD6qe5MyXjJFVTiodtBsynLfvO6S7z7OU7+vTFt+8CerFAORXkVd/qVchDjasWpP4T19LOwxd1f3r97iN9+PiVcUWPhqiRIlCoUP+Sn7nDmlK+rCm0QirHCQImERCCEEQIgjIMfBiL5UlHrWsXpcReMVlwyVXMkCAsHt2S9h67Qh2GLKIzV+7xR7VxlQKsL2GJYbc6efEO6jZyGYdzmlQtQFP6NeBrm0MQJi7cziEKWIOK+WhUt5rkETmC6iPB64DFd8G6g3TtzhPd8ciDgF4GclG+fPtOb9594rCKYj1beNMgnyp+ro+Ftf+kNTR39X7+/31bV+BFafz8bTRr5V6ji6MpggDCsnLrMVq4/iBdufVYdx8smh6RwlOY0KEI/QewG1YWRxyE3XejKvmpfd0SvNtX8+w8fv6GNuw6TVOX7KLz13wrRoIHdyPIlSMpFWWmr99+pM9fv+ueYfrARtS0WkF/sUXjpMs3HjIe2w9d1HVWxDsGru5YxN3c6N2Hz/zPT73OixWKZqFa5XJT/mwpeME3tGrtJtKKrcdU363+AW3qFGNigzkCj4G5tnV2F656EhMEAoqAEIQgRhCU4eCjicS8qiVzULrk8fhDF9TNGEH49v0nzV+zn5r1mcPDR8XB5L71yStONLPhgPpdr7G+LmLsejs1Ls09FE5evGNzgnD7wXMaOm0DzV61lz0GIDtJ4sfkRk9w1adOEoegHPni9Xu6dPMRYUf/+PlbgosbKo1qBAEkInpUdxo8ZR39+v2HkiXw5IVXMeBYp3werqLRNxCVgZPX0ootxwgdKrFgo5U5wiYxorpTqiRxKHoUd3r/6QtduvGQwxZPX76jG3efEvpSwOBN6NHCm+9pyhTVytFztnBjLJT+pkwUm98jQmzxPKPSu49f2LOD8MPbD5/p2u0nNLhDVX8JwsfPX2nrvnM0dPoG9nrAEJZAfk/E8GHY+5AobgwOJ12/+4S9FxjLhWsPOAcFFitGZOrerBx3XzQkesNmbKSDJ6/phoUmXcp58GTFjenBmOlb2UKZqGKxLDRt6W46du6m7k9Xbz9hDw+wABlJmTg2uUcI+w9k/dtVosypE5o9v+UEQcAQASEIQZQgKMOCmxk7EoQfELcMyu1jjREE4ICwQKv+8zmujkULizoWRHMMH2XIIys7/9reuZlo4ANta4IAcoCKidkr9/IjgxTAhVy7XG5u6GPK9p+4SovWH6I8mZNR3Qp5/Rxm6EGoALnfYESnLt1h3YiGlfKzmqdicO1jRx1ZT0sC7vi+41fTwvWHWNkPRAVktGWtIlS2YEbedRuzI2dv0uL1h2jTnjO67ptoWNa9eTmO6xszhC56j11Ju49eZk9JsTxp+B1mT5/E6PEgIPPXHqC8WZKbxAjPjAZf/Sas4XHD058+hRfVr5iXqpTMblJvBF4Q5KEgVHT74XMCeUocPwaN6laLCah/fVQkSdGcX50c62gEhCAEcYKgDA91+oiXI4EpW7rEqu5cR09MS+5viiDA5Y5yR+z+YahugOsZZEGrQVZ50JR1tHzLUYruEZHa1y9JPZqX49NtSRCgmjdi5iYaOWszL8LYmUMwq2Hl/OxWVzM0/UEWAZJZ9c2QIMC97x4+LC/uUJ7U9x4Yu8fPn78Iu/nhMzYRyAOwhOhP8xqFTS7y+tdBCASqgKPnbKX7j18y+UAHTKgLhjeiC9Bu0EJCaAYYYNGHRySgcXYIW3UevoR2HPKN82dMlYDDPVorXRBWGTx1PXstkKtRt3xeJi3JEpr2hAhBUJux8ndnQkAIgosQBAwTiwB2eH1aV+SMdXgUgpKZIggY4+a9Z6hF33nsosVur2vTstxmW4vh4z9r5R5q3mcuL1BoIz2mRy1dRr8tCcKGXaeox5iV7J6H+9qnfgmOTwe0DbAhQQAOxfKk5Y6i0NdQszOX7lKfCavZC4DFvbZ3LurVsjwlS6A9ORY7cezeJy/awbkTSCLt17YSezwMDZ4bEATYhF51qXWdogEq60WjrJb95tKcVfs4pwD9TiBdDAzMsSmLdzB5QxMu2MzBjTkMY6pyQgiCOejKsY5GQAiCCxEEZaj4eMGL4OvSjcZZ+EHB/CMIiH1D3GjU7C081KqlctCswY05zqxmSA4cMWMTTVu2i+WaEbKB/oRitiIISOqD92D4jI18K8SmB/lUpnTJA97l05AgoPSwb5uKTJy0WJ/xq3j3DPKEWPjAdpWpUolsWk71cwzi//0nrqFj52/x/x/bozZXUxiWP+oThIl96nESbkDs3JV71HnEUvYeoIpgfO+6nHRqiehYox4zOXEUXpU63rmpZ4vylNxEFZEQhIC8NTnX3ggIQXBBgqAMOWL4sFQ8b1rOXkfCF2Lbgdn8IwgY19odJ6lJz1nc7AYqi/3aVmRvgJohjt+s92zOji+YIxUN7ViNBZJsTRAQH0dY5OyVe+QRKQJ1a1aGOjcuo/a4mv5uSBCypE3E3gPE0NUMlQK9xq2iqX9VKvu0qsBk01KvBqpM0KEQ1r1ZWU7+xHj1TZ8gwIPSqXEpihnV8g6dXUcu47DTx09fuVwVxKREPssy/6cu3UkjZm6muw9fUNgwIQnltZWKGydLQhDUZpf83ZkQEILgwgRBGXp0D3fuU4DFMmMqL6PlWs40aU09ixpBQMb9kKnrebcHq1UuF80d1szfpLKnL97R2HlbeSePBE/E6Ed1rennEWzlQRgzdyt1HLqY71WmYEaOu1urva8hQfCpX5IJk7GseEO8UWo4YNJaTuxDHgQqBaCjYKlBdGr07C1cAonwBrwRhXOl9nO57qOX0/h5/3EoAiWRnRqVYo0HVG5YYo17zKTZq/bxqch9gFfI0kqfV28+UMMeM7kEE7Z0bGuqXjqH0ccSgmDJ25JzHIWAEAQhCDoEkJcAnQD0p8cO2ViymKMmqpb7qhEEXANJho26z+TFCCI3wztXo9yZk5u8/JrtJ6jNgAWEGnzssge0rUQl86e3OUFA1QSSANGgB4beG0igs5YZ00FA/F+LIbQweMp6XqwRqkJZXUDq7qETMGjyOk72A+EY3b0mNa1WyM+jQGwIoYjjf0MRmdMkpKols1O5Qpm4JNEcJcrPX75x2Ss8Q7DZQ5tw1UZArGaHyTqpbah11vLORSGCB//nkkIQAoKynGtvBIQgCEH4BwF8cLGjRJ02FlHDOm17T1Kt99NCEFCHjvg53PdQxGtQKT9NH9jQaMIbcgAmLviPNQ5wbJNqhWhKv/r/PI4tPAjImRg2fQNNWrTD6QgCwh4gCbAGlfJR71YVNFUumHqPCKHgmngnsLE9a1P7eiX+ORw7fmhBoFwVhtwB5JKAsCHJEOqhatLHOA9iTvDMbN3vq3BobYKAEFSz6oWMeiSEIGj9NctxzoCAEAQTb+HOg+eUunQ3+qKnyuYML8xez4CPLwhCt6blKLFXDN4pOrtpIQioQoBEccNuMzh7vWjuNBx/NibHu/PQReo0fAmhHA7iPyhrNNQTACa2IAggMnDjQ0kP7wKlhyO71rDaKwiIB0GfIPRo7k09W5TTtDCbenjIPiMnYPGGw/4SBCREos02SNPV24/9qEWi+gBdNZHAmTppnH9yGPTvjd4cPceupCNnbtiEIECYCu/LmIS0EASrTWG5kB0QEIJgAmQo0fUZv5pV2/BBgeKaKxoqHiBG49OgBJcHWiOD3lY4aiEIuDeU7bqMWEoQ7EHMHQ2XhnWq7uexIL+LJDwsXCjjQ43/tAENjJav2YIg7D9+lfpMWEX7jl+lUCGDc2kjYv3WMmsRBDyTogdh6bMh6REVBSg5hJnyICjX37L3LPdKOHr25j9EAcmn6MFQtlBGJnXGqhI27D7N5ZVnLt+1CUGAFkSXJmWMelWEIFg6S+Q8RyAgBEEFdRAFxFtR6rbvxBWTDVwc8fLseU80lSmcIzVr56dJGo8SxjOueGfPZzK8l1aC8P37T16MWvaHroFvAuCkPvX8yC9Dua/nmBXcywH9LJBZj0Q2Y2YLggDFwD7jVtGh09c5iRIEAR07rWXWIghoDtazubfRpkFan/XJ8zfUZeQyXU6AGkFQrgsNBnTQRMjgwvWHhGZGiiHhtmGV/BwiMxR9grJm7/Gr6MT52zYhCBCy6tCgJEs2G5oQBK2zQo5zBgSEIGh8CyiNGzV7M3+MDpy46qcNq8ZLBInDUPEAnXioEWZNl1hVcc+eg9ZKEPBM6JLnM2QRQSExTswo/EGHWxiGBMGZy/dQ6wHz+b+rlcpBk/vVNzlWWxAE9AVAiGHdzpP8DM6UpKgfYmhUpQD1blneot4Wytw4ceE29R63iiWxEU4BQYActlaDJ2D1fye4w+X56w+4YRMsXYr4rFdRKl96P0mMhgqK1s5BQMgKuBjT2BCCoPWtynHOgIAQBDPfAojCuHnbuDXswVPX6Pmr92ZeIWgcDslfJPihx0PuzMmcouLBHIKAxj7TluyibqOW8QupVDwrTe3fkGWU0YhnwOS13Ao5hoc7tatfnBBrN2W2IAiYV2j0M3buVqcjCJCcHjRlPX37/oOypk3EVQwl8/mt7DBnls9bs5/LT2/ce0ae0SPRiC41qI6336ZQWq6HZEcQhWWbj3BLbIXcQeFRv8X32/efqEXfuYT5ArM2QZAyRy1vS44JDAgIQbDwLSHDHTFq7F4QC0XWuSsaOvBBGwBhh3zZUvirKWBrfMwhCHiWLfvOcgkjmiEhXg2xH8jkzltzgBr3nMkqgaXyZ2BZZfzdngQB99LXQWhUOT8N71ydohppKWwJrgEJMaAHAbwbF288ZG2IIR2qcsdIS637qOU0Zu4W+v7jFzdJgkdCv1GUOddF7wn0dwB26OoIefHpAxqyGJi+6esgIEzStk4xi7G99/glNe8zh7btP49+V6yDgE6qxkw8COa8TTnW0QgIQTDxBtBMBvr3qLf2z9CoBvHsY2dvElyliia7o1+sPe+PJD5kjqM0Dap08Cg4wswlCGi7C28QRJBgaGc82KcKa/5DXx+yypD0NWyVbDg2W3gQcA9k63catoR36mmTxaPercrzAmoNCwhBABlGqaiSVAhpZG4X7RHR7EfD76fz8KW6TpVIFkVCrKleBlpucOfBC+owdBGt23mKD0djrqbV/BKEbn+VFJGMCmyhvVA0t3l9GJRnAbkZM3cbPXr6mokkwlHoK2FLglAge0quvkFSppggYCsEhCCYQBY96/HhKlMgA+XImIS8Ykfz9x28+/CZlmw8zFnnIArYlbqSoVtg0gQxOY6vtQmStfExlyDg/pBfhrv52ct3VDB7KsqfLQW3CUZSKroFYteOMIp/ZiuCsOfYZW6nfODkNb5946oFuNpCrdOiFlwDQhBwfRZLmrqey4DTJItHA9pVogpFs2i5tZ9j1m4/yeEchAfQLnpEl+oWhRcMb4wdPdpzmyIIe49foZ5jVtLh09f5GFRigOiY0+ET58FL0bTXbK6qgEGuumWtoibJUkA8CPDaTFm8k569eseN1qb0b8AhHjFBwFYICEEwgSyU8yq0GkdXbz1mtzMYe7nCmVVd6CAKWKjwATp7+R6XYQV1i+wennJlTELli2ShJgY7NXuO3RKCgFg1Yv2zV+6lyBHDcT0/3j36CkDsZlzPOqpDsBVBQLIkPByopoBmA0pM0bK7cvFsARavCihBQJVFvwn/Jy9VSmQjuOpBFrQakgWR8IhqBFi9Cnk518O/dslarv3+4xdq3X8+LVzvK6ltzIOA/99h6GKatnQXk5ykCTxZJdO7SGYOm2gxvBMksyJ5GRuCJPFj8qINbQ1TFhCCgPbYw6ZvZPIaM1okWjqmFfcGERMEbIWAEAQVgnD8nG+XOWTvw/0MQZ1cmdTb4X749IVdnIhLXrz+gM5fe2Crd+iw6yLeGsfTgzUCIHurHzeGIBFKCBEDtpdZQhDwbJBfbtpzNr3/9EX3qJlTJ6T+bStS6YIZVR/fVgQBN4YGB9z5B0/57nThuu7erBx7NcKHC+3vs2EBu3LrEcfFDRfugBIE3BgLFiSSHzx9zdUH6OaIksd0KeKptmJG7s7Q6RuZHGCBRo8J5DKUMtEsCnk+WLjx+4OqpX8GrxB22/BKRPOISBN716XqpXP+c8q2/eeo9/jVdPKCb7kj8k2aVCtA+bKmJI9I/vd4AAnZd+IqDZi4hoWy8EzdmpWlVrWLkWc0002kAkIQ4ElqP3ghQUQLtmFaRypTMIMq1qoTWA4QBEwgIARBI0HAYaFDhaAcGZJSixqFeZfgEdlvxzljl/r4+RuXb63feYqu3nmsq70O7DMSO2y0icaur109vyVpv37/pkdP3/BOXM09b00cLCUIqFroP2kNZ8DDQGoaVS5AMwY10vR4tiQIeAAsothpY8cNy5khCXcLzJY+MYHIhAvrd8eLPhM49sLV+xyeyJDKi3UU9M0aBAHXGDNvKy1Ye0CnD1K+aBaqUCQzlxhifuA3o9ivX795pw28EcbZduA8l5Qi0RU5DMivMLV7RzdHKC4WyZ2W0iaLy94Uw8ZSqPw4efE2jZy5mT14sNreudkrgZbUxmzu6v0saX397lP+M3KOILKEcBPuEdk9nJ/T3n74TEfP3KQzV+6y8iPylDBfkL+ADYRazlJACAI2HVXaTuTvCaxVraLUqnZRSvq3F8WPn7+4BBu4x4oRWdPclYMEAf8QEIJgBkFQDkUr2tZ1ilKGFPEJH0Qk6akZdkn7T1zlEiyUcx0+dZ3+qJ3kpH/HDgmuWOy4IG+rb8j8v3HvKc1euY8/nMM6VbPbKCwlCHjAhesOcke+nz9/8YKFigZ4RrSYrQkC5g76FCAUcuriHX4kzDl4sqBHgWRKfXv7/jNXaECNMWKEsNSrpbdNCALuiXybmSv20OY9Z5kQwtDkCwS6QPZUfsgLFrCT528zMUCCKAxeJ8TsKxXLwl46U6bf7jlP5mRUIl96LkFl98hfu33/OeeUoGsnDGr6NzsAACAASURBVCJJ8EqgusY/A1mB6x7nwfMFQ1fJkvnSkWe0yH7uge6e+A2jzBkGpcaC2VOy3gKaealZQAgCrt15+BL+bSG5E4bE2uzpErNQ1bdvP2jumv2cN1Mkl+kwh9ozyt8FAQUBIQgm5oKSg6CEGAwPwwc6rmcUGtS+CvcpSGFih2J4Hqojjp27yQsSYol7jl3RfZScfVq6ubmxIE6LGoWoSdVC/+yu8HG9df85VwWs3n6CkxUDC0GACxuxfsTWa5fLzd4DrbFoWxMEzAssrtsPnKex87bxogwXt5ohcTRnxiQEHYDiedP5OdwaHgTlgiCEG3efoRVbjhIEnuAVUDPs/vG7QZ4Hns2YqJD+NdDVctz8bZp6o6AjJMYNzwGSTrUQeHR2XP3fcS5ZRoKymuGaOdInpkypE3LyqNZqgoASBIRN0Dxsx6GLhK6Uxmzr7C4B6q6pNnb5u+sgIATBQoKgnIYPG2RdEauuUDSzUe13Y7fARxRJjLNX7aX7T17RjoMXCa55ZzXsUnNnSkreRbL8UzKGZwY5uP3gBY2atZmmLdvF4Rd7EwTEkmet3MsQZk2XiMMEWg2eA8T5sTvMlTGp0aZMpq6FOvhNu89wu2IYqh9qls1l8taoTlj+V6QHO1X0DtDaWhtkZN2Ok0wur9x8RNfuPqWvX7/T7z9/2GMTNnQoihvLg1IniUuxokfmhQJxfcNcEAh+QaYYktKw0gUysms9ILb94AXukAhXP3bYaHj25dsPnhtofYycCZTDJo4fk58NVQ9qLnnleXYcukDbD16k56/fs1sfHR1x7d+/fvPYwoUJTSmTxKakXp4UO0YUqlIyG2VMlcCs4dy8/4xQVYFrX7/zlBOMEVJAmalbMDcKGyYkyycjnwOVJJWLZ+VW4Qi3abUZy3bT6b89IGqWycUVUuaWdCLEACILoTaERj59+spKkYnixeAcDVRkGGs+pvUZ5ThBQEFACEIACYJyOsqjkDyGWKfhbs2/6fbz1y+Wb56+dBc9ePKaXcNILnMmixfLgxpWLsCx5fRG6q7hlb378AW7wJG4BnMEQXAmzGz9LOg7cODENd7xopYfAkFoy42eGamSxKH8WVNS/NhRbf0YRq8P8oFYOLwJeDYQBCyCkdzDUYFsKShLmkQW9274+Okr5xecunSH8O8/fv7mBEF4JPJmSc7EEB6EgNrRczfp8KkbXFKInTq8McA2ZZI4VCh7KqeI8YNoQn8Fom0IdWRM5UUFsqXUlBsVUHzkfNdAQAiClQgCLgMWnyZpHOrQoBQVzpWadzJaDd4DlNyhzhkdJJGYpsVVq/X6lhyHjw4ID1T8WptoVARycO/RCw4rTF26S3cbIQiWIC7nCAKCgCDgPAgIQbAiQVAuFSVSeKpXPi9nmaPRjzmlfthtQY1x0qLtdP/xK9qw67RDiALqrOECRnY2mjMZM6RzgRwMn7GJ68n1TQiC8/zI5UkEAUFAELAEASEINiAIyiWhDNevdQVOYMquosZn+BggCshNgOwvJFyhqYAER1sb6tmRiIgSqoaV8xPIjilDohvCCobkAMcLQbD1m5LrCwKCgCBgWwSEINiQIODS4cKE4thobe88VLFY1n9q1rW8Xmjfw6Nw7/ErWr/zJH3+8l3LaWYf45uImIzKF82sKpfsHzkQgmA29HKCICAICAJOh4AQBBsTBOXyMaNGorZ1i1GyhLFY5EaDdMI/TwaigN36nYfPuaxMS6mb1hkXz9ODmlQrRKULZKBMqf3P/kbWPurGjXkOlPuJB0Er8nKcICAICALOiYAQBDsRBNwGuQgJ4kTnMqQiudOoNoAyNWUeP39Ls1bu4VIs5ChAYc1SCxkiOGvft6xZhAVr1Ax5EUOnb/CXHIgHQQ1F+bsgIAgIAs6PgBAEOxIE5VZR3MOzrCzaItcsm5NrxC0xiDnNWbmPlQuhtIfyMnMsZlR3VoJEIypjWvWG14LnYOi0Dbouef7dSzwI5rwJOVYQEAQEAedDQAiCAwiCckuIxQzyqcLJgAExtJxduP4Qi9NAREWRsTV1TajAxY8VldrVL0F1vHNTtCgRVW9///FLGqKRHIgHQRVOOUAQEAQEAadHQAiCAwkCpHy9C2eipWNbW2WiQMEOnQnRqGf3kUustmdoUH7MlTEZVSye1agiorEHgecA5AAqcFpNPAhakZLjBAFBQBBwTgSEIDiQICSIG53mDm3CTW2saS/ffKD1u07T8XM3udfDjb+d6iAT26JmEW4ZnD19Yk23RM7BkGnrNYUV9C8oBEETvHKQICAICAJOi4AQBAcShPQp4tPZDUNsNjmQk7Bl71k6dv4WPX72horlSUvNaxTWfD8lIXHm8j1m94kQgqAZZjlQEBAEBAGnREAIgoMIAsIL5QplomXjrBNe8G92QQ8fOQTmNHBRPAezVuw1mxzgWYQgOOXvXR5KEBAEBAHNCAhBcBBB8A0vNOUKAmcz9IIYjt4Ki3daRA6EIDjbG5XnEQQEAUHAfASEIDiIINg6vGD+VPA9A+Rg5KxNNGP5ngBJO4sHwdI3IOcJAtZHAInGaMeNRGbF0B66aO40mqqYrP9EcsXAgIAQBAcQBMgvVyiWhRaNaulUc+TJ87c0fv42mrBwO335GjA5ZyEITvVq5WFcFAF0iV226SjtOXqJnr9+TwnjxiD3CGHo4+dvdPbKPUqXPD7VKZ+H0iaLR6FDhXBRlGTYphAQguAAgpAwbnRaMLI55cmc3GlmJsgBGkNNX76bXpspuGRsEEIQnObVyoO4KAIgB4s3HKblm4+QV5zoVKZgBv7muEcISx8/faWlm4/QxesP6dv3H1S5RDbKlSkZ944REwQUBIQgOIAgpEsej85tHOo0sxDSzRMX/kczlu2h1+/MU2M0NQghCE7zeuVBXBSBBWsP0PKtx6hUvvT04+cvevfRryS7R6TwXPK8ac8ZunD9AXVvVo5SJYnjomjJsI0hIATBzgSBwwtFs9Ci0c4RXnjx+gP3dRg1a4vVyAEgFYIgHxxBwHEIXLvzhOp3nU5lCmakZtULUa2OUzgHAeGExPFi0KINh+jNu0+0booPpUoah2r6TKb0Kb2oXb3iFDtGFMc9uNzZqRAQgmBnguBM4QWQg/lr99PkxTvprhHVxYDMVCEIAUFPzhUEAoZA73Gr6MCJqzSiSw3Klj4xFW84nAnC9rndODGxeZ85tGTjYVo7xYe9CLNX7qUpi3fSxD71KFempAG7uZwdZBAQgmBnguAs4QXsHpZtPkIjZm6mu4/+lWQO6AwXghBQBOV8QcByBEo2GkEZUnpR23rFCT1fFIIwunst8oweiRatO0SHTl9nglAoRyp6++EzlWk6iga2r0wFrazsavko5ExHIyAEwY4EIXzY0JwMNG94M4e+d5CDVduO0/gF/9GlGw9t8ixCEGwCq1xUENCEAAhC1ZLZqVrpHBQubGgdQQBpQIVSnJhR2LPQvHph8ooTja9ZqM4Q6t26vBAETQi7xkFCEOxIEBBeWDq2FWVPn8Rhs+vt+8+0evtxGjt3m83IAQYnBMFhr1huLAgQCELOjEmpRc3CFN3DXUcQGlTKR9fvPKUQIdyoZ4vylDdLcgoTOiRrnsDL0K9tRSEIMn90CAhBsCNBQK3x+U2Oq15AadOWfedo8NR1dP7aA5v+DIQg2BReubgdEdiw+zSdunCHfv76RVnSJKJ82VJQ1MgR7PgE5t+q07AldPrSHc5ByJI2kZ8cBLR7bz94IXsRxvaozZULK7ceowGT1tLkfvUpX9YUmm947fYT2nnkIj178c6P6mqIEMEpWcJYXEERJVJ4zdcz58BHz17T2h2n6NmLt/T7zx/dqcGDuxGk7KuVysHekeBubuZcVo7VQ0AIgp0IgqPDCyAH/x08z9UKR8/dtPmPwBEEAW2ul206YtHY8EGDumWJfOkoQrgwFl1DTgp6CKAzapsBC2jVtmP089dvniNYVAvmsG4HVmsjBxGkpr1mU/2K+ai2d26q0naCnyRF/PeGXadpxqBGVLFYVmrYfQbF8/QgnwYlKV6sqP4+zqfP32jh+oMEdcab957RwZPXCAnP0F1QDL8nKDUivyFGVHdqWq0QExJr2LLNR+nyjYd0/8kr2nbgPL149d4vQXBzozBhQnKvm+J50/H40ObeP9tx6CLnZHz79sOiR+zevBzrSwQ1E4JgJ4KA8MKysa057mdvQ8xx/4mr1HfCajp27pZdbu8IgoAPRw2fSRaNL0Tw4JQySWzKny0lRXEPRzkyJKFS+TNYdC05KeggcOHaA/IZuoh2Hb6kG9TCUS2odrncTj/I6ct20+4jl6hm2Vz08Nlrevr8LdWvlI8Sx49Jm/eepTOX71LWtInYm4hFvm+bipQxVQIKFsz/oY2Zs4XGzN1Kj5+/Ib2Nu8mTQoUMQTXK5KT+bStR/NhRCR4MS+zXr980YcF/NGvlXrp+9yn9/PlL9TIoKZ/Srz55Ro/s77HwqMxeuY8+fv6qek1jBzw6ODFIlocKQbATQXBUeAGxRTDjwVPX056jly2a/JacFNgIgv4YQ4YMThlTJqCKxbJQgeypKLsDSJ0lmMs51kfg6ct31KLPHFq38xRfPGbUSDR9YEPyLpLZ+jez8hXfffhM89YcoOPnb1Fk93BUxzsPEwBIKv/+/YcWrT9Ipy7dpTsPX3DydLnCmShyxHCqT5G3xgA6eOo6ubm5Uc2yOSll4jic06BvWLwh8Xz19mMWaYLVKpuLhnaqpuqhMPYAb9595P4wo2ZvIXh1YNBrAPGIHtX9H1Lz/sMXmrNqH+XMkITDJmoEoWKrcRx+haokEjnDhAqpioP+ARtndAySPS2EINiBIMBljR/S9IGNzJp0AT0Y5ODwX3Kw247kAM/taIKADyF2Tlrs+/cf/KH878B5+vTlm+6USBF9PQlNqhakSsWzarmUHBMEEdi67xyduHib6A+xm7xI7jTkFds389/Z7c37T7Rl7zlasvEQYT7HjBaJQgT3XcwPnbrO+QkIq+XOlIz/rsXy1xrEeQtJvGJS2YIZKVH8mLprKucjHLNl71kmJ9BYANGCta1bnOCO94wWScut+Bh4DvpPWkOTF+2g1+8+8f/zqV+CF/LSBTMSFCENvRLwBKz+7wRFcQ9PhXOlJoR4/bMsFXvT2cv3OEwCGXzPaP57HAyvlS9rcgptJqnQDIADDxSCYAJ8uM8qtBpHx63gkkcsbvWkdjyh7WVg7acu3qGeY1aQvckBxuhoggBysFijWuX3Hz/pyq3H7Gm5df8Zx2qhUQ9zCxaM0iaPRz1beFOVktnt9frkPk6GAMj2nz9/eBFwc7PMRe6oISEMcOTMdUKOzme9JmxYNEsXyEBxPT3Mcvuv2HqMd+ZazgNBaTNgPntgkLsAErJ3UU+zvoXoLgu9FngOkHCIPInOjUtzboO1LGnRjpxPAbu9eywhJCxGJATBDgQhTdK4dGHzMLvNN5ADJCn1m7Ca3WaOsMBEEPTxefH6PR0+fYNV5vAhVAzJab1bVRBPgiMmk9wzUCNw9OxNln2G/DNs/VQfKp43vabuket2nqS2AxfQgyev+dyuTcowOYgaJaJVMUlcuAPdfvBcCIIBqkIQbEwQEF5AnAzZwvaw379/0+Wbj6jLiGW0db9jyAHGGVgJAp4dOy4ISA2Ztp6W/q2KwK4Ruy2UjaVIFNser1LuIQgEGQSyV+7L4QZY71blOdQQTcMiD3VHVBjAy9eqVhHq07qiVT0HCsBCEIxPNSEINiYICC+smdSOG6HY2kAOrt5+Qj3GrKD1f5OqbH1PU9cPzARBGROI1qAp63QkAXFTuDe7NCnjKFjlvoJAoERAnyA0qVaQ+rWpqJr1v3bHSWoH78HT15xDgNBEptQJbRLiEYIgBMGsH5a1chDsFV6AUMiNO0+o68jltH6Xb8a1Iy0oEATgd+TMDeo5dqWuAgR11SO71iBUpYgJAoKANgT0CULzGoWpT6sKFCuG/4mAZZqNph0HL7D3oFdLb2pfv6TNBKqEIAhB0DaT/x5lDYIAcY66FfLSpD71zLq3uQcjeerW/efUecRSWrfjpLmn2+T4oEIQkFg1delO6jx8KeMU3SMita9fgno099bhhmOQjAWLEC40RXa3XDkOglZonAPD/NHPLMeHEuVbX7//4OTJiBHC+hGAwXMcOHmN9h6/Qp/1qjEgpZsnc3IWrYmgIhjj32T48eMnHTpzg/Yeu0Jv33/iUjnFoPdfIFtKlu4NH87/jHHlHB7Pxy8s8wtDiZ3+8525fI92HLpAj5+90QnhQCGvWJ603HEwbOhQJh8Xwj2oSkEuDu6jGFT9KhXPRmiaptXQu0SpbsFOFrgrlQBar4HjoEECPZInL976qeFH+ArudtTsI3wFJUA1e/7qPW3ae4Yu33jkZ3y4FjxdlUtkZ6EiZ0mo1CcIo7vVpIaVC3DppSmD+FHBukN0cvCn1w2iDCnVNRrUcDP1dyEIxpGREIOJGWMNgoAf6MbpHbkkyFamkIMuI5YSXHLOYkGFIADPXUcuEfA9fekuw4uyR/2ckp2HL9KsFXv5b8jsrlAsC5eNmWtYiOD92bb/PJ+KnIc65fPoLnP9zhNaue04QbwHC2X5Ipm5Hv/7959cebF250muvjh/7b5u0cXJEKqBJytjKi9ehFAaZo4dPHWNUOr36u1HunTjEV8fZWT6BAEkJF3y+OxZQZMglAKqLU6oGFm+5Ridv3qfHwdkulT+9FxRghK5HYcvslzwyzcfuYIAhiqCzGkS8H0gVpQnS3I/QwEWK7Yepf8OXKCTF2/TzfvP/SzGIF04B+dDijdT6gSqUExevIMOnLjGx6E1MvQCUC6o1RZtOEQnzt+mizce0sXrDxhHlO4pBrIXKWJYypUpGWsEtKhRmNKliG/08kj0W7P9BF26/pAJB9QMFZ0BnIBrgQSBqMWKEYXa1ClGKRM7PmdGnyDsnNed8mdPQRAnM2UTF2xn7ZZnr96xmNOyca2Z8NjKFIIAcnZzx2hKIFUMDLUQBBMzzhoEIXXSuHTRxtULEDnpOHSxU5EDQBqUCMLrtx9pwoLtXIsNK18kC43rWVvXBQ+qdJ2HL+GFDXKr7eoVpwHtKpv9Ldu05wyXpULZDvX23ZqVo9a1i+quc/jMDeo3cQ27XSNFCEvdmpWlhlUK0MZdp2nq0l1c1uqfQcAuc+qErJhXRgNJuPPgBW3ee4ZW/XecTl6440cjwr/75EifhHq29GaZ25AhTC8CJy7cpt7jVvJiDhvbszZlSOFFs1ftpZ2HLupq543dCwth3qzJGWeld8DDp6+5SykUBCHQ45+B0GCx79O6AmVL57+6ab0u02jBuoN8uabVClKXpmUpsYbF6uTFO7Rl31lauvEIK/8hR0iLoQUzyJ+hrdhyjFb/d5zLlhWxILXrbZvTlYrnSat2mE3/jjBd/W4zCAQX8+Hoyv6qxKxIvaG078RVJnezBjemaqVzsnfOVqYQBHhfjq8eYJGYk62ezZHXFYJgI4LA4YXyeWlSX9uFF+6CHAxbwjsKZzPIufZpVZ53hfYyfallc3QQtDwf5F2b9JzFh2I33qtleW6lC8MuZ8ycrTRi5ib+74aV89PEPvUoXBjTLnBj94SMrM/gRexOh+bCsE7V/OyaDAlCm7rF+e/DZmzkj2/uzMnIu3BmP256LEq7j1zmhf7bd19XO3ZkfVtXUPUkwEUPQoIyNRhqw0vmT88eMajo6dvZy3dZvvfRszf8vyHAM6BdJSqZL71JeA0JQsuaRbhOH42DIMkLEpNQbyH+8/s3l+1igYR8OAw9EQa2q0wZUyegqUt20vj5/9GDJ6+oSK7UVDhXGj8hGoRIMEcwHngkECZAuAj/xInpYfI5LSEIIHtQ8kM4Rgk/gcggPALybGgPHr+i5VuOcqmdMYLAuTBjVrJWB0ImsaJHZiGwxPFjkKGMILwLa3acoCfP35KjCQKEhxr1mMnEDSEwJPh2bFSKYnj4r2GQ0bsnh4dgp9YNYmVTCxWaVX/eHz59pXRlutPdRy9YGG3N5PaMr5h4EEzOgYB6EGwdXsBk7jDECT0HkcLzRxBx3lwZk1JsKzVo0fJjtSVBwMceBAGLN3YyrWsXY9lYxWau2EMt+87lhj5w5aMcy9gu0NQ4bt57SkOmbaC5q/frxGCQDKlvhgQhVdK4nGsAlzXCEVgwsqZL5Cc2j+dFSAKLJ4gkYvNQnUPJWP92lcgjkumuhGu3n2SvCeLvWKzRpyJTqgQUN5YHu7L1DZ4seBrmr9nPYQhYu3rI1ShnsizNkCAkiBONSQzIBdoSY/7ou/KxqCPMM3vVPs61QSwfwjnAKVzYUDR6zla6cfcp4wDXOvIMkBuhGN4Neg5gTAgZYPEC6Rnfqw6VLZTJagQBi/nAKes4sRX5FdiV4pkQekqfwsto4yB4BKBsCK9D1VLZ/0mCbTdoIc1bs59zNhC+wvXQhMgz+r+hDjQxOnb2Jh06fYMaVylAaZLF1fLzsfox+IbCmzN1yS6CvgjCR+N61mEFRv/6MQAzhCQQyoKd3TCEm2TBMM+Aw7O/yoyGD408FhC+mNEjk1Y5K5DrwvWGEjxQCI/BqwQShvkCQ34IQj+W5J1YHVQ7X1A8CCYADyhBsGV4AZ4Dn6GLnSYhERDCZQt1tcZVC/KPGeO3t9mSIGAH1GbgAnr64i0PC93poMmvGOLBaIaFXTewaF2nGI3s4neB9w+PxRsOsXYF5l3OjEm5DAxEyxRBQF4B1uiI4cNS3fJ5+H7+qb9BJW7A5LW08K+rHHFp3KNqKV8viDEDQcAijgUb/SjUuvE9f/2ed7mzVuzhy6VIFIsG+lShysWzGb2+IUHAQfAI9GrhzWEDdAQ0ZhiLfs4Nnu3N+8/sRalVLjf1bFGO+wOYMpCE7qNXEHIrYFi0mlUvxO/NmJnjQYBno8foFTR3zT569+ELJUvgSY2qFOCOiugdoGYgeyA7+gmYID2Ne8yi/Sev8unwTuGdq3UPRDtkSA3rkyS1+1vj7yA68CbdvP+Udh6+RMitqV46B7WsVZS9V6ZwVu6N5NRq7SbQjXvPOCRxcu0gJntQVIT3Bx4xJZHX8HmRRFqqQAbKnDoBNalWiGWY1Qw5RrU7TuGQVvKEsThR9PPXb7ocG3iDIcwU3C0Ye87QJbJQztSahJ7U7u3sfxeCYOINBYQgYEJhBzS+V12rv394DtoPXuRwnQNlYNjBQYoYsXIsOki0cpTZkiCgm1+Xkf9PVEQsWr+3BnbykxbtoK4jl/HwIY6FtsBaktl+/PhFY+dupa6jfM9FGRgyvQ0/7PoeBAVjNNkZ7FOFkiWMpQo7SA5IDPQdkECIUjPkI5gyzDUkInrFicY7dS3GXofJa+jclfu8SxzRpTp1alTa6KmGBAFeCXg1oDWhpp0PogOPC3INfHejf9jjMLhDVfZ0+GfId2zccyaHAJR3hZCRqWRicwjClMU7aOSszXT30UtODsV1m9coRNFVXOr+Pe+i9Ydo4OS1nMfgHj4MrZzY7h/yqOXdWPuY4TM2sTS5oSGREp0i4bpHqLF+xbycHJs0gSdjombIQek9dhV7iBBi2jqzMyeeTlmyk569fM/hIezqkYiJ5E6EteAt0a/cQVMteGyQo4LKI/9s/toD1HHYYnr15qPao7HnLHOahLwB6t6sLCX2iqn5t6F6cSc8QAiCDQgCwgtbZnVmNmpNwwcbMWqls5w1r23JtTC+VrWKcptk7Py0LiKW3EvLObYkCPAQ9Bm/iqsFYIYEAf8PC7DPkEXsqsQc6Na0LEEURs2w4+ozYRXvjIwlJyrnGxIEzoVoVZ6z8bUYSuOw0IDIwEAQsCBb016/+8g7aLiWYcO7VKcujY0LSxkSBCQNoiUwcinUDGPpMHQRLd5wWHcoch4Q1lDbWeMEZMgjXwGub+zsJ/etR+WLZjF6W60E4fOX71S3y1RuEgRDTkXnJqUpQZyA6fqPn7+NwyfIrYALfcWENlQ0t2MTDzG+PNUHcE6EMQNnw7jrVchLLWoWMUv9EAm/qAqClwBzIn3K+LR4/SF69uo9Fc+blkrmy8AaCvj+IM8HDZzgZfn05SsNnLxOlweDSh+UI7euU9TfLpUTF27n/I/wYUKTZ4xIFDlieF0FDkgOwlqoPtGvFsGY0Q6+jndunjdqXhG1+eysfxeCYOLNBMSDgJ3IpS3DrfrOsSNpP2gBbdh9WlMPdqve3OBiCeNFp0aVC3A8GrX1oU24Zm35DMau7WiCgA84mspMWrSdPzAgTxN6q3uRsJiCWMA9jRjosM7VjYYLDAkC4stDOlZT3SHpYzVoynquHIB1alSKF2Rru6C7jVxGw/8mbJpDELDAd2hYStV7oIyndf/5hBJEGEr7JvSqy658LbbtwHnqO34VHT9/m9/VnCFNqV5F4wm1WgkC2icDX+ygESZYOLIF5wkE1CD33X/iGr4uXO7rpvrw4uRoUyMI2OWjnDSOpwelThKH6lfKx+2y1axau4m0cfcZ+vLtO3divHrrMT198Y57MJQvmpnzOIwtyCgdxfcRVV34XsLTEM/Tg3Yv7EFJvDxN3vbSzUf0/NU7nnfQHQHpUHIkoDly79FLJv3IWZm3ej+XlyraGvAkzBzciEMn/pVtqo3ZWf8uBMHKBAG7F2Sxw71sLeOwwqCFDicH2N3WKJOL8mdLwbXkWnrHWwsDLdexJUFANnq3Ucv44wAz5kHABwkJWa36z+NjvAtn4t4N/rn/4UZF9cO4edvYA4MEq1HdahodriFBwM4cC7A5pk8QQDBAEKydSGopQUCZY/t6JTQPR58ggKgOaF9Zs/7E7fvPqf2QhbwQweYMbcphQWOmlSA07jGTFqw/SAgZIeaOZDf/ciG0DhSLU90u03RqnnDXD/KpYlN9FS3PBq0K7OqN2bmr97jhGZJiYQi15cmcjEZ2ranaKbFMk1GsgYFFyVbjQgAAGsFJREFUGOehzJi9MY1L81z1L8ER99q0+ww16zObHj/3zRdqWCkfDetcwywibWr88JignLjP+NX07q+gGbynKye0tZnKo5Z3YatjhCBYmSCgPnrr7C4cb7OGQQjFN6xw0mGeAyT6oLytSonsXDOuJpFqjXFbcg1bEgTE1tsN8tWFN0UQ8P9RggctAyRT4eOGXbqpGDyOR117t1HLudVszgxJqV/bf5MTFSysTRBQhov7WdraFtnmyCpHiSN2Ycgs//nrF5286OuShZnjQQgIQUCSZpfGpTXXryO00Kr/fC6ptBZBqNlhsq5vx8xBjVjkCsJO1rAWfefSwvUHuVQQu+cC2VNS75blKWu6xP5qTVjj3pZcA6QGZBpeD+RlKOWvqIaZ2Luuv0JEpZuM5ORGZZeOTdeOud0oc9qEmsOYrfvPo/nrDhKUSeEhO7dhCFdPWMOQ6zB9+R7ulouqEtiiUS0I+UDWet/WeE5rXEMIgpUJgjXDCwo52LDrNLu37G1wtSEejAxvuNKcvYuhLQkCSqua9Z7DH62okSPwTh8JaIaGuOn4edtYPwCGMIN/WhjQPmg/eCGTP+A8ulstk1LF+gQB8dWuTctQ39amkwyNzRd9D4I5BAEfRcg4IwdDEelBTBaJXQ+evuKEMnws9dUV7UkQkGwJ74N/8r36eGAMrfrN07X0DqgHAbvJBt1m6ATLoPynNTdEy+8acXDMEyTjQdsCu+jcmZJyrkuNsrl8Ja71Sjq1XNMexwAXlHsiCfD2gxd8y1plc3GJMEoHjZkhQUASbotaRbgiQ6shebVk45GEii/YsVX9ObnQWnlSGFeWir1Z4h6eQ1RZ7JzfwypeCq1jtMdxQhCsSBDAdBGbH9OjVoDfHeLZnYYt4YQne5MDlJdlSuXFzVHAuhFfCwxmS4KgL5SUPX0SGti+MhXNncYoLNACQEkkEpwQQx3iU5Wypf9XrQ8tpZFUhQQpCPV0a1qGyxVNmTElRagtmmPmEgR4BaCfsO/4Vc5Yx4f34+dvJm+JLHtoLyjH2MuDMKh9ZWpbrziXfWoxaxMEeEzaDlqoCwNYmyBgTAdOXKW5aw7Qxt2ndSQNWfUQiUK1QN7MyahSiWxOJ/KDBRQVI6iggScB5PbQsj6UMZVxmetaHadwCTdEs2An1wxk5UW10ILhe09ZootOUXNM91pcgo0KM2vZ5EU7uHOu4kV4dHCiplJWa93fHtcRgmBFggA2/9+crgF2ZSnkANUK+o1mbD0hUCyWPFEsdokjbo6Yobk/Sls/o3/XtxVBgFdg0sLt1HvcKr49RGrgFTC1o4FbFVnyKMXDjtanfkmORxsayqtAArFYYbeJ5ESIBTkLQUC4ZMHaA0wOkAejGFy28JRlTZuQvUr6yoBhQoWkZZuP6DL5XYUgQFOhy/CldOSv6qQtCALwR6njRQhfLd1JB09d99Nzwyt2NNYgqVg8KwtbwdPlLIZFtEDtQQSNA9jwztW5wsfYbwilwjOW76a3732blukLJZkzHuzwUW4JrxZyQsb1qqMpSVLrPaDvkLpUV/aewYQgaEUuCBxnSRUDdAAubx0RoNE/ePKaOg1bzKWM9iQHiENDywBNYvJnTUEhNdQrB2igNjjZVgQBzZggzKN83AybNRkOBQps2F3AJQxD6ADiNvp9CVCxgMRE7ECQRQ9vDbQP/DN7ehBOXbpDqHOHZDCeFQmplYpn5XJWxFmRXxEvlgdL5hpWQTgiSdHRHgT0Deg6YqkuidVWBAHzAztyKC7Cfb71wHnuxaHfmwHiTJAM7t68nFOFBSu3Gc8CSshdgfdg2dhWRhN4Qay7jV7OXTwDQhAqthrH0tzfvv/gEMzSsa38ldS25JMUN28bXX6FEARLEAyk55hLEFAeA4Eb6OdbanC/9RiznJZvPqrTzbf0WlrPix0jMtUpn5cKZk/JQjNoZRtYzRYEAR9jyB836zOHG8dgx9yjRTmq4/3/LovG8MKHEAslOvhlS5eI+rWpxImeiqEZUa9xK3lBgXIiqglMhSyUc+xJEKARAEli7JKQmAqFQkjlQvtfzavkigQBpXitB8znzp8wWxIE/fmG5FYIXyG7HlUDSA6EIZERnT4HtK2kSUTLHr959AxBzxIkiOL5Di/vx7LkhoYKk9JNR+nCA5Z6EJA0io0WCC50I+YNb2r1EIAQBHvMHCe8h7kEAR9OtDG1tE2oQg5WbzuhuWteQGCDWxi9ArArBJsPCs1JbEEQoNnfffRynSAMQgHwBqips2FHN2buVho6bQPXVUPAZ0jHqrpXht4I7QYvIjQQgmwz8lbUkszsRRDQfhlJlmgfDjLQsWFJTsgECdZirkgQkMRZt8t0rkqxJ0FQ3gcaM529eo/6jl9N8P7ArY75tGJ8G+6qiTbGjrYZK/awnoPiGTi5diB3FzU0EHGEB879bQNuKUHIXa0/HTt/i1tr4zc2uEMVVmC0pglBsCaageha5hKEgIQXoO/ff5KvTj4a49jSIoQLw+pkjasWYGlkJDcFFbM2QUAuyOg5W1h5EB8ZxN2xUEJGWYtNXwpNhPmcZApFOWhjQNAH1SnDp2/kFs1ITkQ1ApoLqZm9CALGiw85SA7UGvu1rcREUot9/fadyzbhgYC5Sg4Cxqpf5ti7VXlqVbsYxYzqf9dCLZiac8zh09fZk6GEw6DXATVByGU72nzVK7exNgJCVChdhEy7MdPv5nhoeV/KkT7xPx1E1caTqmQXbsEOQ3gBnU6RIGkt+/btByUq3IH7p8AkxGAtZAPBdcwhCJEihKXmNYtYFF5Ag5DBU9bRog2HdEk5toAH8W+U+XRrVpYSxY1h8odpi3vb65rWJAhIqkKyHaoM4LZFJzeUk43rUdtou15jYzx54Tb1m7CGNu87S8kSenJnw3oV8nHLYcjJ4rpInhreuQa3N1YzexEEeA8GTFxDf4i4K2ffNhX+6S5o6lkNW0S7EkFo3mcOzV9zgKC+h4TlaQMaqoaN1N65JX9vO3ABIQEWcxh6LAtGNOecBEdb2WajuUwWuVXVSmVn0SRTpY4QG0MPCowBCpdDO1Yzy8uJe6CFMxKGYec2DqW0yeKqhsfMwWja0l0cRnz3VwtBCII56AXyY80hCPgY7FrQw98MdGNwQE9++MyNLN8JPXFbGMqg0CuhV4vyHP5whg+FLcaJa1qLINx//IrQXRHCNMoOBPkBUEXMkPLfmKmp8SD2CZ0D7KhROgovARIRof2O9r14Nwg9aC2LtRtBmLCaPVowSAWj66OpnZ7h2AdNWUdDp28g9CWAuRJBOHTqGnUavpRFsmCQfm5QOT+3B7enweuF5l8IW8aM5k4rJ7TjJD1HGhbsXNX6swohbPWkdtyi3JSw0LXbT8i7xRhe4JEgCy+CqWZaxsYFkgtvBSohUH5+et0gq3tLs1XqQ6cv32XvIkKPIIRadTgc+S7MubeUOZpAyxyCYIk4Ety3+BHPWL7HTwayOS9P7Vj0TOjapCyHEtBD3hnikGrPHJC/B5QgoPoAoi5j5myhC9cfEtrlwpC5P6JzdW57bK6t2HKUOg7z9RagzwI8BnPX7GeJXySFIjmxiAk9BcN72YsgYJEfMGktN6dBdQueEaqAaga9BJynxI5djSBgEazXeRqLL0ELAuEZlMOqdZdUw9Xcv6N6Zt6aAywFjCTAmYMas/fQkYbSxZnL99Cb9584N+LA0t4mdRCU50SvB5AthOjQg2Fi73oU19NDdRjPXr2jovWHEXRGkIsxtnstamRlDQT0TsG3W+kgCV2HbOmTsKcxKJkQhAAShMju4cmnfgmjde6mJopCDiAeghCDtQ3d6VBah10DRH3QOMYVzFKCgJjohl2nuAQL0sFI0sMHHgl6RXKlpmGdqvOHVi173xjG0IMfNWszjZ23lePAKAvErgiuU8SHx/SorZqcqFzXXgRhy76znIOARkb44HVpUoZL5pC/Ysq2H7pAg6espxMXbtGPn7+54sPVCALGiwUN2hZKl0NUsEAdE4qkWuYPqiCSenn6CTmhY2WCuNE4oU+tayAWxAotx/JcxsI6pENValq9kFU0ESAWhrg7JIW1tDFX5gr0Q+COV0oxx/Wswy2g1ZJeob/RoNt0/k2iTTR63EAa3L+GTx8/f6U2AyChfZzzuTyjR6a9C3tyiM8Y/iu2HKMiuVNTFPcIxF3DNRhKnkF23n38zAqoKHtG/xQtXUQ1XN6pDhGCEECCgOqFfYt7c5teLQbRHZTNDZ+xkbXrrWnomYCYcdVS2bnjmVqmvTXv7QzX0icIhXKmpp4t/lUZhOv70dPXdOvBc/7wYCGDYhvKxe48hGyq70iAZbnCmaldveJmhRUMccD1oEWPxDF4cBBWwM4cJA4LL66v1exFEOCWhc78+AW+iYZIZG1StQCXdho2dsIHGeGYaUt3M/HB3Pv06Rut+pvN70ohBmCFBXrBugNcvQJRI1iWNAmpWukcVK10Tu4uaMxu3ntKM1fspR2HLrKIkH7JK7QyUA6LUAUWIzSmMtaBE5sNaGvMXb2PEL4MFTI4rZ3iQyXypte1L9Y614wdh9wGaIJgF188TzouffWMbro7I8gSvnXwLL16+5H1G0CKIYuN+a9mOB47dYRgEeeHqBI2PeN71SGvONH/WdB3HblIs1fuY+8c5iVs3vBmVKVENpMdS9Ga/Mrtx6xRgmZQCCHq65XoPyO8i7NX7SM0qcJ3HM8HpVk0akIIzloyzmq42PPvQhACSBBSJY5NlzSKI2FSIYlp3PxtOo1wa7zs8OFCc2VCy1pFKZmXJyG04IqmTxBQLWBMlfDnz98sgQz3K3YAhr0DwoQORcXzpGUPTNKEnpTEClUe+45foV5jV7LynWIINSCnwVSSlrH3Zy+CgHvvP3GVSx3xUYRhUUieMBZ7EbBT+kN/6MPHr/T950/O04BoD7LEoRiJsIol7Z4D0qzJ0UJJ+u8Li+GyTUc4Bn7j3jP+EzYQwA9S0B6RwzOeWMSQJ/Dt2092vV+4/oB1J7CoowRZMRCEGct2c54SeqLEjxWVFzEIbMGjgNAG5jV2zIiJo/shbEC7yqzNYq2NAgjCgnUH+beD8aBTJbyTwSgYEwX85p69eMeLJ35Xj1+8YTe/ko/Stm5xfp6kXjE5J0eLQd4bPVDQBwTjhEcLnWQxBz2jRaJI7uHo3sOXrBtz//FLunzrEf87iDjKketWyOOv5wveAHg38IxZ0iakGFHdyS2Yb5gAY4J3ETkGMFQ14R2B4MMQtlH0S+DhCIomBCEABME/GV3Dy2JRwodz4JR13F/cGoZJmTVdIi69w0KDnuuubPoEwRwc8DGBJwg7vFyZkhIka5G3ocUlrOU+Hz59obFzt7EWPQz3Q98Ac1uC25MgwKty8OQ1bkWtiP8oY1U+hvpKn5CfRrkmhKT6jFvl0gQBOMGdfuHaA+ozfhU3WMJuUzEs6iBaP37+5J4VygKEv8NbM2tIYyqQLaXueCS6jpq9hRcofcP8xIKJ8xESUyy6hzt1bFiKGlbOR/h3axm8ByAJSuKu/nXh0QgTKgQvtN9+/PQz3qhRIlLf1hWY9MBzYG4u1KlLd9krAk+VIr+Me0NfBEmO7z998YMh5OK7NSlLlUtm85cc4Bpo4T5l8S7Cb9TQkCuB34H+u8MxwBy/XeQkZU6dIFCqzmqdE0IQAkAQUL1wYEnvf9yuhpfER2DtDt8ELriyA2pwZaVJFpd7wseKEYUnqRjRnmOXOQ7un+FDhsxuz2iRuQQMoQR8aCNFDMuxX3Niq+ZgDm0BxEZh6MLXv11l9vqYY9iNYQeHTHB8vKqXyalZk0G5Dz6ycPvCoC4HfQZTbmJUYcBNjvyMJRuP6JTtlGuFDhWCr1GxWBbKkzk5u1uB5cwVe1gNFAa9fVNdDRGSwIf/5AXfzPaWtYpw1YRWm7BgOz8brEGlfFShaFbN+TbvP3zhEAq8OzC4lyEoZMwQDoTrH1a6YAaqXiqnppbn2EWfvXKPbtx7yu9t77EruqQ2/fsARxAChAdTJI7Nv239HgX3n7zi7wZKSNGeGjvlX7//TwiUa8E93qiKr74JxM8wt61pSMhDV8nX7+AhOcrlu0qjIsP7wMORP1sKDkPE9YzKaqIBidFjU4W5iB4NW/ef47bXhoaGTvBSYB7i38OGVs+9QvOxu49ecs+RbQfOMwExJAS4D0h99gyJqU2d4vytyJs5OUUIH1Zz3oI134M9ryUEwQTaalUMyGdJmSQOXdoy3N/3Bbffpt1nqM+E1XT9b01uQF5woni+WeVY3CCBa61dbkCeyVnOxY8bIkT+GVyb2HngH3iA7NG/HR8cpbSRF82qBWlcz9om46Kmnh9zCXkr8EaBJMIdin/MMWR4P33hm/sClzDctGruUbhZb9x9ym5wfcMzoB8DiLK+AA2a1yAGDoNCp6lnxO4MImEYDwy7S3Pc4agyefnG152OceBcNzdtWeSoWEEuCtzhMHjgTC2oWKDh+oehARLGo4aZPk5wSYMMQUFQcU/7wTG4G8WJEYUSxY/hb8IqEl7hcgdexhYxqASmShJbc0dLc+aN/rG4N0jPvUevTPaLQfgD7xNhFbXESnOeAws6ypCN4Yj3ny55fIvuB/IB4gWvmJ4zRvdoSGBEciTaOgfGPjXmYKx/rBAEE8ipEQR8XLs0Lk3+tdtFkxDEcNsPWUSo6w2IIeYHtyFIAZKeQocOGZDLybl2RODQqevsakZ3RN/kxNKsfyAmCAgCgoAzIyAEwUKCgJj1wWV9eedizEAO4FLsPHwpJ7ZYah6RIlAt71xUpUR2VrMLakIcluISmM5DeVi7gQs4nlm9dE4a1a2G1bvKBSY85FkFAUEgcCAgBMECgqAWXoD768T52wTpVUvJASoTSuZNT63qFOXEJVPlUYFjmrnuU8IVO2zaRpqzeh/HMaGmiL70YoKAICAIODsCQhAsIAhIIOrcpDR1b/ZvnT3q6tEopVmf2bqGKeZMAiT3oDJhUPsqXEqULGEsc06XY50MASQF+gxZzC1uLU1OdLIhyeMIAoKAiyAgBMECgoCkrMPL+/6T8f5/cjCHzly+a9YUQnIVspdRPoNEqPQp4pt1vhzsfAgguQ+6+MiCh6GD5viedcxOTnS+kckTCQKCgCsgIATBTIKAbFaUEV3aMsLPmb9//6bLNx9Tnc5TubRJq+F6CCGM6V6L49IozxELGgigJK3D0MXchyFr2kTUt3VFLpMTEwQEAUEgMCAgBMFMguAROQL1auFNPg1K6s5kcnDrMdXvOl3XrUzLywchGNCuEst0Qus/RHBt6mJari3HOA4BzId1O08RZFxR3gbvUOPK+WlU91oUMbzpfgaOe2K5syAgCAgC/yIgBMFMgoDwwrFV/Qk1xzCuCb77lKr7TNYcVkAIoWm1QuRdJDN3fENColjgRQAKh1OX7KSHT3y7P0KGGBK6iihWhaJZWFYZAi5igoAgIAgEFgSEIJhJECAle2Wbb3gB5ODW/edUrf1EVhhTM6jflSqQgb0PieJGt5lqn9pzyN+tiwCaw3QctpiJoqGVK5yJm+9g3ogJAoKAIBCYEBCCYAZBgNIa+h5ggTeHHIQMGZwFjkZ0rsGytvBCiAUdBIwRBFS6QGK4Q6OS3PBJFC+DzvuWkQgCroKAEAQzCAIW9uOrBxDyENC9rlLrcf6WMnJlQtI4NLV/Q4ocKRylSuzazZSC6o8K2vR3HrygL99+6IaIclWUqaJrn5ggIAgIAoERASEIGgkCqg3gJkZrZzVygN0iWprOGNyIPNwjcBKimCAgCAgCgoAgEJgQEIKgkSBEjRKBBvtUoZL50pN3i7EmSxnjxoxCY3rWpmQJYnFjD3EtB6afgzyrICAICAKCgIKAEASNBAHhhXVTfKhul2lGyQGqGro2LcMtfFMmjmNRRzGZloKAICAICAKCgLMgIARBA0FA74VwYUNzmdq5q/f9nIESRfSw96lfghLGjU6R3a3bg91ZJoo8hyAgCAgCgoBrISAEQQNBwCEIFej3YEc/+OwZktDYHrUohoc795MXEwQEAUFAEBAEggoCQhA0EgRdTCZYMEKr52VjW5N7xLCU1MszqMwFGYcgIAgIAoKAIKBDQAiCGQQhQZxotGpSewobOiSlSiIli/I7EgQEAUFAEAi6CAhB0EAQUM++YGQL8owWSYhB0P0tyMgEAUFAEBAE9BAQguAPQWjaaw5VLpGVVRCTJYxFIYK7yeQRBAQBQUAQEARcAgEhCCZe84+fv+jRs9cU3cOd0ENBTBAQBAQBQUAQcCUEhCC40tuWsQoCgoAgIAgIAhoREIKgESg5TBAQBAQBQUAQcCUEhCC40tuWsQoCgoAgIAgIAhoREIKgESg5TBAQBAQBQUAQcCUEhCC40tuWsQoCgoAgIAgIAhoREIKgESg5TBAQBAQBQUAQcCUEhCC40tuWsQoCgoAgIAgIAhoREIKgESg5TBAQBAQBQUAQcCUEhCC40tuWsQoCgoAgIAgIAhoREIKgESg5TBAQBAQBQUAQcCUEhCC40tuWsQoCgoAgIAgIAhoREIKgESg5TBAQBAQBQUAQcCUEhCC40tuWsQoCgoAgIAgIAhoREIKgESg5TBAQBAQBQUAQcCUEhCC40tuWsQoCgoAgIAgIAhoREIKgESg5TBAQBAQBQUAQcCUEhCC40tuWsQoCgoAgIAgIAhoREIKgESg5TBAQBAQBQUAQcCUEhCC40tuWsQoCgoAgIAgIAhoREIKgESg5TBAQBAQBQUAQcCUEhCC40tuWsQoCgoAgIAgIAhoREIKgESg5TBAQBAQBQUAQcCUEhCC40tuWsQoCgoAgIAgIAhoREIKgESg5TBAQBAQBQUAQcCUEhCC40tuWsQoCgoAgIAgIAhoREIKgESg5TBAQBAQBQUAQcCUEhCC40tuWsQoCgoAgIAgIAhoREIKgESg5TBAQBAQBQUAQcCUEhCC40tuWsQoCgoAgIAgIAhoREIKgESg5TBAQBAQBQUAQcCUEhCC40tuWsQoCgoAgIAgIAhoREIKgESg5TBAQBAQBQUAQcCUEhCC40tuWsQoCgoAgIAgIAhoREIKgESg5TBAQBAQBQUAQcCUEhCC40tuWsQoCgoAgIAgIAhoREIKgESg5TBAQBAQBQUAQcCUE/gfif/RzXhpJ8gAAAABJRU5ErkJggg==;" parent="fuH1si9u7OqA3oqqeqV9-7" vertex="1">
          <mxGeometry y="17.13403185247276" width="99.99999999999997" height="37.88712229673724" as="geometry" />
        </mxCell>
        <mxCell id="fuH1si9u7OqA3oqqeqV9-2" value="" style="shape=image;html=1;verticalAlign=top;verticalLabelPosition=bottom;labelBackgroundColor=#ffffff;imageAspect=0;aspect=fixed;image=https://cdn2.iconfinder.com/data/icons/flags_gosquared/64/Netherlands_flat.png" vertex="1" parent="fuH1si9u7OqA3oqqeqV9-7">
          <mxGeometry x="66.84500037676136" width="33.15499962323863" height="33.15499962323863" as="geometry" />
        </mxCell>
        <mxCell id="fuH1si9u7OqA3oqqeqV9-8" value="" style="group" vertex="1" connectable="0" parent="fuH1si9u7OqA3oqqeqV9-7">
          <mxGeometry x="-70" y="60" width="90" height="50" as="geometry" />
        </mxCell>
        <mxCell id="fuH1si9u7OqA3oqqeqV9-0" value="" style="shape=image;verticalLabelPosition=bottom;labelBackgroundColor=#ffffff;verticalAlign=top;aspect=fixed;imageAspect=0;image=data:image/png,iVBORw0KGgoAAAANSUhEUgAAAucAAAFwCAYAAAAbjNWuAAAgAElEQVR4Ae2dB7xUxdn/848lvRfT86a/6eU1edPzimJDURQ1wa4JELGLQY1EotLrpUpHmvSqgHSp0nvvvbcLFy5c4Pl/njULe+89u3t299SZ7/l8YPfunjLzm9888z2zc2be9/+uaiz8QwM8gAfwAB7AA3gAD+ABPBCuB66s01PeRyGEWwjoj/54AA/gATyAB/AAHsADv6jdQw4eOwmcUxmoDHgAD+ABPIAH8AAewANheiAJ5iICnIdZEFybQIAH8AAewAN4AA/gAbs9kArmwDnj7XneAA/gATyAB/AAHsADeCAkD1QEc+A8pILgDtnuO2TKn/LHA3gAD+ABPIAHFMwPFZ9UHi+38UAogM7dMh7AA3gAD+ABPIAH8ECAHkgH5krpwHmABcFdMnfJeAAP4AE8gAfwAB6w2wOZwBw4B8y5S8YDeAAP4AE8gAfwAB4IyAPZwBw4D6gguEO2+w6Z8qf88QAewAN4AA/gATdgDpwD59wp4wE8gAfwAB7AA3gAD/jsAbdgDpz7XBDcJXOXjAfwAB7AA3gAD+ABuz2QC5gD58A5d8p4AA/gATyAB/AAHsADPnkgVzAHzn0qCO6Q7b5DpvwpfzyAB/AAHsADeCAfMAfOgXPulPEAHsADeAAP4AE8gAc89kC+YA6ce1wQ3CVzl4wH8AAewAN4AA/gAbs9UAiYA+fAOXfKeAAP4AE8gAfwAB7AAx55oFAwB849KgjukO2+Q6b8KX88gAfwAB7AA3jACzAHzoFz7pTxAB7AA3gAD+ABPIAHCvSAV2AOnBdYENwlc5eMB/AAHsADeAAP4AG7PeAlmAPnwDl3yngAD+ABPIAH8AAewAN5esBrMAfO8ywI7pDtvkOm/Cl/PIAH8AAewAN4wA8wB86Bc+6U8QAewAN4AA/gATyAB3L0wP/U7imHik8qS3u+vY87P+788AAewAN4AA/gATyAB/CAOw/4CeZK+sB5jndKGNedcdEJnfAAHsADeAAP4AHTPOA3mAPngDk/Y+EBPIAH8AAewAN4AA+48EAQYA6cuygI0+74yA+9GHgAD+ABPIAH8AAeyM0DQYE5cA6cc6eMB/AAHsADeAAP4AE8kMEDQYI5cJ6hILijzO2OEr3QCw/gATyAB/AAHjDNA0GDOXAOnHOnjAfwAB7AA3gAD+ABPODggTDAHDh3KAjT7vjID70YeAAP4AE8gAfwAB7IzQNhgTlwDpxzp4wH8AAewAN4AA/gATyQ4oEwwRw4TykI7ihzu6NEL/TCA3gAD+ABPIAHTPNA2GAOnAPn3CnjATyAB/AAHsADeAAPXNVYogDmwDmVkcqIB/AAHsADeAAP4AHrPRAVMAfOqYzWV0bTfo4jP/zEjAfwAB7AA3ggNw9ECcyBc+AcOMcDeAAP4AE8gAfwgLUeiBqYA+dURmsrI70KufUqoBd64QE8gAfwgGkeiCKYA+fAOXCOB/AAHsADeAAP4AHrPBBVMAfOqYzWVUbT7vrJDz1ZeAAP4AE8gAdy80CUwRw4B86BczyAB/AAHsADeAAPWOOBqIM5cE5ltKYy0quQW68CeqEXHsADeAAPmOaBOIA5cA6cA+d4AA/gATyAB/AAHjDeA3EBc+Ccymh8ZTTtrp/80JOFB/AAHsADeCA3D8QJzIFz4Bw4xwN4AA/gATyAB/CAsR6IG5gD51RGYysjvQq59SqgF3rhATyAB/CAaR6II5gD58A5cI4H8AAewAN4AA/gAeM8EFcwB86pjMZVRtPu+skPPVl4AA/gATyAB3LzQJzBHDgHzoFzPIAH8AAewAN4AA8Y44G4gzlwTmU0pjLSq5BbrwJ6oRcewAN4AA+Y5oEr6/SUQ8UnlW9jvb3PtIIhPwQbPIAH8AAewAN4AA/Y5QEF88PFp2IN5cnEA+f0ntN7jgfwAB7AA3gAD+CB2HrAJDBXQAfOqYyxrYz0itjVK0J5U954AA/gATxQ0QOmgTlwDpgD5ngAD+ABPIAH8AAeiKUHTARz4JzKGMvKWPGumb/pScEDeAAP4AE8YJcHTAVz4Bw4B87xAB7AA3gAD+ABPBArD5gM5sA5lTFWlZFeEbt6RShvyhsP4AE8gAcqesB0MAfOgXPgHA/gATyAB/AAHsADsfCADWAOnFMZY1EZK9418zc9KXgAD+ABPIAH7PKALWAOnAPnwDkewAN4AA/gATyAByLtAZvAHDinMka6MtIrYlevCOVNeeMBPIAH8EBFD9gG5sA5cA6c4wE8gAfwAB7AA3ggkh6wEcyBcypjJCtjxbtm/qYnBQ/gATyAB/CAXR6wFcyBc+AcOMcDeAAP4AE8gAfwQKQ8YDOYA+dUxkhVRnpF7OoVobwpbzyAB/AAHqjoAdvBHDj3Gc4/dF1z+WatTvL7x16X2xoOkwebj5UnO06Ul/rMkDZD50nPcUtlyPTVF/5NWrhZKv6buHDzhe9ff3u5dBq1UJoNnCPPdZsqjxZNkLtfHSVV6w+Unz7cXb5cs0gur9oU4Pa5XCsGEv6mccEDeAAP4AE8ULgHAHNFc5H3Yab8zXTZNU3lO/d0lhsbDJInOkyUjiMXyrh5G2XF5v1y8NjJ9xQO4f/9R0pk8fq9MmbOeukwckEC5P/yykj5Re0e8tEbWgDvwDsewAN4AA/gATwQKQ8A5heBETh3WTk/U72NXPPMAKnfZbL0m7hCVm7ZL2fKzl1UMibvzp8X2br3qGiPfPsRC6ReuwmJfH3ljvaRqqTcNOZ/04h2aIcH8AAewANx8gBgXh4igXMHOH9/lcbywwe6Sp3W4xIgvmXP0fKqGfpXcclpWbB2d2K4zd/bjJf/qd2TYTIO/ohTwCOtNNB4AA/gATwQZQ8A5pWhEjj/D3x9/a4OUrfNOBkxc60cOFpSWSlLPzlZWiZzVu2UdsPmyz2NR8t37+0ievMS5YpuW9q6jFkkm3YfsfLfjx/qZrUXdQidrWWfS77X7zgkC9ftKfdv/trdiWd8JszflHiuZ+CUldJ17OLE8MRX+82Sf7w2JdFBc2ejEXLdswPl14/0lm/f3ZmhgXRYWB1zvG5fAXNnuLQWzi+9uolUeaq/tBw8NzFExVkePnVS4HDxKXl7wWZ5pd8subb+QPnw9c0JViE1WJ+u3lpOnS5zKiYrPtP663VjEafzHT952opyjlomS0rPiP6iOnfVzsSzPfq8kT6krw/o6wQAX72zvWgbEycvkVY6nYL2AGCePrJZBeeXVGkif3y8b+Ihyb2HT6RXhW9yUkDhcOqSrfJiz+nym3p9aJQCBHV9ZsDmbdfB41b7DTiPrvtPl52VNdsOyqhZ66TFoLnyt1ZvyZ+e6Cd6Qx00BHE9wDtqHgDMM8cuK+D8v+97LREcd+wvzqwG33qiwNETpTJ69vrEDDY6dj9qQcGk9OgzArZv1//jDWs9BpzH0/36UL7GyJf7zpTb/zVMvnZXB2s9bFI8Ji/uboIA8+xxy1g416EW9zUZLe8s2yY6QwlbeArsPnhc+k5cITVfGi4fuZ6pHL0K4D95uHt4hRqhKw+YvNJasAHOI2TEApOy80CxDJ2+Rp7uNCnxCyRrVrgDPa/iKecJRu/f1usjx0pKC6wt5h9uHJzrQjzN35grOi6aLXoK6AOmI2euk/ubjuHn3QKHv+hCVmwiOv73E9VaWQnowLm5NUDL9q13NyZgXW/EeRA/GHgE0v3TGTB3H6+MgXOdtaH3+GWi4/zY4qGAzhOv863rtI1fqllkJVzl2xBor9q+Izw3kXT6wy3etNI/wHnSAea/7jl0Qrq/uURuen6w6OrT+cYOjvMPPtE2vbaAeW4xKvZwrsvW69g9hq7kVvBR2/vc+fMye+UOebbLZNFpLQly6YOcalOj4dCoFWGo6Zm2ZKuVngHOQ7VdaBfXctchMLryM7NlZY6VtCXh6wOY5x4qYgvn3/hLx8SctGfPMaA892KP/hE6J/GTHSfK525tayV0ZWtQxsxZH/1CDDCFenP+zVqdrPMKcB6gySJ6KR0qOGT6aqn+whC57Jqm1tWBbLGS78OFc8A8v8AROzi/oka7xE97ZWfP5ZdjjoqVAjpNozY8+lMu8wa/F2S/eHs7wf+Vbdyw53TrwAQ4r+wDmz/Zvu9YYkrbL9zWzrq6AISHC+FO+gPm+Uej2MC59gg83v5tOXKcBz3zL+54H6kNT6M+M6yfdkyH/rBVVmDdjkPWAQlwXtkHfCJSeuas9J+0IjHrixM08Vn0QNa0MgHMC4tEsYDzPzzeV5Zt2ldYTjnaGAV0KJPOYqA/4+rCUqYFtWz5WbX1gDFl6XVGtEHIpp9J3wPnXjvIvPPpdMLXPTvQqnphUh2PY14A88LjSKThXOfELho+X/RhQTYUcFJg467D8kznyfKpm+1Yde/Xj/R2koHP/qNA59GLrIIQ4Bzru1Vg3ppdiQ6NOMIeaY5PTz9g7rZGZt4vsnD++8del/U7DmVOPd+iwH8UUEhRMPvevV2MhrPXxiymzDMocKj4pHzw2mZGeyAVVIDzDGbgK0cFZi7fLnqTn+oj3scHfqNcVoC5Y5XL68PIwbmOLW86cA695XkVJwfpryzD3lkjv6rby7jGR6dM45mL7B7XlWij3IB5mTbgPLsf2KOyAvpj9KCpq0RnPfPSj5zLXsgHzCvXs0I+iRSc6+qeOj6ODQW8UGDK4i3ypyf6GdP43P3qKC9kMf4cuu6BLZAAnBtvZ18zqKvrNug6hSkYC1yt2ZZ4ky6fgLn31TQycP5/T/aT3QePe59Dzmi1Avc0Hm0MqE1etMXqsnSbeV159vM17JgfHzh36wr2y6SATrjAUBd7e73TQbebzwHzTDUr/+8iAec6RSKLCeVfiBzprICOrXx/FTMC7n/9uSNDvZyL2fFTjSluGpa47wOcOxY/H+ahgLbB/359Jr3o9KK7jp2AeR4VzeUhocK5LirTbOAcl0llNxRwr4COPf+lQePOX+r9jvvMs6fMX7vbdQMTZ0AHzjG71wrorC7fvruzFfUnznU/7LQD5l7XvPLnCw3OP3pDCxk1a1351PAXCnikgElT6mnv/+bdRzxSxp7T/PCBrsYDBnBuj5+DzOnRE6Vy64tDja8/YQNuXK8PmPtfG0OBcwXzqUu2+p87rmClAjqd3uduNWfMcZWn+ltZjoVmWmd9imvj5zbdwHmhLuH4dArojC76y7YpQwPd1in2yzwUFDBPV2O8/TxwOP/kTa1kzqqd3uaCs6FAigJ/bzPeKCjrO3FFSu5461aBHfuLjV9BFjh36wb2y1cBnXJRFwQEWjNDqw36AOb51qLcjwsUznUVx3dX78o9lRyBAi4VWLx+r+izDKYEyk9UayU63RlbfgpUrW/2suXAeX6+4KjcFNBx6J+p3saYuGpK+xBkPgDz3OpMoXsHBueXV23KUJZCS4vjMyqgP8OaNK+5Bt7ard7KmGe+zKzA628vNxoogPPM5c+33imgHR9X1GhndH0KEnbjdC3A3Lt65PZMgcG5PqDHhgJ+KqDDP+IU8NykdfbKHX5KZvy5T5w6Ix+7saVxvkh6Bzg33sKRyuCabQdFFwtM+o9X84e6AObhVMFA4Lxeuwnh5I6rWqNAcclp4xqN793bRfTXALbCFLi/6RhjYQI4L8wbHJ27Aut2HKIH3ZK50H/36OtyrKQ0d5NwRMEK+A7nf3i8r5wuO1twQjkBCmRSoH6XycYBGGsAZCpx99/pyqqm9vAB5+59wJ7eKaDrCHy8mrm/SJkaL3LJF2DuXX3J50y+wvnX7uogB46W5JMujkEB1wqs3npA9JmGXAJP1PfVh1p3HTzuWgN2TK+ALkilsSjqZZ5P+oDz9OXON/4qoDe9psXdfOqgiccA5v7WHTdn9w3OL6nSRKYs3uImDeyDAgUpcEODN4wDr5ueH1yQJhxcXoEXuk8zziMKBcB5+XLmr2AV6DhyoZH1ykTgdpsnwDzYOpTuar7B+bNdJqe7Jp+jgGcKDJ+x1sjGYdg7azzTiBOJ6DhZt41TnPYDznF32ArUaT3OyLoVpzjgVVoB87Br08Xr+wLnP324u5SeYZz5RZl554cCJ0vL5Bt/6Whcw6Crm/KchveO+d+/9zbOK8C59z7hjLkpoLHq14+YV7e8At64nAcwz833fu/tOZx/8NpmsmzTPr/TzflRQF7qM8M42NJA/mTHiZSuDwp0GLnAOL8A5z4YhVPmrMCm3UdEF0yLC4iSzvJTQALmOVve9wM8h/MmA2b7nmgugAJb9hyVD1/f3MjGYMmGvRSwDwrow+kfqNrMKM8A5z4YhVPmpUCv8cuMqlu2ADxgnpfdfT/IUzj/7r1dGM7ie5FxAVXgtobDjGwIflG7BwXsowI1Gg41yjfAuY9m4dQ5K3D7v8yMy6aCOmCes8UDO8BTOH/r3Y2BJZwL2avApIWbjQKs1MDffsQCews2gJyb9gAxcB6AabiEawX2HDohn7yJ4S2pMT2q7wFz17YOZUfP4PyWfw4JJQNc1C4FzpSdk+/f/5qRcK5DLlgXwF8/68Nr+sBtVBvMXNMFnPvrF86euwLths03pn7lWh/jsr+Cua6qzRZdBTyB8w9d11z0gRA2FPBbgZaD5xob+O9oNNxv+Ti/iNRrN8EYDwHnWDpqCpw9d150eF5cQNW2dALmUasxzunxBM7/8doU57PzKQp4qMDug8eNnhGAYWEemiXDqd5dvcsYcADOMxQ0X4WmwNQlW42pYybBO2AeWpXI+cIFw7n2mis0saGA3wrc22S0sQH/yzWLRHuc2IJRwJShUcB5MH7hKrkrcG39gcbG6zgCO2Ceu4fDPKJgOGdO5jCLz55rz165Q95fpfzcrHEMkOnS/Hy3qfYUZgRy+mq/WUaAA3AeATORBEcFFq7bY3TMThfLo/g5YO5o0Uh/WBCc6wNsO/YXRzqDJC7+CtgwhnHt9oPxL6gY5WDbvmNySZUmsQd04DxGprMwqaZOeRtFAE+XJsA8nhWvIDiv03pcPHNNqmOlQOfRi2IPUekCp37++8dej1V5mJLYKk/1j72vgHNT3GhmPvQXz0yxj+/8/TUYMI9vvcobzrXXaeOuw/HNOSmPhQIHj52Uz97SxugA3/3NJbEoC9MS2duAFQ2Bc9NcaV5+fluvj9HxO6o3GIB5vOtS3nBetf7AeOec1MdCgb+3GW90YP/oDS3kWElpLMrCtEQq2H7sxpax9hdwbporzcvP0OlrYl3HogrfmdIFmMe/HuUN5/0nrYh/7slBpBVYvH6vXHp1/McFZwqi9zcdE+kyMD1xcZ8BCDg33aHxz58+M/SVO9oD6Ff5O4Ql2c4A5vGvM5qDvOBcl+ctKT1jhgIh5EJXKdTpJ5dv2ic6H6z2LAyZvloGTV0lXcculn4TVyT+Hj17vehS9XNX7ZTVWw/IzgPFYktjfP68JMZiJwOOqa/TlmwNwYFcMqnAxIWbYw0NtsSDZHnxGk8FdDYqU2N4lPIFmMezfjilOi8450FQJykrf6Y9Biu37Bcd2/pY0dty3bMD5Vu1OhXcG6zj/a+o0U5+/FA3ueaZAXJP49HyVMdJ0mLQ3ATUa49z3IdK6A1KlIKeH2lRL+hNCFt4CsS9Vw84D887XNm9Amu2HTQ+nvvRRuRyTsDcvR/jsGdecD5n1c445C2UNB4qPpmA8bv+PUI+dXPrUAPS52u0FX0Y56HmY6XjyIWJHviTpWWh6JLLRYtLTsuXahaFql0uQTHffV/uOzMXWdjXJwUadJ0SW68B5z6ZgtN6rgAPhvo3rAUw99yuoZ8wZzjXsWNslRXQ4Sd3NhohH7y2WaQb+suuaSo/+2t3ebjFm9LtzSWyafeRypkJ+ZNnu0yOtIb5wnjqcfrrx9a9R0NWmsurAvrrVmrZxOm9jXD+3Xu7FFxeGqc/Xb114p+2aT95uLv86Yl+cuuLQ0V/GdZFqvpOXCEzlm+X/UdKqCgeKNB22LyCyy1OdTOotALmHpgzgqfIGc4fbD42gtkIL0nj522S//1771gHnW/f3VnqthmXGPuuPf9hbvrzpy5uFVRgC+s6zHYUpssqX/vKOj1j6Tng3L/eyNTYoL/kXf+PN+SF7tNEY76NuleuNbl9smXP0VjWsVQfRO09YJ6bB+O0d85wPmDyyjjlz7e0bt93LNHLErXKWmh6tEf3l3V7ySv9Zsm6HYd80y/diXVcfqF5iMPx1KN0Dgjn86Lh82PpOxsh0Yue80JjhP4CqcM0mgyYzXofOVTZn/+tRyzrWaF+8eN4wDwH48Vw15zg/P1VGsvewydimE1vk6w9J6YvjJMMJjoERn/iXR8AqI+cuc6KwK3PIsRh7L+3tSbaZ9t35IRcXrVp7PwHnAfTc56Mh+le9ZeXDiMX0KOepZo36jMjdnUsXZmH+TlgnsVoBnydE5zrXa/tW89xS0V7l8OsmGFdW8u/cf/Zoj9Per0prH6zVicrdNWFldiip0D1F4bEzn/AeTTgPBmTdZphfWZGp71lq6zA3FU7Y1fHkmUbldffP/a66KQJbGYrkBOca9CxedOhCLaCeWpgUg10/OWwd9bImbJznljCph6VeWt2eaIZJ/FWgTiuZAicRwvOk3FSV/7VmMZ6IOXraNnZc/LxavFelTdZxmG8Aubl/WTyXznBuTZetm66YNBHrm/BXX+FVc6+cFs7ea7bVNmw83De1tCe+A9f39wKbX/0YLe8deJAfxUoPXM2MXtHGI1uvtcEzqMJ58ny/Oqd7WXcvI3+GjdmZ7+xwSArYn3SA169AuYxM3qByc0JzqM47V6B+Xd1uC4U88fH+xJQKoB5xaCj4y51hdNcx1Pf1nCYNdq2GvyuK8+xUzgK6KxFFX0d5b+B82jDuXpHn9V6suNE0Zs/NpFmA+fEqo5Fof4D5vbVHNdw/olqraxdzXDMnPUEkyxgnhrAtDddZ3s5eCz7tIxxXz49Nd/Z3usDhzxQHe0gO3vljljVdeA8+nCejAu/qddHwp6qNgq1b9aKeNWxZPmF9QqYR8G1wafBNZxrr6it2y3/jN+DYmEFktTr6jCgR4smpJ1qTMer/+CBrrGCodT85fpefcQWbQX0V7IoTNXn1lvAeXzgXMv0xw91k90Hj0e7EvicuhOnzsilV9s5qYLbep3cDzD32YwRPr1rONfl6G3c9AGWj93IAyzJYJHPqz5AWvOl4TJn1c5yFtIhHvmcL67H6FSRbNFX4OW+M2PjS+A8XnCusUtv/tz8qhj9mpJ/CvXZm7jG8aDSDZjn7y8TjnQN5/rQn42brlgZVGW04To6P+uImWsTU43pUCkb8qx5vKJGO89mtrGxHgaZZ31AWccJx8GbwHk8yqmil65+eoBox4+t231NRseiflUst6D+BsxtrRkX8+0aztsOm3fxKIvezVy+nSCSw3hzt8HLltlZkno809nuaUjjFjL+78l+saj3wHk84Vzjgj4kauvWZui8WNSvZPwO8hUwt7VWlM+3azi3dbnxSQs3E0R8gPMgg10UrrVs077yNY+/Iq1Aj7eWxqLeA+fxhXP9dUYfQLZxe3PuhljUr6DbDsDcxtrgnGfXcD5h/ibnMxj+6eRFWwgiwHlBHvhV3V6G1xLzsnespDQWc+8D5/GFcwW/nzzc3crhLet3HCoopgYNzUFcDzA3rx0pJEeu4fydZdsKuU5sj9135ERsxp8GEUC4Ru4w0GnUwtj63+aE13plVOQBAjjPvT5GLYZ1Hr3Iumqm4+11atmolUVY6QHMrasCWTPsGs7fXW3vkuM6jWRYlZbrxrvx/dB1zeVw8amsFZEdoqfA+HmbIl/vgfN4xweN7zp7yzmdw9Oy7Xv3dol8/Qqi/QXMLTO+y+y6hvPF6/e6PKV5uw2ZvpogwtCWvDzwl1dGmlchLMnR2XPn5Us1i/Iq9yAadb0GcB5/ONdy1IXubNuurT8w0nUriDoMmNvmevf5dQ3nC9budn9Ww/bUTo3f1utjfSAJIliZdo23F2w2rDbYlZ36XSZHut4D52bA+U3PD7arYonIA83GRLpu+d0WAebWWT6nDLuG84oLyOR0FQN23r7vmHzu1rZWBxO/g5Vp5//qne1Fe1/Z4qvAis37I13ngXMz4FyHv5WUnolvRckj5S90nxbpuuVnewSY52EYyw5xDefTlmy1TJrK2dVpFTWI+llpObcZja2WY8Oe0yubiE9ip8DP/9YjsnUeODcnXtg2tKXDyAWRrVd+tsOAeeyagFAS7BrO+Xn+vfLRh8QAdHMaRL+CsM5hvGHn4VAqNRf1VoEoL5gCnJsTi+q1m+CtcSN+tmHvrLEOzgHziJsyQslzDef6UCTbewrorwifvaWNdYHFL5A18bx/eqIf1cUQBfYcOiGXXRPNad+Ac3Pg/HePvm5IjXGXjSmL7VpDBDB35wv2ek8B13Bu41ysmUyyafeRxAISJoIleSq8we89flkm+xjxnT4orfMV27BVe25QJG/GgfPC62pU4t2nbm5tQ1W6kEedZCIq2vudDsD8QrHzxqUCruH8lX6zXJ7Snt1OnS6T57pNlUuqNLEmyPgdxEw4/8dubGnFFHfauE5caMdsNG9MWRXJOg6cmwPnGvt2HzxuTQNqyyqhgLk1lvY0o67h/MmOEz29sEkn03HoX7urQyQbbxNgN255eLjFmybZO21eXuw5XR5pOz7t9yZ9oTfin7ypVeTqOHBuFpzPWrHDpGqTMS+6+nbcYnuu6QXMM1qALzMo4BrOa740PMNp+EobSZ0TOapjU3MNKuyff6M/c/l2KyrEDx/oKl+uWWTN6oa1W70VOZgAzvOvp1GMcePmbbQidmgmT5aWRa4+eekJwNwaK/uSUddw/ovaPXxJgGknXb5pn+iCEl5Wcs4VnwZYl+K2YSXutdsPXvD43FU7TavGjvnRm66o1UXgPD6xwY13Bk+zZ+KFc+fPR64+uSkjN/sA5o4hlA9zUMA1nOtPumzuFVBgufrpAcYGH1pLuGUAACAASURBVDcBysZ9mgyY7d4kMd6zcf/ZF7zdoOuUGOfEfdL1puvbd3e+kO8o+Bs4NwvOe7y11L0hDdjTxOe1AHMDjBmBLLiGc22IDhWfjECS45UEfWDuV3V7RapBjwJUmJiGS69uIjv2F8fLoHmmNtXT+muBLdtLfWZEqi4D52bBeZcxi2ypSol8mrZmCGBulX19zWxOcD596TZfE2PqybXHbcTMtUD6VWY1pBVvMG5o8IapFi6Xr+37jokuspSaf13m3oZt467DlfKeqkPQ74Hz8j4MWn+vr9dv4gobqtGFPH68WstyccRrPYM8H2B+oVh544ECOcF522HzPLik3afQcav6cK32sgYZOLiW/424LeNF24+ovOz2y31nWlOx//B438jUXeDc/3odZOwcOXOdNfVIM/rp6q0jU5cKKWeNCcUlp60qOzLrrwI5wfkDzcb4mxqLzr5595HEHOmmBKdCApsJx36mehspPXPWCgdf9VT/Sg2qTQ+Mdx27uFL+w/IwcG4WnOuqmTZtH72hRWTqUr51GDC3ybHB5TUnOP/Rg92CS5klVzpWUipths6T79//WuyDVL7BzYTjHit62wrHHjhakna60C17jlqhwZHjpyQqY2WBc7PgfOnGfVbUoWQmP1C1WazbPcA8WZK8eq1ATnCu40x14QA2fxRYuG6P1Gk9TnSFSROA1aY8LFq/xx9TROysPcctTetNm4a93fXvEWl1CNL3wLk5cK4zl5SUnolYjfcvOfosVsVnV4KsO4VeCzD3zxucWSQnOFczD5luzzysYRnk6IlS0af2f8ksL5EAoGxB/Gd/7R6WVQK/bvUXhqQtkz890S/w9IR1wTfnbkirQza/ePk9cG4OnH+zVqew7BzKdc+UnYtEHcqnPgLmoVjGqovmDOf12k2wSqCwM6s/cz7TebJ85Y72sQ1k+QS/OB1jS4+xgmCm4Rz6kLMtv6yVnT0nX7itXeh1Ejg3B86rPTco7OYm0OsfLj4Vev3Jp50BzAO1ibUXyxnOv/GXjlasgBg1R+hqarNW7JAnO06Uz9doG8uglk8gjPoxOmZy/5GSqNnFl/TobDTZysOmRVSe6jgpqx7Z9Cr0e+DcHDh/pd8sX+ptVE+q05IW6v+gjwfMo+om89KVM5xrZViyYa95SsQoRzoryKhZ60THvX7k+vg/7R50gPXyerf/a1iMnFNYUmu9MiprY3rT84MLu0iMjl68fm9WPbz0mtO5gHNz4FyfObJp0/w6eTqqnwHmNrkz/LzmBecv9X4n/JSTgoQCp06Xydg5GxIPkl5RI/yf2aMaWP1Kl449tmHTG8JPVGuVtTH94LXNRGcgsmX76cPds2ril/f0vMC5GXD+xdvbWfeLtK6e7Wfd8PLcgLktET06+cwLzn/4QNfo5ICUXFBAH7B5e8FmqdtmnGiw9zI4ca7KEPClmkWiY49t2N56d6NrPw2ausoGSRJ5bDl4rmtd/KhDwHnleumHzn6fU2fpsm17Y8qqUOuO2zIFzG1zZjTymxecq6nfXb0rGjkgFY4K6Bh1/dmwUZ8Z8r17u8QiCLoNllHZr0HXKY7am/jhX1u+6dpDf355pIkSOOZp18Hjoa72C5ybAefLNtk1v7lWphaDwr2xddOOKJjbWMccgx0fBqpA3nBeu9VbgSaUixWmgI6PbdhzOqB+lXeN+eqtBworlJgcffbcecllyNTHq7W0ZrVULcLr//GG6xsXN0CQyz42gsN3Dets+L8n7ZmCNDXkPdFhYmj1xk0dA8xTS4v3QSuQN5zr+FMbG4agC8iP6+mCOc92mSxfv6tDpIOjmwAa1j6/rdfHj6KJ5DnfWbYtZ5/oMBhbtgGTV+asj1e+tTEGmwbn+syQjdttDYeFVm+y1T/A3EZHRivPecO5mrvdsPnRyg2pyUkBXaFt5vLt8mjRBPnsLW0iGyizBdIwvu86dnFOWsd553ymDPybRb+s6aqObh6W9cOnwLl3v4T5UT7ZznljA7vmNk+Ng1fW6RnJNgcwTy0l3oelQEFw/tU724s+hMgWfwVOl51NzPpyZ6MRcnnVppEMmtkauqC+//D1zeXI8VPxL3SXOdCVC3PV9nO3trXmYVmV8eEW7sfk56plpv2B8/jCuc5stG7HIZe10KzdtGMorBvaTPUJMDfLZ3HOTUFwribvP2lFnPNP2h0U0FUeddVLXZY+UyCz9bt7m4x2UM3Mj3QIVL7lrMNhbNmmL8196E++uqYeB5zHF85tWVnYKQbs2F+cd1xJ9b+X7wFzp5Lis7AUKBjOdSYQes/DKj7/r6szvug0Xyx2dBECpize4r/wEbnCiz2n592I6nAYWzbtCcznF4ZC4QI4v1gvC9UyyOPvaWzPDb5TDNApf4PUO9u1AHOnUuKzMBUoGM7V9DaNvw2zsMK89qHik9J6yLvWz/byjb90FJ2m0pbtRw92y7sRVa1s2nQ2pGwQ4PX3wHn84PzXj/SWk6VlNlWNSnktGj4/8LqSru4B5pWKhw8ioIAncP7lmkWiD0Wxma+AcumkhZvlhgZvyPurxK9hTBeg3X6u88bbsul4WLe6pNtPp/C0ZVO9gq4TwHm8YtCfnuhn1Qq66er+/U3HFBxb0sWcXD4HzNOVEJ+HrYAncK6VQXuN2OxSQBfOuK/JaGseIL2kShPZsueoNYXcbOCcghvQf/V6xxq9NKM6xWYucFDovsB5fOC82nOD6MT6TzT4/v2vBVpPnOoZYG5VaI5dZj2D8w9UbSa2LMoSu1L2OcHb9x2T+l0miy4+4xQETfns6qcH+KxktE6vP78XWnY/fqhbtDLlc2q6jFlUsGa5aA6cRx/OL726ibzcd6ZVw+EyVbPDxacC/4WpYp0CzDOVEN9FQQHP4FzNryudWTQcNwrlF6k0HDx2Up7rNlU+ekOLQAGlYuD16+9+E+2ZmUhnU/BqiMZ6i6aL02czdIo8vzxY8bzAebTh/Nt3dxabZi1y0yBNmL8psPpRsb7o34C5m1Jin7AV8BTO1fgdRi4IO09cP2QFDhwtSUD6h65rHmoQdgrM+X6mc/La9FxF+xELPCu75m/MDdmRwV6+5kvDPdMum1+B82jCuXZQ6PMpp07b/eCnU817ofu0wOpHxfoDmDuVCJ9FUQHP4VwXaFm19UAU80qaAlZg275joitFXnZN/Bc10ukkbdp0CE/Fhi3fv3Uctk3b6NnrPdMum+bAebTg/DPV28g/e0wTXSuCzVmBX9XtFVj9SK0/gLlzefBpNBXwHM61Mvz8bz2k9MzZaOaYVAWuwPJN+xJDnlIDZdzez121M3DdwrqgDk/y8oZKH6TddfB4WNkJ/Lq67sPna7QNBECA82jAuQJnp1EL5cQpZi3LVOF02JfGg6DjP2CeqVT4LooK+ALnWvG0x5QNBZIK6LMIA6eslK/c0T7wwFxoQ/CDB7oms2HFa+/xyzwvo86jF1mhXTKTT3SY6LmGTj4GzsOBc715/U29PtJkwGzZtPtIsth5zaLAkOmrA6kXqXUFMM9SKHwdSQV8g3OtHDpzARsKpCqgMNGg6xTR2X1SA2iU39s2ZvqWfw7xvGyurT8w1QbGv1+wdrfnGjrVEeA8GDjXX0Kq1h8o/3htirw5d4MUl5w23sN+ZFBXRnXysV+f/fHxvmJjHfGj7DhnsAr4CucKYDOXbw82R1wtFgqs2LxfflG7R6CBOp8GQHvIdls0JEMbMn1uJB+tMh1zedWmolOo2bT98IGunutYUWMbweO793bxRFf15Kert5YrarST/77vtcQc9ToX+YPNxyYe5tRfkKYu2Sp7DjF+3It6q0NdP3lTK0/KrmI9cPobMPei1DhHWAr4CudaYbQy6phjNhSoqEDZ2XOJRlDnAXYKrlH4rPoLQyom2+i//fzZ2aapKNUkTT1YxClbHbARzo2ugAZnbuycDYHFecDcYCNZkjXf4Vwbl//6c0erHgizxDueZXPOqp3ynXs6Bxa4swFP6vfDZ6z1LJ9xONHdr47yrRxu/9ewOEjgWRp1rni/H34Dzj0rLk7kswL6i0RqbPXrPWDuc0Fy+kAUCATOtRL+5OHuovNfs6GAkwI6y4E+ROxXwM7nvDrO9HSZPbMOaV79/NlZ5362aa549bmOtc/He26PAc6dogmfRU0B9enHbvR/BWnAPGolT3ryVSAwONfG5md/BdDzLShbjus6dnFkHhZ9quMkW2RP5HPcvI2+gqTGgJEz11mlad+JK3zVFDi3yk6xzWyPt5b6Wg80tgDmsbUHCXdQIFA41wqkc6DrPMpsKJBOAV3uOqh5otWT6f4t3WjXsxK1A/jl4v6mY9IVu5Gf6y9CfvYYAudG2sa4TP3u0dfTxtl08TeXzwFz4yxjfYYCh3OtcD96sJvoeEw2FEinwNa9R0OdzeXKOj3TJc3Iz8+eOy9fuK2drw2o1n1dQVEfBLZpe6DZGN90Bc5tclI887ps0z7f/K8xBTCPpy9IdWYFQoFzrVBfv6uDrNl2MHPq+NZqBXR8sh9zbqv/sv3rMHKBVdrPWL49qybZNHP7/eRFW6zSdsriLb5pC5xbZaVYZva+Jv7NbQ6Yx9ISJNqFAqHBuTbkn7u1rcxascNFMtnFVgV0KfQ7Gg33DW6cgPKD1zYTXWbapu3pTpMC0/jRogk2SSvnzp9PdEY4ea3Qz4Bzq6wUu8zqL+Q6n3yhPnc6HjCPnR1IcA4KhArnWuEUhHSxBzYUSKeADoOo9Yp/U/xVDPx3/XtEuqQY+/k3a3XypQGtqK3+/ZU72sv588ZK6ZixF7pP80Vf4NxRbj6MiALPdpnsi+8B84gUMMnwTYHQ4TzZeNfvMtm6sai+laqBJ9Yx0fowYdIvfr6On7fJQAXTZ2nx+r2B6JpaZu+u3pU+QQZ+o0P4UvPv1Xvg3ECzGJIlXVlVp0/1yuvJ8wDmhhiEbGRUIDJwrhVPp1qcv3Z3xgTzpb0K6PCAh1u86XmwTwZ9ff3qne1FbwRs2v7V6x1fNU3VN/n+uW5TbZI4kdf//Xtvz3UGzq2zUWwy/Hj7tz33O2Aem+InoQUqECk414ZbV9Sr03qcFJecLjBrHG6iAgrOtzUc5nnQT0LjP3tMM1G2jHnS2ZOS+Q/q9bv3dsmYJhO/1IeMvdYXODfRKfHPk862pUNWvfQ7YB5/X5AD9wpEDs6Tlflrd3WQMXPWu88Je1qjgM7i4kcv5PurNJb1Ow5Zo6NmVPObrHNBv67aesAqrXV9hw9U9RZYgHOrLBSbzN79qrfPCAHmsSl6EuqRApGF8yQo3NloBHOie1TYJp1m98Hj8uWaRZ6C5R8e72uSRK7y0vyNuZ5qmKy3bl5f7TfLVRpN2qlGw6Ge6g2cm+QOM/Iyfek20Y4ONzHAzT6AuRm+IBe5KRB5ONfK+5HrW4iOUWWoS26Fa/rec1ft9LQnspeFswb9+hHvx0G7aXB1H9sWetL6OHzGWs+gRTUEzk2PcvHKn86s9dOHu3vmccA8XuVPar1TIBZwnmzsdQq2vhNXWDcNm3fFbd6Z2g6b50lDoLMK2Hbzt/NAsac9XMl66vZVe9e27Ttmnikz5Oh02Vn57C1tPPEscJ5BaL4KRYGWg737JQ4wD6UIuWhEFIgVnCcbfe1x0xUN2VBA58uu9tyggmHnweZjrRPTjwcUk3XU7WvR8PnW6a6LMLnVJ9t+9JxbZ5/IZlinC/3w9c098TZgHtliJmEBKRBLONcGS3vddNaOZZv2BSQVl4mqArsOHi+4N/KdZduimj3f0nXNMwM8aUizAWSm7696qr9v+YvqiXWO90ya5PIdcB7VUrYrXTqc5Vd1e3nia8DcLu+QW2cFYgvnyQZMp17UFR1tm/nBuTjt/VTHiyc9kevrd+7pbN1QqUPFJ+Wya/xZVjsX/S+9uokcOFpinXG/f/9refs1VV/g3DrrRDLD/359pid+BswjWbwkKgQFYg/nyYZKIV1ndlm7/WAIMnLJsBXQ4S1VnuqfVwNh46whvQu4mUnWOa9ee45bGrZ9Ar++es4L/YDzwIuOC1ZQYOqSraI32YX6GTCvICx/Wq2AMXCeDAzaG6jLvK/YvN/qgrUx8yu37M+5kdCbuu2WPZSo3rj1RW+n9EvWv3xeb35hsHV21Qdh1Xv56JV6DHBunXUilWF9qPyKGu0K9jFgHqliJTERUMA4OE82XDomXR8UnLZkawRkJglBKfDXlm/m1FBc9+zAoJIWmeucOHXGswe3kvWtkNcPXdfcyikBr3668DH/wHlkqpV1CSk9c1Z+9+jrOcVbpzgBmFtnHTLsQgFj4Tw1CPyido/EFIz60Aqb2Qrow6E6L35q+Wd6P2jqKrMFccjd0OlrXOuTSTsvvxsyfbVDSs3+yIuhRcC52R6Jau50GOF9TUYXHEcA86iWMOkKWwEr4DwJEd++u7O0HvKu6MNwbOYq8FTHSa4ajU9Xby2nTpeZK0SanN3TuPBGNVmnvHqt9cqoNKk192OdV1/n1y9EQ+DcXH9EOWcv9pxekG/V84B5lEuYtIWtgFVwnmwEdS7Wh5qPlflrd4etP9f3QQEdz3t51ewzkdRrN8GHq0f7lLoIzqdubl1ww5qsS169fvKmVqI/k9u23Vtg7yNwbptjws/va2MWFxw/APPwy5EURFsBK+E8FSh+WbeX6GwRJaVnol1SpC4nBfSh4NRydnpv483ZhPmbsuripFUQn42btzGnMjZh54kLNxdUHsC5CS6ITx76TFhe8IPMf3qin5XPmMSnlElpFBSwHs6T0PGJaq0Ss7xMWrjZujmvo2BEr9Og4J0sW6fXHz/UzetLxuJ8dVqPy6iLk1ZBfVa71Vux0NDLRJ47f16+emf7vMsEOPeyNDhXJgX0WZVC10YAzDMpzHcocFEB4PyqxpUaxu/e20Ve6TdLdHgEW3wV+OnD3SuVbRI09dkD2zYFwS/eXvi0Z0kNvX79wm3tRNNo29ag65S0Ps2mMXBum1vCya/2mAPm4WjPVe1UADh3gPNkg6jzEOt0Z93fXCIHj/EQadyqSNHw+Y7Qo+PR9x05EbfsFJzemcu3O+qR9HsUXjWNtm06P3++2gPntrkl+Py2GTpPdGrifD2qx9FjHny5ccV4KwCcZ4Dz1GCkQHdDgzdEl4k/XHwq3qVuSer3Hj7huChRjYZDLVGgfDaf6Ty5oAY2tT749V7TaON2ZZ2eeZUNcG6jW4LJs/6I9UL3aXn5MjU+AObBlBdXMUsB4NwlnKcGmw9UbSY3PT84AeoHjpaY5QjDcqMNQ2rZ6fvRs9cblkt32flmrU6VtKioTdh/f6tWJ3eZMWyvdL/yZCsP4NwwI0QkO+qr2/81rOB4AZhHpEBJRuwUAM7zgPPUBlOHvmivV6M+M2TV1gOxM4DpCW43rPzQFh3XfKbMvsWoFq/fW3BDm+p7P98v3bjPdFtWyt/+IyWupv+sqDtwXklKPihQge37jiXatIpey/VvwLzAguBwqxUAzguE84oB6/v3vybPdZsqc1fttPLhtqjVpvU7DpWD0me72Dls4qXe75TToaJvo/T3S31mRM1GgaSn+gtDci4j4DyQorHmIqNmrZPP3tImZx9WjB+AuTWWIaM+KQCcewznqUHqc7e2TUzPOHbOBtHFX9jCUSB1qrrlm+zrlVXVderIVG9G+f1PHu4ejlFCvuqQ6atzLiPgPORCM+TyugDYkx0nFvzgp8YVwNwQU5CNUBUAzn2E81QA0lUZ7351lGgDTIMarOfv+88qjP/7997BXjgiV9uw83DO0Jfq3TDeb9x1OCLqBZcMBaRPV89t9VZiSXDlY+qVdBjZz/6aftrZXOo/YG6qS8hX0AoA5wHBeWqA+/D1zeWORsNl2Dtr5GRpWdBlbt31uo59b7npLmMWWZd3zXCLQXNjB+ctB8+1sqz+3mZ8TmUFnFtpE08yrTeDL/acntezDqntWfK9gvmJU6y07UnhcBLrFQDOQ4DzZDDT14/d2DLRo64ziGiwZPNegQVrd4veEB05bucUmL+t1ycn4Ev1Z1jvf/fo694bIQZnnLNqZ05lBZzHoFAjmMTpS7fJDx7ompPXMsUCwDyChUySYq0AcB4ynKcGPB36okuYz1uzK9amilriT50uS4z9j1q6gkjProPHRWcUSvVZHN5rmvccsm+hKJ1bWlcodltGwHkQtcica2zde1TubDTCtb/c+BAwN8cf5CQ6CgDnEYLz1ECoS8+3H7GABY88qitb9hz16EzxO83CdXvknz2mic4klOqxKL7XJcJ1VV5dldDWxb5e7jvTdTkB5/Grj2Gk+OiJUmnYc3riF0Qv6z1gHkZpck0bFADOIwrnyQD6oeuayz2NR8usFTts8CN59FkBnYv/lX6z5Df1+ng21jTp1Xxfdeq2v7wyUgZOWWktkKcWu95Iul0uHThPVY73FRUoLjmdqO+5Pmjspi4D5hXV5m8U8E4B4DzicJ4aJH/9SG8ZOn0N86d753+rz1RSekamLdmaaLxvbDBIPnlTK9c9tqm+zOW99oz//G895JG246XPhOWydvtB0aEcbOUV+L8nK69s66QzcF5eN/56T4GDx07Kq/1meTJnuZPvAHOchgL+KgCcxwjOk0Hyhw90TUA6UONv5bDt7OfOnxcdkzpl8Rbp9uaSxGJaOqvQL2r3kG/V6iSfqd5GPnJ9i7QAf3nVpompAL92Vwf50YPd5OYXBsvj7d9ODFEZOXOd6JRtzObgzlU9xy1Nq3MyDugrcO5OT1v20mlT67WbIB+9IX09TfVPPu8Bc1vcRD7DVAA4jyGcJwPqlXV6MtwlzNpj8bV15ht9YFMfONWx4Qr2bN4pcKyk1NX4YODcO83jeqYzZedkxMy1Uu25Qb4//A2Yx9UlpDtuCgDnMYZzhXQdm6qL7Bw4WhI375FeFECBDArUemVU1t5z4DyDgIZ/tXLL/sSvW1+8vV1WnyQ7dAp5BcwNNxTZi5QCwHnM4TwZbK+o0U7GztkQKXORGBRAgfwVGDdvY1boAs7z1zeOR+rDwkXD58sfHu+b1RvJtsGLV8A8jm4hzXFWADg3BM41AGsv+ku93+EBuzjXSNKOAv9R4Oy58/KlmkUZIQw4N9suZWfPJR7abtB1ivz4oW4ZveAFhDudAzA322PkLpoKAOcGwXkysOrUixrU2VAABeKtwLNdJmcEMuA83uVbMfX67MaSDXul3bD5clvDYYHMoJRsN5xeAfOKJcTfKBCMAsC5gXCuQfb+pmPoQQ+mDnEVFPBNgWWb9gHnvqkb/on3HTkhOnxJF57S2Y10lWgnSA7jM8A8fH+QAnsVAM4NhXMN5i/1mWGvs8k5ChiigM4Lnw7O6DmPRyHr7Dvz1+5OzO3/XLepcss/h4hOOZquXMP+HDCPh69IpbkKAOcGw7ku+DJ31U5z3UvOUMACBdoMnZcW4oDzcA2gM4hq77euvDt96TYZPG114oHNZzpPFl0j4Fd1e8kXbgtmNhWvgB4wD9dTXB0FVAHg3GA412D9y7q9cDoKoECMFdh7+ITojbYTfNkI5w17Tpc6rcf5+u/PL4+UOxuNuPCvav2Bov80nv7gga7y9bs6JBbcuqRKE8dycSqrOHwGmMc4UJB0oxQAzg2Hc20QJi7cbJRpyQwK2KbATc8PdoRAG+H8u/d2cdQiDvAb5TReW3+gnCwts61qkV8UiKQCwLkFcP5g87GRNB+JQgEUcKfAoKmrHIEUOG/sqEuUITiKaQPM3dVD9kKBoBQAzi2A8y/XLArKT1wHBVDABwVOnS5znMkDOAfOC4V9wNyHCsspUaBABYBzC+Bcg/eR46cKtAqHowAKhKlA7VZvVeolBs6B80LgHDAPs0ZzbRRIrwBwbgmcr91+ML0L+AYFUCDyCsxYvh04FxHGnHtzQwKYR77Kk0CLFQDOgXOL7U/WUSA+Cui0fd++u3M5QKfn3BtQLaT3OY7HAubxqfek1E4FIgHnOhdsuqnC4hj4opjmQ8Un7XQ4uUYBgxTQhcVS4wtwDpyn+sHNe8DcoIBAVoxVIHQ4/9ytbaW45LSs23EoMaesm+DCPrk1SB+o2ky0140NBVAg3gps3n1E3l/lYv0Hzi9qQbuQXQvAPN71n9Tbo0DocN5q8Lvl1J62ZKtcWadnud4hgm72oJtJox8/1K2cxvyBAigQXwX+8HjfC/EROC8sNmaKm6Z9B5jHt86TcvsUCBXOv1SzSEpKz1RSXXt5h0xfLd+s1elCI2RaoAwyP7qUNBsKoIAZCnQdu/hCXATOgXM3bQlgbkbdJxf2KBAqnHcevSij0qfLzkrR8PnyyZtaXWiM3AQi9infYE2YvymjznyJAigQHwWOniiVD1/fPBETgfPysY7YX1kPwDw+dZuUokBSgdDgXHvFFb7dbPuPlMiTHSdeaJAIwJUDcDpNdAGi0jPudHZTFuyDAigQvgJ3/XsEcG7JTFvpYrubzwHz8OsqKUCBfBQIDc77TFiec3oV0hv1mSGfqEZPupvArPvoLw9sKIACZikwds4G4Bw4z/iLMmBuVp0nN3YpEAqcf//+1+TsufynD1FIf6H7NCA9S+OkY/pPlpbZ5WhyiwIWKFB29px84bZ2wrAW978iuu3QMGE/wNyCIEAWjVYgFDgfPG21J6IeKymVZgPnyKert87Yg2BCsM0nD/pQLRsKoICZCjzdaRJwnqWDIp+4GfdjAHMz6zu5skuBwOH8Z3/tLuc8nnQ7CenM7nKxF6lum3F2OZncooBlCixevxc4B87LdUwB5pYFAbJrrAKBw/mYOet9E1Oh/613N8rNLwyWS6o0KRe04t4bkkv6b//XMDlTds43nTkxCqBANBTwuJ8jGpnKkorv3tvF2tieqR0AzLMYh69RIEYKBArnv6rbK7CVKncdPJ4Y8vLVO9tbE8h15cDnuk31/JeJGPmZpKIAChiuAHB+8RfSJKwD5oabnuxZp0CgcD55KcVP3wAAHkVJREFU0ZbABdbpGgdNXSXVnhskl1dtaiyof/vuzhKGvoEXKBdEARSwWgHgvDycA+ZWVwcyb6gCgcF5laf6hy7hwWMnRVfXu+aZAcaAui5GojPXMCtL6PYiASiAAgEoAJxfhPPrnh1I7A/Ac1wCBYJWIDA4n71yR9B5y3i9I8dPJXrU7351lFxRo13setR1rncdwrL38ImM+eRLFEABFDBJAeD8PTgHzE1yNXlBgfIKBALnOqQkyps+VLVi835pP2KB3NFouHz9rg6RhHUdlnPT84Ol/6QVVs7SEGUPkTYUQIFgFADOGwtgHozXuAoKhKWA73CuDynqlF9x2/YcOiE6s0zzN+bK31q9JVc91V++ckewD5fq/O1/fLxvYtjKuHkbpbjkdNxkJL0ogAIo4KkCtsM5YO6pnTgZCkRSAd/hXHuiTdpOnDojSzfuk+Ez1kqXMYukyYDZ8o/XpiQAvuZLw+XqpwfIlXV6Jv7pnO7fqtWp0r/v3NM58b2Cd9X6A+Uvr4yUJzpMlMb9Z0vv8ctkyuItojcHbCiAAiiAAuUVsBnOAfPyXuAvFDBVAV/h/NKrm8iqrQdM1Y58oQAKoAAKBKyArXAOmAdsNC6HAiEq4Cuc3990TIhZ49IogAIogAKmKWAjnAPmprmY/KBAZgV8g3N9eHHjrsOZr863KIACKIACKJCDArbBOWCegznYFQUMUcA3OK/bZpwhEpENFEABFECBqChgE5wD5lFxHelAgWAV8AXOP3Rdc9m+71iwOeFqKIACKIACxitgC5wD5sZbmQyiQFoFfIHzpztNSntBvkABFEABFECBfBWwAc4B83zdwXEoYIYCnsP5R29owaqVZniDXKAACqBA5BQwHc4B88hZjgShQOAKeA7nL/acHngmuCAKoAAKoIAdCpgM54C5HR4mlyiQTQFP4fyTN7WSQ8Uns12T71EABVAABVAgLwVMhXPAPC87cBAKGKmAp3D+ar9ZRopEplAABVAABaKhgIlwDphHw1ukAgWiooBncP65W9tKccnpqOSLdKAACqAAChiogGlwDpgbaFKyhAIFKuAZnLce8m6BSeFwFECBigocPVEqx09y01tRF/62VwGT4Bwwt9fH5BwFMingCZx/qWaRlJSeyXQdvkMBFMhDgaYD54iuG1C1/kApGj5fdh08nsdZzD/k7LnzMmvFDnmu21T5Re0eojc1bGYqYAqcA+Zm+pNcoYAXCngC551HL/IiLZwDBVCgggK/f+x1+X9XNb7w75IqTeTXj/SWhj2ny/Sl2+R02dkKR9jz56bdR6Tr2MVyZ6MRog+jp+r0+tvL7RHCspyaAOeAuWWmJbsokKMCBcP5N2t1shoQctSb3VHAtQIHjpbIpVc3KQedqQCq73VdgWrPDZImA2YnYP3EKXN/wdq467D0m7hCard6S75Vq1NGXW5sMMi1zuwYLwXiDucK5qdOl8VLdFKLAigQqAIFw3mfCfRQBVpiXMwaBbT3tyKMZ/v7smuaypV1ekq9dhOk25tLZN6aXbEccrbn0AmZMH+TNBs4R2o0HCpfuK1dTlpcXrWp6M0Nm3kKxBnOAXPz/EiOUMAPBQqC8+/f/5roWE82FEAB7xW4o9HwnIA0HbjrUJjv3dtFar40XBp0nZKA9qlLtsq2fcfk3Pnw6u+ZsnOyYedhGT9vk3QYuUCe7DhRrq0/UK6okRuIp8t3lzEMt/PeleGfMa5wDpiH7x1SgAJxUaAgOB88bXVc8kk6USBWCuhY8k9UKz+OOh2EFvK59jB/9c728pt6feTWF4fKo0UT5OW+MxMPn+qvYiNnrpMpi7fIwnV7ZPmmfaLjvPXf5t1H5HDxqcS/LXuOXvh81dYDiX0V/kfNWifa+99+xAL59+sz5ZG24+WWfw6RX9XtJV+5o71oL38hac927P892S9WZU5i3SkQRzgHzN2VLXuhAAq8p0DecP6Th7uH2utGAaKAyQq8vWCzr+CaDWxN+F5/Mdixv9hkm1iZt7jBOWBupU3JNAoUpEDecP7m3A0FXZiDUQAF0ivwWNHbwHnKLDX53iyw/kJ6j8X1mzjBOWAeV5eRbhQIV4G84Fx/lg5xqGq4inF1FAhAAZ0FKV8g5biLU09qrGIzS4G4wDlgbpbvyA0KBKlAXnCuY1DZUAAF/FFAx3YD2BcBu1At1u845E9BcdZQFIgDnAPmoViDi6KAMQrkDOd/eoKHrIwpfTISSQUa958NnHswpCUJ9a/0mxXJciZR+SkQdTi//h9vMI95fkXLUSiAAv9RIGc4n7NqJ+KhAAr4qIDOnJIES14L70HXKV/ZzFEgynAOmJvjM3KCAmEqkBOc3/zC4DDTyrVRwHgF9h05ITrLCFBeOJSnaqhDhdjMUCCqcA6Ym+EvcoECUVDANZy/v0pjWbx+bxTSTBpQwFgFeo1fBph7OKQlCegvdJ9mrGdsy1gU4Rwwt82F5BcF/FXANZzf2WiEvynh7NYqcKykNLFQjbUCpGRcV/FMAiWv3vWe6+w3zDCVYrQYv40anAPmMTYTSUeBiCrgGs4b9pwuZWfPRTQbJCuuCuw9fCKxYmTXsYvjmgXP0l165qx8vFpL4NyHnnO90ZnL8zKeeTXME0UJzgHzMJ3AtVHAXAVcw7k2bj94oGtiOW9z5SBnQSqgq2B+vkZb+dB1zeXI8VNBXjqS15owfxNg7hOYa/x6suPESJY7icpNgajAOWCeW7mxNwqggHsFcoLz5M/sv36kt0xfus39VdgTBVIU0OEFzQbOkUuvfu/Bx7+8MjLlW3vf1ms3ATj3Ec6/eHs7OXvuvL0GMyTnUYBzwNwQM5ENFIioAnnBeRLSb2wwSOat2RXRrJGsKCpw9ESp3NZwWDkIHTdvYxSTGnia/uvPHcvpkqxnvHo39pwF1AK3tecXDBvOAXPPi5QTogAKVFCgIDhPQkPV+gOB9ArC8mdlBfRG7jv3dC4HoF+uWURvpogs3ciqoMl44udr7VZvVTYmn8RKgTDhHDCPlVVILArEVgFP4DzZmN70/GCZuXx7bMUg4f4ooEMJGvWZIZdd07QcmKtv/vHaFH8uGrOzvtpvViVtkvWKV+96zj9TvY2cLjsbM3eQ3FQFwoJzwDy1FHiPAijgpwKewnkSIn7/2OsyevZ6OcfcZX6WXSzOrYu//O/fe6cFz5Vb9sciH34nklVBvQPwZBxK9zp2zga/i5Pz+6hAGHAOmPtYoJwaBVCgkgK+wHmyUfzhA12l57ilcup0WaUL84HZCui0gP/q9Y5cXrVyb3nSH7+s28tsEVzmTqeTZFXQ4OD8nsajXZYMu0VRgaDhHDCPogtIEwqYrYCvcJ6EsM/d2lZ0hb7t+46ZrSa5SyigUwL+932vpe0tT/qiw8gFKCaSuIFNasKr/5D+sRtbSknpGbwXUwWChHPAPKYmIdkoEHMFAoHzJHDomOM7Gg1PTMPIiJeYO8ch+Rt2HpbqLwzJCuXqhw9UbSYHj510OIt9H1WcvSZZX3j1D9QHT1ttn9EMyXFQcA6YG2IYsoECMVQgUDhPhY3v3dtFmr8xV/YcOhFD2UhyqgL7jpxILPDywWubuQJz9cHt/xqWegpr3+uQL+3JTa0bvPcPypPa6g0RWzwVCALOAfN4eoNUo4ApCoQG58lGUsck12g4VPQhrTNl50zR1Yp8HC4+lRiu9NEbWuQMl/rAMJuIzvGerAu8+g/lSY11VVqdc58tfgr4DeeAefw8QYpRwDQFQofzZGOprzo2/dGiCTJ75Q5h2Et0rbb74HFp0HWKfKJaq7zA8ooa7bgR+0/xsipocECeGmv0fe/xy6JbyUhZWgX8hHPAPK3sfIECKBCgApGC89TG81u1OknDntNlyYa9AcrBpTIpsHrrAflbq7ckl+ErqWWafP9Ux0mZLmPNd3oD+vW7OuR1g5PUktf84V5BjC1+CvgF5zc0eIOZxeJnB1KMAkYqEFk4T4UOXdb8yY4TZdaKHcydHrANdQEhHXKkq8C+v0r+IJRantxwvVeIqkOqLrz3xl9uddQH1HUaS7Z4KeAHnAPm8fIAqUUB0xWIBZynNra63LsuwT1i5lopLjltevmElr9VWw/I892mypdqFnkKkD99uHtoeYrahV9hVVBPvZUaJ9y+7zRqYdRsQXqyKOA1nAPmWQTnaxRAgcAViB2cpza6+jBplaf6S4tBcxPDX1iRtDD/7NhfLG2HzZP/qd3TN2hqPeTdwhJp0NGZVk5N9Tnv/etR/+PjfQ1ylB1Z8RLOAXM7PEMuUSBuCsQazitCy8ertUwMv2g2cI4sXLeHITAu3Lhp9xEpGj5f/vB4X8+GrVQsl+TfOoyAqTPfKxR9qNarYUJJfXnNHeK1DLbuPeqiprBLVBTwCs4B86iUKOlAARSoqIBRcF4RTj5TvY1Ue26QvNx3pkxcuFmOlTB12qHikzJ0+hqp03qcfLNWJ996yCuWhf6tD/l2HbuYf2MXS9024wLV3qk8+Ow9mL+/6Rg8GaN6qbM9FepdwLwiCvA3CqBAlBQwGs4rBvBLqjSRHz3YTe5tMlpaDp4rkxZulv1HSqJUHp6nZcueozJg8kp5rOht+UXtHnLp1U0Kbtgq6srfuffYohma4YFwPACYe97McEIUQAGPFbAKztM1hvqQ6bX1ByYAVh8QU2jfvu+Yx1L7ezpdwGnNtoMyaOoqea7bVNFp4r5wW+E9TOk04/NwwALd0R0P5O8BwNzfdoizowAKeKMAcH5V+kD/4eubyw8e6JoAXZ0hRmfX6DtxRWKIzLJN+0THDZedDWZVU73OzgPFMmfVzsSwFH1wU6eXvLHBIPnOPZ1Fx3PTaKcvS7RBGzxgtwcAc2+ggbOgAAr4rwBwngHO3Tbmn6/RVr53bxe5sk5PueaZAXLri0PlnsajE+O6FaC1Jzv5r+nAOaIPrOq/xv1nX/hcV9zUceAPNR8rdzYakYDuXz/SOwHen67eGvD2oJzclif72Q1xlL955Q+Y+w8TXAEFUMA7BYBzoA/wxwN4AA8Y6wHA3Dtg4EwogALBKACc0ygb2yjTA2peDyhlSpnm4gHAPBiQ4CoogALeKgCcA+fAOR7AA3jAOA8A5t7CAmdDARQITgHgnEbZuEY5l5419qUnFg+Y5wHAPDiI4EoogALeKwCcA+fAOR7AA3jAGA8A5t6DAmdEARQIVgHgnEbZmEaZHlDzekApU8o0Fw8A5sECBFdDARTwRwHgHDgHzvEAHsADsfcAYO4PJHBWFECB4BUAzmmUY98o59Kzxr70xOIB8zwAmAcPD1wRBVDAPwWAc+AcOMcDeAAPxNYDgLl/gMCZUQAFwlEAOKdRjm2jTA+oeT2glCllmosHAPNwwIGrogAK+KsAcA6cA+d4AA/ggdh5ADD3Fw44OwqgQHgKAOc0yrFrlHPpWWNfemLxgHkeAMzDgwaujAIo4L8CwDlwDpzjATyAB2LjAcDcfzDgCiiAAuEqAJzTKMemUaYH1LweUMqUMs3FA4B5uMDA1VEABYJRADgHzoFzPIAH8EDkPQCYBwMFXAUFUCB8BYBzGuXIN8q59KyxLz2xeMA8DwDm4cMCKUABFAhOAeAcOAfO8QAewAOR9QBgHhwQcCUUQIFoKACc0yhHtlGmB9S8HlDKlDLNxQM3Nhgkp06XRaO1JBUogAIoEJACwDlwDpzjATyAByLnAcA8IArgMiiAApFTADinUY5co5xLzxr70hOLB8zzgG1gfvDYSVmyYa9MWrhZxsxZL+PmbZRpS7bKis37paT0TOTAgQShAAr4qwBwDpwD53gAD+CByHjAdDA/f15k1ood0qjPDLnmmQHymeptsmr/tbs6SM2Xhku7YfNl3Y5D/lIBZ0cBFAhdAeCcRjlrw0DPpHk9k5QpZRpFD5gM5tv2HZPnuk0VBe1Ctf+f2j2laPh8KS45HTpEkAAUQAHvFQDOgfOCG4pCGxqOBxTxAB4wFcw37josd786Si67pqnnsfZTN7eWF3tOl2Mlpd7TAWdEARQITQHgHDj3vMEAtAAtPIAHcvGAiWB+srRMGnSdIh+8tlnWGPvlmkWJIS73NRktdVqPS/yr9coo+U29PqIAnk3LL9zWTnqNXxYaSHBhFEABbxUAzoHzrIE/W8PA94AYHsAD+XrARDBfsHa3fP/+19LG1vdXaSxXPdVfur+5RLbuPZqxVdcx6vqwaJMBs+UHD3RNe07V/+YXBsvewycyno8vUQAFoq8AcA6cZwz2+Ta4HAes4QE8kM0DJoJ5v4kr0vaWX3p1E7m/6RhZu/1g3nSgM7r88fG+aeP2V+9sL4vX7837/ByIAigQvgLAOXCeNshna1j5HvjCA3ggXw+YCOav9psl2ivupIk+xLlw3R7PWv2BU1aKDmdxutZHb2ghby/Y7Nm1OBEKoECwCgDnwLljcHcK+Hzm3OiiC7rggdw8oGBeeuZssK2dz1drOXhu2liq48hPl3mf3/1HSqRq/YGO1/3w9c1l8qItPuea06MACvihAHAOnDsGdmAjN9hAL/TCA+48YCKY68OYTuV/SZUm0nn0Ij/a7gvnLDt7Tu5tMtrx+h+7saUs37Tvwr68QQEUiIcCwDlw7hjUnRoaPnMHH+iETnjA2QMmgvm7q3c5jjHX4S36wGfFbfbKHYmVQHXseLZ/em4dn3723PmKpyn397nz5xNj2Z189+27O8vh4lPl9ucPFECBaCsAnAPnwDkewAN4wHcPmAjmJaVn5Dv3dHbU7qU+Mxxb//++L/0sLk5wrZ996Lrm8vvHXpe2w+bJgaMljuc9U3YuMR2j0zm0Z50NBVAgPgoA5zTKjg2LU4DnM+feQHRBFzyQ2QMmgrk28892mewYP695ZoBob7bTlg+cp/pL5z3vMHKB06kT0yh+8Xbnh0TfnLvB8Rg+RAEUiJ4CwDlw7ti4pDYGvM8MHuiDPnggvQdMBfPNu4/IB6pWXmBIx3nv2F+ctrUvFM6TXnus6G3Ha4ycuc4xpuu869mGxziekA9RAAUCVwA4B84dA3myAeA1PXSgDdrggcweMBXMtaV+sPlYx9ipiwVl2irC+V9bvpmYYlGnWUz9N3P5dnljyiqp126C6AqiTl7TOdWdtuuedZ7Bpc+E5U678xkKoEDEFADOgXPHoO/UEPBZZhBBH/TBAxc9YDKY7ztywrHX/LO3tJETp85kbOYrwnnDntMz7q9fao930fD5ctk1TcvF66/d1cFx+MzcVTvL7Zf05c/+2j3rtdgBBVAgfAWAc+DcMYgngzmvF2EDLdACD7jzgMlgrs12ujnNX3QB2vnAeRIV2g2bXyleaw+70/aHNKuILli722l3PkMBFIiQAsA5cF4p2AMg7gAEndAJD1T2gOlgru33lXV6OsbN9TsOZW3eC4FzXcio4jj3rmMXO15Tp3F08mf9LpMd9+dDFECB6CgAnAPnjgHcKajzWWUQQRM0wQMXPWADmOuqnLq4UMVy//nferhq2QuBc72ADmVJvfbLfWc6XvdQ8Um59OrK6fzJwwxtcRSMD1EgQgoA58B5uUCfGvR5fxE60AIt8EBmD9gA5tp2D52+xjFmPt1pkqumvRA4P3W6rNK4844jF6a97v/UrtzDr4sj6Q0GGwqgQHQVAM6Bc8eGBhDJDCLogz544KIHbAFzbcp1cSGnsh8yfbWrlr4QONf5zSte+51l29Je99GiCZX21+OnLdma9hi+QAEUCF8B4Bw4dwzeFRsA/r4IImiBFnjgogdsAnNtsu/69wjHmLl04z5XLXo+cK7rGfWduEI+eG35edX/688dHWdrSSak/YjKMK/e7TQqfW978lheUQAFwlMAOAfOHRsa4OMifKAFWuABZw/YBubaVP/piX6OMfPI8VOuWvKKcJ5unvNJCzfL4Gmr5Z89pomOE3fyoC44lGkbPXu943Ev9X4n02F8hwIoELICwDlw7hi8nRoCPnMGFHRBFxs9YCOYa3v9i9o9KsVMHcftdvXNinCer3fSPQiayhQ6fMXp/G7Hx6eei/cogALBKQCcA+eOwdspoPMZEIoH8IB6wFYw16b5Bw90rRQzL6/a1HWrXSic60JHA6esdHW9uWkWI6rbZpyr49kJBVAgHAWAc+C8UkMDgAFgeAAPpPNAtecGSemZs+G0WBG46i/r9nKMmWfKzrlKXT5wrj3zurpn8zfmyrGSUlfX0Z0mL9rimFbmOnctITuiQCgKAOfAuWPwTtcw8znQhgfs9YDtYK6tdJWn+jvGzIPHTrpqxCvCuWqqCwkl/3UZs0g+Ua1VuWvkO0Z8+Iy15c6TrLv/ft15bnRXGWAnFEAB3xUAzoFzx+CdDOK82gtilD1ln+oBwPy99vi+JqMdY+aCtbtdNdgV4bxhz+mVjisaPr/cNT5yfQvZuvdopf2yfdBy8Nxy50mWZ6/xy7IdyvcogAIhKgCcA+eOwTsZxHkF0PAAHgDML7bSTQfOcYyZ/SetuLhThndu4FwfLq24gJBO4ZjrVqf1OMe0zl21M9dTsT8KoECACgDnwLlj8AbIADI8gAfUA4B5+Rb5rXc3OsZMXfDHzeYGzvU889bskkuqNCl3LZ1eMZftxw91K3e8ludl1zTNadx6LtdjXxRAAW8UAM6B80rBGygDyvAAHgDMnRvZ4pLTorOzVKwjP3ygq/MBFT51C+d62N/bjC93ne/f/5qcLnP3MO6+IydEHyStmM7f1utTIUX8iQIoEDUFgHPgvFLwrhjM+btyA4cmaGK6B+gxT99cp1uIaNXWA+kP+s83ucD54eJTckWNduVidLOBc7JeQ3foPHpRueOSfn2pzwxXx7MTCqBAeAoA58C5YwBPBnJegVA8YJ8HAPPMjfJrYxY7xs3nu03NfKCI5ALnerK+E1eUu9ZHb2gh2/cdy3od7SGvWHe1J33t9oNZj2UHFECBcBUAzoHzSgG8YkDnb/vgjDK3t8wB8+yN8tETpaIzqFSsJ5+u3lqOnzyd8QS5wvn58yJXPz2g3LXubJT54dB3V+8qt38ynX94vG/GtPElCqBANBQAzoFzxyCeDOa82gtplL19ZQ+Yu2+Yn+gw0TF2NhkwO+NJcoVzPZkOl/lA1Wblrjcxw8Oh19YfWG7fZF0eMXNtxrTxJQqgQDQUAM6Bc8cgngzmvNoHaJS5nWUOmOfWKO8+eFw+fH3zSvHzYze2lJ0HitOeLB8415PpkJnUuqnncXo4dNSsdeX2Sx6jUzNqLzwbCqBA9BUAzoFzx0CeDOi82glqlLtd5Q6Y59dYN+ozwzF+Xv+PN9KCcL5wXlJ6Rr7xl47lrqdzrqduB46WyJdrFpXbR+uyjjWftmRr6q68RwEUiLACwDlwXimQA2Z2gRnlbXd5A+b5t9Dac/2jByvPJa51qnF/5+Et+cK5pnLMnPXl4rU+HLrtPw+Hlp09Jzc0eKPc98m6rYsRsaEACsRHAeAcOHcM5smgzqvd4Eb5m13+gHnhjfWSDXsdHw7V3mqnVUNnr9whuphQ8t/GXYdzSsQ7y7ZdOFbPsXXv0UQvfd02zquB6tzox0pKc7oGO6MACoSrAHAOnAPneAAPWOgBwNy7xrdfhekOkze1l17dRPpMWO7dhRzOdPbceand6i3HOvyJaq1kzTamTnSQjY9QINIKAOcWNsrJhoNXs3tFKV/KN50HAHPv22VdHMhJb+1Bf6H7NFGI9no7eOxk2qEs+rAq48y9VpzzoUAwCgDnwLljg+LUyPAZsIcH4u8BwNy/xvWVfrPSxtPfPfq6rNi837OLj5y5Tr56Z3vH6+lY9AnzN3l2LU6EAigQrALAOXDuGNyBsPhDGGVIGVb0AGDufwPbe/yySnOSJ8vh8qpNRR/O3Lz7SN4JmbVih6Sbx1yv86WaRbJw3Z68z8+BKIAC4SsAnAPnwDkewAMWeOCm5wdL6Zmz4bc6FqRgzqqd8q1andLWKx2LrtMt6nj0XQePZ1Vk5Zb90mrwu/Kzv3ZPe04Fc4V2N+fLekF2QAEUCFUB4NyCRjnZa8MrPal4wE4PAObBt7PFJaflkbbjRUE8W737rz93lOueHSgPNR8ruvJovXYT5L4mo+WPj/eVz97SJuvxn7q5tbQfsSDt3OrB554rogAKFKIAcA6cZw382RoWvrcT+Cj3eJQ7YF5IE1n4scs37ZMbGwxKLATkdZ350HXN5dGiCbL/SEnhCeUMKIACkVEAOAfOgXM8gAcM9QBgHpm2VhTSH27xpuj0hoVC+tfv6iANe06XvYdPRCeDpAQFUMAzBd6n4+L4hwZ4AA/gAbM8UOuVUXKm7JxnjQUn8kaBU6fLZMTMtYkhLz98oKsrUNcHSXW2F52SUR8IPe/9rIzeZI6zoAAKeKLA/wcRaUlxsUAo1AAAAABJRU5ErkJggg==;" vertex="1" parent="fuH1si9u7OqA3oqqeqV9-8">
          <mxGeometry y="16.68889427740058" width="60.53285645004849" height="29.979995150339473" as="geometry" />
        </mxCell>
        <mxCell id="fuH1si9u7OqA3oqqeqV9-3" value="" style="shape=image;html=1;verticalAlign=top;verticalLabelPosition=bottom;labelBackgroundColor=#ffffff;imageAspect=0;aspect=fixed;image=https://cdn1.iconfinder.com/data/icons/ensign-11/512/20_Ensign_Flag_Nation_Austria-128.png" vertex="1" parent="fuH1si9u7OqA3oqqeqV9-8">
          <mxGeometry x="55.17643223861136" width="25.90446168768186" height="25.90446168768186" as="geometry" />
        </mxCell>
        <mxCell id="fuH1si9u7OqA3oqqeqV9-9" value="" style="group" vertex="1" connectable="0" parent="RU4EYPsR_D7hi8bJ4MLe-1">
          <mxGeometry x="-403" y="-10" width="90" height="44.98" as="geometry" />
        </mxCell>
        <mxCell id="fuH1si9u7OqA3oqqeqV9-1" value="" style="shape=image;verticalLabelPosition=bottom;labelBackgroundColor=#ffffff;verticalAlign=top;aspect=fixed;imageAspect=0;image=data:image/png,iVBORw0KGgoAAAANSUhEUgAAAucAAAFwCAYAAAAbjNWuAAAgAElEQVR4Ae2dB7xUxdn/848lvRfT86a/6eU1edPzimJDURQ1wa4JELGLQY1EotLrpUpHmvSqgHSp0nvvvbcLFy5c4Pl/njULe+89u3t299SZ7/l8YPfunjLzm9888z2zc2be9/+uaiz8QwM8gAfwAB7AA3gAD+ABPBCuB66s01PeRyGEWwjoj/54AA/gATyAB/AAHsADv6jdQw4eOwmcUxmoDHgAD+ABPIAH8AAewANheiAJ5iICnIdZEFybQIAH8AAewAN4AA/gAbs9kArmwDnj7XneAA/gATyAB/AAHsADeCAkD1QEc+A8pILgDtnuO2TKn/LHA3gAD+ABPIAHFMwPFZ9UHi+38UAogM7dMh7AA3gAD+ABPIAH8ECAHkgH5krpwHmABcFdMnfJeAAP4AE8gAfwAB6w2wOZwBw4B8y5S8YDeAAP4AE8gAfwAB4IyAPZwBw4D6gguEO2+w6Z8qf88QAewAN4AA/gATdgDpwD59wp4wE8gAfwAB7AA3gAD/jsAbdgDpz7XBDcJXOXjAfwAB7AA3gAD+ABuz2QC5gD58A5d8p4AA/gATyAB/AAHsADPnkgVzAHzn0qCO6Q7b5DpvwpfzyAB/AAHsADeCAfMAfOgXPulPEAHsADeAAP4AE8gAc89kC+YA6ce1wQ3CVzl4wH8AAewAN4AA/gAbs9UAiYA+fAOXfKeAAP4AE8gAfwAB7AAx55oFAwB849KgjukO2+Q6b8KX88gAfwAB7AA3jACzAHzoFz7pTxAB7AA3gAD+ABPIAHCvSAV2AOnBdYENwlc5eMB/AAHsADeAAP4AG7PeAlmAPnwDl3yngAD+ABPIAH8AAewAN5esBrMAfO8ywI7pDtvkOm/Cl/PIAH8AAewAN4wA8wB86Bc+6U8QAewAN4AA/gATyAB3L0wP/U7imHik8qS3u+vY87P+788AAewAN4AA/gATyAB/CAOw/4CeZK+sB5jndKGNedcdEJnfAAHsADeAAP4AHTPOA3mAPngDk/Y+EBPIAH8AAewAN4AA+48EAQYA6cuygI0+74yA+9GHgAD+ABPIAH8AAeyM0DQYE5cA6cc6eMB/AAHsADeAAP4AE8kMEDQYI5cJ6hILijzO2OEr3QCw/gATyAB/AAHjDNA0GDOXAOnHOnjAfwAB7AA3gAD+ABPODggTDAHDh3KAjT7vjID70YeAAP4AE8gAfwAB7IzQNhgTlwDpxzp4wH8AAewAN4AA/gATyQ4oEwwRw4TykI7ihzu6NEL/TCA3gAD+ABPIAHTPNA2GAOnAPn3CnjATyAB/AAHsADeAAPXNVYogDmwDmVkcqIB/AAHsADeAAP4AHrPRAVMAfOqYzWV0bTfo4jP/zEjAfwAB7AA3ggNw9ECcyBc+AcOMcDeAAP4AE8gAfwgLUeiBqYA+dURmsrI70KufUqoBd64QE8gAfwgGkeiCKYA+fAOXCOB/AAHsADeAAP4AHrPBBVMAfOqYzWVUbT7vrJDz1ZeAAP4AE8gAdy80CUwRw4B86BczyAB/AAHsADeAAPWOOBqIM5cE5ltKYy0quQW68CeqEXHsADeAAPmOaBOIA5cA6cA+d4AA/gATyAB/AAHjDeA3EBc+Ccymh8ZTTtrp/80JOFB/AAHsADeCA3D8QJzIFz4Bw4xwN4AA/gATyAB/CAsR6IG5gD51RGYysjvQq59SqgF3rhATyAB/CAaR6II5gD58A5cI4H8AAewAN4AA/gAeM8EFcwB86pjMZVRtPu+skPPVl4AA/gATyAB3LzQJzBHDgHzoFzPIAH8AAewAN4AA8Y44G4gzlwTmU0pjLSq5BbrwJ6oRcewAN4AA+Y5oEr6/SUQ8UnlW9jvb3PtIIhPwQbPIAH8AAewAN4AA/Y5QEF88PFp2IN5cnEA+f0ntN7jgfwAB7AA3gAD+CB2HrAJDBXQAfOqYyxrYz0itjVK0J5U954AA/gATxQ0QOmgTlwDpgD5ngAD+ABPIAH8AAeiKUHTARz4JzKGMvKWPGumb/pScEDeAAP4AE8YJcHTAVz4Bw4B87xAB7AA3gAD+ABPBArD5gM5sA5lTFWlZFeEbt6RShvyhsP4AE8gAcqesB0MAfOgXPgHA/gATyAB/AAHsADsfCADWAOnFMZY1EZK9418zc9KXgAD+ABPIAH7PKALWAOnAPnwDkewAN4AA/gATyAByLtAZvAHDinMka6MtIrYlevCOVNeeMBPIAH8EBFD9gG5sA5cA6c4wE8gAfwAB7AA3ggkh6wEcyBcypjJCtjxbtm/qYnBQ/gATyAB/CAXR6wFcyBc+AcOMcDeAAP4AE8gAfwQKQ8YDOYA+dUxkhVRnpF7OoVobwpbzyAB/AAHqjoAdvBHDj3Gc4/dF1z+WatTvL7x16X2xoOkwebj5UnO06Ul/rMkDZD50nPcUtlyPTVF/5NWrhZKv6buHDzhe9ff3u5dBq1UJoNnCPPdZsqjxZNkLtfHSVV6w+Unz7cXb5cs0gur9oU4Pa5XCsGEv6mccEDeAAP4AE8ULgHAHNFc5H3Yab8zXTZNU3lO/d0lhsbDJInOkyUjiMXyrh5G2XF5v1y8NjJ9xQO4f/9R0pk8fq9MmbOeukwckEC5P/yykj5Re0e8tEbWgDvwDsewAN4AA/gATwQKQ8A5heBETh3WTk/U72NXPPMAKnfZbL0m7hCVm7ZL2fKzl1UMibvzp8X2br3qGiPfPsRC6ReuwmJfH3ljvaRqqTcNOZ/04h2aIcH8AAewANx8gBgXh4igXMHOH9/lcbywwe6Sp3W4xIgvmXP0fKqGfpXcclpWbB2d2K4zd/bjJf/qd2TYTIO/ohTwCOtNNB4AA/gATwQZQ8A5pWhEjj/D3x9/a4OUrfNOBkxc60cOFpSWSlLPzlZWiZzVu2UdsPmyz2NR8t37+0ievMS5YpuW9q6jFkkm3YfsfLfjx/qZrUXdQidrWWfS77X7zgkC9ftKfdv/trdiWd8JszflHiuZ+CUldJ17OLE8MRX+82Sf7w2JdFBc2ejEXLdswPl14/0lm/f3ZmhgXRYWB1zvG5fAXNnuLQWzi+9uolUeaq/tBw8NzFExVkePnVS4HDxKXl7wWZ5pd8subb+QPnw9c0JViE1WJ+u3lpOnS5zKiYrPtP663VjEafzHT952opyjlomS0rPiP6iOnfVzsSzPfq8kT6krw/o6wQAX72zvWgbEycvkVY6nYL2AGCePrJZBeeXVGkif3y8b+Ihyb2HT6RXhW9yUkDhcOqSrfJiz+nym3p9aJQCBHV9ZsDmbdfB41b7DTiPrvtPl52VNdsOyqhZ66TFoLnyt1ZvyZ+e6Cd6Qx00BHE9wDtqHgDMM8cuK+D8v+97LREcd+wvzqwG33qiwNETpTJ69vrEDDY6dj9qQcGk9OgzArZv1//jDWs9BpzH0/36UL7GyJf7zpTb/zVMvnZXB2s9bFI8Ji/uboIA8+xxy1g416EW9zUZLe8s2yY6QwlbeArsPnhc+k5cITVfGi4fuZ6pHL0K4D95uHt4hRqhKw+YvNJasAHOI2TEApOy80CxDJ2+Rp7uNCnxCyRrVrgDPa/iKecJRu/f1usjx0pKC6wt5h9uHJzrQjzN35grOi6aLXoK6AOmI2euk/ubjuHn3QKHv+hCVmwiOv73E9VaWQnowLm5NUDL9q13NyZgXW/EeRA/GHgE0v3TGTB3H6+MgXOdtaH3+GWi4/zY4qGAzhOv863rtI1fqllkJVzl2xBor9q+Izw3kXT6wy3etNI/wHnSAea/7jl0Qrq/uURuen6w6OrT+cYOjvMPPtE2vbaAeW4xKvZwrsvW69g9hq7kVvBR2/vc+fMye+UOebbLZNFpLQly6YOcalOj4dCoFWGo6Zm2ZKuVngHOQ7VdaBfXctchMLryM7NlZY6VtCXh6wOY5x4qYgvn3/hLx8SctGfPMaA892KP/hE6J/GTHSfK525tayV0ZWtQxsxZH/1CDDCFenP+zVqdrPMKcB6gySJ6KR0qOGT6aqn+whC57Jqm1tWBbLGS78OFc8A8v8AROzi/oka7xE97ZWfP5ZdjjoqVAjpNozY8+lMu8wa/F2S/eHs7wf+Vbdyw53TrwAQ4r+wDmz/Zvu9YYkrbL9zWzrq6AISHC+FO+gPm+Uej2MC59gg83v5tOXKcBz3zL+54H6kNT6M+M6yfdkyH/rBVVmDdjkPWAQlwXtkHfCJSeuas9J+0IjHrixM08Vn0QNa0MgHMC4tEsYDzPzzeV5Zt2ldYTjnaGAV0KJPOYqA/4+rCUqYFtWz5WbX1gDFl6XVGtEHIpp9J3wPnXjvIvPPpdMLXPTvQqnphUh2PY14A88LjSKThXOfELho+X/RhQTYUcFJg467D8kznyfKpm+1Yde/Xj/R2koHP/qNA59GLrIIQ4Bzru1Vg3ppdiQ6NOMIeaY5PTz9g7rZGZt4vsnD++8del/U7DmVOPd+iwH8UUEhRMPvevV2MhrPXxiymzDMocKj4pHzw2mZGeyAVVIDzDGbgK0cFZi7fLnqTn+oj3scHfqNcVoC5Y5XL68PIwbmOLW86cA695XkVJwfpryzD3lkjv6rby7jGR6dM45mL7B7XlWij3IB5mTbgPLsf2KOyAvpj9KCpq0RnPfPSj5zLXsgHzCvXs0I+iRSc6+qeOj6ODQW8UGDK4i3ypyf6GdP43P3qKC9kMf4cuu6BLZAAnBtvZ18zqKvrNug6hSkYC1yt2ZZ4ky6fgLn31TQycP5/T/aT3QePe59Dzmi1Avc0Hm0MqE1etMXqsnSbeV159vM17JgfHzh36wr2y6SATrjAUBd7e73TQbebzwHzTDUr/+8iAec6RSKLCeVfiBzprICOrXx/FTMC7n/9uSNDvZyL2fFTjSluGpa47wOcOxY/H+ahgLbB/359Jr3o9KK7jp2AeR4VzeUhocK5LirTbOAcl0llNxRwr4COPf+lQePOX+r9jvvMs6fMX7vbdQMTZ0AHzjG71wrorC7fvruzFfUnznU/7LQD5l7XvPLnCw3OP3pDCxk1a1351PAXCnikgElT6mnv/+bdRzxSxp7T/PCBrsYDBnBuj5+DzOnRE6Vy64tDja8/YQNuXK8PmPtfG0OBcwXzqUu2+p87rmClAjqd3uduNWfMcZWn+ltZjoVmWmd9imvj5zbdwHmhLuH4dArojC76y7YpQwPd1in2yzwUFDBPV2O8/TxwOP/kTa1kzqqd3uaCs6FAigJ/bzPeKCjrO3FFSu5461aBHfuLjV9BFjh36wb2y1cBnXJRFwQEWjNDqw36AOb51qLcjwsUznUVx3dX78o9lRyBAi4VWLx+r+izDKYEyk9UayU63RlbfgpUrW/2suXAeX6+4KjcFNBx6J+p3saYuGpK+xBkPgDz3OpMoXsHBueXV23KUJZCS4vjMyqgP8OaNK+5Bt7ard7KmGe+zKzA628vNxoogPPM5c+33imgHR9X1GhndH0KEnbjdC3A3Lt65PZMgcG5PqDHhgJ+KqDDP+IU8NykdfbKHX5KZvy5T5w6Ix+7saVxvkh6Bzg33sKRyuCabQdFFwtM+o9X84e6AObhVMFA4Lxeuwnh5I6rWqNAcclp4xqN793bRfTXALbCFLi/6RhjYQI4L8wbHJ27Aut2HKIH3ZK50H/36OtyrKQ0d5NwRMEK+A7nf3i8r5wuO1twQjkBCmRSoH6XycYBGGsAZCpx99/pyqqm9vAB5+59wJ7eKaDrCHy8mrm/SJkaL3LJF2DuXX3J50y+wvnX7uogB46W5JMujkEB1wqs3npA9JmGXAJP1PfVh1p3HTzuWgN2TK+ALkilsSjqZZ5P+oDz9OXON/4qoDe9psXdfOqgiccA5v7WHTdn9w3OL6nSRKYs3uImDeyDAgUpcEODN4wDr5ueH1yQJhxcXoEXuk8zziMKBcB5+XLmr2AV6DhyoZH1ykTgdpsnwDzYOpTuar7B+bNdJqe7Jp+jgGcKDJ+x1sjGYdg7azzTiBOJ6DhZt41TnPYDznF32ArUaT3OyLoVpzjgVVoB87Br08Xr+wLnP324u5SeYZz5RZl554cCJ0vL5Bt/6Whcw6Crm/KchveO+d+/9zbOK8C59z7hjLkpoLHq14+YV7e8At64nAcwz833fu/tOZx/8NpmsmzTPr/TzflRQF7qM8M42NJA/mTHiZSuDwp0GLnAOL8A5z4YhVPmrMCm3UdEF0yLC4iSzvJTQALmOVve9wM8h/MmA2b7nmgugAJb9hyVD1/f3MjGYMmGvRSwDwrow+kfqNrMKM8A5z4YhVPmpUCv8cuMqlu2ADxgnpfdfT/IUzj/7r1dGM7ie5FxAVXgtobDjGwIflG7BwXsowI1Gg41yjfAuY9m4dQ5K3D7v8yMy6aCOmCes8UDO8BTOH/r3Y2BJZwL2avApIWbjQKs1MDffsQCews2gJyb9gAxcB6AabiEawX2HDohn7yJ4S2pMT2q7wFz17YOZUfP4PyWfw4JJQNc1C4FzpSdk+/f/5qRcK5DLlgXwF8/68Nr+sBtVBvMXNMFnPvrF86euwLths03pn7lWh/jsr+Cua6qzRZdBTyB8w9d11z0gRA2FPBbgZaD5xob+O9oNNxv+Ti/iNRrN8EYDwHnWDpqCpw9d150eF5cQNW2dALmUasxzunxBM7/8doU57PzKQp4qMDug8eNnhGAYWEemiXDqd5dvcsYcADOMxQ0X4WmwNQlW42pYybBO2AeWpXI+cIFw7n2mis0saGA3wrc22S0sQH/yzWLRHuc2IJRwJShUcB5MH7hKrkrcG39gcbG6zgCO2Ceu4fDPKJgOGdO5jCLz55rz165Q95fpfzcrHEMkOnS/Hy3qfYUZgRy+mq/WUaAA3AeATORBEcFFq7bY3TMThfLo/g5YO5o0Uh/WBCc6wNsO/YXRzqDJC7+CtgwhnHt9oPxL6gY5WDbvmNySZUmsQd04DxGprMwqaZOeRtFAE+XJsA8nhWvIDiv03pcPHNNqmOlQOfRi2IPUekCp37++8dej1V5mJLYKk/1j72vgHNT3GhmPvQXz0yxj+/8/TUYMI9vvcobzrXXaeOuw/HNOSmPhQIHj52Uz97SxugA3/3NJbEoC9MS2duAFQ2Bc9NcaV5+fluvj9HxO6o3GIB5vOtS3nBetf7AeOec1MdCgb+3GW90YP/oDS3kWElpLMrCtEQq2H7sxpax9hdwbporzcvP0OlrYl3HogrfmdIFmMe/HuUN5/0nrYh/7slBpBVYvH6vXHp1/McFZwqi9zcdE+kyMD1xcZ8BCDg33aHxz58+M/SVO9oD6Ff5O4Ql2c4A5vGvM5qDvOBcl+ctKT1jhgIh5EJXKdTpJ5dv2ic6H6z2LAyZvloGTV0lXcculn4TVyT+Hj17vehS9XNX7ZTVWw/IzgPFYktjfP68JMZiJwOOqa/TlmwNwYFcMqnAxIWbYw0NtsSDZHnxGk8FdDYqU2N4lPIFmMezfjilOi8450FQJykrf6Y9Biu37Bcd2/pY0dty3bMD5Vu1OhXcG6zj/a+o0U5+/FA3ueaZAXJP49HyVMdJ0mLQ3ATUa49z3IdK6A1KlIKeH2lRL+hNCFt4CsS9Vw84D887XNm9Amu2HTQ+nvvRRuRyTsDcvR/jsGdecD5n1c445C2UNB4qPpmA8bv+PUI+dXPrUAPS52u0FX0Y56HmY6XjyIWJHviTpWWh6JLLRYtLTsuXahaFql0uQTHffV/uOzMXWdjXJwUadJ0SW68B5z6ZgtN6rgAPhvo3rAUw99yuoZ8wZzjXsWNslRXQ4Sd3NhohH7y2WaQb+suuaSo/+2t3ebjFm9LtzSWyafeRypkJ+ZNnu0yOtIb5wnjqcfrrx9a9R0NWmsurAvrrVmrZxOm9jXD+3Xu7FFxeGqc/Xb114p+2aT95uLv86Yl+cuuLQ0V/GdZFqvpOXCEzlm+X/UdKqCgeKNB22LyCyy1OdTOotALmHpgzgqfIGc4fbD42gtkIL0nj522S//1771gHnW/f3VnqthmXGPuuPf9hbvrzpy5uFVRgC+s6zHYUpssqX/vKOj1j6Tng3L/eyNTYoL/kXf+PN+SF7tNEY76NuleuNbl9smXP0VjWsVQfRO09YJ6bB+O0d85wPmDyyjjlz7e0bt93LNHLErXKWmh6tEf3l3V7ySv9Zsm6HYd80y/diXVcfqF5iMPx1KN0Dgjn86Lh82PpOxsh0Yue80JjhP4CqcM0mgyYzXofOVTZn/+tRyzrWaF+8eN4wDwH48Vw15zg/P1VGsvewydimE1vk6w9J6YvjJMMJjoERn/iXR8AqI+cuc6KwK3PIsRh7L+3tSbaZ9t35IRcXrVp7PwHnAfTc56Mh+le9ZeXDiMX0KOepZo36jMjdnUsXZmH+TlgnsVoBnydE5zrXa/tW89xS0V7l8OsmGFdW8u/cf/Zoj9Per0prH6zVicrdNWFldiip0D1F4bEzn/AeTTgPBmTdZphfWZGp71lq6zA3FU7Y1fHkmUbldffP/a66KQJbGYrkBOca9CxedOhCLaCeWpgUg10/OWwd9bImbJznljCph6VeWt2eaIZJ/FWgTiuZAicRwvOk3FSV/7VmMZ6IOXraNnZc/LxavFelTdZxmG8Aubl/WTyXznBuTZetm66YNBHrm/BXX+FVc6+cFs7ea7bVNmw83De1tCe+A9f39wKbX/0YLe8deJAfxUoPXM2MXtHGI1uvtcEzqMJ58ny/Oqd7WXcvI3+GjdmZ7+xwSArYn3SA169AuYxM3qByc0JzqM47V6B+Xd1uC4U88fH+xJQKoB5xaCj4y51hdNcx1Pf1nCYNdq2GvyuK8+xUzgK6KxFFX0d5b+B82jDuXpHn9V6suNE0Zs/NpFmA+fEqo5Fof4D5vbVHNdw/olqraxdzXDMnPUEkyxgnhrAtDddZ3s5eCz7tIxxXz49Nd/Z3usDhzxQHe0gO3vljljVdeA8+nCejAu/qddHwp6qNgq1b9aKeNWxZPmF9QqYR8G1wafBNZxrr6it2y3/jN+DYmEFktTr6jCgR4smpJ1qTMer/+CBrrGCodT85fpefcQWbQX0V7IoTNXn1lvAeXzgXMv0xw91k90Hj0e7EvicuhOnzsilV9s5qYLbep3cDzD32YwRPr1rONfl6G3c9AGWj93IAyzJYJHPqz5AWvOl4TJn1c5yFtIhHvmcL67H6FSRbNFX4OW+M2PjS+A8XnCusUtv/tz8qhj9mpJ/CvXZm7jG8aDSDZjn7y8TjnQN5/rQn42brlgZVGW04To6P+uImWsTU43pUCkb8qx5vKJGO89mtrGxHgaZZ31AWccJx8GbwHk8yqmil65+eoBox4+t231NRseiflUst6D+BsxtrRkX8+0aztsOm3fxKIvezVy+nSCSw3hzt8HLltlZkno809nuaUjjFjL+78l+saj3wHk84Vzjgj4kauvWZui8WNSvZPwO8hUwt7VWlM+3azi3dbnxSQs3E0R8gPMgg10UrrVs077yNY+/Iq1Aj7eWxqLeA+fxhXP9dUYfQLZxe3PuhljUr6DbDsDcxtrgnGfXcD5h/ibnMxj+6eRFWwgiwHlBHvhV3V6G1xLzsnespDQWc+8D5/GFcwW/nzzc3crhLet3HCoopgYNzUFcDzA3rx0pJEeu4fydZdsKuU5sj9135ERsxp8GEUC4Ru4w0GnUwtj63+aE13plVOQBAjjPvT5GLYZ1Hr3Iumqm4+11atmolUVY6QHMrasCWTPsGs7fXW3vkuM6jWRYlZbrxrvx/dB1zeVw8amsFZEdoqfA+HmbIl/vgfN4xweN7zp7yzmdw9Oy7Xv3dol8/Qqi/QXMLTO+y+y6hvPF6/e6PKV5uw2ZvpogwtCWvDzwl1dGmlchLMnR2XPn5Us1i/Iq9yAadb0GcB5/ONdy1IXubNuurT8w0nUriDoMmNvmevf5dQ3nC9budn9Ww/bUTo3f1utjfSAJIliZdo23F2w2rDbYlZ36XSZHut4D52bA+U3PD7arYonIA83GRLpu+d0WAebWWT6nDLuG84oLyOR0FQN23r7vmHzu1rZWBxO/g5Vp5//qne1Fe1/Z4qvAis37I13ngXMz4FyHv5WUnolvRckj5S90nxbpuuVnewSY52EYyw5xDefTlmy1TJrK2dVpFTWI+llpObcZja2WY8Oe0yubiE9ip8DP/9YjsnUeODcnXtg2tKXDyAWRrVd+tsOAeeyagFAS7BrO+Xn+vfLRh8QAdHMaRL+CsM5hvGHn4VAqNRf1VoEoL5gCnJsTi+q1m+CtcSN+tmHvrLEOzgHziJsyQslzDef6UCTbewrorwifvaWNdYHFL5A18bx/eqIf1cUQBfYcOiGXXRPNad+Ac3Pg/HePvm5IjXGXjSmL7VpDBDB35wv2ek8B13Bu41ysmUyyafeRxAISJoIleSq8we89flkm+xjxnT4orfMV27BVe25QJG/GgfPC62pU4t2nbm5tQ1W6kEedZCIq2vudDsD8QrHzxqUCruH8lX6zXJ7Snt1OnS6T57pNlUuqNLEmyPgdxEw4/8dubGnFFHfauE5caMdsNG9MWRXJOg6cmwPnGvt2HzxuTQNqyyqhgLk1lvY0o67h/MmOEz29sEkn03HoX7urQyQbbxNgN255eLjFmybZO21eXuw5XR5pOz7t9yZ9oTfin7ypVeTqOHBuFpzPWrHDpGqTMS+6+nbcYnuu6QXMM1qALzMo4BrOa740PMNp+EobSZ0TOapjU3MNKuyff6M/c/l2KyrEDx/oKl+uWWTN6oa1W70VOZgAzvOvp1GMcePmbbQidmgmT5aWRa4+eekJwNwaK/uSUddw/ovaPXxJgGknXb5pn+iCEl5Wcs4VnwZYl+K2YSXutdsPXvD43FU7TavGjvnRm66o1UXgPD6xwY13Bk+zZ+KFc+fPR64+uSkjN/sA5o4hlA9zUMA1nOtPumzuFVBgufrpAcYGH1pLuGUAACAASURBVDcBysZ9mgyY7d4kMd6zcf/ZF7zdoOuUGOfEfdL1puvbd3e+kO8o+Bs4NwvOe7y11L0hDdjTxOe1AHMDjBmBLLiGc22IDhWfjECS45UEfWDuV3V7RapBjwJUmJiGS69uIjv2F8fLoHmmNtXT+muBLdtLfWZEqi4D52bBeZcxi2ypSol8mrZmCGBulX19zWxOcD596TZfE2PqybXHbcTMtUD6VWY1pBVvMG5o8IapFi6Xr+37jokuspSaf13m3oZt467DlfKeqkPQ74Hz8j4MWn+vr9dv4gobqtGFPH68WstyccRrPYM8H2B+oVh544ECOcF522HzPLik3afQcav6cK32sgYZOLiW/424LeNF24+ovOz2y31nWlOx//B438jUXeDc/3odZOwcOXOdNfVIM/rp6q0jU5cKKWeNCcUlp60qOzLrrwI5wfkDzcb4mxqLzr5595HEHOmmBKdCApsJx36mehspPXPWCgdf9VT/Sg2qTQ+Mdx27uFL+w/IwcG4WnOuqmTZtH72hRWTqUr51GDC3ybHB5TUnOP/Rg92CS5klVzpWUipths6T79//WuyDVL7BzYTjHit62wrHHjhakna60C17jlqhwZHjpyQqY2WBc7PgfOnGfVbUoWQmP1C1WazbPcA8WZK8eq1ATnCu40x14QA2fxRYuG6P1Gk9TnSFSROA1aY8LFq/xx9TROysPcctTetNm4a93fXvEWl1CNL3wLk5cK4zl5SUnolYjfcvOfosVsVnV4KsO4VeCzD3zxucWSQnOFczD5luzzysYRnk6IlS0af2f8ksL5EAoGxB/Gd/7R6WVQK/bvUXhqQtkz890S/w9IR1wTfnbkirQza/ePk9cG4OnH+zVqew7BzKdc+UnYtEHcqnPgLmoVjGqovmDOf12k2wSqCwM6s/cz7TebJ85Y72sQ1k+QS/OB1jS4+xgmCm4Rz6kLMtv6yVnT0nX7itXeh1Ejg3B86rPTco7OYm0OsfLj4Vev3Jp50BzAO1ibUXyxnOv/GXjlasgBg1R+hqarNW7JAnO06Uz9doG8uglk8gjPoxOmZy/5GSqNnFl/TobDTZysOmRVSe6jgpqx7Z9Cr0e+DcHDh/pd8sX+ptVE+q05IW6v+gjwfMo+om89KVM5xrZViyYa95SsQoRzoryKhZ60THvX7k+vg/7R50gPXyerf/a1iMnFNYUmu9MiprY3rT84MLu0iMjl68fm9WPbz0mtO5gHNz4FyfObJp0/w6eTqqnwHmNrkz/LzmBecv9X4n/JSTgoQCp06Xydg5GxIPkl5RI/yf2aMaWP1Kl449tmHTG8JPVGuVtTH94LXNRGcgsmX76cPds2ril/f0vMC5GXD+xdvbWfeLtK6e7Wfd8PLcgLktET06+cwLzn/4QNfo5ICUXFBAH7B5e8FmqdtmnGiw9zI4ca7KEPClmkWiY49t2N56d6NrPw2ausoGSRJ5bDl4rmtd/KhDwHnleumHzn6fU2fpsm17Y8qqUOuO2zIFzG1zZjTymxecq6nfXb0rGjkgFY4K6Bh1/dmwUZ8Z8r17u8QiCLoNllHZr0HXKY7am/jhX1u+6dpDf355pIkSOOZp18Hjoa72C5ybAefLNtk1v7lWphaDwr2xddOOKJjbWMccgx0fBqpA3nBeu9VbgSaUixWmgI6PbdhzOqB+lXeN+eqtBworlJgcffbcecllyNTHq7W0ZrVULcLr//GG6xsXN0CQyz42gsN3Dets+L8n7ZmCNDXkPdFhYmj1xk0dA8xTS4v3QSuQN5zr+FMbG4agC8iP6+mCOc92mSxfv6tDpIOjmwAa1j6/rdfHj6KJ5DnfWbYtZ5/oMBhbtgGTV+asj1e+tTEGmwbn+syQjdttDYeFVm+y1T/A3EZHRivPecO5mrvdsPnRyg2pyUkBXaFt5vLt8mjRBPnsLW0iGyizBdIwvu86dnFOWsd553ymDPybRb+s6aqObh6W9cOnwLl3v4T5UT7ZznljA7vmNk+Ng1fW6RnJNgcwTy0l3oelQEFw/tU724s+hMgWfwVOl51NzPpyZ6MRcnnVppEMmtkauqC+//D1zeXI8VPxL3SXOdCVC3PV9nO3trXmYVmV8eEW7sfk56plpv2B8/jCuc5stG7HIZe10KzdtGMorBvaTPUJMDfLZ3HOTUFwribvP2lFnPNP2h0U0FUeddVLXZY+UyCz9bt7m4x2UM3Mj3QIVL7lrMNhbNmmL8196E++uqYeB5zHF85tWVnYKQbs2F+cd1xJ9b+X7wFzp5Lis7AUKBjOdSYQes/DKj7/r6szvug0Xyx2dBECpize4r/wEbnCiz2n592I6nAYWzbtCcznF4ZC4QI4v1gvC9UyyOPvaWzPDb5TDNApf4PUO9u1AHOnUuKzMBUoGM7V9DaNvw2zsMK89qHik9J6yLvWz/byjb90FJ2m0pbtRw92y7sRVa1s2nQ2pGwQ4PX3wHn84PzXj/SWk6VlNlWNSnktGj4/8LqSru4B5pWKhw8ioIAncP7lmkWiD0Wxma+AcumkhZvlhgZvyPurxK9hTBeg3X6u88bbsul4WLe6pNtPp/C0ZVO9gq4TwHm8YtCfnuhn1Qq66er+/U3HFBxb0sWcXD4HzNOVEJ+HrYAncK6VQXuN2OxSQBfOuK/JaGseIL2kShPZsueoNYXcbOCcghvQf/V6xxq9NKM6xWYucFDovsB5fOC82nOD6MT6TzT4/v2vBVpPnOoZYG5VaI5dZj2D8w9UbSa2LMoSu1L2OcHb9x2T+l0miy4+4xQETfns6qcH+KxktE6vP78XWnY/fqhbtDLlc2q6jFlUsGa5aA6cRx/OL726ibzcd6ZVw+EyVbPDxacC/4WpYp0CzDOVEN9FQQHP4FzNryudWTQcNwrlF6k0HDx2Up7rNlU+ekOLQAGlYuD16+9+E+2ZmUhnU/BqiMZ6i6aL02czdIo8vzxY8bzAebTh/Nt3dxabZi1y0yBNmL8psPpRsb7o34C5m1Jin7AV8BTO1fgdRi4IO09cP2QFDhwtSUD6h65rHmoQdgrM+X6mc/La9FxF+xELPCu75m/MDdmRwV6+5kvDPdMum1+B82jCuXZQ6PMpp07b/eCnU817ofu0wOpHxfoDmDuVCJ9FUQHP4VwXaFm19UAU80qaAlZg275joitFXnZN/Bc10ukkbdp0CE/Fhi3fv3Uctk3b6NnrPdMum+bAebTg/DPV28g/e0wTXSuCzVmBX9XtFVj9SK0/gLlzefBpNBXwHM61Mvz8bz2k9MzZaOaYVAWuwPJN+xJDnlIDZdzez121M3DdwrqgDk/y8oZKH6TddfB4WNkJ/Lq67sPna7QNBECA82jAuQJnp1EL5cQpZi3LVOF02JfGg6DjP2CeqVT4LooK+ALnWvG0x5QNBZIK6LMIA6eslK/c0T7wwFxoQ/CDB7oms2HFa+/xyzwvo86jF1mhXTKTT3SY6LmGTj4GzsOBc715/U29PtJkwGzZtPtIsth5zaLAkOmrA6kXqXUFMM9SKHwdSQV8g3OtHDpzARsKpCqgMNGg6xTR2X1SA2iU39s2ZvqWfw7xvGyurT8w1QbGv1+wdrfnGjrVEeA8GDjXX0Kq1h8o/3htirw5d4MUl5w23sN+ZFBXRnXysV+f/fHxvmJjHfGj7DhnsAr4CucKYDOXbw82R1wtFgqs2LxfflG7R6CBOp8GQHvIdls0JEMbMn1uJB+tMh1zedWmolOo2bT98IGunutYUWMbweO793bxRFf15Kert5YrarST/77vtcQc9ToX+YPNxyYe5tRfkKYu2Sp7DjF+3It6q0NdP3lTK0/KrmI9cPobMPei1DhHWAr4CudaYbQy6phjNhSoqEDZ2XOJRlDnAXYKrlH4rPoLQyom2+i//fzZ2aapKNUkTT1YxClbHbARzo2ugAZnbuycDYHFecDcYCNZkjXf4Vwbl//6c0erHgizxDueZXPOqp3ynXs6Bxa4swFP6vfDZ6z1LJ9xONHdr47yrRxu/9ewOEjgWRp1rni/H34Dzj0rLk7kswL6i0RqbPXrPWDuc0Fy+kAUCATOtRL+5OHuovNfs6GAkwI6y4E+ROxXwM7nvDrO9HSZPbMOaV79/NlZ5362aa549bmOtc/He26PAc6dogmfRU0B9enHbvR/BWnAPGolT3ryVSAwONfG5md/BdDzLShbjus6dnFkHhZ9quMkW2RP5HPcvI2+gqTGgJEz11mlad+JK3zVFDi3yk6xzWyPt5b6Wg80tgDmsbUHCXdQIFA41wqkc6DrPMpsKJBOAV3uOqh5otWT6f4t3WjXsxK1A/jl4v6mY9IVu5Gf6y9CfvYYAudG2sa4TP3u0dfTxtl08TeXzwFz4yxjfYYCh3OtcD96sJvoeEw2FEinwNa9R0OdzeXKOj3TJc3Iz8+eOy9fuK2drw2o1n1dQVEfBLZpe6DZGN90Bc5tclI887ps0z7f/K8xBTCPpy9IdWYFQoFzrVBfv6uDrNl2MHPq+NZqBXR8sh9zbqv/sv3rMHKBVdrPWL49qybZNHP7/eRFW6zSdsriLb5pC5xbZaVYZva+Jv7NbQ6Yx9ISJNqFAqHBuTbkn7u1rcxascNFMtnFVgV0KfQ7Gg33DW6cgPKD1zYTXWbapu3pTpMC0/jRogk2SSvnzp9PdEY4ea3Qz4Bzq6wUu8zqL+Q6n3yhPnc6HjCPnR1IcA4KhArnWuEUhHSxBzYUSKeADoOo9Yp/U/xVDPx3/XtEuqQY+/k3a3XypQGtqK3+/ZU72sv588ZK6ZixF7pP80Vf4NxRbj6MiALPdpnsi+8B84gUMMnwTYHQ4TzZeNfvMtm6sai+laqBJ9Yx0fowYdIvfr6On7fJQAXTZ2nx+r2B6JpaZu+u3pU+QQZ+o0P4UvPv1Xvg3ECzGJIlXVlVp0/1yuvJ8wDmhhiEbGRUIDJwrhVPp1qcv3Z3xgTzpb0K6PCAh1u86XmwTwZ9ff3qne1FbwRs2v7V6x1fNU3VN/n+uW5TbZI4kdf//Xtvz3UGzq2zUWwy/Hj7tz33O2Aem+InoQUqECk414ZbV9Sr03qcFJecLjBrHG6iAgrOtzUc5nnQT0LjP3tMM1G2jHnS2ZOS+Q/q9bv3dsmYJhO/1IeMvdYXODfRKfHPk862pUNWvfQ7YB5/X5AD9wpEDs6Tlflrd3WQMXPWu88Je1qjgM7i4kcv5PurNJb1Ow5Zo6NmVPObrHNBv67aesAqrXV9hw9U9RZYgHOrLBSbzN79qrfPCAHmsSl6EuqRApGF8yQo3NloBHOie1TYJp1m98Hj8uWaRZ6C5R8e72uSRK7y0vyNuZ5qmKy3bl5f7TfLVRpN2qlGw6Ge6g2cm+QOM/Iyfek20Y4ONzHAzT6AuRm+IBe5KRB5ONfK+5HrW4iOUWWoS26Fa/rec1ft9LQnspeFswb9+hHvx0G7aXB1H9sWetL6OHzGWs+gRTUEzk2PcvHKn86s9dOHu3vmccA8XuVPar1TIBZwnmzsdQq2vhNXWDcNm3fFbd6Z2g6b50lDoLMK2Hbzt/NAsac9XMl66vZVe9e27Ttmnikz5Oh02Vn57C1tPPEscJ5BaL4KRYGWg737JQ4wD6UIuWhEFIgVnCcbfe1x0xUN2VBA58uu9tyggmHnweZjrRPTjwcUk3XU7WvR8PnW6a6LMLnVJ9t+9JxbZ5/IZlinC/3w9c098TZgHtliJmEBKRBLONcGS3vddNaOZZv2BSQVl4mqArsOHi+4N/KdZduimj3f0nXNMwM8aUizAWSm7696qr9v+YvqiXWO90ya5PIdcB7VUrYrXTqc5Vd1e3nia8DcLu+QW2cFYgvnyQZMp17UFR1tm/nBuTjt/VTHiyc9kevrd+7pbN1QqUPFJ+Wya/xZVjsX/S+9uokcOFpinXG/f/9refs1VV/g3DrrRDLD/359pid+BswjWbwkKgQFYg/nyYZKIV1ndlm7/WAIMnLJsBXQ4S1VnuqfVwNh46whvQu4mUnWOa9ee45bGrZ9Ar++es4L/YDzwIuOC1ZQYOqSraI32YX6GTCvICx/Wq2AMXCeDAzaG6jLvK/YvN/qgrUx8yu37M+5kdCbuu2WPZSo3rj1RW+n9EvWv3xeb35hsHV21Qdh1Xv56JV6DHBunXUilWF9qPyKGu0K9jFgHqliJTERUMA4OE82XDomXR8UnLZkawRkJglBKfDXlm/m1FBc9+zAoJIWmeucOHXGswe3kvWtkNcPXdfcyikBr3668DH/wHlkqpV1CSk9c1Z+9+jrOcVbpzgBmFtnHTLsQgFj4Tw1CPyido/EFIz60Aqb2Qrow6E6L35q+Wd6P2jqKrMFccjd0OlrXOuTSTsvvxsyfbVDSs3+yIuhRcC52R6Jau50GOF9TUYXHEcA86iWMOkKWwEr4DwJEd++u7O0HvKu6MNwbOYq8FTHSa4ajU9Xby2nTpeZK0SanN3TuPBGNVmnvHqt9cqoNKk192OdV1/n1y9EQ+DcXH9EOWcv9pxekG/V84B5lEuYtIWtgFVwnmwEdS7Wh5qPlflrd4etP9f3QQEdz3t51ewzkdRrN8GHq0f7lLoIzqdubl1ww5qsS169fvKmVqI/k9u23Vtg7yNwbptjws/va2MWFxw/APPwy5EURFsBK+E8FSh+WbeX6GwRJaVnol1SpC4nBfSh4NRydnpv483ZhPmbsuripFUQn42btzGnMjZh54kLNxdUHsC5CS6ITx76TFhe8IPMf3qin5XPmMSnlElpFBSwHs6T0PGJaq0Ss7xMWrjZujmvo2BEr9Og4J0sW6fXHz/UzetLxuJ8dVqPy6iLk1ZBfVa71Vux0NDLRJ47f16+emf7vMsEOPeyNDhXJgX0WZVC10YAzDMpzHcocFEB4PyqxpUaxu/e20Ve6TdLdHgEW3wV+OnD3SuVbRI09dkD2zYFwS/eXvi0Z0kNvX79wm3tRNNo29ag65S0Ps2mMXBum1vCya/2mAPm4WjPVe1UADh3gPNkg6jzEOt0Z93fXCIHj/EQadyqSNHw+Y7Qo+PR9x05EbfsFJzemcu3O+qR9HsUXjWNtm06P3++2gPntrkl+Py2GTpPdGrifD2qx9FjHny5ccV4KwCcZ4Dz1GCkQHdDgzdEl4k/XHwq3qVuSer3Hj7huChRjYZDLVGgfDaf6Ty5oAY2tT749V7TaON2ZZ2eeZUNcG6jW4LJs/6I9UL3aXn5MjU+AObBlBdXMUsB4NwlnKcGmw9UbSY3PT84AeoHjpaY5QjDcqMNQ2rZ6fvRs9cblkt32flmrU6VtKioTdh/f6tWJ3eZMWyvdL/yZCsP4NwwI0QkO+qr2/81rOB4AZhHpEBJRuwUAM7zgPPUBlOHvmivV6M+M2TV1gOxM4DpCW43rPzQFh3XfKbMvsWoFq/fW3BDm+p7P98v3bjPdFtWyt/+IyWupv+sqDtwXklKPihQge37jiXatIpey/VvwLzAguBwqxUAzguE84oB6/v3vybPdZsqc1fttPLhtqjVpvU7DpWD0me72Dls4qXe75TToaJvo/T3S31mRM1GgaSn+gtDci4j4DyQorHmIqNmrZPP3tImZx9WjB+AuTWWIaM+KQCcewznqUHqc7e2TUzPOHbOBtHFX9jCUSB1qrrlm+zrlVXVderIVG9G+f1PHu4ejlFCvuqQ6atzLiPgPORCM+TyugDYkx0nFvzgp8YVwNwQU5CNUBUAzn2E81QA0lUZ7351lGgDTIMarOfv+88qjP/7997BXjgiV9uw83DO0Jfq3TDeb9x1OCLqBZcMBaRPV89t9VZiSXDlY+qVdBjZz/6aftrZXOo/YG6qS8hX0AoA5wHBeWqA+/D1zeWORsNl2Dtr5GRpWdBlbt31uo59b7npLmMWWZd3zXCLQXNjB+ctB8+1sqz+3mZ8TmUFnFtpE08yrTeDL/acntezDqntWfK9gvmJU6y07UnhcBLrFQDOQ4DzZDDT14/d2DLRo64ziGiwZPNegQVrd4veEB05bucUmL+t1ycn4Ev1Z1jvf/fo694bIQZnnLNqZ05lBZzHoFAjmMTpS7fJDx7ompPXMsUCwDyChUySYq0AcB4ynKcGPB36okuYz1uzK9amilriT50uS4z9j1q6gkjProPHRWcUSvVZHN5rmvccsm+hKJ1bWlcodltGwHkQtcica2zde1TubDTCtb/c+BAwN8cf5CQ6CgDnEYLz1ECoS8+3H7GABY88qitb9hz16EzxO83CdXvknz2mic4klOqxKL7XJcJ1VV5dldDWxb5e7jvTdTkB5/Grj2Gk+OiJUmnYc3riF0Qv6z1gHkZpck0bFADOIwrnyQD6oeuayz2NR8usFTts8CN59FkBnYv/lX6z5Df1+ng21jTp1Xxfdeq2v7wyUgZOWWktkKcWu95Iul0uHThPVY73FRUoLjmdqO+5Pmjspi4D5hXV5m8U8E4B4DzicJ4aJH/9SG8ZOn0N86d753+rz1RSekamLdmaaLxvbDBIPnlTK9c9tqm+zOW99oz//G895JG246XPhOWydvtB0aEcbOUV+L8nK69s66QzcF5eN/56T4GDx07Kq/1meTJnuZPvAHOchgL+KgCcxwjOk0Hyhw90TUA6UONv5bDt7OfOnxcdkzpl8Rbp9uaSxGJaOqvQL2r3kG/V6iSfqd5GPnJ9i7QAf3nVpompAL92Vwf50YPd5OYXBsvj7d9ODFEZOXOd6JRtzObgzlU9xy1Nq3MyDugrcO5OT1v20mlT67WbIB+9IX09TfVPPu8Bc1vcRD7DVAA4jyGcJwPqlXV6MtwlzNpj8bV15ht9YFMfONWx4Qr2bN4pcKyk1NX4YODcO83jeqYzZedkxMy1Uu25Qb4//A2Yx9UlpDtuCgDnMYZzhXQdm6qL7Bw4WhI375FeFECBDArUemVU1t5z4DyDgIZ/tXLL/sSvW1+8vV1WnyQ7dAp5BcwNNxTZi5QCwHnM4TwZbK+o0U7GztkQKXORGBRAgfwVGDdvY1boAs7z1zeOR+rDwkXD58sfHu+b1RvJtsGLV8A8jm4hzXFWADg3BM41AGsv+ku93+EBuzjXSNKOAv9R4Oy58/KlmkUZIQw4N9suZWfPJR7abtB1ivz4oW4ZveAFhDudAzA322PkLpoKAOcGwXkysOrUixrU2VAABeKtwLNdJmcEMuA83uVbMfX67MaSDXul3bD5clvDYYHMoJRsN5xeAfOKJcTfKBCMAsC5gXCuQfb+pmPoQQ+mDnEVFPBNgWWb9gHnvqkb/on3HTkhOnxJF57S2Y10lWgnSA7jM8A8fH+QAnsVAM4NhXMN5i/1mWGvs8k5ChiigM4Lnw7O6DmPRyHr7Dvz1+5OzO3/XLepcss/h4hOOZquXMP+HDCPh69IpbkKAOcGw7ku+DJ31U5z3UvOUMACBdoMnZcW4oDzcA2gM4hq77euvDt96TYZPG114oHNZzpPFl0j4Fd1e8kXbgtmNhWvgB4wD9dTXB0FVAHg3GA412D9y7q9cDoKoECMFdh7+ITojbYTfNkI5w17Tpc6rcf5+u/PL4+UOxuNuPCvav2Bov80nv7gga7y9bs6JBbcuqRKE8dycSqrOHwGmMc4UJB0oxQAzg2Hc20QJi7cbJRpyQwK2KbATc8PdoRAG+H8u/d2cdQiDvAb5TReW3+gnCwts61qkV8UiKQCwLkFcP5g87GRNB+JQgEUcKfAoKmrHIEUOG/sqEuUITiKaQPM3dVD9kKBoBQAzi2A8y/XLArKT1wHBVDABwVOnS5znMkDOAfOC4V9wNyHCsspUaBABYBzC+Bcg/eR46cKtAqHowAKhKlA7VZvVeolBs6B80LgHDAPs0ZzbRRIrwBwbgmcr91+ML0L+AYFUCDyCsxYvh04FxHGnHtzQwKYR77Kk0CLFQDOgXOL7U/WUSA+Cui0fd++u3M5QKfn3BtQLaT3OY7HAubxqfek1E4FIgHnOhdsuqnC4hj4opjmQ8Un7XQ4uUYBgxTQhcVS4wtwDpyn+sHNe8DcoIBAVoxVIHQ4/9ytbaW45LSs23EoMaesm+DCPrk1SB+o2ky0140NBVAg3gps3n1E3l/lYv0Hzi9qQbuQXQvAPN71n9Tbo0DocN5q8Lvl1J62ZKtcWadnud4hgm72oJtJox8/1K2cxvyBAigQXwX+8HjfC/EROC8sNmaKm6Z9B5jHt86TcvsUCBXOv1SzSEpKz1RSXXt5h0xfLd+s1elCI2RaoAwyP7qUNBsKoIAZCnQdu/hCXATOgXM3bQlgbkbdJxf2KBAqnHcevSij0qfLzkrR8PnyyZtaXWiM3AQi9infYE2YvymjznyJAigQHwWOniiVD1/fPBETgfPysY7YX1kPwDw+dZuUokBSgdDgXHvFFb7dbPuPlMiTHSdeaJAIwJUDcDpNdAGi0jPudHZTFuyDAigQvgJ3/XsEcG7JTFvpYrubzwHz8OsqKUCBfBQIDc77TFiec3oV0hv1mSGfqEZPupvArPvoLw9sKIACZikwds4G4Bw4z/iLMmBuVp0nN3YpEAqcf//+1+TsufynD1FIf6H7NCA9S+OkY/pPlpbZ5WhyiwIWKFB29px84bZ2wrAW978iuu3QMGE/wNyCIEAWjVYgFDgfPG21J6IeKymVZgPnyKert87Yg2BCsM0nD/pQLRsKoICZCjzdaRJwnqWDIp+4GfdjAHMz6zu5skuBwOH8Z3/tLuc8nnQ7CenM7nKxF6lum3F2OZncooBlCixevxc4B87LdUwB5pYFAbJrrAKBw/mYOet9E1Oh/613N8rNLwyWS6o0KRe04t4bkkv6b//XMDlTds43nTkxCqBANBTwuJ8jGpnKkorv3tvF2tieqR0AzLMYh69RIEYKBArnv6rbK7CVKncdPJ4Y8vLVO9tbE8h15cDnuk31/JeJGPmZpKIAChiuAHB+8RfSJKwD5oabnuxZp0CgcD55KcVP3wAAHkVJREFU0ZbABdbpGgdNXSXVnhskl1dtaiyof/vuzhKGvoEXKBdEARSwWgHgvDycA+ZWVwcyb6gCgcF5laf6hy7hwWMnRVfXu+aZAcaAui5GojPXMCtL6PYiASiAAgEoAJxfhPPrnh1I7A/Ac1wCBYJWIDA4n71yR9B5y3i9I8dPJXrU7351lFxRo13setR1rncdwrL38ImM+eRLFEABFDBJAeD8PTgHzE1yNXlBgfIKBALnOqQkyps+VLVi835pP2KB3NFouHz9rg6RhHUdlnPT84Ol/6QVVs7SEGUPkTYUQIFgFADOGwtgHozXuAoKhKWA73CuDynqlF9x2/YcOiE6s0zzN+bK31q9JVc91V++ckewD5fq/O1/fLxvYtjKuHkbpbjkdNxkJL0ogAIo4KkCtsM5YO6pnTgZCkRSAd/hXHuiTdpOnDojSzfuk+Ez1kqXMYukyYDZ8o/XpiQAvuZLw+XqpwfIlXV6Jv7pnO7fqtWp0r/v3NM58b2Cd9X6A+Uvr4yUJzpMlMb9Z0vv8ctkyuItojcHbCiAAiiAAuUVsBnOAfPyXuAvFDBVAV/h/NKrm8iqrQdM1Y58oQAKoAAKBKyArXAOmAdsNC6HAiEq4Cuc3990TIhZ49IogAIogAKmKWAjnAPmprmY/KBAZgV8g3N9eHHjrsOZr863KIACKIACKJCDArbBOWCegznYFQUMUcA3OK/bZpwhEpENFEABFECBqChgE5wD5lFxHelAgWAV8AXOP3Rdc9m+71iwOeFqKIACKIACxitgC5wD5sZbmQyiQFoFfIHzpztNSntBvkABFEABFECBfBWwAc4B83zdwXEoYIYCnsP5R29owaqVZniDXKAACqBA5BQwHc4B88hZjgShQOAKeA7nL/acHngmuCAKoAAKoIAdCpgM54C5HR4mlyiQTQFP4fyTN7WSQ8Uns12T71EABVAABVAgLwVMhXPAPC87cBAKGKmAp3D+ar9ZRopEplAABVAABaKhgIlwDphHw1ukAgWiooBncP65W9tKccnpqOSLdKAACqAAChiogGlwDpgbaFKyhAIFKuAZnLce8m6BSeFwFECBigocPVEqx09y01tRF/62VwGT4Bwwt9fH5BwFMingCZx/qWaRlJSeyXQdvkMBFMhDgaYD54iuG1C1/kApGj5fdh08nsdZzD/k7LnzMmvFDnmu21T5Re0eojc1bGYqYAqcA+Zm+pNcoYAXCngC551HL/IiLZwDBVCgggK/f+x1+X9XNb7w75IqTeTXj/SWhj2ny/Sl2+R02dkKR9jz56bdR6Tr2MVyZ6MRog+jp+r0+tvL7RHCspyaAOeAuWWmJbsokKMCBcP5N2t1shoQctSb3VHAtQIHjpbIpVc3KQedqQCq73VdgWrPDZImA2YnYP3EKXN/wdq467D0m7hCard6S75Vq1NGXW5sMMi1zuwYLwXiDucK5qdOl8VLdFKLAigQqAIFw3mfCfRQBVpiXMwaBbT3tyKMZ/v7smuaypV1ekq9dhOk25tLZN6aXbEccrbn0AmZMH+TNBs4R2o0HCpfuK1dTlpcXrWp6M0Nm3kKxBnOAXPz/EiOUMAPBQqC8+/f/5roWE82FEAB7xW4o9HwnIA0HbjrUJjv3dtFar40XBp0nZKA9qlLtsq2fcfk3Pnw6u+ZsnOyYedhGT9vk3QYuUCe7DhRrq0/UK6okRuIp8t3lzEMt/PeleGfMa5wDpiH7x1SgAJxUaAgOB88bXVc8kk6USBWCuhY8k9UKz+OOh2EFvK59jB/9c728pt6feTWF4fKo0UT5OW+MxMPn+qvYiNnrpMpi7fIwnV7ZPmmfaLjvPXf5t1H5HDxqcS/LXuOXvh81dYDiX0V/kfNWifa+99+xAL59+sz5ZG24+WWfw6RX9XtJV+5o71oL38hac927P892S9WZU5i3SkQRzgHzN2VLXuhAAq8p0DecP6Th7uH2utGAaKAyQq8vWCzr+CaDWxN+F5/Mdixv9hkm1iZt7jBOWBupU3JNAoUpEDecP7m3A0FXZiDUQAF0ivwWNHbwHnKLDX53iyw/kJ6j8X1mzjBOWAeV5eRbhQIV4G84Fx/lg5xqGq4inF1FAhAAZ0FKV8g5biLU09qrGIzS4G4wDlgbpbvyA0KBKlAXnCuY1DZUAAF/FFAx3YD2BcBu1At1u845E9BcdZQFIgDnAPmoViDi6KAMQrkDOd/eoKHrIwpfTISSQUa958NnHswpCUJ9a/0mxXJciZR+SkQdTi//h9vMI95fkXLUSiAAv9RIGc4n7NqJ+KhAAr4qIDOnJIES14L70HXKV/ZzFEgynAOmJvjM3KCAmEqkBOc3/zC4DDTyrVRwHgF9h05ITrLCFBeOJSnaqhDhdjMUCCqcA6Ym+EvcoECUVDANZy/v0pjWbx+bxTSTBpQwFgFeo1fBph7OKQlCegvdJ9mrGdsy1gU4Rwwt82F5BcF/FXANZzf2WiEvynh7NYqcKykNLFQjbUCpGRcV/FMAiWv3vWe6+w3zDCVYrQYv40anAPmMTYTSUeBiCrgGs4b9pwuZWfPRTQbJCuuCuw9fCKxYmTXsYvjmgXP0l165qx8vFpL4NyHnnO90ZnL8zKeeTXME0UJzgHzMJ3AtVHAXAVcw7k2bj94oGtiOW9z5SBnQSqgq2B+vkZb+dB1zeXI8VNBXjqS15owfxNg7hOYa/x6suPESJY7icpNgajAOWCeW7mxNwqggHsFcoLz5M/sv36kt0xfus39VdgTBVIU0OEFzQbOkUuvfu/Bx7+8MjLlW3vf1ms3ATj3Ec6/eHs7OXvuvL0GMyTnUYBzwNwQM5ENFIioAnnBeRLSb2wwSOat2RXRrJGsKCpw9ESp3NZwWDkIHTdvYxSTGnia/uvPHcvpkqxnvHo39pwF1AK3tecXDBvOAXPPi5QTogAKVFCgIDhPQkPV+gOB9ArC8mdlBfRG7jv3dC4HoF+uWURvpogs3ciqoMl44udr7VZvVTYmn8RKgTDhHDCPlVVILArEVgFP4DzZmN70/GCZuXx7bMUg4f4ooEMJGvWZIZdd07QcmKtv/vHaFH8uGrOzvtpvViVtkvWKV+96zj9TvY2cLjsbM3eQ3FQFwoJzwDy1FHiPAijgpwKewnkSIn7/2OsyevZ6OcfcZX6WXSzOrYu//O/fe6cFz5Vb9sciH34nklVBvQPwZBxK9zp2zga/i5Pz+6hAGHAOmPtYoJwaBVCgkgK+wHmyUfzhA12l57ilcup0WaUL84HZCui0gP/q9Y5cXrVyb3nSH7+s28tsEVzmTqeTZFXQ4OD8nsajXZYMu0VRgaDhHDCPogtIEwqYrYCvcJ6EsM/d2lZ0hb7t+46ZrSa5SyigUwL+932vpe0tT/qiw8gFKCaSuIFNasKr/5D+sRtbSknpGbwXUwWChHPAPKYmIdkoEHMFAoHzJHDomOM7Gg1PTMPIiJeYO8ch+Rt2HpbqLwzJCuXqhw9UbSYHj510OIt9H1WcvSZZX3j1D9QHT1ttn9EMyXFQcA6YG2IYsoECMVQgUDhPhY3v3dtFmr8xV/YcOhFD2UhyqgL7jpxILPDywWubuQJz9cHt/xqWegpr3+uQL+3JTa0bvPcPypPa6g0RWzwVCALOAfN4eoNUo4ApCoQG58lGUsck12g4VPQhrTNl50zR1Yp8HC4+lRiu9NEbWuQMl/rAMJuIzvGerAu8+g/lSY11VVqdc58tfgr4DeeAefw8QYpRwDQFQofzZGOprzo2/dGiCTJ75Q5h2Et0rbb74HFp0HWKfKJaq7zA8ooa7bgR+0/xsipocECeGmv0fe/xy6JbyUhZWgX8hHPAPK3sfIECKBCgApGC89TG81u1OknDntNlyYa9AcrBpTIpsHrrAflbq7ckl+ErqWWafP9Ux0mZLmPNd3oD+vW7OuR1g5PUktf84V5BjC1+CvgF5zc0eIOZxeJnB1KMAkYqEFk4T4UOXdb8yY4TZdaKHcydHrANdQEhHXKkq8C+v0r+IJRantxwvVeIqkOqLrz3xl9uddQH1HUaS7Z4KeAHnAPm8fIAqUUB0xWIBZynNra63LsuwT1i5lopLjltevmElr9VWw/I892mypdqFnkKkD99uHtoeYrahV9hVVBPvZUaJ9y+7zRqYdRsQXqyKOA1nAPmWQTnaxRAgcAViB2cpza6+jBplaf6S4tBcxPDX1iRtDD/7NhfLG2HzZP/qd3TN2hqPeTdwhJp0NGZVk5N9Tnv/etR/+PjfQ1ylB1Z8RLOAXM7PEMuUSBuCsQazitCy8ertUwMv2g2cI4sXLeHITAu3Lhp9xEpGj5f/vB4X8+GrVQsl+TfOoyAqTPfKxR9qNarYUJJfXnNHeK1DLbuPeqiprBLVBTwCs4B86iUKOlAARSoqIBRcF4RTj5TvY1Ue26QvNx3pkxcuFmOlTB12qHikzJ0+hqp03qcfLNWJ996yCuWhf6tD/l2HbuYf2MXS9024wLV3qk8+Ow9mL+/6Rg8GaN6qbM9FepdwLwiCvA3CqBAlBQwGs4rBvBLqjSRHz3YTe5tMlpaDp4rkxZulv1HSqJUHp6nZcueozJg8kp5rOht+UXtHnLp1U0Kbtgq6srfuffYohma4YFwPACYe97McEIUQAGPFbAKztM1hvqQ6bX1ByYAVh8QU2jfvu+Yx1L7ezpdwGnNtoMyaOoqea7bVNFp4r5wW+E9TOk04/NwwALd0R0P5O8BwNzfdoizowAKeKMAcH5V+kD/4eubyw8e6JoAXZ0hRmfX6DtxRWKIzLJN+0THDZedDWZVU73OzgPFMmfVzsSwFH1wU6eXvLHBIPnOPZ1Fx3PTaKcvS7RBGzxgtwcAc2+ggbOgAAr4rwBwngHO3Tbmn6/RVr53bxe5sk5PueaZAXLri0PlnsajE+O6FaC1Jzv5r+nAOaIPrOq/xv1nX/hcV9zUceAPNR8rdzYakYDuXz/SOwHen67eGvD2oJzclif72Q1xlL955Q+Y+w8TXAEFUMA7BYBzoA/wxwN4AA8Y6wHA3Dtg4EwogALBKACc0ygb2yjTA2peDyhlSpnm4gHAPBiQ4CoogALeKgCcA+fAOR7AA3jAOA8A5t7CAmdDARQITgHgnEbZuEY5l5419qUnFg+Y5wHAPDiI4EoogALeKwCcA+fAOR7AA3jAGA8A5t6DAmdEARQIVgHgnEbZmEaZHlDzekApU8o0Fw8A5sECBFdDARTwRwHgHDgHzvEAHsADsfcAYO4PJHBWFECB4BUAzmmUY98o59Kzxr70xOIB8zwAmAcPD1wRBVDAPwWAc+AcOMcDeAAPxNYDgLl/gMCZUQAFwlEAOKdRjm2jTA+oeT2glCllmosHAPNwwIGrogAK+KsAcA6cA+d4AA/ggdh5ADD3Fw44OwqgQHgKAOc0yrFrlHPpWWNfemLxgHkeAMzDgwaujAIo4L8CwDlwDpzjATyAB2LjAcDcfzDgCiiAAuEqAJzTKMemUaYH1LweUMqUMs3FA4B5uMDA1VEABYJRADgHzoFzPIAH8EDkPQCYBwMFXAUFUCB8BYBzGuXIN8q59KyxLz2xeMA8DwDm4cMCKUABFAhOAeAcOAfO8QAewAOR9QBgHhwQcCUUQIFoKACc0yhHtlGmB9S8HlDKlDLNxQM3Nhgkp06XRaO1JBUogAIoEJACwDlwDpzjATyAByLnAcA8IArgMiiAApFTADinUY5co5xLzxr70hOLB8zzgG1gfvDYSVmyYa9MWrhZxsxZL+PmbZRpS7bKis37paT0TOTAgQShAAr4qwBwDpwD53gAD+CByHjAdDA/f15k1ood0qjPDLnmmQHymeptsmr/tbs6SM2Xhku7YfNl3Y5D/lIBZ0cBFAhdAeCcRjlrw0DPpHk9k5QpZRpFD5gM5tv2HZPnuk0VBe1Ctf+f2j2laPh8KS45HTpEkAAUQAHvFQDOgfOCG4pCGxqOBxTxAB4wFcw37josd786Si67pqnnsfZTN7eWF3tOl2Mlpd7TAWdEARQITQHgHDj3vMEAtAAtPIAHcvGAiWB+srRMGnSdIh+8tlnWGPvlmkWJIS73NRktdVqPS/yr9coo+U29PqIAnk3LL9zWTnqNXxYaSHBhFEABbxUAzoHzrIE/W8PA94AYHsAD+XrARDBfsHa3fP/+19LG1vdXaSxXPdVfur+5RLbuPZqxVdcx6vqwaJMBs+UHD3RNe07V/+YXBsvewycyno8vUQAFoq8AcA6cZwz2+Ta4HAes4QE8kM0DJoJ5v4kr0vaWX3p1E7m/6RhZu/1g3nSgM7r88fG+aeP2V+9sL4vX7837/ByIAigQvgLAOXCeNshna1j5HvjCA3ggXw+YCOav9psl2ivupIk+xLlw3R7PWv2BU1aKDmdxutZHb2ghby/Y7Nm1OBEKoECwCgDnwLljcHcK+Hzm3OiiC7rggdw8oGBeeuZssK2dz1drOXhu2liq48hPl3mf3/1HSqRq/YGO1/3w9c1l8qItPuea06MACvihAHAOnDsGdmAjN9hAL/TCA+48YCKY68OYTuV/SZUm0nn0Ij/a7gvnLDt7Tu5tMtrx+h+7saUs37Tvwr68QQEUiIcCwDlw7hjUnRoaPnMHH+iETnjA2QMmgvm7q3c5jjHX4S36wGfFbfbKHYmVQHXseLZ/em4dn3723PmKpyn397nz5xNj2Z189+27O8vh4lPl9ucPFECBaCsAnAPnwDkewAN4wHcPmAjmJaVn5Dv3dHbU7qU+Mxxb//++L/0sLk5wrZ996Lrm8vvHXpe2w+bJgaMljuc9U3YuMR2j0zm0Z50NBVAgPgoA5zTKjg2LU4DnM+feQHRBFzyQ2QMmgrk28892mewYP695ZoBob7bTlg+cp/pL5z3vMHKB06kT0yh+8Xbnh0TfnLvB8Rg+RAEUiJ4CwDlw7ti4pDYGvM8MHuiDPnggvQdMBfPNu4/IB6pWXmBIx3nv2F+ctrUvFM6TXnus6G3Ha4ycuc4xpuu869mGxziekA9RAAUCVwA4B84dA3myAeA1PXSgDdrggcweMBXMtaV+sPlYx9ipiwVl2irC+V9bvpmYYlGnWUz9N3P5dnljyiqp126C6AqiTl7TOdWdtuuedZ7Bpc+E5U678xkKoEDEFADOgXPHoO/UEPBZZhBBH/TBAxc9YDKY7ztywrHX/LO3tJETp85kbOYrwnnDntMz7q9fao930fD5ctk1TcvF66/d1cFx+MzcVTvL7Zf05c/+2j3rtdgBBVAgfAWAc+DcMYgngzmvF2EDLdACD7jzgMlgrs12ujnNX3QB2vnAeRIV2g2bXyleaw+70/aHNKuILli722l3PkMBFIiQAsA5cF4p2AMg7gAEndAJD1T2gOlgru33lXV6OsbN9TsOZW3eC4FzXcio4jj3rmMXO15Tp3F08mf9LpMd9+dDFECB6CgAnAPnjgHcKajzWWUQQRM0wQMXPWADmOuqnLq4UMVy//nferhq2QuBc72ADmVJvfbLfWc6XvdQ8Um59OrK6fzJwwxtcRSMD1EgQgoA58B5uUCfGvR5fxE60AIt8EBmD9gA5tp2D52+xjFmPt1pkqumvRA4P3W6rNK4844jF6a97v/UrtzDr4sj6Q0GGwqgQHQVAM6Bc8eGBhDJDCLogz544KIHbAFzbcp1cSGnsh8yfbWrlr4QONf5zSte+51l29Je99GiCZX21+OnLdma9hi+QAEUCF8B4Bw4dwzeFRsA/r4IImiBFnjgogdsAnNtsu/69wjHmLl04z5XLXo+cK7rGfWduEI+eG35edX/688dHWdrSSak/YjKMK/e7TQqfW978lheUQAFwlMAOAfOHRsa4OMifKAFWuABZw/YBubaVP/piX6OMfPI8VOuWvKKcJ5unvNJCzfL4Gmr5Z89pomOE3fyoC44lGkbPXu943Ev9X4n02F8hwIoELICwDlw7hi8nRoCPnMGFHRBFxs9YCOYa3v9i9o9KsVMHcftdvXNinCer3fSPQiayhQ6fMXp/G7Hx6eei/cogALBKQCcA+eOwdspoPMZEIoH8IB6wFYw16b5Bw90rRQzL6/a1HWrXSic60JHA6esdHW9uWkWI6rbZpyr49kJBVAgHAWAc+C8UkMDgAFgeAAPpPNAtecGSemZs+G0WBG46i/r9nKMmWfKzrlKXT5wrj3zurpn8zfmyrGSUlfX0Z0mL9rimFbmOnctITuiQCgKAOfAuWPwTtcw8znQhgfs9YDtYK6tdJWn+jvGzIPHTrpqxCvCuWqqCwkl/3UZs0g+Ua1VuWvkO0Z8+Iy15c6TrLv/ft15bnRXGWAnFEAB3xUAzoFzx+CdDOK82gtilD1ln+oBwPy99vi+JqMdY+aCtbtdNdgV4bxhz+mVjisaPr/cNT5yfQvZuvdopf2yfdBy8Nxy50mWZ6/xy7IdyvcogAIhKgCcA+eOwTsZxHkF0PAAHgDML7bSTQfOcYyZ/SetuLhThndu4FwfLq24gJBO4ZjrVqf1OMe0zl21M9dTsT8KoECACgDnwLlj8AbIADI8gAfUA4B5+Rb5rXc3OsZMXfDHzeYGzvU889bskkuqNCl3LZ1eMZftxw91K3e8ludl1zTNadx6LtdjXxRAAW8UAM6B80rBGygDyvAAHgDMnRvZ4pLTorOzVKwjP3ygq/MBFT51C+d62N/bjC93ne/f/5qcLnP3MO6+IydEHyStmM7f1utTIUX8iQIoEDUFgHPgvFLwrhjM+btyA4cmaGK6B+gxT99cp1uIaNXWA+kP+s83ucD54eJTckWNduVidLOBc7JeQ3foPHpRueOSfn2pzwxXx7MTCqBAeAoA58C5YwBPBnJegVA8YJ8HAPPMjfJrYxY7xs3nu03NfKCI5ALnerK+E1eUu9ZHb2gh2/cdy3od7SGvWHe1J33t9oNZj2UHFECBcBUAzoHzSgG8YkDnb/vgjDK3t8wB8+yN8tETpaIzqFSsJ5+u3lqOnzyd8QS5wvn58yJXPz2g3LXubJT54dB3V+8qt38ynX94vG/GtPElCqBANBQAzoFzxyCeDOa82gtplL19ZQ+Yu2+Yn+gw0TF2NhkwO+NJcoVzPZkOl/lA1Wblrjcxw8Oh19YfWG7fZF0eMXNtxrTxJQqgQDQUAM6Bc8cgngzmvNoHaJS5nWUOmOfWKO8+eFw+fH3zSvHzYze2lJ0HitOeLB8415PpkJnUuqnncXo4dNSsdeX2Sx6jUzNqLzwbCqBA9BUAzoFzx0CeDOi82glqlLtd5Q6Y59dYN+ozwzF+Xv+PN9KCcL5wXlJ6Rr7xl47lrqdzrqduB46WyJdrFpXbR+uyjjWftmRr6q68RwEUiLACwDlwXimQA2Z2gRnlbXd5A+b5t9Dac/2jByvPJa51qnF/5+Et+cK5pnLMnPXl4rU+HLrtPw+Hlp09Jzc0eKPc98m6rYsRsaEACsRHAeAcOHcM5smgzqvd4Eb5m13+gHnhjfWSDXsdHw7V3mqnVUNnr9whuphQ8t/GXYdzSsQ7y7ZdOFbPsXXv0UQvfd02zquB6tzox0pKc7oGO6MACoSrAHAOnAPneAAPWOgBwNy7xrdfhekOkze1l17dRPpMWO7dhRzOdPbceand6i3HOvyJaq1kzTamTnSQjY9QINIKAOcWNsrJhoNXs3tFKV/KN50HAHPv22VdHMhJb+1Bf6H7NFGI9no7eOxk2qEs+rAq48y9VpzzoUAwCgDnwLljg+LUyPAZsIcH4u8BwNy/xvWVfrPSxtPfPfq6rNi837OLj5y5Tr56Z3vH6+lY9AnzN3l2LU6EAigQrALAOXDuGNyBsPhDGGVIGVb0AGDufwPbe/yySnOSJ8vh8qpNRR/O3Lz7SN4JmbVih6Sbx1yv86WaRbJw3Z68z8+BKIAC4SsAnAPnwDkewAMWeOCm5wdL6Zmz4bc6FqRgzqqd8q1andLWKx2LrtMt6nj0XQePZ1Vk5Zb90mrwu/Kzv3ZPe04Fc4V2N+fLekF2QAEUCFUB4NyCRjnZa8MrPal4wE4PAObBt7PFJaflkbbjRUE8W737rz93lOueHSgPNR8ruvJovXYT5L4mo+WPj/eVz97SJuvxn7q5tbQfsSDt3OrB554rogAKFKIAcA6cZw382RoWvrcT+Cj3eJQ7YF5IE1n4scs37ZMbGwxKLATkdZ350HXN5dGiCbL/SEnhCeUMKIACkVEAOAfOgXM8gAcM9QBgHpm2VhTSH27xpuj0hoVC+tfv6iANe06XvYdPRCeDpAQFUMAzBd6n4+L4hwZ4AA/gAbM8UOuVUXKm7JxnjQUn8kaBU6fLZMTMtYkhLz98oKsrUNcHSXW2F52SUR8IPe/9rIzeZI6zoAAKeKLA/wcRaUlxsUAo1AAAAABJRU5ErkJggg==;" vertex="1" parent="fuH1si9u7OqA3oqqeqV9-9">
          <mxGeometry y="12.13829439252336" width="66.30740362149534" height="32.84170560747664" as="geometry" />
        </mxCell>
        <mxCell id="fuH1si9u7OqA3oqqeqV9-4" value="" style="shape=image;html=1;verticalAlign=top;verticalLabelPosition=bottom;labelBackgroundColor=#ffffff;imageAspect=0;aspect=fixed;image=https://cdn2.iconfinder.com/data/icons/flags/flags/48/united-kingdom-great-britain.png" vertex="1" parent="fuH1si9u7OqA3oqqeqV9-9">
          <mxGeometry x="56.69291338582677" width="30.87120327102804" height="30.87120327102804" as="geometry" />
        </mxCell>
        <mxCell id="fuH1si9u7OqA3oqqeqV9-15" value="Local Niche Solutions" style="rounded=1;whiteSpace=wrap;html=1;verticalAlign=top;strokeWidth=1;strokeColor=#020912;dashed=1;fontSize=18;" vertex="1" parent="RU4EYPsR_D7hi8bJ4MLe-1">
          <mxGeometry x="-425" y="110" width="275" height="270" as="geometry" />
        </mxCell>
      </root>
    </mxGraphModel>
  </diagram>
</mxfile>
